%TF.GenerationSoftware,KiCad,Pcbnew,10.0.6-10.0.6~ubuntu24.04.1*%
%TF.CreationDate,2026-08-29T14:17:58+02:00*%
%TF.ProjectId,Tutorial03-ESP32-IoT-4-layer-PCB,5475746f-7269-4616-9c30-332d45535033,rev?*%
%TF.SameCoordinates,Original*%
%TF.FileFunction,Copper,L1,Top*%
%TF.FilePolarity,Positive*%
%FSLAX46Y46*%
G04 Gerber Fmt 4.6, Leading zero omitted, Abs format (unit mm)*
G04 Created by KiCad (PCBNEW 10.0.6-10.0.6~ubuntu24.04.1) date 2026-08-29 14:17:58*
%MOMM*%
%LPD*%
G01*
G04 APERTURE LIST*
G04 Aperture macros list*
%AMRoundRect*
0 Rectangle with rounded corners*
0 $1 Rounding radius*
0 $2 $3 $4 $5 $6 $7 $8 $9 X,Y pos of 4 corners*
0 Add a 4 corners polygon primitive as box body*
4,1,4,$2,$3,$4,$5,$6,$7,$8,$9,$2,$3,0*
0 Add four circle primitives for the rounded corners*
1,1,$1+$1,$2,$3*
1,1,$1+$1,$4,$5*
1,1,$1+$1,$6,$7*
1,1,$1+$1,$8,$9*
0 Add four rect primitives between the rounded corners*
20,1,$1+$1,$2,$3,$4,$5,0*
20,1,$1+$1,$4,$5,$6,$7,0*
20,1,$1+$1,$6,$7,$8,$9,0*
20,1,$1+$1,$8,$9,$2,$3,0*%
G04 Aperture macros list end*
%TA.AperFunction,SMDPad,CuDef*%
%ADD10C,1.000000*%
%TD*%
%TA.AperFunction,SMDPad,CuDef*%
%ADD11RoundRect,0.250000X-0.475000X0.250000X-0.475000X-0.250000X0.475000X-0.250000X0.475000X0.250000X0*%
%TD*%
%TA.AperFunction,SMDPad,CuDef*%
%ADD12RoundRect,0.250000X0.262500X0.450000X-0.262500X0.450000X-0.262500X-0.450000X0.262500X-0.450000X0*%
%TD*%
%TA.AperFunction,SMDPad,CuDef*%
%ADD13R,1.100000X0.800000*%
%TD*%
%TA.AperFunction,SMDPad,CuDef*%
%ADD14R,1.100000X1.000000*%
%TD*%
%TA.AperFunction,SMDPad,CuDef*%
%ADD15RoundRect,0.250000X0.450000X-0.262500X0.450000X0.262500X-0.450000X0.262500X-0.450000X-0.262500X0*%
%TD*%
%TA.AperFunction,ComponentPad*%
%ADD16R,1.700000X1.700000*%
%TD*%
%TA.AperFunction,ComponentPad*%
%ADD17C,1.700000*%
%TD*%
%TA.AperFunction,SMDPad,CuDef*%
%ADD18R,1.230000X1.800000*%
%TD*%
%TA.AperFunction,SMDPad,CuDef*%
%ADD19R,0.950000X2.150000*%
%TD*%
%TA.AperFunction,SMDPad,CuDef*%
%ADD20R,3.250000X2.150000*%
%TD*%
%TA.AperFunction,SMDPad,CuDef*%
%ADD21RoundRect,0.125000X-0.250000X-0.125000X0.250000X-0.125000X0.250000X0.125000X-0.250000X0.125000X0*%
%TD*%
%TA.AperFunction,HeatsinkPad*%
%ADD22R,3.400000X4.300000*%
%TD*%
%TA.AperFunction,SMDPad,CuDef*%
%ADD23R,1.000000X1.400000*%
%TD*%
%TA.AperFunction,SMDPad,CuDef*%
%ADD24RoundRect,0.100000X-0.495000X-0.100000X0.495000X-0.100000X0.495000X0.100000X-0.495000X0.100000X0*%
%TD*%
%TA.AperFunction,SMDPad,CuDef*%
%ADD25RoundRect,0.250000X0.475000X-0.250000X0.475000X0.250000X-0.475000X0.250000X-0.475000X-0.250000X0*%
%TD*%
%TA.AperFunction,SMDPad,CuDef*%
%ADD26RoundRect,0.250000X-0.262500X-0.450000X0.262500X-0.450000X0.262500X0.450000X-0.262500X0.450000X0*%
%TD*%
%TA.AperFunction,SMDPad,CuDef*%
%ADD27RoundRect,0.250000X-0.250000X-0.475000X0.250000X-0.475000X0.250000X0.475000X-0.250000X0.475000X0*%
%TD*%
%TA.AperFunction,SMDPad,CuDef*%
%ADD28RoundRect,0.150000X-0.150000X0.512500X-0.150000X-0.512500X0.150000X-0.512500X0.150000X0.512500X0*%
%TD*%
%TA.AperFunction,SMDPad,CuDef*%
%ADD29R,1.000000X5.500000*%
%TD*%
%TA.AperFunction,SMDPad,CuDef*%
%ADD30R,1.600000X3.000000*%
%TD*%
%TA.AperFunction,SMDPad,CuDef*%
%ADD31R,0.550000X0.570000*%
%TD*%
%TA.AperFunction,SMDPad,CuDef*%
%ADD32RoundRect,0.250000X-0.450000X0.262500X-0.450000X-0.262500X0.450000X-0.262500X0.450000X0.262500X0*%
%TD*%
%TA.AperFunction,SMDPad,CuDef*%
%ADD33R,0.910000X2.810000*%
%TD*%
%TA.AperFunction,SMDPad,CuDef*%
%ADD34R,1.500000X0.900000*%
%TD*%
%TA.AperFunction,SMDPad,CuDef*%
%ADD35R,0.700000X0.700000*%
%TD*%
%TA.AperFunction,ComponentPad*%
%ADD36C,0.600000*%
%TD*%
%TA.AperFunction,SMDPad,CuDef*%
%ADD37RoundRect,0.250000X0.250000X0.475000X-0.250000X0.475000X-0.250000X-0.475000X0.250000X-0.475000X0*%
%TD*%
%TA.AperFunction,SMDPad,CuDef*%
%ADD38RoundRect,0.150000X0.587500X0.150000X-0.587500X0.150000X-0.587500X-0.150000X0.587500X-0.150000X0*%
%TD*%
%TA.AperFunction,SMDPad,CuDef*%
%ADD39RoundRect,0.065000X0.065000X-0.355000X0.065000X0.355000X-0.065000X0.355000X-0.065000X-0.355000X0*%
%TD*%
%TA.AperFunction,SMDPad,CuDef*%
%ADD40RoundRect,0.065000X0.355000X-0.065000X0.355000X0.065000X-0.355000X0.065000X-0.355000X-0.065000X0*%
%TD*%
%TA.AperFunction,SMDPad,CuDef*%
%ADD41R,2.625000X2.625000*%
%TD*%
%TA.AperFunction,SMDPad,CuDef*%
%ADD42R,1.400000X1.000000*%
%TD*%
%TA.AperFunction,SMDPad,CuDef*%
%ADD43R,0.300000X1.200000*%
%TD*%
%TA.AperFunction,ComponentPad*%
%ADD44C,0.650000*%
%TD*%
%TA.AperFunction,SMDPad,CuDef*%
%ADD45R,0.200000X1.000000*%
%TD*%
%TA.AperFunction,ComponentPad*%
%ADD46O,1.050000X2.100000*%
%TD*%
%TA.AperFunction,ComponentPad*%
%ADD47C,1.208000*%
%TD*%
%TA.AperFunction,SMDPad,CuDef*%
%ADD48RoundRect,0.056250X0.168750X-0.188750X0.168750X0.188750X-0.168750X0.188750X-0.168750X-0.188750X0*%
%TD*%
%TA.AperFunction,SMDPad,CuDef*%
%ADD49RoundRect,0.150000X-0.587500X-0.150000X0.587500X-0.150000X0.587500X0.150000X-0.587500X0.150000X0*%
%TD*%
%TA.AperFunction,SMDPad,CuDef*%
%ADD50R,1.000000X1.500000*%
%TD*%
%TA.AperFunction,SMDPad,CuDef*%
%ADD51R,0.700000X1.500000*%
%TD*%
%TA.AperFunction,SMDPad,CuDef*%
%ADD52R,1.500000X2.800000*%
%TD*%
%TA.AperFunction,SMDPad,CuDef*%
%ADD53R,1.800000X1.230000*%
%TD*%
%TA.AperFunction,SMDPad,CuDef*%
%ADD54RoundRect,0.062500X-0.062500X0.350000X-0.062500X-0.350000X0.062500X-0.350000X0.062500X0.350000X0*%
%TD*%
%TA.AperFunction,SMDPad,CuDef*%
%ADD55RoundRect,0.062500X-0.350000X0.062500X-0.350000X-0.062500X0.350000X-0.062500X0.350000X0.062500X0*%
%TD*%
%TA.AperFunction,HeatsinkPad*%
%ADD56R,2.500000X2.500000*%
%TD*%
%TA.AperFunction,ViaPad*%
%ADD57C,0.600000*%
%TD*%
%TA.AperFunction,Conductor*%
%ADD58C,0.300000*%
%TD*%
%TA.AperFunction,Conductor*%
%ADD59C,0.500000*%
%TD*%
%TA.AperFunction,Conductor*%
%ADD60C,0.254000*%
%TD*%
%TA.AperFunction,Conductor*%
%ADD61C,0.400000*%
%TD*%
%TA.AperFunction,Conductor*%
%ADD62C,0.800000*%
%TD*%
%TA.AperFunction,Conductor*%
%ADD63C,0.200000*%
%TD*%
%TA.AperFunction,Conductor*%
%ADD64C,0.250000*%
%TD*%
%TA.AperFunction,Conductor*%
%ADD65C,1.000000*%
%TD*%
%TA.AperFunction,Conductor*%
%ADD66C,0.600000*%
%TD*%
G04 APERTURE END LIST*
D10*
%TO.P,TP4,1,1_1*%
%TO.N,/ESP-32-C3-02/CS_SD*%
X177170000Y-85610000D03*
%TD*%
D11*
%TO.P,C10,1*%
%TO.N,GND*%
X133198830Y-91457500D03*
%TO.P,C10,2*%
%TO.N,+3.3V*%
X133198830Y-93357500D03*
%TD*%
D12*
%TO.P,R1,1*%
%TO.N,Net-(U1-~{TE})*%
X111332500Y-108200000D03*
%TO.P,R1,2*%
%TO.N,GND*%
X109507500Y-108200000D03*
%TD*%
%TO.P,R17,1*%
%TO.N,+3.3V*%
X144122500Y-75640000D03*
%TO.P,R17,2*%
%TO.N,Net-(U6-~{HOLD}{slash}~{RESET}(IO3))*%
X142297500Y-75640000D03*
%TD*%
D11*
%TO.P,C8,1*%
%TO.N,+3.3V*%
X153710000Y-70390000D03*
%TO.P,C8,2*%
%TO.N,GND*%
X153710000Y-72290000D03*
%TD*%
D13*
%TO.P,Q1,1*%
%TO.N,GND*%
X107235000Y-76750000D03*
%TO.P,Q1,2*%
%TO.N,N/C*%
X107235000Y-75650000D03*
D14*
%TO.P,Q1,3*%
%TO.N,/ESP-32-C3-02/PHOTO_C*%
X103725000Y-76200000D03*
%TD*%
D15*
%TO.P,R9,1*%
%TO.N,/CHARGING*%
X113270000Y-103132500D03*
%TO.P,R9,2*%
%TO.N,Net-(LED1R1-K)*%
X113270000Y-101307500D03*
%TD*%
D16*
%TO.P,J4,1,Pin_1_1*%
%TO.N,+3.3V*%
X132174523Y-64720000D03*
D17*
%TO.P,J4,2,Pin_2_2*%
%TO.N,/ESP-32-C3-02/SCL*%
X129634523Y-64720000D03*
%TO.P,J4,3,Pin_3_3*%
%TO.N,/ESP-32-C3-02/SDA*%
X127094523Y-64720000D03*
%TO.P,J4,4,Pin_4_4*%
%TO.N,GND*%
X124554523Y-64720000D03*
%TD*%
D18*
%TO.P,C3,1*%
%TO.N,+5V*%
X105437946Y-86910000D03*
%TO.P,C3,2*%
%TO.N,GND*%
X105437946Y-89530000D03*
%TD*%
D19*
%TO.P,VR1,1,GND_1*%
%TO.N,GND*%
X115237946Y-86520000D03*
%TO.P,VR1,2,VOUT_2_2*%
%TO.N,+3.3V*%
X112937946Y-86520000D03*
%TO.P,VR1,3,VIN_3*%
%TO.N,+5V*%
X110637946Y-86520000D03*
D20*
%TO.P,VR1,4,VOUT_4_4*%
%TO.N,+3.3V*%
X112937946Y-92320000D03*
%TD*%
D21*
%TO.P,U6,1,~{CS}_1*%
%TO.N,/ESP-32-C3-02/CS*%
X142110000Y-77735000D03*
%TO.P,U6,2,DO(IO1)_2*%
%TO.N,Net-(U6-DO(IO1))*%
X142110000Y-79005000D03*
%TO.P,U6,3,~{WP}(IO2)_3*%
%TO.N,Net-(U6-~{HOLD}{slash}~{RESET}(IO3))*%
X142110000Y-80275000D03*
%TO.P,U6,4,GND_4*%
%TO.N,GND*%
X142110000Y-81545000D03*
%TO.P,U6,5,DI(IO0)_5*%
%TO.N,/ESP-32-C3-02/MISO_DI*%
X147510000Y-81545000D03*
%TO.P,U6,6,CLK_6*%
%TO.N,/ESP-32-C3-02/SCLK*%
X147510000Y-80275000D03*
%TO.P,U6,7,~{HOLD}/~{RESET}(IO3)_7*%
%TO.N,Net-(U6-~{HOLD}{slash}~{RESET}(IO3))*%
X147510000Y-79005000D03*
%TO.P,U6,8,VCC_8*%
%TO.N,+3.3V*%
X147510000Y-77735000D03*
D22*
%TO.P,U6,9*%
%TO.N,N/C*%
X144810000Y-79640000D03*
%TD*%
D23*
%TO.P,LED2R1,1,K_1*%
%TO.N,Net-(LED2R1-K)*%
X108037946Y-92870000D03*
%TO.P,LED2R1,2,A_2*%
%TO.N,+3.3V*%
X109837946Y-92870000D03*
%TD*%
D12*
%TO.P,R16,1*%
%TO.N,Net-(U4-~{TXT}{slash}GPIO.2)*%
X126832500Y-98929292D03*
%TO.P,R16,2*%
%TO.N,Net-(LED5G1-K)*%
X125007500Y-98929292D03*
%TD*%
D24*
%TO.P,U2,1,IN+_1*%
%TO.N,Net-(U2-IN+)*%
X114280000Y-73510000D03*
%TO.P,U2,2,GND_2*%
%TO.N,GND*%
X114280000Y-74160000D03*
%TO.P,U2,3,IN-_3*%
X114280000Y-74810000D03*
%TO.P,U2,4,OUT_4*%
%TO.N,/ESP-32-C3-02/MIC_OUT*%
X116200000Y-74810000D03*
%TO.P,U2,5,VCC_5*%
%TO.N,+3.3V*%
X116200000Y-73510000D03*
%TD*%
D15*
%TO.P,R21,1*%
%TO.N,Net-(J3-DAT1)*%
X147600000Y-88862500D03*
%TO.P,R21,2*%
%TO.N,GND*%
X147600000Y-87037500D03*
%TD*%
D25*
%TO.P,C15,1*%
%TO.N,+3.3V*%
X125554523Y-69260000D03*
%TO.P,C15,2*%
%TO.N,GND*%
X125554523Y-67360000D03*
%TD*%
D26*
%TO.P,R13,1*%
%TO.N,Net-(U4-VBUS)*%
X135103483Y-97626439D03*
%TO.P,R13,2*%
%TO.N,GND*%
X136928483Y-97626439D03*
%TD*%
D27*
%TO.P,C20,1*%
%TO.N,GND*%
X114420000Y-79360000D03*
%TO.P,C20,2*%
%TO.N,/ESP-32-C3-02/MIC_OUT*%
X116320000Y-79360000D03*
%TD*%
D28*
%TO.P,U5,1,I/O1_1*%
%TO.N,/ESP-32-C3-02/USB_D-*%
X133550000Y-101587500D03*
%TO.P,U5,2,GND_2*%
%TO.N,GND*%
X132600000Y-101587500D03*
%TO.P,U5,3,I/O2_3*%
%TO.N,/ESP-32-C3-02/USB_D+*%
X131650000Y-101587500D03*
%TO.P,U5,4,I/O2_4*%
%TO.N,/USB_DP*%
X131650000Y-103862500D03*
%TO.P,U5,5,VBUS_5*%
%TO.N,/VBUS*%
X132600000Y-103862500D03*
%TO.P,U5,6,I/O1_6*%
%TO.N,/USB_DN*%
X133550000Y-103862500D03*
%TD*%
D26*
%TO.P,R6,1*%
%TO.N,Net-(U1-PROG3)*%
X120517500Y-112440000D03*
%TO.P,R6,2*%
%TO.N,GND*%
X122342500Y-112440000D03*
%TD*%
D29*
%TO.P,J2,1,1_1*%
%TO.N,GND*%
X113970000Y-114500000D03*
%TO.P,J2,2,2_2*%
%TO.N,/VBAT*%
X115970000Y-114500000D03*
D30*
%TO.P,J2,S1*%
%TO.N,N/C*%
X111570000Y-112250000D03*
%TO.P,J2,S2*%
X118370000Y-112250000D03*
%TD*%
D25*
%TO.P,C19,1*%
%TO.N,/ESP-32-C3-02/EN*%
X126397500Y-83500000D03*
%TO.P,C19,2*%
%TO.N,GND*%
X126397500Y-81600000D03*
%TD*%
D31*
%TO.P,S2,1*%
%TO.N,GND*%
X128610000Y-80470000D03*
%TO.P,S2,2*%
X131160000Y-80470000D03*
%TO.P,S2,3*%
%TO.N,/ESP-32-C3-02/EN*%
X128610000Y-81630000D03*
%TO.P,S2,4*%
X131160000Y-81630000D03*
%TD*%
D26*
%TO.P,R5,1*%
%TO.N,Net-(U1-PROG1)*%
X120517500Y-110370000D03*
%TO.P,R5,2*%
%TO.N,GND*%
X122342500Y-110370000D03*
%TD*%
D16*
%TO.P,J5,1,Pin_1_1*%
%TO.N,+3.3V*%
X180677260Y-86342409D03*
D17*
%TO.P,J5,2,Pin_2_2*%
%TO.N,/ESP-32-C3-02/GPIO8*%
X180677260Y-83802409D03*
%TO.P,J5,3,Pin_3_3*%
%TO.N,/ESP-32-C3-02/GPIO18*%
X180677260Y-81262409D03*
%TO.P,J5,4,Pin_4_4*%
%TO.N,/ESP-32-C3-02/GPIO19*%
X180677260Y-78722409D03*
%TO.P,J5,5,Pin_5_5*%
%TO.N,GND*%
X180677260Y-76182409D03*
%TD*%
D32*
%TO.P,R27,1*%
%TO.N,+3.3V*%
X116170000Y-69647500D03*
%TO.P,R27,2*%
%TO.N,Net-(U2-IN+)*%
X116170000Y-71472500D03*
%TD*%
D10*
%TO.P,TP5,1,1_1*%
%TO.N,/ESP-32-C3-02/CS*%
X177170000Y-82210000D03*
%TD*%
D18*
%TO.P,C4,1*%
%TO.N,+3.3V*%
X120437946Y-89540000D03*
%TO.P,C4,2*%
%TO.N,GND*%
X120437946Y-86920000D03*
%TD*%
D12*
%TO.P,R26,1*%
%TO.N,+3.3V*%
X116352500Y-67560000D03*
%TO.P,R26,2*%
%TO.N,Net-(C16-Pad2)*%
X114527500Y-67560000D03*
%TD*%
D32*
%TO.P,R25,1*%
%TO.N,+3.3V*%
X132932162Y-67385812D03*
%TO.P,R25,2*%
%TO.N,/ESP-32-C3-02/SCL*%
X132932162Y-69210812D03*
%TD*%
D15*
%TO.P,R34,1*%
%TO.N,/ESP-32-C3-02/RTS*%
X134490000Y-79862500D03*
%TO.P,R34,2*%
%TO.N,Net-(Q3-B)*%
X134490000Y-78037500D03*
%TD*%
D25*
%TO.P,C5,1*%
%TO.N,+3.3V*%
X117437946Y-87870000D03*
%TO.P,C5,2*%
%TO.N,GND*%
X117437946Y-85970000D03*
%TD*%
D33*
%TO.P,F1,1,1_1*%
%TO.N,/VBUS*%
X127970000Y-103150000D03*
%TO.P,F1,2,2_2*%
%TO.N,/+5V_USB*%
X124730000Y-103150000D03*
%TD*%
D34*
%TO.P,U3,1,3V3_1*%
%TO.N,+3.3V*%
X156112500Y-70205000D03*
%TO.P,U3,2,EN_2*%
%TO.N,/ESP-32-C3-02/EN*%
X156112500Y-71705000D03*
%TO.P,U3,3,IO4_3*%
%TO.N,/ESP-32-C3-02/SDA*%
X156112500Y-73205000D03*
%TO.P,U3,4,IO5_4*%
%TO.N,/ESP-32-C3-02/MIC_OUT*%
X156112500Y-74705000D03*
%TO.P,U3,5,IO6_5*%
%TO.N,Net-(U3-IO6)*%
X156112500Y-76205000D03*
%TO.P,U3,6,IO7_6*%
%TO.N,Net-(U3-IO7)*%
X156112500Y-77705000D03*
%TO.P,U3,7,IO8_7*%
%TO.N,/ESP-32-C3-02/GPIO8*%
X156112500Y-79205000D03*
%TO.P,U3,8,IO9_8*%
%TO.N,/ESP-32-C3-02/BOOT*%
X156112500Y-80705000D03*
%TO.P,U3,9,GND_9*%
%TO.N,GND*%
X156112500Y-82205000D03*
%TO.P,U3,10,IO10_10*%
%TO.N,/ESP-32-C3-02/CS*%
X173612500Y-82205000D03*
%TO.P,U3,11,RXD_11*%
%TO.N,/ESP-32-C3-02/TX_RX*%
X173612500Y-80705000D03*
%TO.P,U3,12,TXD_12*%
%TO.N,/ESP-32-C3-02/RX_TX*%
X173612500Y-79205000D03*
%TO.P,U3,13,IO18_13*%
%TO.N,/ESP-32-C3-02/GPIO18*%
X173612500Y-77705000D03*
%TO.P,U3,14,IO19_14*%
%TO.N,/ESP-32-C3-02/GPIO19*%
X173612500Y-76205000D03*
%TO.P,U3,15,IO3_15*%
%TO.N,/ESP-32-C3-02/SCL*%
X173612500Y-74705000D03*
%TO.P,U3,16,IO2_16*%
%TO.N,/ESP-32-C3-02/MISO_DO*%
X173612500Y-73205000D03*
%TO.P,U3,17,IO1_17*%
%TO.N,/ESP-32-C3-02/PHOTO_C*%
X173612500Y-71705000D03*
%TO.P,U3,18,IO0_18*%
%TO.N,/ESP-32-C3-02/CS_SD*%
X173612500Y-70205000D03*
D35*
%TO.P,U3,19,GND_19*%
%TO.N,GND*%
X164722500Y-75305000D03*
%TO.P,U3,20,GND_20*%
X165822500Y-75305000D03*
%TO.P,U3,21,GND_21*%
X166922500Y-75305000D03*
%TO.P,U3,22,GND_22*%
X164722500Y-76405000D03*
%TO.P,U3,23,GND_23*%
X165822500Y-76405000D03*
%TO.P,U3,24,GND_24*%
X166922500Y-76405000D03*
%TO.P,U3,25,GND_25*%
X164722500Y-77505000D03*
%TO.P,U3,26,GND_26*%
X165822500Y-77505000D03*
%TO.P,U3,27,GND_27*%
X166922500Y-77505000D03*
D36*
%TO.P,U3,28,GND_28*%
X165272500Y-75305000D03*
%TO.P,U3,29,GND_29*%
X166372500Y-75305000D03*
%TO.P,U3,30,GND_30*%
X164722500Y-75855000D03*
%TO.P,U3,31,GND_31*%
X165822500Y-75855000D03*
%TO.P,U3,32,GND_32*%
X166922500Y-75855000D03*
%TO.P,U3,33,GND_33*%
X165272500Y-76405000D03*
%TO.P,U3,34,GND_34*%
X166372500Y-76405000D03*
%TO.P,U3,35,GND_35*%
X164722500Y-76955000D03*
%TO.P,U3,36,GND_36*%
X165822500Y-76955000D03*
%TO.P,U3,37,GND_37*%
X166922500Y-76955000D03*
%TO.P,U3,38,GND_38*%
X165272500Y-77505000D03*
%TO.P,U3,39,GND_39*%
X166372500Y-77505000D03*
%TD*%
D32*
%TO.P,R24,1*%
%TO.N,+3.3V*%
X130866202Y-67377500D03*
%TO.P,R24,2*%
%TO.N,/ESP-32-C3-02/SDA*%
X130866202Y-69202500D03*
%TD*%
D11*
%TO.P,C17,1*%
%TO.N,/ESP-32-C3-02/BOOT*%
X126397500Y-78000000D03*
%TO.P,C17,2*%
%TO.N,GND*%
X126397500Y-79900000D03*
%TD*%
D32*
%TO.P,R19,1*%
%TO.N,+3.3V*%
X167305000Y-86935000D03*
%TO.P,R19,2*%
%TO.N,/ESP-32-C3-02/CS_SD*%
X167305000Y-88760000D03*
%TD*%
D27*
%TO.P,C6,1*%
%TO.N,/+5V_USB*%
X119350000Y-106210000D03*
%TO.P,C6,2*%
%TO.N,GND*%
X121250000Y-106210000D03*
%TD*%
D12*
%TO.P,R7,1*%
%TO.N,/POWER_CHARGING_GOOD*%
X111332500Y-104100000D03*
%TO.P,R7,2*%
%TO.N,Net-(LED3B1-K)*%
X109507500Y-104100000D03*
%TD*%
D26*
%TO.P,R20,1*%
%TO.N,/ESP-32-C3-02/SCLK*%
X152046163Y-76797353D03*
%TO.P,R20,2*%
%TO.N,Net-(U3-IO6)*%
X153871163Y-76797353D03*
%TD*%
%TO.P,R32,1*%
%TO.N,/ESP-32-C3-02/EN*%
X129085000Y-83450000D03*
%TO.P,R32,2*%
%TO.N,+3.3V*%
X130910000Y-83450000D03*
%TD*%
D10*
%TO.P,TP2,1,1_1*%
%TO.N,/ESP-32-C3-02/MISO_DO*%
X177170000Y-73180000D03*
%TD*%
D11*
%TO.P,C21,1*%
%TO.N,Net-(C21-Pad1)*%
X109570000Y-76810000D03*
%TO.P,C21,2*%
%TO.N,GND*%
X109570000Y-78710000D03*
%TD*%
D27*
%TO.P,C11,1*%
%TO.N,Net-(U4-VBUS)*%
X135083506Y-95574733D03*
%TO.P,C11,2*%
%TO.N,GND*%
X136983506Y-95574733D03*
%TD*%
D11*
%TO.P,C18,1*%
%TO.N,+3.3V*%
X111970000Y-73210000D03*
%TO.P,C18,2*%
%TO.N,GND*%
X111970000Y-75110000D03*
%TD*%
D37*
%TO.P,C13,1*%
%TO.N,GND*%
X161750000Y-88600000D03*
%TO.P,C13,2*%
%TO.N,+3.3V*%
X159850000Y-88600000D03*
%TD*%
D23*
%TO.P,LED6R1,1,K_1*%
%TO.N,Net-(LED6R1-K)*%
X126650803Y-94678757D03*
%TO.P,LED6R1,2,A_2*%
%TO.N,+3.3V*%
X124850803Y-94678757D03*
%TD*%
D25*
%TO.P,C14,1*%
%TO.N,+3.3V*%
X147160000Y-75840000D03*
%TO.P,C14,2*%
%TO.N,GND*%
X147160000Y-73940000D03*
%TD*%
D23*
%TO.P,LED2G1,1,K_1*%
%TO.N,Net-(LED2G1-K)*%
X109350000Y-99300000D03*
%TO.P,LED2G1,2,A_2*%
%TO.N,/+5V_USB*%
X111150000Y-99300000D03*
%TD*%
D10*
%TO.P,TP1,1,1_1*%
%TO.N,/ESP-32-C3-02/MISO_DI*%
X177170000Y-89110000D03*
%TD*%
D15*
%TO.P,R30,1*%
%TO.N,GND*%
X111970000Y-78672500D03*
%TO.P,R30,2*%
%TO.N,Net-(C21-Pad1)*%
X111970000Y-76847500D03*
%TD*%
D11*
%TO.P,C16,1*%
%TO.N,GND*%
X112570000Y-65860000D03*
%TO.P,C16,2*%
%TO.N,Net-(C16-Pad2)*%
X112570000Y-67760000D03*
%TD*%
D27*
%TO.P,C22,1*%
%TO.N,Net-(C22-Pad1)*%
X110420000Y-71260000D03*
%TO.P,C22,2*%
%TO.N,Net-(U2-IN+)*%
X112320000Y-71260000D03*
%TD*%
D12*
%TO.P,R15,1*%
%TO.N,Net-(U3-IO7)*%
X153871163Y-78819853D03*
%TO.P,R15,2*%
%TO.N,/ESP-32-C3-02/MISO_DI*%
X152046163Y-78819853D03*
%TD*%
D26*
%TO.P,R2,1*%
%TO.N,Net-(U1-THERM)*%
X119377500Y-108250000D03*
%TO.P,R2,2*%
%TO.N,GND*%
X121202500Y-108250000D03*
%TD*%
D18*
%TO.P,C9,1*%
%TO.N,GND*%
X130298830Y-89777500D03*
%TO.P,C9,2*%
%TO.N,+3.3V*%
X130298830Y-92397500D03*
%TD*%
D12*
%TO.P,R23,1*%
%TO.N,+3.3V*%
X105810000Y-78847500D03*
%TO.P,R23,2*%
%TO.N,/ESP-32-C3-02/PHOTO_C*%
X103985000Y-78847500D03*
%TD*%
D26*
%TO.P,R31,1*%
%TO.N,GND*%
X114457500Y-76960000D03*
%TO.P,R31,2*%
%TO.N,/ESP-32-C3-02/MIC_OUT*%
X116282500Y-76960000D03*
%TD*%
D12*
%TO.P,R35,1*%
%TO.N,Net-(U7-SDO)*%
X129252500Y-71040000D03*
%TO.P,R35,2*%
%TO.N,GND*%
X127427500Y-71040000D03*
%TD*%
D11*
%TO.P,C2,1*%
%TO.N,+5V*%
X108477946Y-85960000D03*
%TO.P,C2,2*%
%TO.N,GND*%
X108477946Y-87860000D03*
%TD*%
D15*
%TO.P,R12,1*%
%TO.N,/VBUS*%
X135295983Y-101281910D03*
%TO.P,R12,2*%
%TO.N,Net-(U4-VBUS)*%
X135295983Y-99456910D03*
%TD*%
D12*
%TO.P,R22,1*%
%TO.N,/ESP-32-C3-02/MISO_DO*%
X147372500Y-83640000D03*
%TO.P,R22,2*%
%TO.N,Net-(U6-DO(IO1))*%
X145547500Y-83640000D03*
%TD*%
D31*
%TO.P,S1,1*%
%TO.N,GND*%
X131185000Y-79030000D03*
%TO.P,S1,2*%
X128635000Y-79030000D03*
%TO.P,S1,3*%
%TO.N,/ESP-32-C3-02/BOOT*%
X131185000Y-77870000D03*
%TO.P,S1,4*%
X128635000Y-77870000D03*
%TD*%
D26*
%TO.P,R10,1*%
%TO.N,GND*%
X104275446Y-92670000D03*
%TO.P,R10,2*%
%TO.N,Net-(LED2R1-K)*%
X106100446Y-92670000D03*
%TD*%
D38*
%TO.P,Q2,1,B_1*%
%TO.N,Net-(Q2-B)*%
X135527500Y-83550000D03*
%TO.P,Q2,2,E_2*%
%TO.N,/ESP-32-C3-02/RTS*%
X135527500Y-81650000D03*
%TO.P,Q2,3,C_3*%
%TO.N,/ESP-32-C3-02/EN*%
X133652500Y-82600000D03*
%TD*%
D10*
%TO.P,TP3,1,1_1*%
%TO.N,/ESP-32-C3-02/SCLK*%
X177170000Y-95960000D03*
%TD*%
D39*
%TO.P,U4,1,RS485/GPIO.1_1*%
%TO.N,unconnected-(U4-RS485{slash}GPIO.1-Pad1)*%
X130568830Y-98762500D03*
%TO.P,U4,2,CLK/GPIO.0_2*%
%TO.N,unconnected-(U4-CLK{slash}GPIO.0-Pad2)*%
X131068830Y-98762500D03*
%TO.P,U4,3,GND_3*%
%TO.N,GND*%
X131568830Y-98762500D03*
%TO.P,U4,4,D+_4*%
%TO.N,/ESP-32-C3-02/USB_D+*%
X132068830Y-98762500D03*
%TO.P,U4,5,D-_5*%
%TO.N,/ESP-32-C3-02/USB_D-*%
X132568830Y-98762500D03*
D40*
%TO.P,U4,6,VDD_6*%
%TO.N,+3.3V*%
X133503830Y-97827500D03*
%TO.P,U4,7,VREGIN_7*%
X133503830Y-97327500D03*
%TO.P,U4,8,VBUS_8*%
%TO.N,Net-(U4-VBUS)*%
X133503830Y-96827500D03*
%TO.P,U4,9,~{RST}_9*%
%TO.N,Net-(U4-~{RST})*%
X133503830Y-96327500D03*
%TO.P,U4,10,NC_10*%
%TO.N,unconnected-(U4-NC-Pad10)*%
X133503830Y-95827500D03*
D39*
%TO.P,U4,11,~{SUSPEND}_11*%
%TO.N,unconnected-(U4-~{SUSPEND}-Pad11)*%
X132568830Y-94892500D03*
%TO.P,U4,12,GND_12*%
%TO.N,GND*%
X132068830Y-94892500D03*
%TO.P,U4,13,~{WAKEUP}_13*%
%TO.N,unconnected-(U4-~{WAKEUP}-Pad13)*%
X131568830Y-94892500D03*
%TO.P,U4,14,SUSPEND_14*%
%TO.N,unconnected-(U4-SUSPEND-Pad14)*%
X131068830Y-94892500D03*
%TO.P,U4,15,~{CTS}_15*%
%TO.N,/ESP-32-C3-02/DTR*%
X130568830Y-94892500D03*
D40*
%TO.P,U4,16,~{RTS}_16*%
%TO.N,/ESP-32-C3-02/RTS*%
X129633830Y-95827500D03*
%TO.P,U4,17,RXD_17*%
%TO.N,/ESP-32-C3-02/RX_TX*%
X129633830Y-96327500D03*
%TO.P,U4,18,TXD_18*%
%TO.N,/ESP-32-C3-02/TX_RX*%
X129633830Y-96827500D03*
%TO.P,U4,19,~{RXT}/GPIO.3_19*%
%TO.N,Net-(U4-~{RXT}{slash}GPIO.3)*%
X129633830Y-97327500D03*
%TO.P,U4,20,~{TXT}/GPIO.2_20*%
%TO.N,Net-(U4-~{TXT}{slash}GPIO.2)*%
X129633830Y-97827500D03*
D41*
%TO.P,U4,21,GND_21*%
%TO.N,GND*%
X131568830Y-96827500D03*
%TD*%
D42*
%TO.P,LED1R1,1,K_1*%
%TO.N,Net-(LED1R1-K)*%
X115520000Y-101150000D03*
%TO.P,LED1R1,2,A_2*%
%TO.N,/+5V_USB*%
X115520000Y-102950000D03*
%TD*%
D23*
%TO.P,LED3B1,1,K_1*%
%TO.N,Net-(LED3B1-K)*%
X109350000Y-101800000D03*
%TO.P,LED3B1,2,A_2*%
%TO.N,/+5V_USB*%
X111150000Y-101800000D03*
%TD*%
D15*
%TO.P,R3,1*%
%TO.N,Net-(J1-CC2)*%
X138700000Y-109362500D03*
%TO.P,R3,2*%
%TO.N,GND*%
X138700000Y-107537500D03*
%TD*%
D12*
%TO.P,R11,1*%
%TO.N,+3.3V*%
X136917634Y-93532128D03*
%TO.P,R11,2*%
%TO.N,Net-(U4-~{RST})*%
X135092634Y-93532128D03*
%TD*%
D32*
%TO.P,R14,1*%
%TO.N,/ESP-32-C3-02/MISO_DO*%
X151555000Y-86987500D03*
%TO.P,R14,2*%
%TO.N,Net-(J3-DAT0)*%
X151555000Y-88812500D03*
%TD*%
D12*
%TO.P,R28,1*%
%TO.N,Net-(C16-Pad2)*%
X110682500Y-67560000D03*
%TO.P,R28,2*%
%TO.N,Net-(C22-Pad1)*%
X108857500Y-67560000D03*
%TD*%
D25*
%TO.P,C1,1*%
%TO.N,/VBUS*%
X137550000Y-105725000D03*
%TO.P,C1,2*%
%TO.N,GND*%
X137550000Y-103825000D03*
%TD*%
D32*
%TO.P,R4,1*%
%TO.N,Net-(J1-CC1)*%
X126450000Y-105787500D03*
%TO.P,R4,2*%
%TO.N,GND*%
X126450000Y-107612500D03*
%TD*%
D43*
%TO.P,J1,A1,GNDA1_A1*%
%TO.N,GND*%
X129803250Y-106522500D03*
%TO.P,J1,A2,SSTXP1_A2*%
%TO.N,unconnected-(J1-SSTXP1-PadA2)*%
X130303250Y-106522500D03*
%TO.P,J1,A3,SSTXN1_A3*%
%TO.N,unconnected-(J1-SSTXN1-PadA3)*%
X130803250Y-106522500D03*
%TO.P,J1,A4,VBUSA1_A4*%
%TO.N,/VBUS*%
X131303250Y-106522500D03*
%TO.P,J1,A5,CC1_A5*%
%TO.N,Net-(J1-CC1)*%
X131803250Y-106522500D03*
%TO.P,J1,A6,DP1_A6*%
%TO.N,/USB_DP*%
X132303250Y-106522500D03*
%TO.P,J1,A7,DN1_A7*%
%TO.N,/USB_DN*%
X132803250Y-106522500D03*
%TO.P,J1,A8,SBU1_A8*%
%TO.N,unconnected-(J1-SBU1-PadA8)*%
X133303250Y-106522500D03*
%TO.P,J1,A9,VBUSA2_A9*%
%TO.N,/VBUS*%
X133803250Y-106522500D03*
%TO.P,J1,A10,SSRXN2_A10*%
%TO.N,unconnected-(J1-SSRXN2-PadA10)*%
X134303250Y-106522500D03*
%TO.P,J1,A11,SSRXP2_A11*%
%TO.N,unconnected-(J1-SSRXP2-PadA11)*%
X134803250Y-106522500D03*
%TO.P,J1,A12,GNDA2_A12*%
%TO.N,GND*%
X135303250Y-106522500D03*
D44*
%TO.P,J1,B1,GNDB1_B1*%
X135353250Y-107772500D03*
%TO.P,J1,B2,SSTXP2_B2*%
%TO.N,unconnected-(J1-SSTXP2-PadB2)*%
X134953250Y-108482500D03*
%TO.P,J1,B3,SSTXN2_B3*%
%TO.N,unconnected-(J1-SSTXN2-PadB3)*%
X134153250Y-108482500D03*
%TO.P,J1,B4,VBUSB1_B4*%
%TO.N,/VBUS*%
X133753250Y-107772500D03*
%TO.P,J1,B5,CC2_B5*%
%TO.N,Net-(J1-CC2)*%
X133353250Y-108482500D03*
%TO.P,J1,B6,DP2_B6*%
%TO.N,/USB_DP*%
X132953250Y-107772500D03*
%TO.P,J1,B7,DN2_B7*%
%TO.N,/USB_DN*%
X132153250Y-107772500D03*
%TO.P,J1,B8,SBU2_B8*%
%TO.N,unconnected-(J1-SBU2-PadB8)*%
X131753250Y-108482500D03*
%TO.P,J1,B9,VBUSB2_B9*%
%TO.N,/VBUS*%
X131353250Y-107772500D03*
%TO.P,J1,B10,SSRXN1_B10*%
%TO.N,unconnected-(J1-SSRXN1-PadB10)*%
X130953250Y-108482500D03*
%TO.P,J1,B11,SSRXP1_B11*%
%TO.N,unconnected-(J1-SSRXP1-PadB11)*%
X130153250Y-108482500D03*
%TO.P,J1,B12,GNDB2_B12*%
%TO.N,GND*%
X129753250Y-107772500D03*
%TO.P,J1,G1,GND/SHIELD_G1*%
X134553250Y-107772500D03*
%TO.P,J1,G2,GND/SHIELD_G2*%
X130553250Y-107772500D03*
D45*
%TO.P,J1,G3,GND/SHIELD_G3*%
X132553250Y-111102500D03*
%TO.P,J1,G4,GND/SHIELD_G4*%
X132553250Y-114202500D03*
D46*
%TO.P,J1,S1,GND/SHIELD_S1*%
X128283250Y-108922500D03*
%TO.P,J1,S2,GND/SHIELD_S2*%
X136823250Y-108922500D03*
%TO.P,J1,S3,GND/SHIELD_S3*%
X128283250Y-113652500D03*
%TO.P,J1,S4,GND/SHIELD_S4*%
X136823250Y-113652500D03*
%TD*%
D47*
%TO.P,MK1,GND*%
%TO.N,GND*%
X104700000Y-70510000D03*
%TO.P,MK1,OUT*%
%TO.N,Net-(C22-Pad1)*%
X106600000Y-70510000D03*
%TD*%
D48*
%TO.P,U7,1,GND_1*%
%TO.N,GND*%
X127259523Y-67207500D03*
%TO.P,U7,2,CSB_2*%
%TO.N,+3.3V*%
X127909523Y-67207500D03*
%TO.P,U7,3,SDI_3*%
%TO.N,/ESP-32-C3-02/SDA*%
X128559523Y-67207500D03*
%TO.P,U7,4,SCK_4*%
%TO.N,/ESP-32-C3-02/SCL*%
X129209523Y-67207500D03*
%TO.P,U7,5,SDO_5*%
%TO.N,Net-(U7-SDO)*%
X129209523Y-69147500D03*
%TO.P,U7,6,VDDIO_6*%
%TO.N,+3.3V*%
X128559523Y-69147500D03*
%TO.P,U7,7,GND_7*%
%TO.N,GND*%
X127909523Y-69147500D03*
%TO.P,U7,8,VDD_8*%
%TO.N,+3.3V*%
X127259523Y-69147500D03*
%TD*%
D49*
%TO.P,Q3,1,B_1*%
%TO.N,Net-(Q3-B)*%
X136752500Y-77800000D03*
%TO.P,Q3,2,E_2*%
%TO.N,/ESP-32-C3-02/BOOT*%
X136752500Y-79700000D03*
%TO.P,Q3,3,C_3*%
%TO.N,/ESP-32-C3-02/DTR*%
X138627500Y-78750000D03*
%TD*%
D23*
%TO.P,LED5G1,1,K_1*%
%TO.N,Net-(LED5G1-K)*%
X126650803Y-92238757D03*
%TO.P,LED5G1,2,A_2*%
%TO.N,+3.3V*%
X124850803Y-92238757D03*
%TD*%
D15*
%TO.P,R29,1*%
%TO.N,Net-(U2-IN+)*%
X114170000Y-71472500D03*
%TO.P,R29,2*%
%TO.N,GND*%
X114170000Y-69647500D03*
%TD*%
D50*
%TO.P,J3,1,CD/DAT3_1*%
%TO.N,/ESP-32-C3-02/CS_SD*%
X167280000Y-90960000D03*
%TO.P,J3,2,CMD_2*%
%TO.N,/ESP-32-C3-02/MISO_DI*%
X164780000Y-90960000D03*
%TO.P,J3,3,VSS1_3*%
%TO.N,GND*%
X162280000Y-90960000D03*
%TO.P,J3,4,VDD1_4*%
%TO.N,+3.3V*%
X159780000Y-90960000D03*
%TO.P,J3,5,CLK_5*%
%TO.N,/ESP-32-C3-02/SCLK*%
X157280000Y-90960000D03*
%TO.P,J3,6,VSS2_6*%
%TO.N,GND*%
X154780000Y-90960000D03*
%TO.P,J3,7,DAT0_7*%
%TO.N,Net-(J3-DAT0)*%
X152355000Y-90960000D03*
%TO.P,J3,8,DAT1_8*%
%TO.N,Net-(J3-DAT1)*%
X150655000Y-90960000D03*
%TO.P,J3,9,DAT2_9*%
X169780000Y-90960000D03*
D51*
%TO.P,J3,CD_IND,CD_IND_CD_IND*%
%TO.N,unconnected-(J3-PadCD_IND)*%
X149355000Y-90960000D03*
D52*
%TO.P,J3,G1,SHIELD_GND_G1*%
%TO.N,GND*%
X146755000Y-92760000D03*
%TO.P,J3,G2,SHIELD_GND_G2*%
X171855000Y-92760000D03*
%TO.P,J3,G3,SHIELD_GND_G3*%
X174055000Y-114260000D03*
%TO.P,J3,G4,SHIELD_GND_G4*%
X146755000Y-114260000D03*
D51*
%TO.P,J3,WP,WP_WP*%
%TO.N,unconnected-(J3-PadWP)*%
X148155000Y-90960000D03*
%TD*%
D53*
%TO.P,C12,1*%
%TO.N,GND*%
X154486583Y-87780000D03*
%TO.P,C12,2*%
%TO.N,+3.3V*%
X157106583Y-87780000D03*
%TD*%
D12*
%TO.P,R18,1*%
%TO.N,Net-(U4-~{RXT}{slash}GPIO.3)*%
X126811868Y-96906456D03*
%TO.P,R18,2*%
%TO.N,Net-(LED6R1-K)*%
X124986868Y-96906456D03*
%TD*%
D18*
%TO.P,C7,1*%
%TO.N,+3.3V*%
X150750000Y-71330000D03*
%TO.P,C7,2*%
%TO.N,GND*%
X150750000Y-73950000D03*
%TD*%
D12*
%TO.P,R8,1*%
%TO.N,/CHARGED*%
X111332500Y-106100000D03*
%TO.P,R8,2*%
%TO.N,Net-(LED2G1-K)*%
X109507500Y-106100000D03*
%TD*%
D32*
%TO.P,R33,1*%
%TO.N,/ESP-32-C3-02/DTR*%
X137690000Y-81537500D03*
%TO.P,R33,2*%
%TO.N,Net-(Q2-B)*%
X137690000Y-83362500D03*
%TD*%
D54*
%TO.P,U1,1,OUT_1*%
%TO.N,+5V*%
X115907500Y-104762500D03*
%TO.P,U1,2,VPCC_2*%
%TO.N,/+5V_USB*%
X115407500Y-104762500D03*
%TO.P,U1,3,SEL_3*%
%TO.N,GND*%
X114907500Y-104762500D03*
%TO.P,U1,4,PROG2_4*%
%TO.N,/+5V_USB*%
X114407500Y-104762500D03*
%TO.P,U1,5,THERM_5*%
%TO.N,Net-(U1-THERM)*%
X113907500Y-104762500D03*
D55*
%TO.P,U1,6,~{PG}_6*%
%TO.N,/CHARGING*%
X112970000Y-105700000D03*
%TO.P,U1,7,STAT2_7*%
%TO.N,/POWER_CHARGING_GOOD*%
X112970000Y-106200000D03*
%TO.P,U1,8,STAT1/~{LBO}_8*%
%TO.N,/CHARGED*%
X112970000Y-106700000D03*
%TO.P,U1,9,~{TE}_9*%
%TO.N,Net-(U1-~{TE})*%
X112970000Y-107200000D03*
%TO.P,U1,10,V_{SS}_10*%
%TO.N,GND*%
X112970000Y-107700000D03*
D54*
%TO.P,U1,11,V_{SS}_11*%
X113907500Y-108637500D03*
%TO.P,U1,12,PROG3_12*%
%TO.N,Net-(U1-PROG3)*%
X114407500Y-108637500D03*
%TO.P,U1,13,PROG1_13*%
%TO.N,Net-(U1-PROG1)*%
X114907500Y-108637500D03*
%TO.P,U1,14,V_{BAT}_14*%
%TO.N,/VBAT*%
X115407500Y-108637500D03*
%TO.P,U1,15,V_{BAT}_15*%
X115907500Y-108637500D03*
D55*
%TO.P,U1,16,V_{BAT_SENSE}_16*%
X116845000Y-107700000D03*
%TO.P,U1,17,CE_17*%
%TO.N,/+5V_USB*%
X116845000Y-107200000D03*
%TO.P,U1,18,IN_18*%
X116845000Y-106700000D03*
%TO.P,U1,19,IN_19*%
X116845000Y-106200000D03*
%TO.P,U1,20,OUT_20*%
%TO.N,+5V*%
X116845000Y-105700000D03*
D56*
%TO.P,U1,21,V_{SS}_21*%
%TO.N,GND*%
X114907500Y-106700000D03*
%TD*%
D57*
%TO.N,/ESP-32-C3-02/CS_SD*%
X168805000Y-72845000D03*
X170540000Y-85630000D03*
%TO.N,GND*%
X148330000Y-113200000D03*
X114420000Y-78110000D03*
X130700000Y-114820000D03*
X108860000Y-89120000D03*
X132580000Y-100410000D03*
X113720000Y-68640000D03*
X162830000Y-92780000D03*
X173190000Y-91060000D03*
X121990000Y-86130000D03*
X123550000Y-111390000D03*
X118465000Y-84560000D03*
X102980000Y-92183333D03*
X138105983Y-97040000D03*
X109500000Y-109720000D03*
X110780000Y-78710000D03*
X118860000Y-86130000D03*
X172470000Y-113160000D03*
X112810000Y-108810000D03*
X112820000Y-116010000D03*
X126600000Y-67360000D03*
X114940000Y-84540000D03*
X148580000Y-73520000D03*
X155310000Y-92680000D03*
X131145983Y-99829410D03*
X104640000Y-71560000D03*
X149510000Y-74370000D03*
X172970000Y-94620000D03*
X122470000Y-106860000D03*
X121250000Y-104830000D03*
X132560000Y-112650000D03*
X136830000Y-110590000D03*
X139260000Y-106410000D03*
X154270000Y-92680000D03*
X134515983Y-91499410D03*
X120227500Y-84590000D03*
X113280000Y-78710000D03*
X127909523Y-69880000D03*
X148090000Y-92460000D03*
X102980000Y-90646667D03*
X116702500Y-84520000D03*
X112820000Y-115340000D03*
X147630000Y-85900000D03*
X148090000Y-94660000D03*
X154480000Y-89020000D03*
X112810000Y-116730000D03*
X131625983Y-93749410D03*
X131470000Y-79730000D03*
X121990000Y-84650000D03*
X172480000Y-115210000D03*
X113700000Y-65120000D03*
X127800000Y-79900000D03*
X161700000Y-92750000D03*
X104400000Y-91140000D03*
X136000000Y-105400000D03*
X113320000Y-75760000D03*
X134760000Y-114930000D03*
X106120000Y-76750000D03*
X106810000Y-89120000D03*
X108860000Y-90350000D03*
X102940000Y-93720000D03*
X126397500Y-80820000D03*
X157500000Y-82180000D03*
X122490000Y-108940000D03*
X141120000Y-81550000D03*
X121990000Y-87600000D03*
X106810000Y-90350000D03*
X138890000Y-103820000D03*
X102980000Y-89110000D03*
X148330000Y-115270000D03*
%TO.N,+3.3V*%
X114310000Y-90700000D03*
X121880000Y-90310000D03*
X131595983Y-92459410D03*
X127850000Y-68170000D03*
X157770000Y-70210000D03*
X111550000Y-90710000D03*
X121890000Y-88800000D03*
X132174523Y-66120000D03*
X145460000Y-75150000D03*
X112410000Y-84900000D03*
X124740000Y-90620000D03*
X182860000Y-85740000D03*
X182870000Y-87010000D03*
X167310000Y-85700000D03*
X111660804Y-72363602D03*
X131510000Y-82440000D03*
X113410000Y-84890000D03*
X160360000Y-92770000D03*
X159190000Y-92760000D03*
X136975983Y-92229410D03*
X149660000Y-70670000D03*
X117630000Y-72940000D03*
X105860000Y-80360000D03*
X145450000Y-75980000D03*
X116170000Y-68700000D03*
X126610000Y-69110000D03*
X133830000Y-98470000D03*
X157040000Y-89030000D03*
%TO.N,/ESP-32-C3-02/PHOTO_C*%
X136660000Y-68770000D03*
X171975000Y-71665000D03*
%TO.N,/ESP-32-C3-02/SCL*%
X172220000Y-74592182D03*
X144910000Y-71880000D03*
%TO.N,/ESP-32-C3-02/SDA*%
X134750000Y-70090000D03*
X160680000Y-72500000D03*
%TO.N,/ESP-32-C3-02/CS*%
X169620000Y-81560000D03*
X141050000Y-78120000D03*
%TO.N,Net-(U6-DO(IO1))*%
X141020000Y-79010000D03*
X144320000Y-83640000D03*
%TO.N,/ESP-32-C3-02/MISO_DI*%
X148600000Y-81540000D03*
X175750000Y-89120000D03*
X164820000Y-89120000D03*
X152040000Y-80190000D03*
%TO.N,/ESP-32-C3-02/SCLK*%
X157280000Y-92740000D03*
X150500000Y-82350000D03*
%TO.N,Net-(LED5G1-K)*%
X125020000Y-100440000D03*
X126650000Y-90710000D03*
%TO.N,/ESP-32-C3-02/MIC_OUT*%
X154330000Y-74700000D03*
X139430000Y-74810000D03*
%TO.N,Net-(J3-DAT1)*%
X157730000Y-94580000D03*
X168560000Y-92500000D03*
%TO.N,/USB_DP*%
X130820000Y-103730000D03*
%TO.N,/VBUS*%
X129210000Y-104220000D03*
X129180000Y-102100000D03*
X134278681Y-105317205D03*
X136280000Y-106280000D03*
X134720000Y-102700000D03*
X130785983Y-105299410D03*
X129200000Y-103140000D03*
%TO.N,/USB_DN*%
X134430000Y-104050000D03*
%TO.N,Net-(U1-PROG3)*%
X115050000Y-111090000D03*
X120530000Y-113930000D03*
%TO.N,/ESP-32-C3-02/EN*%
X132790000Y-81450000D03*
X133020000Y-77120000D03*
X132208768Y-80358768D03*
%TO.N,Net-(U1-PROG1)*%
X115120000Y-110230000D03*
X116820000Y-110230000D03*
%TO.N,/ESP-32-C3-02/GPIO8*%
X162130000Y-79205000D03*
X165610000Y-82060000D03*
%TO.N,/+5V_USB*%
X111990000Y-98150000D03*
X117060000Y-102520000D03*
X117020000Y-103430000D03*
X123510000Y-103160000D03*
X123510000Y-104210000D03*
X118170000Y-106780000D03*
X123500000Y-102110000D03*
X118170000Y-105820000D03*
%TO.N,/ESP-32-C3-02/TX_RX*%
X127900000Y-96570000D03*
X175670000Y-80710000D03*
%TO.N,/ESP-32-C3-02/RX_TX*%
X175680000Y-79205000D03*
X128557108Y-95760000D03*
%TO.N,Net-(U1-THERM)*%
X118190000Y-108310000D03*
X113319810Y-105075000D03*
%TO.N,/ESP-32-C3-02/DTR*%
X139320000Y-82090000D03*
X139670000Y-79980000D03*
%TD*%
%TO.N,/ESP-32-C3-02/CS_SD*%
D58*
X170540000Y-85630000D02*
X170540000Y-86210000D01*
X168460000Y-71490000D02*
X169745000Y-70205000D01*
X167280000Y-90960000D02*
X167280000Y-88785000D01*
X169745000Y-70205000D02*
X173612500Y-70205000D01*
X170540000Y-86210000D02*
X170530000Y-86220000D01*
X168460000Y-72500000D02*
X168460000Y-71490000D01*
X170530000Y-86220000D02*
X170530000Y-87030000D01*
X167280000Y-88785000D02*
X167305000Y-88760000D01*
X168800000Y-88760000D02*
X167305000Y-88760000D01*
X170530000Y-87030000D02*
X168800000Y-88760000D01*
X168805000Y-72845000D02*
X168460000Y-72500000D01*
X170540000Y-85630000D02*
X176730000Y-85630000D01*
%TO.N,GND*%
D59*
X131160000Y-80040000D02*
X131470000Y-79730000D01*
X139260000Y-106977500D02*
X138700000Y-107537500D01*
X104275446Y-92670000D02*
X103466667Y-92670000D01*
X134553250Y-107772500D02*
X134618250Y-107707500D01*
X122470000Y-106860000D02*
X121900000Y-106860000D01*
X147055000Y-92460000D02*
X146755000Y-92760000D01*
X132560000Y-114195750D02*
X132553250Y-114202500D01*
X134760000Y-114930000D02*
X136037500Y-113652500D01*
X154780000Y-92170000D02*
X154270000Y-92680000D01*
X109500000Y-108207500D02*
X109507500Y-108200000D01*
X165272500Y-77505000D02*
X164722500Y-77505000D01*
X117437946Y-85970000D02*
X117437946Y-85255446D01*
X129753250Y-107772500D02*
X129433250Y-107772500D01*
X107235000Y-76750000D02*
X107235000Y-77525000D01*
X164722500Y-75305000D02*
X164722500Y-75855000D01*
X129433250Y-107772500D02*
X128283250Y-108922500D01*
X165272500Y-75305000D02*
X164722500Y-75305000D01*
D60*
X131568830Y-99406563D02*
X131145983Y-99829410D01*
D59*
X126397500Y-80820000D02*
X126397500Y-79900000D01*
X113770000Y-78710000D02*
X114420000Y-79360000D01*
X134618250Y-107707500D02*
X135288250Y-107707500D01*
X166372500Y-77505000D02*
X166922500Y-77505000D01*
X162830000Y-92780000D02*
X162830000Y-92720000D01*
X154780000Y-90960000D02*
X154780000Y-88073417D01*
X122342500Y-110370000D02*
X122342500Y-112440000D01*
X114420000Y-76997500D02*
X114457500Y-76960000D01*
X131160000Y-80470000D02*
X131160000Y-80040000D01*
X165272500Y-77505000D02*
X166372500Y-77505000D01*
X131748090Y-89758090D02*
X130622847Y-89758090D01*
X126600000Y-67360000D02*
X127082023Y-67360000D01*
X130700000Y-114820000D02*
X129532500Y-113652500D01*
X148090000Y-94660000D02*
X146755000Y-93325000D01*
X132560000Y-114195750D02*
X134025750Y-114195750D01*
X132600000Y-100430000D02*
X132580000Y-100410000D01*
X130488250Y-107707500D02*
X130553250Y-107772500D01*
X162280000Y-90960000D02*
X162280000Y-92170000D01*
X119647946Y-86130000D02*
X120437946Y-86920000D01*
X150750000Y-73950000D02*
X152050000Y-73950000D01*
X126397500Y-79900000D02*
X127800000Y-79900000D01*
X166372500Y-76405000D02*
X165272500Y-76405000D01*
X121202500Y-109230000D02*
X122342500Y-110370000D01*
X172480000Y-115210000D02*
X173105000Y-115210000D01*
X114940000Y-86817946D02*
X115237946Y-86520000D01*
X126307500Y-79990000D02*
X126397500Y-79900000D01*
X129703250Y-107722500D02*
X129703250Y-106522500D01*
X135353250Y-107772500D02*
X135403250Y-107722500D01*
X121250000Y-104830000D02*
X121250000Y-106210000D01*
D60*
X132068830Y-94192257D02*
X131625983Y-93749410D01*
D59*
X121892500Y-108940000D02*
X121202500Y-108250000D01*
X166922500Y-77505000D02*
X166922500Y-76955000D01*
X166922500Y-76955000D02*
X166922500Y-76405000D01*
X123392500Y-111390000D02*
X122342500Y-112440000D01*
X132600000Y-101587500D02*
X132600000Y-100430000D01*
X131470000Y-79730000D02*
X131440000Y-79700000D01*
X112570000Y-65860000D02*
X112960000Y-65860000D01*
X162830000Y-92720000D02*
X162280000Y-92170000D01*
X111970000Y-75110000D02*
X112670000Y-75110000D01*
X112810000Y-108810000D02*
X113735000Y-108810000D01*
X113320000Y-75822500D02*
X114457500Y-76960000D01*
X141125000Y-81545000D02*
X141120000Y-81550000D01*
X138105983Y-97040000D02*
X137705393Y-97040000D01*
X127082023Y-67360000D02*
X127234523Y-67207500D01*
X162280000Y-92170000D02*
X161700000Y-92750000D01*
X114280000Y-74810000D02*
X114280000Y-74160000D01*
D61*
X127909523Y-69880000D02*
X127909523Y-69147500D01*
D60*
X135303250Y-107722500D02*
X135353250Y-107772500D01*
D59*
X138700000Y-107537500D02*
X138208250Y-107537500D01*
X166922500Y-75855000D02*
X166922500Y-75305000D01*
X130700000Y-114820000D02*
X131317500Y-114202500D01*
X110780000Y-78710000D02*
X113280000Y-78710000D01*
D60*
X131568830Y-98762500D02*
X131568830Y-96827500D01*
D59*
X128936446Y-79730000D02*
X131470000Y-79730000D01*
X148330000Y-113200000D02*
X147815000Y-113200000D01*
X136037500Y-113652500D02*
X136823250Y-113652500D01*
X103466667Y-92670000D02*
X102980000Y-92183333D01*
X147600000Y-87037500D02*
X147600000Y-85930000D01*
X147160000Y-73940000D02*
X148160000Y-73940000D01*
X131964757Y-89880000D02*
X131870000Y-89880000D01*
X166922500Y-75305000D02*
X166372500Y-75305000D01*
X108860000Y-88242054D02*
X108477946Y-87860000D01*
X127909523Y-70557977D02*
X127909523Y-69880000D01*
D60*
X132068830Y-94892500D02*
X132068830Y-94192257D01*
D59*
X133240740Y-91499410D02*
X133198830Y-91457500D01*
X121900000Y-106860000D02*
X121250000Y-106210000D01*
X136830000Y-110590000D02*
X136830000Y-108929250D01*
X134515983Y-91499410D02*
X133240740Y-91499410D01*
X147600000Y-85930000D02*
X147630000Y-85900000D01*
X122470000Y-106982500D02*
X121202500Y-108250000D01*
X122490000Y-110222500D02*
X122342500Y-110370000D01*
X154480000Y-89020000D02*
X154480000Y-90660000D01*
X132560000Y-112650000D02*
X132560000Y-114195750D01*
D60*
X135303250Y-106522500D02*
X135303250Y-107722500D01*
D59*
X154780000Y-90960000D02*
X154780000Y-92170000D01*
X150330000Y-74370000D02*
X150750000Y-73950000D01*
X121202500Y-108250000D02*
X121202500Y-109230000D01*
X128635000Y-79428554D02*
X128936446Y-79730000D01*
X154780000Y-88073417D02*
X154486583Y-87780000D01*
X126450000Y-107612500D02*
X126973250Y-107612500D01*
X112810000Y-108810000D02*
X112810000Y-107860000D01*
X121250000Y-108202500D02*
X121202500Y-108250000D01*
X171855000Y-92760000D02*
X171855000Y-93505000D01*
X128635000Y-79030000D02*
X128635000Y-79428554D01*
X131317500Y-114202500D02*
X132553250Y-114202500D01*
X104640000Y-71560000D02*
X104640000Y-70570000D01*
X171855000Y-92760000D02*
X171855000Y-92395000D01*
X131870000Y-89880000D02*
X131748090Y-89758090D01*
X162280000Y-90960000D02*
X162280000Y-89130000D01*
X154480000Y-89020000D02*
X154480000Y-87786583D01*
X148580000Y-73520000D02*
X148660000Y-73520000D01*
X113280000Y-78710000D02*
X113770000Y-78710000D01*
X132560000Y-111109250D02*
X132553250Y-111102500D01*
X127427500Y-71040000D02*
X127909523Y-70557977D01*
X152050000Y-73950000D02*
X153710000Y-72290000D01*
X166372500Y-76405000D02*
X166922500Y-76405000D01*
X139260000Y-106410000D02*
X139260000Y-106977500D01*
X138890000Y-103820000D02*
X137555000Y-103820000D01*
X154480000Y-87786583D02*
X154486583Y-87780000D01*
X155310000Y-92680000D02*
X155290000Y-92680000D01*
X147765000Y-115270000D02*
X146755000Y-114260000D01*
X129753250Y-107772500D02*
X129703250Y-107722500D01*
X114420000Y-78110000D02*
X114420000Y-76997500D01*
X165822500Y-76955000D02*
X165822500Y-76405000D01*
X125554523Y-67360000D02*
X126600000Y-67360000D01*
X155290000Y-92680000D02*
X154780000Y-92170000D01*
D60*
X114907500Y-104762500D02*
X114907500Y-106700000D01*
D59*
X154480000Y-90660000D02*
X154780000Y-90960000D01*
X132560000Y-112650000D02*
X132560000Y-111109250D01*
X129532500Y-113652500D02*
X128283250Y-113652500D01*
X106120000Y-76750000D02*
X107235000Y-76750000D01*
X109500000Y-109720000D02*
X109500000Y-108207500D01*
X112820000Y-115650000D02*
X113970000Y-114500000D01*
D60*
X113907500Y-107700000D02*
X114907500Y-106700000D01*
D59*
X173105000Y-115210000D02*
X174055000Y-114260000D01*
X123550000Y-111390000D02*
X123362500Y-111390000D01*
X131185000Y-79030000D02*
X131185000Y-79445000D01*
X165822500Y-76955000D02*
X165822500Y-77505000D01*
X122470000Y-106860000D02*
X122470000Y-106982500D01*
X126397500Y-81600000D02*
X126397500Y-80820000D01*
X149510000Y-74370000D02*
X150330000Y-74370000D01*
X127562023Y-71040000D02*
X127427500Y-71040000D01*
X121250000Y-106210000D02*
X121250000Y-108202500D01*
X114270000Y-74810000D02*
X113320000Y-75760000D01*
X126973250Y-107612500D02*
X128283250Y-108922500D01*
X142110000Y-81545000D02*
X141125000Y-81545000D01*
X138105983Y-97040000D02*
X138105983Y-96639410D01*
D60*
X136000000Y-105400000D02*
X135303250Y-106096750D01*
D59*
X114280000Y-74810000D02*
X114270000Y-74810000D01*
X172470000Y-113160000D02*
X172955000Y-113160000D01*
X135410000Y-106100000D02*
X135410000Y-106525750D01*
X165272500Y-76405000D02*
X164722500Y-76405000D01*
X114940000Y-86222054D02*
X115237946Y-86520000D01*
X113720000Y-68640000D02*
X113720000Y-69197500D01*
D60*
X132068830Y-96327500D02*
X131568830Y-96827500D01*
D59*
X148160000Y-73940000D02*
X148580000Y-73520000D01*
X112820000Y-116010000D02*
X112820000Y-115650000D01*
X171855000Y-92395000D02*
X173190000Y-91060000D01*
X129753250Y-107772500D02*
X129818250Y-107707500D01*
X147815000Y-113200000D02*
X146755000Y-114260000D01*
X109570000Y-78710000D02*
X110780000Y-78710000D01*
X146755000Y-93325000D02*
X146755000Y-92760000D01*
X106810000Y-89120000D02*
X105847946Y-89120000D01*
X148660000Y-73520000D02*
X149510000Y-74370000D01*
D60*
X132068830Y-94892500D02*
X132068830Y-96327500D01*
D59*
X128040000Y-79900000D02*
X128610000Y-80470000D01*
X117437946Y-85255446D02*
X116702500Y-84520000D01*
X138208250Y-107537500D02*
X136823250Y-108922500D01*
X157475000Y-82205000D02*
X157500000Y-82180000D01*
X112960000Y-65860000D02*
X113700000Y-65120000D01*
X148090000Y-92460000D02*
X147055000Y-92460000D01*
D60*
X113907500Y-108637500D02*
X113907500Y-107700000D01*
D59*
X137041306Y-95574733D02*
X136983506Y-95574733D01*
X105847946Y-89120000D02*
X105437946Y-89530000D01*
X164722500Y-76955000D02*
X164722500Y-77505000D01*
X122490000Y-108940000D02*
X121892500Y-108940000D01*
X138105983Y-96639410D02*
X137041306Y-95574733D01*
X118860000Y-86130000D02*
X119647946Y-86130000D01*
X164722500Y-76405000D02*
X164722500Y-75855000D01*
X108420000Y-78710000D02*
X109570000Y-78710000D01*
X137118954Y-97626439D02*
X136928483Y-97626439D01*
X112670000Y-75110000D02*
X113320000Y-75760000D01*
X123550000Y-111390000D02*
X123392500Y-111390000D01*
X165272500Y-75305000D02*
X166372500Y-75305000D01*
X135288250Y-107707500D02*
X135353250Y-107772500D01*
X107235000Y-77525000D02*
X108420000Y-78710000D01*
X114940000Y-84540000D02*
X114940000Y-86222054D01*
X114420000Y-79360000D02*
X114420000Y-78110000D01*
X156112500Y-82205000D02*
X157475000Y-82205000D01*
X131185000Y-79445000D02*
X131470000Y-79730000D01*
X166922500Y-76405000D02*
X166922500Y-75855000D01*
X137705393Y-97040000D02*
X137118954Y-97626439D01*
X123362500Y-111390000D02*
X122342500Y-110370000D01*
X137555000Y-103820000D02*
X137550000Y-103825000D01*
X113720000Y-69197500D02*
X114170000Y-69647500D01*
X122490000Y-108940000D02*
X122490000Y-110222500D01*
X165822500Y-76405000D02*
X165822500Y-75855000D01*
X108860000Y-89120000D02*
X108860000Y-88242054D01*
X131440000Y-79700000D02*
X130913554Y-79700000D01*
X133522847Y-91438090D02*
X131964757Y-89880000D01*
X171855000Y-93505000D02*
X172970000Y-94620000D01*
D60*
X131568830Y-98762500D02*
X131568830Y-99406563D01*
D59*
X127800000Y-79900000D02*
X128040000Y-79900000D01*
X104640000Y-70570000D02*
X104700000Y-70510000D01*
X128040000Y-79625000D02*
X128635000Y-79030000D01*
X165822500Y-75305000D02*
X165822500Y-75855000D01*
X148330000Y-115270000D02*
X147765000Y-115270000D01*
X172955000Y-113160000D02*
X174055000Y-114260000D01*
X136830000Y-108929250D02*
X136823250Y-108922500D01*
X129818250Y-107707500D02*
X130488250Y-107707500D01*
X128040000Y-79900000D02*
X128040000Y-79625000D01*
X134025750Y-114195750D02*
X134760000Y-114930000D01*
X113320000Y-75760000D02*
X113320000Y-75822500D01*
X162280000Y-89130000D02*
X161750000Y-88600000D01*
%TO.N,+3.3V*%
D60*
X133198830Y-93357500D02*
X132494073Y-93357500D01*
D59*
X156117500Y-70210000D02*
X156112500Y-70205000D01*
X133830000Y-98470000D02*
X133830000Y-98153670D01*
X116977946Y-88330000D02*
X113440000Y-88330000D01*
D60*
X136917634Y-92287759D02*
X136975983Y-92229410D01*
D59*
X130866202Y-67377500D02*
X131890000Y-67377500D01*
D60*
X127259523Y-68570477D02*
X127259523Y-69147500D01*
D59*
X111970000Y-72610000D02*
X111970000Y-73210000D01*
X145460000Y-75270000D02*
X145460000Y-75150000D01*
D60*
X127850000Y-68000000D02*
X127870000Y-67980000D01*
D59*
X119107946Y-89540000D02*
X117437946Y-87870000D01*
X113225892Y-84890000D02*
X112937946Y-85177946D01*
D60*
X132494073Y-93357500D02*
X131595983Y-92459410D01*
X127860000Y-68160000D02*
X127860000Y-67257023D01*
D59*
X105860000Y-80360000D02*
X105860000Y-78897500D01*
X121880000Y-90310000D02*
X121150000Y-89580000D01*
X147510000Y-76190000D02*
X147160000Y-75840000D01*
X157770000Y-70210000D02*
X156117500Y-70210000D01*
X131890000Y-67377500D02*
X132923850Y-67377500D01*
X132174523Y-67092977D02*
X131890000Y-67377500D01*
X112937946Y-87827946D02*
X112937946Y-86520000D01*
X111550000Y-90932054D02*
X112937946Y-92320000D01*
X117630000Y-72940000D02*
X116770000Y-72940000D01*
X121150000Y-89540000D02*
X121890000Y-88800000D01*
X111550000Y-90710000D02*
X111550000Y-90932054D01*
X120437946Y-89540000D02*
X121150000Y-89540000D01*
D62*
X151690000Y-70390000D02*
X150750000Y-71330000D01*
X156112500Y-70205000D02*
X153895000Y-70205000D01*
D59*
X167310000Y-85700000D02*
X167310000Y-86930000D01*
X159780000Y-92170000D02*
X159190000Y-92760000D01*
X113440000Y-88330000D02*
X112937946Y-87827946D01*
X111660804Y-72363602D02*
X111887784Y-72590582D01*
X130910000Y-83040000D02*
X131510000Y-82440000D01*
X146990000Y-75670000D02*
X145760000Y-75670000D01*
X132174523Y-64720000D02*
X132174523Y-66120000D01*
D60*
X126647500Y-69147500D02*
X126610000Y-69110000D01*
D59*
X116170000Y-68700000D02*
X116170000Y-67742500D01*
X113410000Y-84890000D02*
X113225892Y-84890000D01*
X147160000Y-75840000D02*
X146150000Y-75840000D01*
X121150000Y-89580000D02*
X121150000Y-89540000D01*
X181279669Y-85740000D02*
X180677260Y-86342409D01*
X181344851Y-87010000D02*
X180677260Y-86342409D01*
X144122500Y-75640000D02*
X145090000Y-75640000D01*
X125554523Y-69260000D02*
X126460000Y-69260000D01*
X150090000Y-70670000D02*
X150750000Y-71330000D01*
X132174523Y-66120000D02*
X132174523Y-67092977D01*
D60*
X127850000Y-68170000D02*
X127660000Y-68170000D01*
D59*
X159780000Y-92190000D02*
X160360000Y-92770000D01*
X117437946Y-87870000D02*
X116977946Y-88330000D01*
X159780000Y-90960000D02*
X159780000Y-92190000D01*
D60*
X127860000Y-67257023D02*
X127909523Y-67207500D01*
D59*
X146150000Y-75840000D02*
X145460000Y-75150000D01*
X132174523Y-66628173D02*
X132932162Y-67385812D01*
X144122500Y-75640000D02*
X145110000Y-75640000D01*
X133503830Y-97827500D02*
X133503830Y-97407500D01*
X147160000Y-75840000D02*
X146990000Y-75670000D01*
X159780000Y-90960000D02*
X159780000Y-92170000D01*
X182870000Y-87010000D02*
X181344851Y-87010000D01*
X133830000Y-98153670D02*
X133503830Y-97827500D01*
D60*
X127660000Y-68170000D02*
X127259523Y-68570477D01*
D62*
X153710000Y-70390000D02*
X151690000Y-70390000D01*
D58*
X124740000Y-90620000D02*
X124740000Y-92080000D01*
D59*
X112937946Y-92320000D02*
X110387946Y-92320000D01*
D60*
X127850000Y-68170000D02*
X127860000Y-68160000D01*
D59*
X112937946Y-85177946D02*
X112937946Y-86520000D01*
X105860000Y-78897500D02*
X105810000Y-78847500D01*
X114310000Y-90700000D02*
X114310000Y-90947946D01*
X110387946Y-92320000D02*
X109837946Y-92870000D01*
X147510000Y-77735000D02*
X147510000Y-76190000D01*
D60*
X131595983Y-92459410D02*
X130360740Y-92459410D01*
D59*
X157040000Y-87846583D02*
X157106583Y-87780000D01*
X111887784Y-72590582D02*
X111950582Y-72590582D01*
D60*
X127850000Y-68170000D02*
X127850000Y-68000000D01*
D59*
X111950582Y-72590582D02*
X111970000Y-72610000D01*
X149660000Y-70670000D02*
X150090000Y-70670000D01*
X167310000Y-86930000D02*
X167305000Y-86935000D01*
X159780000Y-88670000D02*
X159850000Y-88600000D01*
X145090000Y-75640000D02*
X145460000Y-75270000D01*
X132923850Y-67377500D02*
X132932162Y-67385812D01*
D60*
X127259523Y-69147500D02*
X126647500Y-69147500D01*
D59*
X132174523Y-64720000D02*
X132174523Y-66628173D01*
X126460000Y-69260000D02*
X126610000Y-69110000D01*
X145110000Y-75640000D02*
X145450000Y-75980000D01*
X120437946Y-89540000D02*
X119107946Y-89540000D01*
X130910000Y-83450000D02*
X130910000Y-83040000D01*
X116170000Y-69647500D02*
X116170000Y-68700000D01*
X159780000Y-90960000D02*
X159780000Y-88670000D01*
X145760000Y-75670000D02*
X145450000Y-75980000D01*
X116170000Y-67742500D02*
X116352500Y-67560000D01*
D60*
X130360740Y-92459410D02*
X130298830Y-92397500D01*
D59*
X112410000Y-84900000D02*
X112660000Y-84900000D01*
X182860000Y-85740000D02*
X181279669Y-85740000D01*
D60*
X128559523Y-68879523D02*
X128559523Y-69147500D01*
D59*
X153895000Y-70205000D02*
X153710000Y-70390000D01*
X124850803Y-92238757D02*
X124850803Y-94678757D01*
X157040000Y-89030000D02*
X157040000Y-87846583D01*
X116770000Y-72940000D02*
X116200000Y-73510000D01*
D60*
X127850000Y-68170000D02*
X128559523Y-68879523D01*
D59*
X112660000Y-84900000D02*
X112937946Y-85177946D01*
X157926583Y-88600000D02*
X157106583Y-87780000D01*
X114310000Y-90947946D02*
X112937946Y-92320000D01*
D60*
X136917634Y-93532128D02*
X136917634Y-92287759D01*
D59*
X159850000Y-88600000D02*
X157926583Y-88600000D01*
X130910000Y-83450000D02*
X130910000Y-83880000D01*
%TO.N,Net-(U1-~{TE})*%
D63*
X112970000Y-107200000D02*
X112332500Y-107200000D01*
X112332500Y-107200000D02*
X111332500Y-108200000D01*
%TO.N,Net-(U6-~{HOLD}{slash}~{RESET}(IO3))*%
X141436471Y-80275000D02*
X140040000Y-78878529D01*
X142110000Y-80275000D02*
X141436471Y-80275000D01*
X140040000Y-78878529D02*
X140040000Y-76290000D01*
X146835000Y-78330000D02*
X147510000Y-79005000D01*
X140040000Y-76290000D02*
X140710000Y-75620000D01*
X140710000Y-75620000D02*
X140730000Y-75640000D01*
X146835000Y-77305000D02*
X146835000Y-78330000D01*
X140730000Y-75640000D02*
X142297500Y-75640000D01*
X146720000Y-77190000D02*
X146835000Y-77305000D01*
X143847500Y-77190000D02*
X146720000Y-77190000D01*
X142297500Y-75640000D02*
X143847500Y-77190000D01*
%TO.N,/ESP-32-C3-02/PHOTO_C*%
D64*
X103725000Y-76200000D02*
X103725000Y-78587500D01*
X172015000Y-71705000D02*
X171975000Y-71665000D01*
X105545308Y-63274692D02*
X103720000Y-65100000D01*
X135979692Y-63274692D02*
X105545308Y-63274692D01*
X136660000Y-68770000D02*
X136675000Y-68755000D01*
X103725000Y-65105000D02*
X103725000Y-76200000D01*
X103725000Y-78587500D02*
X103985000Y-78847500D01*
X103720000Y-65100000D02*
X103725000Y-65105000D01*
X136675000Y-63970000D02*
X135979692Y-63274692D01*
X173612500Y-71705000D02*
X172015000Y-71705000D01*
X136675000Y-68755000D02*
X136675000Y-63970000D01*
%TO.N,/CHARGING*%
D63*
X112719810Y-105449810D02*
X112719810Y-103682690D01*
X112970000Y-105700000D02*
X112719810Y-105449810D01*
X112719810Y-103682690D02*
X113270000Y-103132500D01*
%TO.N,Net-(LED1R1-K)*%
X113270000Y-101307500D02*
X115362500Y-101307500D01*
X115362500Y-101307500D02*
X115520000Y-101150000D01*
%TO.N,/ESP-32-C3-02/SCL*%
D58*
X129209523Y-67207500D02*
X129209523Y-65145000D01*
X137438376Y-71880000D02*
X134769188Y-69210812D01*
X173612500Y-74705000D02*
X172332818Y-74705000D01*
X129209523Y-65145000D02*
X129634523Y-64720000D01*
X129209523Y-67288777D02*
X130190746Y-68270000D01*
X134769188Y-69210812D02*
X132932162Y-69210812D01*
X132932162Y-69210812D02*
X132976350Y-69255000D01*
X130190746Y-68270000D02*
X131991350Y-68270000D01*
X172332818Y-74705000D02*
X172220000Y-74592182D01*
X131991350Y-68270000D02*
X132932162Y-69210812D01*
X129209523Y-67207500D02*
X129209523Y-67288777D01*
X144910000Y-71880000D02*
X137438376Y-71880000D01*
%TO.N,/ESP-32-C3-02/SDA*%
X128559523Y-67207500D02*
X128559523Y-67420372D01*
X128559523Y-66185000D02*
X127094523Y-64720000D01*
X134750000Y-70090000D02*
X134700000Y-70140000D01*
X130341651Y-69202500D02*
X130866202Y-69202500D01*
X156112500Y-73205000D02*
X160545000Y-73205000D01*
X134700000Y-70140000D02*
X131803702Y-70140000D01*
X156307500Y-73400000D02*
X156112500Y-73205000D01*
X160545000Y-73205000D02*
X160680000Y-73070000D01*
X160680000Y-73070000D02*
X160680000Y-72500000D01*
X128559523Y-67207500D02*
X128559523Y-66185000D01*
X131803702Y-70140000D02*
X130866202Y-69202500D01*
X128559523Y-67420372D02*
X130341651Y-69202500D01*
%TO.N,+5V*%
D65*
X117700000Y-92390000D02*
X114680000Y-89370000D01*
D63*
X118190000Y-104355000D02*
X118190000Y-104180000D01*
X110940000Y-89290000D02*
X110637946Y-88987946D01*
D65*
X105437946Y-86910000D02*
X106387946Y-85960000D01*
X106387946Y-85960000D02*
X108477946Y-85960000D01*
D58*
X116845000Y-105700000D02*
X118190000Y-104355000D01*
D65*
X118190000Y-104180000D02*
X118190000Y-93022500D01*
X110637946Y-88987946D02*
X110637946Y-86520000D01*
D63*
X110940000Y-89370000D02*
X110940000Y-89290000D01*
D65*
X108477946Y-85960000D02*
X110077946Y-85960000D01*
D58*
X115981250Y-104681250D02*
X116918750Y-105618750D01*
D65*
X114680000Y-89370000D02*
X110940000Y-89370000D01*
X118190000Y-93022500D02*
X117700000Y-92532500D01*
X110077946Y-85960000D02*
X110637946Y-86520000D01*
X117700000Y-92532500D02*
X117700000Y-92390000D01*
%TO.N,/ESP-32-C3-02/CS*%
D58*
X141435000Y-77735000D02*
X141050000Y-78120000D01*
X142110000Y-77735000D02*
X141435000Y-77735000D01*
X173617500Y-82210000D02*
X173612500Y-82205000D01*
X173557500Y-82260000D02*
X173612500Y-82205000D01*
X172100000Y-82260000D02*
X173557500Y-82260000D01*
X177170000Y-82210000D02*
X173617500Y-82210000D01*
X169620000Y-81560000D02*
X171400000Y-81560000D01*
X171400000Y-81560000D02*
X172100000Y-82260000D01*
%TO.N,Net-(U6-DO(IO1))*%
D63*
X141025000Y-79005000D02*
X141020000Y-79010000D01*
X142110000Y-79005000D02*
X141025000Y-79005000D01*
X145547500Y-83640000D02*
X144320000Y-83640000D01*
%TO.N,/ESP-32-C3-02/MISO_DI*%
D58*
X164820000Y-89120000D02*
X164820000Y-90920000D01*
X164820000Y-90920000D02*
X164780000Y-90960000D01*
X148595000Y-81545000D02*
X148600000Y-81540000D01*
X147510000Y-81545000D02*
X148595000Y-81545000D01*
X152046163Y-80183837D02*
X152040000Y-80190000D01*
X175750000Y-89120000D02*
X177160000Y-89120000D01*
X177160000Y-89120000D02*
X177170000Y-89110000D01*
X152046163Y-78819853D02*
X152046163Y-80183837D01*
%TO.N,/ESP-32-C3-02/SCLK*%
X152046163Y-76797353D02*
X150972647Y-76797353D01*
X177680000Y-95960000D02*
X160500000Y-95960000D01*
X150500000Y-79630000D02*
X149855000Y-80275000D01*
X150500000Y-77270000D02*
X150500000Y-79630000D01*
X150972647Y-76797353D02*
X150500000Y-77270000D01*
X157280000Y-90960000D02*
X157280000Y-92740000D01*
X149855000Y-80275000D02*
X147510000Y-80275000D01*
X160500000Y-95960000D02*
X157280000Y-92740000D01*
X150500000Y-79630000D02*
X150500000Y-82350000D01*
%TO.N,Net-(LED2R1-K)*%
D63*
X108037946Y-92870000D02*
X106300446Y-92870000D01*
X106300446Y-92870000D02*
X106100446Y-92670000D01*
%TO.N,Net-(U4-~{TXT}{slash}GPIO.2)*%
X126832500Y-98929292D02*
X128532038Y-98929292D01*
X128532038Y-98929292D02*
X129633830Y-97827500D01*
%TO.N,Net-(LED5G1-K)*%
X125020000Y-98941792D02*
X125007500Y-98929292D01*
X125020000Y-100440000D02*
X125020000Y-98941792D01*
X126650803Y-92238757D02*
X126650803Y-90710803D01*
X125007500Y-98929292D02*
X125430708Y-98929292D01*
X126650803Y-90710803D02*
X126650000Y-90710000D01*
%TO.N,Net-(U2-IN+)*%
X114280000Y-73510000D02*
X114280000Y-71582500D01*
X114280000Y-71582500D02*
X114170000Y-71472500D01*
X115957500Y-71260000D02*
X116170000Y-71472500D01*
X112320000Y-71260000D02*
X115957500Y-71260000D01*
%TO.N,/ESP-32-C3-02/MIC_OUT*%
D64*
X116320000Y-76997500D02*
X116282500Y-76960000D01*
X116200000Y-74810000D02*
X116200000Y-76877500D01*
X116200000Y-76877500D02*
X116282500Y-76960000D01*
X116320000Y-79360000D02*
X116320000Y-76997500D01*
X116200000Y-74810000D02*
X139430000Y-74810000D01*
X156107500Y-74700000D02*
X156112500Y-74705000D01*
X154330000Y-74700000D02*
X156107500Y-74700000D01*
%TO.N,Net-(J3-DAT1)*%
D63*
X150655000Y-90465000D02*
X149050000Y-88860000D01*
X153720000Y-94580000D02*
X157730000Y-94580000D01*
X152530000Y-93380000D02*
X152530000Y-93390000D01*
X149047500Y-88862500D02*
X147600000Y-88862500D01*
X150655000Y-90960000D02*
X150655000Y-91505000D01*
X150655000Y-90960000D02*
X150655000Y-90465000D01*
X168560000Y-92500000D02*
X169570000Y-92500000D01*
X150655000Y-91505000D02*
X152530000Y-93380000D01*
X169780000Y-92290000D02*
X169780000Y-90960000D01*
X152530000Y-93390000D02*
X153720000Y-94580000D01*
X169570000Y-92500000D02*
X169780000Y-92290000D01*
X149050000Y-88860000D02*
X149047500Y-88862500D01*
%TO.N,Net-(U4-VBUS)*%
X134304544Y-96827500D02*
X135103483Y-97626439D01*
X135295983Y-99456910D02*
X135295983Y-97818939D01*
X133503830Y-96827500D02*
X134304544Y-96827500D01*
X134555739Y-96827500D02*
X135083506Y-96299733D01*
X135295983Y-97818939D02*
X135103483Y-97626439D01*
X133503830Y-96827500D02*
X134555739Y-96827500D01*
X135083506Y-96299733D02*
X135083506Y-95574733D01*
%TO.N,/ESP-32-C3-02/USB_D-*%
X133550000Y-101587500D02*
X133550000Y-100531471D01*
X133550000Y-100531471D02*
X132828529Y-99810000D01*
X132568830Y-98762500D02*
X132568830Y-99550301D01*
X132568830Y-99550301D02*
X132828529Y-99810000D01*
%TO.N,/ESP-32-C3-02/USB_D+*%
X131650000Y-100250001D02*
X131649264Y-100249265D01*
X132040000Y-99858529D02*
X132040000Y-99000000D01*
X131650000Y-101587500D02*
X131650000Y-100250001D01*
X131649264Y-100249265D02*
X132040000Y-99858529D01*
%TO.N,/USB_DP*%
X132303250Y-105023250D02*
X132303250Y-106522500D01*
X131650000Y-103862500D02*
X130952500Y-103862500D01*
X131650000Y-103862500D02*
X131650000Y-104370000D01*
X131450000Y-104062500D02*
X131650000Y-103862500D01*
X130952500Y-103862500D02*
X130820000Y-103730000D01*
X131650000Y-104370000D02*
X132303250Y-105023250D01*
%TO.N,/VBUS*%
D60*
X136280000Y-106280000D02*
X136995000Y-106280000D01*
D63*
X132600000Y-103200001D02*
X132600000Y-103862500D01*
X134278681Y-105317205D02*
X134208545Y-105317205D01*
D60*
X127980000Y-103140000D02*
X127970000Y-103150000D01*
D63*
X134208545Y-105317205D02*
X133803250Y-105722500D01*
X132600000Y-103170000D02*
X133080000Y-102690000D01*
X133803250Y-105722500D02*
X133803250Y-106522500D01*
D60*
X134760000Y-100972500D02*
X135330000Y-100972500D01*
D63*
X133090000Y-102700000D02*
X134720000Y-102700000D01*
X133803250Y-106522500D02*
X133803250Y-107722500D01*
D60*
X130984160Y-105299410D02*
X130785983Y-105299410D01*
X129200000Y-103140000D02*
X127980000Y-103140000D01*
X131303250Y-105618500D02*
X130984160Y-105299410D01*
D63*
X133080000Y-102690000D02*
X133090000Y-102700000D01*
D60*
X131303250Y-106522500D02*
X131326250Y-106499500D01*
X131303250Y-106522500D02*
X131303250Y-107722500D01*
D63*
X132600000Y-103862500D02*
X132600000Y-103170000D01*
D60*
X134720000Y-101012500D02*
X134760000Y-100972500D01*
D63*
X133803250Y-107722500D02*
X133753250Y-107772500D01*
D60*
X134720000Y-102700000D02*
X134720000Y-101012500D01*
X136995000Y-106280000D02*
X137550000Y-105725000D01*
X131303250Y-106522500D02*
X131303250Y-105618500D01*
X131303250Y-107722500D02*
X131353250Y-107772500D01*
X131303250Y-106522500D02*
X131280250Y-106499500D01*
%TO.N,/USB_DN*%
D63*
X133550000Y-104215552D02*
X132770000Y-104995552D01*
X134430000Y-104050000D02*
X133737500Y-104050000D01*
X132770000Y-104995552D02*
X132770000Y-106489250D01*
X133550000Y-103862500D02*
X133550000Y-104215552D01*
X132803250Y-106522500D02*
X132803230Y-106522500D01*
X132770000Y-106489250D02*
X132803250Y-106522500D01*
X133737500Y-104050000D02*
X133550000Y-103862500D01*
%TO.N,Net-(U1-PROG3)*%
X120530000Y-112452500D02*
X120517500Y-112440000D01*
X114407500Y-108637500D02*
X114407500Y-110447500D01*
X120530000Y-113930000D02*
X120530000Y-112452500D01*
X114407500Y-110447500D02*
X115050000Y-111090000D01*
%TO.N,/VBAT*%
D66*
X116845000Y-108262500D02*
X116845000Y-107825000D01*
X116407500Y-108700000D02*
X116845000Y-108262500D01*
X115970000Y-108700000D02*
X116407500Y-108700000D01*
D63*
X115907500Y-108637500D02*
X115970000Y-108700000D01*
X115407500Y-108637500D02*
X115907500Y-108637500D01*
D66*
X115970000Y-114500000D02*
X115970000Y-108700000D01*
%TO.N,/ESP-32-C3-02/EN*%
D64*
X129035000Y-83500000D02*
X129085000Y-83450000D01*
X133100000Y-81760000D02*
X133100000Y-82460000D01*
X126397500Y-83500000D02*
X129035000Y-83500000D01*
X156467500Y-71350000D02*
X156112500Y-71705000D01*
X156112500Y-71705000D02*
X155872500Y-71465000D01*
X128600000Y-82110000D02*
X128610000Y-82100000D01*
X141370000Y-74320000D02*
X138970000Y-76720000D01*
X144650000Y-74320000D02*
X141370000Y-74320000D01*
X131770000Y-80660000D02*
X131770000Y-81020000D01*
X132208768Y-80358768D02*
X132071232Y-80358768D01*
X128610000Y-81851778D02*
X128610000Y-81630000D01*
X146245000Y-72725000D02*
X144650000Y-74320000D01*
X128933222Y-82175000D02*
X128610000Y-81851778D01*
X131160000Y-81851778D02*
X130836778Y-82175000D01*
X131770000Y-81020000D02*
X131160000Y-81630000D01*
X132790000Y-81450000D02*
X133100000Y-81760000D01*
X128610000Y-82100000D02*
X128610000Y-81630000D01*
X129085000Y-82595000D02*
X128600000Y-82110000D01*
X133100000Y-82460000D02*
X133240000Y-82600000D01*
X151690000Y-72725000D02*
X146245000Y-72725000D01*
X133240000Y-82600000D02*
X133652500Y-82600000D01*
X132071232Y-80358768D02*
X131770000Y-80660000D01*
X155872500Y-71465000D02*
X152950000Y-71465000D01*
X152950000Y-71465000D02*
X151690000Y-72725000D01*
X133420000Y-76720000D02*
X133020000Y-77120000D01*
X130836778Y-82175000D02*
X128933222Y-82175000D01*
X129085000Y-83450000D02*
X129085000Y-82595000D01*
X131160000Y-81630000D02*
X131160000Y-81851778D01*
X138970000Y-76720000D02*
X133420000Y-76720000D01*
%TO.N,Net-(U1-PROG1)*%
D63*
X116820000Y-110230000D02*
X120377500Y-110230000D01*
X114907500Y-110017500D02*
X115120000Y-110230000D01*
X120377500Y-110230000D02*
X120517500Y-110370000D01*
X114907500Y-108637500D02*
X114907500Y-110017500D01*
%TO.N,/ESP-32-C3-02/GPIO8*%
D64*
X170635000Y-83805000D02*
X170637591Y-83802409D01*
X165610000Y-82060000D02*
X168890000Y-82060000D01*
X170637591Y-83802409D02*
X180677260Y-83802409D01*
X168890000Y-82060000D02*
X170635000Y-83805000D01*
X162130000Y-79205000D02*
X156112500Y-79205000D01*
%TO.N,/ESP-32-C3-02/GPIO18*%
X180677260Y-81262409D02*
X177119851Y-77705000D01*
X177119851Y-77705000D02*
X173612500Y-77705000D01*
%TO.N,/ESP-32-C3-02/GPIO19*%
X180677260Y-78722409D02*
X178159851Y-76205000D01*
X178159851Y-76205000D02*
X173612500Y-76205000D01*
%TO.N,Net-(C16-Pad2)*%
D63*
X110682500Y-67560000D02*
X114527500Y-67560000D01*
%TO.N,/ESP-32-C3-02/RTS*%
D64*
X132190872Y-81199128D02*
X133367500Y-80022500D01*
X133367500Y-80022500D02*
X134040872Y-80022500D01*
X134490000Y-79862500D02*
X134490000Y-80612500D01*
X129633830Y-95827500D02*
X128010000Y-94203670D01*
X128010000Y-94203670D02*
X128010000Y-87940000D01*
X128010000Y-87940000D02*
X132190872Y-83759128D01*
X134490000Y-80612500D02*
X135527500Y-81650000D01*
X132190872Y-83759128D02*
X132190872Y-81199128D01*
%TO.N,Net-(Q3-B)*%
D63*
X134490000Y-78037500D02*
X134727500Y-77800000D01*
X134727500Y-77800000D02*
X136752500Y-77800000D01*
%TO.N,/+5V_USB*%
X118170000Y-105820000D02*
X117790000Y-106200000D01*
X118780000Y-106780000D02*
X119350000Y-106210000D01*
X114407500Y-104062500D02*
X114407500Y-104762500D01*
X117020000Y-103340000D02*
X116630000Y-102950000D01*
X116630000Y-102950000D02*
X117060000Y-102520000D01*
X118170000Y-106780000D02*
X118780000Y-106780000D01*
X124720000Y-103160000D02*
X124730000Y-103150000D01*
X116845000Y-107200000D02*
X116845000Y-106700000D01*
X123510000Y-103160000D02*
X124720000Y-103160000D01*
X117020000Y-103430000D02*
X117020000Y-103340000D01*
X117790000Y-106200000D02*
X116845000Y-106200000D01*
X118170000Y-106780000D02*
X116925000Y-106780000D01*
X115407500Y-103062500D02*
X115520000Y-102950000D01*
X118960000Y-105820000D02*
X119350000Y-106210000D01*
X116925000Y-106780000D02*
X116845000Y-106700000D01*
X111150000Y-99300000D02*
X111150000Y-98990000D01*
X115520000Y-102950000D02*
X116630000Y-102950000D01*
X116845000Y-106700000D02*
X116845000Y-106200000D01*
X115407500Y-104762500D02*
X115407500Y-103062500D01*
X118170000Y-105820000D02*
X118960000Y-105820000D01*
X111150000Y-99300000D02*
X111150000Y-101800000D01*
X118170000Y-106780000D02*
X118170000Y-105820000D01*
X115520000Y-102950000D02*
X114407500Y-104062500D01*
X111150000Y-98990000D02*
X111990000Y-98150000D01*
%TO.N,Net-(U3-IO6)*%
X156112500Y-76205000D02*
X154463516Y-76205000D01*
X154463516Y-76205000D02*
X153871163Y-76797353D01*
%TO.N,Net-(U3-IO7)*%
X154986016Y-77705000D02*
X153871163Y-78819853D01*
X156112500Y-77705000D02*
X154986016Y-77705000D01*
%TO.N,/ESP-32-C3-02/BOOT*%
D64*
X153592500Y-82925000D02*
X155812500Y-80705000D01*
X126527500Y-77870000D02*
X126397500Y-78000000D01*
X132370000Y-78470000D02*
X131785000Y-78470000D01*
X139960000Y-81270000D02*
X139960000Y-81273884D01*
X128950000Y-77260000D02*
X130800000Y-77260000D01*
X136752500Y-79700000D02*
X135927500Y-78875000D01*
X132775000Y-78875000D02*
X132370000Y-78470000D01*
X131185000Y-77645000D02*
X131185000Y-77870000D01*
X128635000Y-77870000D02*
X126527500Y-77870000D01*
X147369390Y-82175000D02*
X148119390Y-82925000D01*
X128635000Y-77870000D02*
X128635000Y-77575000D01*
X138390000Y-79700000D02*
X139960000Y-81270000D01*
X130800000Y-77260000D02*
X131185000Y-77645000D01*
X131785000Y-78470000D02*
X131185000Y-77870000D01*
X155812500Y-80705000D02*
X156112500Y-80705000D01*
X136752500Y-79700000D02*
X138390000Y-79700000D01*
X128635000Y-77575000D02*
X128950000Y-77260000D01*
X139960000Y-81273884D02*
X140861116Y-82175000D01*
X148119390Y-82925000D02*
X153592500Y-82925000D01*
X135927500Y-78875000D02*
X132775000Y-78875000D01*
X140861116Y-82175000D02*
X147369390Y-82175000D01*
%TO.N,/ESP-32-C3-02/TX_RX*%
D63*
X128157500Y-96827500D02*
X127900000Y-96570000D01*
X175670000Y-80710000D02*
X175665000Y-80705000D01*
X129633830Y-96827500D02*
X128157500Y-96827500D01*
X175665000Y-80705000D02*
X173612500Y-80705000D01*
%TO.N,/ESP-32-C3-02/RX_TX*%
X128557108Y-95760000D02*
X129124608Y-96327500D01*
X129124608Y-96327500D02*
X129633830Y-96327500D01*
X175680000Y-79205000D02*
X173612500Y-79205000D01*
%TO.N,/ESP-32-C3-02/MISO_DO*%
D58*
X170780000Y-73190000D02*
X167780000Y-76190000D01*
X167780000Y-78047500D02*
X160697500Y-85130000D01*
X177180000Y-73180000D02*
X176570000Y-73180000D01*
X160697500Y-85130000D02*
X151580000Y-85130000D01*
X176570000Y-73180000D02*
X176550000Y-73200000D01*
X173597500Y-73190000D02*
X170780000Y-73190000D01*
X173612500Y-73205000D02*
X173597500Y-73190000D01*
X150090000Y-83640000D02*
X151580000Y-85130000D01*
X151580000Y-85130000D02*
X151555000Y-85155000D01*
X147372500Y-83640000D02*
X150090000Y-83640000D01*
X167780000Y-76190000D02*
X167780000Y-78047500D01*
X151555000Y-85155000D02*
X151555000Y-86987500D01*
X176550000Y-73200000D02*
X173617500Y-73200000D01*
X173617500Y-73200000D02*
X173612500Y-73205000D01*
%TO.N,/POWER_CHARGING_GOOD*%
D63*
X112145000Y-104912500D02*
X111332500Y-104100000D01*
X112543114Y-106200000D02*
X112145000Y-105801886D01*
X112145000Y-105801886D02*
X112145000Y-104912500D01*
X112970000Y-106200000D02*
X112543114Y-106200000D01*
%TO.N,Net-(LED3B1-K)*%
X109507500Y-101957500D02*
X109350000Y-101800000D01*
X109507500Y-104100000D02*
X109507500Y-101957500D01*
%TO.N,Net-(C21-Pad1)*%
X109570000Y-76810000D02*
X111932500Y-76810000D01*
X111932500Y-76810000D02*
X111970000Y-76847500D01*
%TO.N,Net-(LED6R1-K)*%
X126650803Y-95242521D02*
X126650803Y-94678757D01*
X126650803Y-94678757D02*
X126301243Y-94678757D01*
X124986868Y-96906456D02*
X126650803Y-95242521D01*
%TO.N,Net-(LED2G1-K)*%
X108260000Y-100390000D02*
X109350000Y-99300000D01*
X109507500Y-106100000D02*
X108260000Y-104852500D01*
X108260000Y-104852500D02*
X108260000Y-100390000D01*
%TO.N,Net-(C22-Pad1)*%
X106600000Y-70510000D02*
X107350000Y-71260000D01*
X107350000Y-71260000D02*
X110420000Y-71260000D01*
X106600000Y-70510000D02*
X108857500Y-68252500D01*
X108857500Y-68252500D02*
X108857500Y-67560000D01*
%TO.N,Net-(U1-THERM)*%
X118190000Y-108310000D02*
X119317500Y-108310000D01*
X119317500Y-108310000D02*
X119377500Y-108250000D01*
X113319810Y-105075000D02*
X113595000Y-105075000D01*
X113595000Y-105075000D02*
X113907500Y-104762500D01*
%TO.N,Net-(U7-SDO)*%
X129209523Y-70997023D02*
X129252500Y-71040000D01*
X129209523Y-69147500D02*
X129209523Y-70997023D01*
%TO.N,Net-(Q2-B)*%
X137502500Y-83550000D02*
X137690000Y-83362500D01*
X135527500Y-83550000D02*
X137502500Y-83550000D01*
%TO.N,Net-(U4-~{RST})*%
X134283506Y-95985812D02*
X134283506Y-94341256D01*
X134283506Y-94341256D02*
X135092634Y-93532128D01*
X133941818Y-96327500D02*
X134283506Y-95985812D01*
X133503830Y-96327500D02*
X133941818Y-96327500D01*
%TO.N,/ESP-32-C3-02/DTR*%
X138767500Y-81537500D02*
X139320000Y-82090000D01*
X139520000Y-78750000D02*
X139640000Y-78870000D01*
X129299870Y-94892500D02*
X130568830Y-94892500D01*
X139320000Y-84100000D02*
X138930000Y-84490000D01*
X128435000Y-94027630D02*
X129299870Y-94892500D01*
X132270000Y-84490000D02*
X128435000Y-88325000D01*
X139640000Y-78870000D02*
X139640000Y-79950000D01*
X139640000Y-79950000D02*
X139670000Y-79980000D01*
X138930000Y-84490000D02*
X132270000Y-84490000D01*
X138627500Y-78750000D02*
X139520000Y-78750000D01*
X137690000Y-81537500D02*
X138767500Y-81537500D01*
X128435000Y-88325000D02*
X128435000Y-94027630D01*
X139320000Y-82090000D02*
X139320000Y-84100000D01*
%TO.N,Net-(U4-~{RXT}{slash}GPIO.3)*%
X129633830Y-97327500D02*
X127232912Y-97327500D01*
D58*
X127232912Y-97327500D02*
X126811868Y-96906456D01*
%TO.N,Net-(J1-CC2)*%
D60*
X133353250Y-108482500D02*
X133353250Y-108893250D01*
X137910000Y-111870000D02*
X138650000Y-111130000D01*
X138650000Y-111130000D02*
X138650000Y-111080000D01*
X136330000Y-111870000D02*
X137910000Y-111870000D01*
X138650000Y-111080000D02*
X138700000Y-111030000D01*
X138700000Y-111030000D02*
X138700000Y-109362500D01*
X133353250Y-108893250D02*
X136330000Y-111870000D01*
%TO.N,Net-(J3-DAT0)*%
D63*
X152355000Y-90960000D02*
X152355000Y-89612500D01*
X152355000Y-89612500D02*
X151555000Y-88812500D01*
%TO.N,Net-(J1-CC1)*%
X131309448Y-104825000D02*
X131539314Y-104825000D01*
X131803250Y-105088936D02*
X131803250Y-106522500D01*
X130944448Y-104460000D02*
X131309448Y-104825000D01*
X129900000Y-104460000D02*
X130944448Y-104460000D01*
X126450000Y-105787500D02*
X128572500Y-105787500D01*
X128572500Y-105787500D02*
X129900000Y-104460000D01*
X131539314Y-104825000D02*
X131803250Y-105088936D01*
%TO.N,/CHARGED*%
X112970000Y-106700000D02*
X111932500Y-106700000D01*
X111932500Y-106700000D02*
X111332500Y-106100000D01*
%TD*%
%TA.AperFunction,Conductor*%
%TO.N,/VBUS*%
G36*
X128686061Y-101520597D02*
G01*
X128862941Y-101538018D01*
X128886769Y-101542757D01*
X129051001Y-101592576D01*
X129073453Y-101601877D01*
X129224798Y-101682772D01*
X129245010Y-101696277D01*
X129377666Y-101805145D01*
X129394854Y-101822333D01*
X129503722Y-101954989D01*
X129517227Y-101975201D01*
X129598121Y-102126543D01*
X129607424Y-102149001D01*
X129657240Y-102313224D01*
X129661982Y-102337065D01*
X129679403Y-102513938D01*
X129680000Y-102526092D01*
X129680000Y-103763906D01*
X129679403Y-103776061D01*
X129673333Y-103837686D01*
X129647172Y-103902473D01*
X129611931Y-103932918D01*
X129531284Y-103979480D01*
X129531281Y-103979482D01*
X128778776Y-104731987D01*
X128717453Y-104765472D01*
X128703256Y-104767708D01*
X128686067Y-104769402D01*
X128673906Y-104770000D01*
X127676093Y-104770000D01*
X127663939Y-104769403D01*
X127487065Y-104751982D01*
X127463224Y-104747240D01*
X127299001Y-104697424D01*
X127276543Y-104688121D01*
X127125201Y-104607227D01*
X127104989Y-104593722D01*
X126972333Y-104484854D01*
X126955145Y-104467666D01*
X126846277Y-104335010D01*
X126832772Y-104314798D01*
X126751878Y-104163456D01*
X126742575Y-104140998D01*
X126692757Y-103976769D01*
X126688018Y-103952941D01*
X126670597Y-103776061D01*
X126670000Y-103763907D01*
X126670000Y-102526092D01*
X126670597Y-102513938D01*
X126688018Y-102337056D01*
X126692757Y-102313232D01*
X126742577Y-102148994D01*
X126751875Y-102126549D01*
X126832775Y-101975195D01*
X126846272Y-101954995D01*
X126955149Y-101822328D01*
X126972328Y-101805149D01*
X127104995Y-101696272D01*
X127125195Y-101682775D01*
X127276549Y-101601875D01*
X127298994Y-101592577D01*
X127463232Y-101542757D01*
X127487056Y-101538018D01*
X127663939Y-101520597D01*
X127676093Y-101520000D01*
X128673907Y-101520000D01*
X128686061Y-101520597D01*
G37*
%TD.AperFunction*%
%TD*%
%TA.AperFunction,Conductor*%
%TO.N,/+5V_USB*%
G36*
X125473106Y-101535023D02*
G01*
X125488104Y-101539427D01*
X125546855Y-101577172D01*
X125548042Y-101578541D01*
X125575518Y-101633402D01*
X125577163Y-101640960D01*
X125580000Y-101667331D01*
X125580000Y-104638170D01*
X125574975Y-104673114D01*
X125570570Y-104688112D01*
X125532827Y-104746855D01*
X125531458Y-104748042D01*
X125476597Y-104775518D01*
X125469039Y-104777163D01*
X125442668Y-104780000D01*
X123211830Y-104780000D01*
X123176889Y-104774975D01*
X123161890Y-104770570D01*
X123103144Y-104732827D01*
X123101957Y-104731458D01*
X123074477Y-104676583D01*
X123072832Y-104669021D01*
X123070000Y-104642668D01*
X123070000Y-101671829D01*
X123075023Y-101636893D01*
X123079427Y-101621895D01*
X123117172Y-101563144D01*
X123118541Y-101561957D01*
X123173420Y-101534477D01*
X123180979Y-101532833D01*
X123207332Y-101530000D01*
X125438170Y-101530000D01*
X125473106Y-101535023D01*
G37*
%TD.AperFunction*%
%TD*%
%TA.AperFunction,Conductor*%
%TO.N,GND*%
G36*
X113303019Y-114972759D02*
G01*
X113466716Y-114988882D01*
X113490554Y-114993624D01*
X113663221Y-115046003D01*
X113685671Y-115055301D01*
X113844808Y-115140361D01*
X113865011Y-115153861D01*
X114004486Y-115268325D01*
X114021674Y-115285513D01*
X114136138Y-115424988D01*
X114149639Y-115445193D01*
X114234695Y-115604321D01*
X114243996Y-115626778D01*
X114296375Y-115799445D01*
X114301118Y-115823287D01*
X114319403Y-116008938D01*
X114320000Y-116021092D01*
X114320000Y-116128907D01*
X114319403Y-116141061D01*
X114301118Y-116326712D01*
X114296375Y-116350554D01*
X114243996Y-116523221D01*
X114234695Y-116545678D01*
X114149644Y-116704799D01*
X114136138Y-116725011D01*
X114021674Y-116864486D01*
X114004486Y-116881674D01*
X113865011Y-116996138D01*
X113844801Y-117009642D01*
X113753928Y-117058214D01*
X113685678Y-117094695D01*
X113663221Y-117103996D01*
X113490554Y-117156375D01*
X113466711Y-117161118D01*
X113287153Y-117178802D01*
X113262847Y-117178802D01*
X113083288Y-117161118D01*
X113059445Y-117156375D01*
X112886778Y-117103996D01*
X112864323Y-117094696D01*
X112705193Y-117009639D01*
X112684988Y-116996138D01*
X112545513Y-116881674D01*
X112528325Y-116864486D01*
X112413861Y-116725011D01*
X112400361Y-116704808D01*
X112315301Y-116545671D01*
X112306003Y-116523221D01*
X112253624Y-116350554D01*
X112248882Y-116326716D01*
X112230597Y-116141060D01*
X112230000Y-116128907D01*
X112230000Y-116021092D01*
X112230597Y-116008939D01*
X112231974Y-115994949D01*
X112248882Y-115823281D01*
X112253624Y-115799445D01*
X112306003Y-115626778D01*
X112315299Y-115604332D01*
X112400364Y-115445186D01*
X112413856Y-115424994D01*
X112528329Y-115285508D01*
X112545508Y-115268329D01*
X112684994Y-115153856D01*
X112705186Y-115140364D01*
X112864332Y-115055299D01*
X112886778Y-115046003D01*
X113059445Y-114993624D01*
X113083281Y-114988882D01*
X113249166Y-114972544D01*
X113262847Y-114971197D01*
X113287153Y-114971197D01*
X113303019Y-114972759D01*
G37*
%TD.AperFunction*%
%TD*%
%TA.AperFunction,Conductor*%
%TO.N,+5V*%
G36*
X117423039Y-104329685D02*
G01*
X117468794Y-104382489D01*
X117480000Y-104434000D01*
X117480000Y-105374181D01*
X117462207Y-105434774D01*
X117463476Y-105435452D01*
X117460608Y-105440817D01*
X117432682Y-105508235D01*
X117388840Y-105562638D01*
X117322546Y-105584702D01*
X117301936Y-105583720D01*
X117231911Y-105574501D01*
X117231906Y-105574500D01*
X117231901Y-105574500D01*
X117231894Y-105574500D01*
X116781999Y-105574500D01*
X116714960Y-105554815D01*
X116669205Y-105502011D01*
X116657999Y-105450500D01*
X116657999Y-105402129D01*
X116657998Y-105402123D01*
X116651591Y-105342516D01*
X116601297Y-105207671D01*
X116601293Y-105207664D01*
X116515047Y-105092455D01*
X116515044Y-105092452D01*
X116399835Y-105006206D01*
X116399828Y-105006202D01*
X116264982Y-104955908D01*
X116264983Y-104955908D01*
X116205383Y-104949501D01*
X116205381Y-104949500D01*
X116205373Y-104949500D01*
X116205365Y-104949500D01*
X116156999Y-104949500D01*
X116089960Y-104929815D01*
X116044205Y-104877011D01*
X116032999Y-104825500D01*
X116032999Y-104434000D01*
X116052684Y-104366961D01*
X116105488Y-104321206D01*
X116156999Y-104310000D01*
X117356000Y-104310000D01*
X117423039Y-104329685D01*
G37*
%TD.AperFunction*%
%TD*%
%TA.AperFunction,Conductor*%
%TO.N,GND*%
G36*
X113993039Y-107549685D02*
G01*
X114038794Y-107602489D01*
X114050000Y-107654000D01*
X114050000Y-107743066D01*
X114030315Y-107810105D01*
X114001487Y-107841441D01*
X113943466Y-107885962D01*
X113853219Y-108003574D01*
X113796491Y-108140527D01*
X113796490Y-108140529D01*
X113782000Y-108250598D01*
X113782001Y-108966000D01*
X113762317Y-109033039D01*
X113709513Y-109078794D01*
X113658001Y-109090000D01*
X112654000Y-109090000D01*
X112586961Y-109070315D01*
X112541206Y-109017511D01*
X112530000Y-108966000D01*
X112530000Y-107949499D01*
X112549685Y-107882460D01*
X112602489Y-107836705D01*
X112653995Y-107825499D01*
X113356900Y-107825499D01*
X113356903Y-107825499D01*
X113466963Y-107811011D01*
X113466967Y-107811009D01*
X113466972Y-107811009D01*
X113603929Y-107754279D01*
X113721536Y-107664036D01*
X113787159Y-107578513D01*
X113843587Y-107537311D01*
X113885535Y-107530000D01*
X113926000Y-107530000D01*
X113993039Y-107549685D01*
G37*
%TD.AperFunction*%
%TD*%
%TA.AperFunction,Conductor*%
%TO.N,GND*%
G36*
X122736024Y-84198700D02*
G01*
X122802851Y-84219086D01*
X122848050Y-84272366D01*
X122858715Y-84323978D01*
X122821275Y-87936955D01*
X122800897Y-88003787D01*
X122747622Y-88048992D01*
X122696949Y-88059670D01*
X122215708Y-88058379D01*
X122168590Y-88048941D01*
X122123497Y-88030263D01*
X122123493Y-88030262D01*
X122123488Y-88030260D01*
X121968845Y-87999500D01*
X121968842Y-87999500D01*
X121811158Y-87999500D01*
X121811155Y-87999500D01*
X121656506Y-88030261D01*
X121656500Y-88030263D01*
X121615600Y-88047204D01*
X121567818Y-88056642D01*
X119213668Y-88050331D01*
X119146681Y-88030466D01*
X119101068Y-87977540D01*
X119090000Y-87926331D01*
X119090000Y-86770000D01*
X116080000Y-86770000D01*
X116079999Y-86770000D01*
X116079999Y-87455500D01*
X116060314Y-87522540D01*
X116007510Y-87568294D01*
X115955999Y-87579500D01*
X114403726Y-87579500D01*
X114336687Y-87559815D01*
X114290932Y-87507011D01*
X114279726Y-87455544D01*
X114279430Y-86619021D01*
X114278588Y-84235429D01*
X114298249Y-84168383D01*
X114351037Y-84122610D01*
X114403885Y-84111393D01*
X122736024Y-84198700D01*
G37*
%TD.AperFunction*%
%TD*%
%TA.AperFunction,Conductor*%
%TO.N,/VBAT*%
G36*
X117193106Y-107830522D02*
G01*
X117208104Y-107834926D01*
X117266855Y-107872671D01*
X117268042Y-107874040D01*
X117295518Y-107928901D01*
X117297163Y-107936459D01*
X117300000Y-107962830D01*
X117300000Y-109138170D01*
X117294975Y-109173114D01*
X117290570Y-109188112D01*
X117252827Y-109246855D01*
X117251458Y-109248042D01*
X117196597Y-109275518D01*
X117189039Y-109277163D01*
X117162668Y-109280000D01*
X115658574Y-109280000D01*
X115623632Y-109274975D01*
X115610077Y-109270994D01*
X115551301Y-109233216D01*
X115522389Y-109170402D01*
X115520392Y-109157080D01*
X115520083Y-109122515D01*
X115533000Y-109024401D01*
X115532999Y-108592324D01*
X115538022Y-108557390D01*
X115542425Y-108542395D01*
X115580170Y-108483643D01*
X115581539Y-108482456D01*
X115636420Y-108454975D01*
X115640759Y-108454031D01*
X115643982Y-108453331D01*
X115670331Y-108450499D01*
X116205371Y-108450499D01*
X116205372Y-108450499D01*
X116264983Y-108444091D01*
X116399831Y-108393796D01*
X116515046Y-108307546D01*
X116601296Y-108192331D01*
X116651591Y-108057483D01*
X116658000Y-107997873D01*
X116658000Y-107967328D01*
X116663023Y-107932392D01*
X116667427Y-107917394D01*
X116705172Y-107858643D01*
X116706541Y-107857456D01*
X116761420Y-107829976D01*
X116768979Y-107828332D01*
X116795332Y-107825499D01*
X117158170Y-107825499D01*
X117193106Y-107830522D01*
G37*
%TD.AperFunction*%
%TD*%
%TA.AperFunction,Conductor*%
%TO.N,GND*%
G36*
X109390650Y-87320002D02*
G01*
X109436686Y-87372560D01*
X109448156Y-87426481D01*
X109401775Y-90608219D01*
X109381115Y-90674965D01*
X109327650Y-90719945D01*
X109278207Y-90730411D01*
X106440000Y-90740000D01*
X105060000Y-91779999D01*
X105050505Y-94106035D01*
X105030547Y-94172994D01*
X104977557Y-94218533D01*
X104926035Y-94229528D01*
X102545481Y-94220477D01*
X102478516Y-94200538D01*
X102432963Y-94147560D01*
X102421967Y-94094534D01*
X102508071Y-88603024D01*
X102528804Y-88536301D01*
X102582319Y-88491380D01*
X102633033Y-88480972D01*
X107507505Y-88519505D01*
X107569999Y-88520000D01*
X107569999Y-88519999D01*
X107570000Y-88520000D01*
X107578989Y-87432317D01*
X107599227Y-87365444D01*
X107652408Y-87320127D01*
X107702317Y-87309345D01*
X109323507Y-87300676D01*
X109390650Y-87320002D01*
G37*
%TD.AperFunction*%
%TD*%
M02*
