%TF.GenerationSoftware,KiCad,Pcbnew,10.0.6-10.0.6~ubuntu24.04.1*%
%TF.CreationDate,2026-08-29T14:17:59+02:00*%
%TF.ProjectId,Tutorial03-ESP32-IoT-4-layer-PCB,5475746f-7269-4616-9c30-332d45535033,rev?*%
%TF.SameCoordinates,Original*%
%TF.FileFunction,Soldermask,Top*%
%TF.FilePolarity,Negative*%
%FSLAX46Y46*%
G04 Gerber Fmt 4.6, Leading zero omitted, Abs format (unit mm)*
G04 Created by KiCad (PCBNEW 10.0.6-10.0.6~ubuntu24.04.1) date 2026-08-29 14:17:59*
%MOMM*%
%LPD*%
G01*
G04 APERTURE LIST*
G04 Aperture macros list*
%AMRoundRect*
0 Rectangle with rounded corners*
0 $1 Rounding radius*
0 $2 $3 $4 $5 $6 $7 $8 $9 X,Y pos of 4 corners*
0 Add a 4 corners polygon primitive as box body*
4,1,4,$2,$3,$4,$5,$6,$7,$8,$9,$2,$3,0*
0 Add four circle primitives for the rounded corners*
1,1,$1+$1,$2,$3*
1,1,$1+$1,$4,$5*
1,1,$1+$1,$6,$7*
1,1,$1+$1,$8,$9*
0 Add four rect primitives between the rounded corners*
20,1,$1+$1,$2,$3,$4,$5,0*
20,1,$1+$1,$4,$5,$6,$7,0*
20,1,$1+$1,$6,$7,$8,$9,0*
20,1,$1+$1,$8,$9,$2,$3,0*%
G04 Aperture macros list end*
%ADD10C,1.000000*%
%ADD11RoundRect,0.250000X-0.475000X0.250000X-0.475000X-0.250000X0.475000X-0.250000X0.475000X0.250000X0*%
%ADD12RoundRect,0.250000X0.262500X0.450000X-0.262500X0.450000X-0.262500X-0.450000X0.262500X-0.450000X0*%
%ADD13RoundRect,0.102000X0.550000X0.400000X-0.550000X0.400000X-0.550000X-0.400000X0.550000X-0.400000X0*%
%ADD14RoundRect,0.102000X0.550000X0.500000X-0.550000X0.500000X-0.550000X-0.500000X0.550000X-0.500000X0*%
%ADD15RoundRect,0.250000X0.450000X-0.262500X0.450000X0.262500X-0.450000X0.262500X-0.450000X-0.262500X0*%
%ADD16R,1.700000X1.700000*%
%ADD17C,1.700000*%
%ADD18R,1.230000X1.800000*%
%ADD19RoundRect,0.102000X-0.475000X1.075000X-0.475000X-1.075000X0.475000X-1.075000X0.475000X1.075000X0*%
%ADD20RoundRect,0.102000X-1.625000X1.075000X-1.625000X-1.075000X1.625000X-1.075000X1.625000X1.075000X0*%
%ADD21C,2.500000*%
%ADD22RoundRect,0.125000X-0.250000X-0.125000X0.250000X-0.125000X0.250000X0.125000X-0.250000X0.125000X0*%
%ADD23R,3.400000X4.300000*%
%ADD24R,1.000000X1.400000*%
%ADD25RoundRect,0.202000X-0.495000X-0.100000X0.495000X-0.100000X0.495000X0.100000X-0.495000X0.100000X0*%
%ADD26RoundRect,0.250000X0.475000X-0.250000X0.475000X0.250000X-0.475000X0.250000X-0.475000X-0.250000X0*%
%ADD27RoundRect,0.250000X-0.262500X-0.450000X0.262500X-0.450000X0.262500X0.450000X-0.262500X0.450000X0*%
%ADD28RoundRect,0.250000X-0.250000X-0.475000X0.250000X-0.475000X0.250000X0.475000X-0.250000X0.475000X0*%
%ADD29RoundRect,0.150000X-0.150000X0.512500X-0.150000X-0.512500X0.150000X-0.512500X0.150000X0.512500X0*%
%ADD30RoundRect,0.102000X-0.500000X-2.750000X0.500000X-2.750000X0.500000X2.750000X-0.500000X2.750000X0*%
%ADD31RoundRect,0.102000X-0.800000X-1.500000X0.800000X-1.500000X0.800000X1.500000X-0.800000X1.500000X0*%
%ADD32RoundRect,0.102000X-0.275000X-0.285000X0.275000X-0.285000X0.275000X0.285000X-0.275000X0.285000X0*%
%ADD33RoundRect,0.250000X-0.450000X0.262500X-0.450000X-0.262500X0.450000X-0.262500X0.450000X0.262500X0*%
%ADD34R,0.910000X2.810000*%
%ADD35RoundRect,0.102000X-0.750000X-0.450000X0.750000X-0.450000X0.750000X0.450000X-0.750000X0.450000X0*%
%ADD36RoundRect,0.102000X-0.350000X-0.350000X0.350000X-0.350000X0.350000X0.350000X-0.350000X0.350000X0*%
%ADD37RoundRect,0.250000X0.250000X0.475000X-0.250000X0.475000X-0.250000X-0.475000X0.250000X-0.475000X0*%
%ADD38RoundRect,0.102000X0.275000X0.285000X-0.275000X0.285000X-0.275000X-0.285000X0.275000X-0.285000X0*%
%ADD39RoundRect,0.150000X0.587500X0.150000X-0.587500X0.150000X-0.587500X-0.150000X0.587500X-0.150000X0*%
%ADD40RoundRect,0.167000X0.065000X-0.355000X0.065000X0.355000X-0.065000X0.355000X-0.065000X-0.355000X0*%
%ADD41RoundRect,0.167000X0.355000X-0.065000X0.355000X0.065000X-0.355000X0.065000X-0.355000X-0.065000X0*%
%ADD42RoundRect,0.102000X1.312500X-1.312500X1.312500X1.312500X-1.312500X1.312500X-1.312500X-1.312500X0*%
%ADD43R,1.400000X1.000000*%
%ADD44RoundRect,0.102000X-0.150000X-0.600000X0.150000X-0.600000X0.150000X0.600000X-0.150000X0.600000X0*%
%ADD45C,0.854000*%
%ADD46RoundRect,0.102000X-0.100000X-0.500000X0.100000X-0.500000X0.100000X0.500000X-0.100000X0.500000X0*%
%ADD47O,1.254000X2.304000*%
%ADD48C,1.412000*%
%ADD49RoundRect,0.158250X0.168750X-0.188750X0.168750X0.188750X-0.168750X0.188750X-0.168750X-0.188750X0*%
%ADD50RoundRect,0.150000X-0.587500X-0.150000X0.587500X-0.150000X0.587500X0.150000X-0.587500X0.150000X0*%
%ADD51C,1.150000*%
%ADD52C,1.650000*%
%ADD53RoundRect,0.102000X-0.500000X-0.750000X0.500000X-0.750000X0.500000X0.750000X-0.500000X0.750000X0*%
%ADD54RoundRect,0.102000X-0.350000X-0.750000X0.350000X-0.750000X0.350000X0.750000X-0.350000X0.750000X0*%
%ADD55RoundRect,0.102000X-0.750000X-1.400000X0.750000X-1.400000X0.750000X1.400000X-0.750000X1.400000X0*%
%ADD56R,1.800000X1.230000*%
%ADD57RoundRect,0.062500X-0.062500X0.350000X-0.062500X-0.350000X0.062500X-0.350000X0.062500X0.350000X0*%
%ADD58RoundRect,0.062500X-0.350000X0.062500X-0.350000X-0.062500X0.350000X-0.062500X0.350000X0.062500X0*%
%ADD59R,2.500000X2.500000*%
G04 APERTURE END LIST*
D10*
%TO.C,TP4*%
X177170000Y-85610000D03*
%TD*%
D11*
%TO.C,C10*%
X133198830Y-91457500D03*
X133198830Y-93357500D03*
%TD*%
D12*
%TO.C,R1*%
X111332500Y-108200000D03*
X109507500Y-108200000D03*
%TD*%
%TO.C,R17*%
X144122500Y-75640000D03*
X142297500Y-75640000D03*
%TD*%
D11*
%TO.C,C8*%
X153710000Y-70390000D03*
X153710000Y-72290000D03*
%TD*%
D13*
%TO.C,Q1*%
X107235000Y-76750000D03*
X107235000Y-75650000D03*
D14*
X103725000Y-76200000D03*
%TD*%
D15*
%TO.C,R9*%
X113270000Y-103132500D03*
X113270000Y-101307500D03*
%TD*%
D16*
%TO.C,J4*%
X132174523Y-64720000D03*
D17*
X129634523Y-64720000D03*
X127094523Y-64720000D03*
X124554523Y-64720000D03*
%TD*%
D18*
%TO.C,C3*%
X105437946Y-86910000D03*
X105437946Y-89530000D03*
%TD*%
D19*
%TO.C,VR1*%
X115237946Y-86520000D03*
X112937946Y-86520000D03*
X110637946Y-86520000D03*
D20*
X112937946Y-92320000D03*
%TD*%
D21*
%TO.C,2.5*%
X181200000Y-70900000D03*
%TD*%
D22*
%TO.C,U6*%
X142110000Y-77735000D03*
X142110000Y-79005000D03*
X142110000Y-80275000D03*
X142110000Y-81545000D03*
X147510000Y-81545000D03*
X147510000Y-80275000D03*
X147510000Y-79005000D03*
X147510000Y-77735000D03*
D23*
X144810000Y-79640000D03*
%TD*%
D24*
%TO.C,LED2R1*%
X108037946Y-92870000D03*
X109837946Y-92870000D03*
%TD*%
D12*
%TO.C,R16*%
X126832500Y-98929292D03*
X125007500Y-98929292D03*
%TD*%
D25*
%TO.C,U2*%
X114280000Y-73510000D03*
X114280000Y-74160000D03*
X114280000Y-74810000D03*
X116200000Y-74810000D03*
X116200000Y-73510000D03*
%TD*%
D15*
%TO.C,R21*%
X147600000Y-88862500D03*
X147600000Y-87037500D03*
%TD*%
D26*
%TO.C,C15*%
X125554523Y-69260000D03*
X125554523Y-67360000D03*
%TD*%
D27*
%TO.C,R13*%
X135103483Y-97626439D03*
X136928483Y-97626439D03*
%TD*%
D28*
%TO.C,C20*%
X114420000Y-79360000D03*
X116320000Y-79360000D03*
%TD*%
D29*
%TO.C,U5*%
X133550000Y-101587500D03*
X132600000Y-101587500D03*
X131650000Y-101587500D03*
X131650000Y-103862500D03*
X132600000Y-103862500D03*
X133550000Y-103862500D03*
%TD*%
D27*
%TO.C,R6*%
X120517500Y-112440000D03*
X122342500Y-112440000D03*
%TD*%
D30*
%TO.C,J2*%
X113970000Y-114500000D03*
X115970000Y-114500000D03*
D31*
X111570000Y-112250000D03*
X118370000Y-112250000D03*
%TD*%
D26*
%TO.C,C19*%
X126397500Y-83500000D03*
X126397500Y-81600000D03*
%TD*%
D32*
%TO.C,S2*%
X128610000Y-80470000D03*
X131160000Y-80470000D03*
X128610000Y-81630000D03*
X131160000Y-81630000D03*
%TD*%
D27*
%TO.C,R5*%
X120517500Y-110370000D03*
X122342500Y-110370000D03*
%TD*%
D16*
%TO.C,J5*%
X180677260Y-86342409D03*
D17*
X180677260Y-83802409D03*
X180677260Y-81262409D03*
X180677260Y-78722409D03*
X180677260Y-76182409D03*
%TD*%
D33*
%TO.C,R27*%
X116170000Y-69647500D03*
X116170000Y-71472500D03*
%TD*%
D10*
%TO.C,TP5*%
X177170000Y-82210000D03*
%TD*%
D18*
%TO.C,C4*%
X120437946Y-89540000D03*
X120437946Y-86920000D03*
%TD*%
D12*
%TO.C,R26*%
X116352500Y-67560000D03*
X114527500Y-67560000D03*
%TD*%
D33*
%TO.C,R25*%
X132932162Y-67385812D03*
X132932162Y-69210812D03*
%TD*%
D15*
%TO.C,R34*%
X134490000Y-79862500D03*
X134490000Y-78037500D03*
%TD*%
D26*
%TO.C,C5*%
X117437946Y-87870000D03*
X117437946Y-85970000D03*
%TD*%
D34*
%TO.C,F1*%
X127970000Y-103150000D03*
X124730000Y-103150000D03*
%TD*%
D35*
%TO.C,U3*%
X156112500Y-70205000D03*
X156112500Y-71705000D03*
X156112500Y-73205000D03*
X156112500Y-74705000D03*
X156112500Y-76205000D03*
X156112500Y-77705000D03*
X156112500Y-79205000D03*
X156112500Y-80705000D03*
X156112500Y-82205000D03*
X173612500Y-82205000D03*
X173612500Y-80705000D03*
X173612500Y-79205000D03*
X173612500Y-77705000D03*
X173612500Y-76205000D03*
X173612500Y-74705000D03*
X173612500Y-73205000D03*
X173612500Y-71705000D03*
X173612500Y-70205000D03*
D36*
X164722500Y-75305000D03*
X165822500Y-75305000D03*
X166922500Y-75305000D03*
X164722500Y-76405000D03*
X165822500Y-76405000D03*
X166922500Y-76405000D03*
X164722500Y-77505000D03*
X165822500Y-77505000D03*
X166922500Y-77505000D03*
%TD*%
D33*
%TO.C,R24*%
X130866202Y-67377500D03*
X130866202Y-69202500D03*
%TD*%
D11*
%TO.C,C17*%
X126397500Y-78000000D03*
X126397500Y-79900000D03*
%TD*%
D33*
%TO.C,R19*%
X167305000Y-86935000D03*
X167305000Y-88760000D03*
%TD*%
D28*
%TO.C,C6*%
X119350000Y-106210000D03*
X121250000Y-106210000D03*
%TD*%
D12*
%TO.C,R7*%
X111332500Y-104100000D03*
X109507500Y-104100000D03*
%TD*%
D27*
%TO.C,R20*%
X152046163Y-76797353D03*
X153871163Y-76797353D03*
%TD*%
%TO.C,R32*%
X129085000Y-83450000D03*
X130910000Y-83450000D03*
%TD*%
D10*
%TO.C,TP2*%
X177170000Y-73180000D03*
%TD*%
D11*
%TO.C,C21*%
X109570000Y-76810000D03*
X109570000Y-78710000D03*
%TD*%
D28*
%TO.C,C11*%
X135083506Y-95574733D03*
X136983506Y-95574733D03*
%TD*%
D11*
%TO.C,C18*%
X111970000Y-73210000D03*
X111970000Y-75110000D03*
%TD*%
D37*
%TO.C,C13*%
X161750000Y-88600000D03*
X159850000Y-88600000D03*
%TD*%
D24*
%TO.C,LED6R1*%
X126650803Y-94678757D03*
X124850803Y-94678757D03*
%TD*%
D26*
%TO.C,C14*%
X147160000Y-75840000D03*
X147160000Y-73940000D03*
%TD*%
D24*
%TO.C,LED2G1*%
X109350000Y-99300000D03*
X111150000Y-99300000D03*
%TD*%
D10*
%TO.C,TP1*%
X177170000Y-89110000D03*
%TD*%
D15*
%TO.C,R30*%
X111970000Y-78672500D03*
X111970000Y-76847500D03*
%TD*%
D11*
%TO.C,C16*%
X112570000Y-65860000D03*
X112570000Y-67760000D03*
%TD*%
D28*
%TO.C,C22*%
X110420000Y-71260000D03*
X112320000Y-71260000D03*
%TD*%
D12*
%TO.C,R15*%
X153871163Y-78819853D03*
X152046163Y-78819853D03*
%TD*%
D27*
%TO.C,R2*%
X119377500Y-108250000D03*
X121202500Y-108250000D03*
%TD*%
D18*
%TO.C,C9*%
X130298830Y-89777500D03*
X130298830Y-92397500D03*
%TD*%
D12*
%TO.C,R23*%
X105810000Y-78847500D03*
X103985000Y-78847500D03*
%TD*%
D27*
%TO.C,R31*%
X114457500Y-76960000D03*
X116282500Y-76960000D03*
%TD*%
D12*
%TO.C,R35*%
X129252500Y-71040000D03*
X127427500Y-71040000D03*
%TD*%
D11*
%TO.C,C2*%
X108477946Y-85960000D03*
X108477946Y-87860000D03*
%TD*%
D15*
%TO.C,R12*%
X135295983Y-101281910D03*
X135295983Y-99456910D03*
%TD*%
D21*
%TO.C,REF\u002A\u002A*%
X98760000Y-115570000D03*
%TD*%
D12*
%TO.C,R22*%
X147372500Y-83640000D03*
X145547500Y-83640000D03*
%TD*%
D38*
%TO.C,S1*%
X131185000Y-79030000D03*
X128635000Y-79030000D03*
X131185000Y-77870000D03*
X128635000Y-77870000D03*
%TD*%
D27*
%TO.C,R10*%
X104275446Y-92670000D03*
X106100446Y-92670000D03*
%TD*%
D39*
%TO.C,Q2*%
X135527500Y-83550000D03*
X135527500Y-81650000D03*
X133652500Y-82600000D03*
%TD*%
D10*
%TO.C,TP3*%
X177170000Y-95960000D03*
%TD*%
D40*
%TO.C,U4*%
X130568830Y-98762500D03*
X131068830Y-98762500D03*
X131568830Y-98762500D03*
X132068830Y-98762500D03*
X132568830Y-98762500D03*
D41*
X133503830Y-97827500D03*
X133503830Y-97327500D03*
X133503830Y-96827500D03*
X133503830Y-96327500D03*
X133503830Y-95827500D03*
D40*
X132568830Y-94892500D03*
X132068830Y-94892500D03*
X131568830Y-94892500D03*
X131068830Y-94892500D03*
X130568830Y-94892500D03*
D41*
X129633830Y-95827500D03*
X129633830Y-96327500D03*
X129633830Y-96827500D03*
X129633830Y-97327500D03*
X129633830Y-97827500D03*
D42*
X131568830Y-96827500D03*
%TD*%
D43*
%TO.C,LED1R1*%
X115520000Y-101150000D03*
X115520000Y-102950000D03*
%TD*%
D24*
%TO.C,LED3B1*%
X109350000Y-101800000D03*
X111150000Y-101800000D03*
%TD*%
D15*
%TO.C,R3*%
X138700000Y-109362500D03*
X138700000Y-107537500D03*
%TD*%
D12*
%TO.C,R11*%
X136917634Y-93532128D03*
X135092634Y-93532128D03*
%TD*%
D33*
%TO.C,R14*%
X151555000Y-86987500D03*
X151555000Y-88812500D03*
%TD*%
D12*
%TO.C,R28*%
X110682500Y-67560000D03*
X108857500Y-67560000D03*
%TD*%
D26*
%TO.C,C1*%
X137550000Y-105725000D03*
X137550000Y-103825000D03*
%TD*%
D33*
%TO.C,R4*%
X126450000Y-105787500D03*
X126450000Y-107612500D03*
%TD*%
D44*
%TO.C,J1*%
X129803250Y-106522500D03*
X130303250Y-106522500D03*
X130803250Y-106522500D03*
X131303250Y-106522500D03*
X131803250Y-106522500D03*
X132303250Y-106522500D03*
X132803250Y-106522500D03*
X133303250Y-106522500D03*
X133803250Y-106522500D03*
X134303250Y-106522500D03*
X134803250Y-106522500D03*
X135303250Y-106522500D03*
D45*
X135353250Y-107772500D03*
X134953250Y-108482500D03*
X134153250Y-108482500D03*
X133753250Y-107772500D03*
X133353250Y-108482500D03*
X132953250Y-107772500D03*
X132153250Y-107772500D03*
X131753250Y-108482500D03*
X131353250Y-107772500D03*
X130953250Y-108482500D03*
X130153250Y-108482500D03*
X129753250Y-107772500D03*
X134553250Y-107772500D03*
X130553250Y-107772500D03*
D46*
X132553250Y-111102500D03*
X132553250Y-114202500D03*
D47*
X128283250Y-108922500D03*
X136823250Y-108922500D03*
X128283250Y-113652500D03*
X136823250Y-113652500D03*
%TD*%
D48*
%TO.C,MK1*%
X104700000Y-70510000D03*
X106600000Y-70510000D03*
%TD*%
D49*
%TO.C,U7*%
X127259523Y-67207500D03*
X127909523Y-67207500D03*
X128559523Y-67207500D03*
X129209523Y-67207500D03*
X129209523Y-69147500D03*
X128559523Y-69147500D03*
X127909523Y-69147500D03*
X127259523Y-69147500D03*
%TD*%
D50*
%TO.C,Q3*%
X136752500Y-77800000D03*
X136752500Y-79700000D03*
X138627500Y-78750000D03*
%TD*%
D24*
%TO.C,LED5G1*%
X126650803Y-92238757D03*
X124850803Y-92238757D03*
%TD*%
D15*
%TO.C,R29*%
X114170000Y-71472500D03*
X114170000Y-69647500D03*
%TD*%
D21*
%TO.C,2.5*%
X181180000Y-115600000D03*
%TD*%
D51*
%TO.C,J3*%
X148905000Y-93760000D03*
D52*
X169905000Y-93760000D03*
D53*
X167280000Y-90960000D03*
X164780000Y-90960000D03*
X162280000Y-90960000D03*
X159780000Y-90960000D03*
X157280000Y-90960000D03*
X154780000Y-90960000D03*
X152355000Y-90960000D03*
X150655000Y-90960000D03*
X169780000Y-90960000D03*
D54*
X149355000Y-90960000D03*
D55*
X146755000Y-92760000D03*
X171855000Y-92760000D03*
X174055000Y-114260000D03*
X146755000Y-114260000D03*
D54*
X148155000Y-90960000D03*
%TD*%
D56*
%TO.C,C12*%
X154486583Y-87780000D03*
X157106583Y-87780000D03*
%TD*%
D21*
%TO.C,2.5*%
X98820000Y-65430000D03*
%TD*%
D12*
%TO.C,R18*%
X126811868Y-96906456D03*
X124986868Y-96906456D03*
%TD*%
D18*
%TO.C,C7*%
X150750000Y-71330000D03*
X150750000Y-73950000D03*
%TD*%
D12*
%TO.C,R8*%
X111332500Y-106100000D03*
X109507500Y-106100000D03*
%TD*%
D33*
%TO.C,R33*%
X137690000Y-81537500D03*
X137690000Y-83362500D03*
%TD*%
D57*
%TO.C,U1*%
X115907500Y-104762500D03*
X115407500Y-104762500D03*
X114907500Y-104762500D03*
X114407500Y-104762500D03*
X113907500Y-104762500D03*
D58*
X112970000Y-105700000D03*
X112970000Y-106200000D03*
X112970000Y-106700000D03*
X112970000Y-107200000D03*
X112970000Y-107700000D03*
D57*
X113907500Y-108637500D03*
X114407500Y-108637500D03*
X114907500Y-108637500D03*
X115407500Y-108637500D03*
X115907500Y-108637500D03*
D58*
X116845000Y-107700000D03*
X116845000Y-107200000D03*
X116845000Y-106700000D03*
X116845000Y-106200000D03*
X116845000Y-105700000D03*
D59*
X114907500Y-106700000D03*
%TD*%
M02*
