M48
; DRILL file KiCad 10.0.6-10.0.6~ubuntu24.04.1 date 2026-08-29T14:18:34
; FORMAT={-:-/ absolute / metric / decimal}
; #@! TF.CreationDate,2026-08-29T14:18:34+02:00
; #@! TF.GenerationSoftware,Kicad,Pcbnew,10.0.6-10.0.6~ubuntu24.04.1
; #@! TF.FileFunction,Plated,1,4,PTH
FMAT,2
METRIC
; #@! TA.AperFunction,Plated,PTH,ViaDrill
T1C0.300
; #@! TA.AperFunction,Plated,PTH,ComponentDrill
T2C0.300
; #@! TA.AperFunction,Plated,PTH,ComponentDrill
T3C0.450
; #@! TA.AperFunction,Plated,PTH,ComponentDrill
T4C0.650
; #@! TA.AperFunction,Plated,PTH,ComponentDrill
T5C0.700
; #@! TA.AperFunction,Plated,PTH,ComponentDrill
T6C1.000
%
G90
G05
T1
X102.94Y-93.72
X102.98Y-89.11
X102.98Y-90.647
X102.98Y-92.183
X104.4Y-91.14
X104.64Y-71.56
X105.86Y-80.36
X106.12Y-76.75
X106.81Y-89.12
X106.81Y-90.35
X108.86Y-89.12
X108.86Y-90.35
X109.5Y-109.72
X110.78Y-78.71
X111.55Y-90.71
X111.661Y-72.364
X111.99Y-98.15
X112.41Y-84.9
X112.81Y-108.81
X112.81Y-116.73
X112.82Y-115.34
X112.82Y-116.01
X113.28Y-78.71
X113.32Y-105.075
X113.32Y-75.76
X113.41Y-84.89
X113.7Y-65.12
X113.72Y-68.64
X114.31Y-90.7
X114.42Y-78.11
X114.94Y-84.54
X115.05Y-111.09
X115.12Y-110.23
X116.17Y-68.7
X116.703Y-84.52
X116.82Y-110.23
X117.02Y-103.43
X117.06Y-102.52
X117.63Y-72.94
X118.17Y-105.82
X118.17Y-106.78
X118.19Y-108.31
X118.465Y-84.56
X118.86Y-86.13
X120.227Y-84.59
X120.53Y-113.93
X121.25Y-104.83
X121.88Y-90.31
X121.89Y-88.8
X121.99Y-84.65
X121.99Y-86.13
X121.99Y-87.6
X122.47Y-106.86
X122.49Y-108.94
X123.5Y-102.11
X123.51Y-103.16
X123.51Y-104.21
X123.55Y-111.39
X124.74Y-90.62
X125.02Y-100.44
X126.397Y-80.82
X126.6Y-67.36
X126.61Y-69.11
X126.65Y-90.71
X127.8Y-79.9
X127.85Y-68.17
X127.9Y-96.57
X127.91Y-69.88
X128.557Y-95.76
X129.18Y-102.1
X129.2Y-103.14
X129.21Y-104.22
X130.7Y-114.82
X130.786Y-105.299
X130.82Y-103.73
X131.146Y-99.829
X131.47Y-79.73
X131.51Y-82.44
X131.596Y-92.459
X131.626Y-93.749
X132.175Y-66.12
X132.209Y-80.359
X132.56Y-112.65
X132.58Y-100.41
X132.79Y-81.45
X133.02Y-77.12
X133.83Y-98.47
X134.279Y-105.317
X134.43Y-104.05
X134.516Y-91.499
X134.72Y-102.7
X134.75Y-70.09
X134.76Y-114.93
X136.0Y-105.4
X136.28Y-106.28
X136.66Y-68.77
X136.83Y-110.59
X136.976Y-92.229
X138.106Y-97.04
X138.89Y-103.82
X139.26Y-106.41
X139.32Y-82.09
X139.43Y-74.81
X139.67Y-79.98
X141.02Y-79.01
X141.05Y-78.12
X141.12Y-81.55
X144.32Y-83.64
X144.91Y-71.88
X145.45Y-75.98
X145.46Y-75.15
X147.63Y-85.9
X148.09Y-92.46
X148.09Y-94.66
X148.33Y-113.2
X148.33Y-115.27
X148.58Y-73.52
X148.6Y-81.54
X149.51Y-74.37
X149.66Y-70.67
X150.5Y-82.35
X152.04Y-80.19
X154.27Y-92.68
X154.33Y-74.7
X154.48Y-89.02
X155.31Y-92.68
X157.04Y-89.03
X157.28Y-92.74
X157.5Y-82.18
X157.73Y-94.58
X157.77Y-70.21
X159.19Y-92.76
X160.36Y-92.77
X160.68Y-72.5
X161.7Y-92.75
X162.13Y-79.205
X162.83Y-92.78
X164.82Y-89.12
X165.61Y-82.06
X167.31Y-85.7
X168.56Y-92.5
X168.805Y-72.845
X169.62Y-81.56
X170.54Y-85.63
X171.975Y-71.665
X172.22Y-74.592
X172.47Y-113.16
X172.48Y-115.21
X172.97Y-94.62
X173.19Y-91.06
X175.67Y-80.71
X175.68Y-79.205
X175.75Y-89.12
X182.86Y-85.74
X182.87Y-87.01
T2
X164.722Y-75.855
X164.722Y-76.955
X165.272Y-75.305
X165.272Y-76.405
X165.272Y-77.505
X165.822Y-75.855
X165.822Y-76.955
X166.373Y-75.305
X166.373Y-76.405
X166.373Y-77.505
X166.922Y-75.855
X166.922Y-76.955
T3
X129.753Y-107.772
X130.153Y-108.483
X130.553Y-107.772
X130.953Y-108.483
X131.353Y-107.772
X131.753Y-108.483
X132.153Y-107.772
X132.953Y-107.772
X133.353Y-108.483
X133.753Y-107.772
X134.153Y-108.483
X134.553Y-107.772
X134.953Y-108.483
X135.353Y-107.772
T5
X104.7Y-70.51
X106.6Y-70.51
T6
X124.555Y-64.72
X127.095Y-64.72
X129.635Y-64.72
X132.175Y-64.72
X180.677Y-76.182
X180.677Y-78.722
X180.677Y-81.262
X180.677Y-83.802
X180.677Y-86.342
T4
G00X128.283Y-108.622
M15
G01X128.283Y-109.222
M16
G05
G00X128.283Y-113.352
M15
G01X128.283Y-113.953
M16
G05
G00X136.823Y-108.622
M15
G01X136.823Y-109.222
M16
G05
G00X136.823Y-113.352
M15
G01X136.823Y-113.953
M16
G05
M30
