%TF.GenerationSoftware,KiCad,Pcbnew,10.0.6-10.0.6~ubuntu24.04.1*%
%TF.CreationDate,2026-08-29T14:17:59+02:00*%
%TF.ProjectId,Tutorial03-ESP32-IoT-4-layer-PCB,5475746f-7269-4616-9c30-332d45535033,rev?*%
%TF.SameCoordinates,Original*%
%TF.FileFunction,Copper,L3,Inr*%
%TF.FilePolarity,Positive*%
%FSLAX46Y46*%
G04 Gerber Fmt 4.6, Leading zero omitted, Abs format (unit mm)*
G04 Created by KiCad (PCBNEW 10.0.6-10.0.6~ubuntu24.04.1) date 2026-08-29 14:17:59*
%MOMM*%
%LPD*%
G01*
G04 APERTURE LIST*
%TA.AperFunction,ComponentPad*%
%ADD10R,1.700000X1.700000*%
%TD*%
%TA.AperFunction,ComponentPad*%
%ADD11C,1.700000*%
%TD*%
%TA.AperFunction,ComponentPad*%
%ADD12C,0.600000*%
%TD*%
%TA.AperFunction,ComponentPad*%
%ADD13C,0.650000*%
%TD*%
%TA.AperFunction,ComponentPad*%
%ADD14O,1.050000X2.100000*%
%TD*%
%TA.AperFunction,ComponentPad*%
%ADD15C,1.208000*%
%TD*%
%TA.AperFunction,ViaPad*%
%ADD16C,0.600000*%
%TD*%
G04 APERTURE END LIST*
D10*
%TO.N,+3.3V*%
%TO.C,J4*%
X132174523Y-64720000D03*
D11*
%TO.N,/ESP-32-C3-02/SCL*%
X129634523Y-64720000D03*
%TO.N,/ESP-32-C3-02/SDA*%
X127094523Y-64720000D03*
%TO.N,GND*%
X124554523Y-64720000D03*
%TD*%
D10*
%TO.N,+3.3V*%
%TO.C,J5*%
X180677260Y-86342409D03*
D11*
%TO.N,/ESP-32-C3-02/GPIO8*%
X180677260Y-83802409D03*
%TO.N,/ESP-32-C3-02/GPIO18*%
X180677260Y-81262409D03*
%TO.N,/ESP-32-C3-02/GPIO19*%
X180677260Y-78722409D03*
%TO.N,GND*%
X180677260Y-76182409D03*
%TD*%
D12*
%TO.N,GND*%
%TO.C,U3*%
X165272500Y-75305000D03*
X166372500Y-75305000D03*
X164722500Y-75855000D03*
X165822500Y-75855000D03*
X166922500Y-75855000D03*
X165272500Y-76405000D03*
X166372500Y-76405000D03*
X164722500Y-76955000D03*
X165822500Y-76955000D03*
X166922500Y-76955000D03*
X165272500Y-77505000D03*
X166372500Y-77505000D03*
%TD*%
D13*
%TO.N,GND*%
%TO.C,J1*%
X135353250Y-107772500D03*
%TO.N,unconnected-(J1-SSTXP2-PadB2)*%
X134953250Y-108482500D03*
%TO.N,unconnected-(J1-SSTXN2-PadB3)*%
X134153250Y-108482500D03*
%TO.N,/VBUS*%
X133753250Y-107772500D03*
%TO.N,Net-(J1-CC2)*%
X133353250Y-108482500D03*
%TO.N,/USB_DP*%
X132953250Y-107772500D03*
%TO.N,/USB_DN*%
X132153250Y-107772500D03*
%TO.N,unconnected-(J1-SBU2-PadB8)*%
X131753250Y-108482500D03*
%TO.N,/VBUS*%
X131353250Y-107772500D03*
%TO.N,unconnected-(J1-SSRXN1-PadB10)*%
X130953250Y-108482500D03*
%TO.N,unconnected-(J1-SSRXP1-PadB11)*%
X130153250Y-108482500D03*
%TO.N,GND*%
X129753250Y-107772500D03*
X134553250Y-107772500D03*
X130553250Y-107772500D03*
D14*
X128283250Y-108922500D03*
X136823250Y-108922500D03*
X128283250Y-113652500D03*
X136823250Y-113652500D03*
%TD*%
D15*
%TO.N,GND*%
%TO.C,MK1*%
X104700000Y-70510000D03*
%TO.N,Net-(C22-Pad1)*%
X106600000Y-70510000D03*
%TD*%
D16*
%TO.N,/ESP-32-C3-02/CS_SD*%
X168805000Y-72845000D03*
X170540000Y-85630000D03*
%TO.N,GND*%
X148330000Y-113200000D03*
X114420000Y-78110000D03*
X130700000Y-114820000D03*
X108860000Y-89120000D03*
X132580000Y-100410000D03*
X113720000Y-68640000D03*
X162830000Y-92780000D03*
X173190000Y-91060000D03*
X121990000Y-86130000D03*
X123550000Y-111390000D03*
X118465000Y-84560000D03*
X102980000Y-92183333D03*
X138105983Y-97040000D03*
X109500000Y-109720000D03*
X110780000Y-78710000D03*
X118860000Y-86130000D03*
X172470000Y-113160000D03*
X112810000Y-108810000D03*
X112820000Y-116010000D03*
X126600000Y-67360000D03*
X114940000Y-84540000D03*
X148580000Y-73520000D03*
X155310000Y-92680000D03*
X131145983Y-99829410D03*
X104640000Y-71560000D03*
X149510000Y-74370000D03*
X172970000Y-94620000D03*
X122470000Y-106860000D03*
X121250000Y-104830000D03*
X132560000Y-112650000D03*
X136830000Y-110590000D03*
X139260000Y-106410000D03*
X154270000Y-92680000D03*
X134515983Y-91499410D03*
X120227500Y-84590000D03*
X113280000Y-78710000D03*
X127909523Y-69880000D03*
X148090000Y-92460000D03*
X102980000Y-90646667D03*
X116702500Y-84520000D03*
X112820000Y-115340000D03*
X147630000Y-85900000D03*
X148090000Y-94660000D03*
X154480000Y-89020000D03*
X112810000Y-116730000D03*
X131625983Y-93749410D03*
X131470000Y-79730000D03*
X121990000Y-84650000D03*
X172480000Y-115210000D03*
X113700000Y-65120000D03*
X127800000Y-79900000D03*
X161700000Y-92750000D03*
X104400000Y-91140000D03*
X136000000Y-105400000D03*
X113320000Y-75760000D03*
X134760000Y-114930000D03*
X106120000Y-76750000D03*
X106810000Y-89120000D03*
X108860000Y-90350000D03*
X102940000Y-93720000D03*
X126397500Y-80820000D03*
X157500000Y-82180000D03*
X122490000Y-108940000D03*
X141120000Y-81550000D03*
X121990000Y-87600000D03*
X106810000Y-90350000D03*
X138890000Y-103820000D03*
X102980000Y-89110000D03*
X148330000Y-115270000D03*
%TO.N,+3.3V*%
X114310000Y-90700000D03*
X121880000Y-90310000D03*
X131595983Y-92459410D03*
X127850000Y-68170000D03*
X157770000Y-70210000D03*
X111550000Y-90710000D03*
X121890000Y-88800000D03*
X132174523Y-66120000D03*
X145460000Y-75150000D03*
X112410000Y-84900000D03*
X124740000Y-90620000D03*
X182860000Y-85740000D03*
X182870000Y-87010000D03*
X167310000Y-85700000D03*
X111660804Y-72363602D03*
X131510000Y-82440000D03*
X113410000Y-84890000D03*
X160360000Y-92770000D03*
X159190000Y-92760000D03*
X136975983Y-92229410D03*
X149660000Y-70670000D03*
X117630000Y-72940000D03*
X105860000Y-80360000D03*
X145450000Y-75980000D03*
X116170000Y-68700000D03*
X126610000Y-69110000D03*
X133830000Y-98470000D03*
X157040000Y-89030000D03*
%TO.N,/ESP-32-C3-02/PHOTO_C*%
X136660000Y-68770000D03*
X171975000Y-71665000D03*
%TO.N,/ESP-32-C3-02/SCL*%
X172220000Y-74592182D03*
X144910000Y-71880000D03*
%TO.N,/ESP-32-C3-02/SDA*%
X134750000Y-70090000D03*
X160680000Y-72500000D03*
%TO.N,/ESP-32-C3-02/CS*%
X169620000Y-81560000D03*
X141050000Y-78120000D03*
%TO.N,Net-(U6-DO(IO1))*%
X141020000Y-79010000D03*
X144320000Y-83640000D03*
%TO.N,/ESP-32-C3-02/MISO_DI*%
X148600000Y-81540000D03*
X175750000Y-89120000D03*
X164820000Y-89120000D03*
X152040000Y-80190000D03*
%TO.N,/ESP-32-C3-02/SCLK*%
X157280000Y-92740000D03*
X150500000Y-82350000D03*
%TO.N,Net-(LED5G1-K)*%
X125020000Y-100440000D03*
X126650000Y-90710000D03*
%TO.N,/ESP-32-C3-02/MIC_OUT*%
X154330000Y-74700000D03*
X139430000Y-74810000D03*
%TO.N,Net-(J3-DAT1)*%
X157730000Y-94580000D03*
X168560000Y-92500000D03*
%TO.N,/USB_DP*%
X130820000Y-103730000D03*
%TO.N,/VBUS*%
X129210000Y-104220000D03*
X129180000Y-102100000D03*
X134278681Y-105317205D03*
X136280000Y-106280000D03*
X134720000Y-102700000D03*
X130785983Y-105299410D03*
X129200000Y-103140000D03*
%TO.N,/USB_DN*%
X134430000Y-104050000D03*
%TO.N,Net-(U1-PROG3)*%
X115050000Y-111090000D03*
X120530000Y-113930000D03*
%TO.N,/ESP-32-C3-02/EN*%
X132790000Y-81450000D03*
X133020000Y-77120000D03*
X132208768Y-80358768D03*
%TO.N,Net-(U1-PROG1)*%
X115120000Y-110230000D03*
X116820000Y-110230000D03*
%TO.N,/ESP-32-C3-02/GPIO8*%
X162130000Y-79205000D03*
X165610000Y-82060000D03*
%TO.N,/+5V_USB*%
X111990000Y-98150000D03*
X117060000Y-102520000D03*
X117020000Y-103430000D03*
X123510000Y-103160000D03*
X123510000Y-104210000D03*
X118170000Y-106780000D03*
X123500000Y-102110000D03*
X118170000Y-105820000D03*
%TO.N,/ESP-32-C3-02/TX_RX*%
X127900000Y-96570000D03*
X175670000Y-80710000D03*
%TO.N,/ESP-32-C3-02/RX_TX*%
X175680000Y-79205000D03*
X128557108Y-95760000D03*
%TO.N,Net-(U1-THERM)*%
X118190000Y-108310000D03*
X113319810Y-105075000D03*
%TO.N,/ESP-32-C3-02/DTR*%
X139320000Y-82090000D03*
X139670000Y-79980000D03*
%TD*%
%TA.AperFunction,Conductor*%
%TO.N,GND*%
G36*
X126812279Y-63147828D02*
G01*
X126879311Y-63167530D01*
X126925052Y-63220345D01*
X126934978Y-63289506D01*
X126905937Y-63353055D01*
X126847150Y-63390814D01*
X126831645Y-63394301D01*
X126778281Y-63402753D01*
X126576108Y-63468444D01*
X126386702Y-63564951D01*
X126214736Y-63689890D01*
X126064413Y-63840213D01*
X125939474Y-64012179D01*
X125842967Y-64201585D01*
X125777276Y-64403760D01*
X125744023Y-64613713D01*
X125744023Y-64826286D01*
X125777276Y-65036239D01*
X125842967Y-65238414D01*
X125939474Y-65427820D01*
X126064413Y-65599786D01*
X126214736Y-65750109D01*
X126386702Y-65875048D01*
X126386704Y-65875049D01*
X126386707Y-65875051D01*
X126576111Y-65971557D01*
X126778280Y-66037246D01*
X126988236Y-66070500D01*
X126988237Y-66070500D01*
X127200809Y-66070500D01*
X127200810Y-66070500D01*
X127410766Y-66037246D01*
X127612935Y-65971557D01*
X127802339Y-65875051D01*
X127888661Y-65812335D01*
X127974309Y-65750109D01*
X127974311Y-65750106D01*
X127974315Y-65750104D01*
X128124627Y-65599792D01*
X128124629Y-65599788D01*
X128124632Y-65599786D01*
X128249571Y-65427820D01*
X128249570Y-65427820D01*
X128249574Y-65427816D01*
X128254037Y-65419054D01*
X128302011Y-65368259D01*
X128369831Y-65351463D01*
X128435967Y-65373999D01*
X128475009Y-65419056D01*
X128479474Y-65427820D01*
X128604413Y-65599786D01*
X128754736Y-65750109D01*
X128926702Y-65875048D01*
X128926704Y-65875049D01*
X128926707Y-65875051D01*
X129116111Y-65971557D01*
X129318280Y-66037246D01*
X129528236Y-66070500D01*
X129528237Y-66070500D01*
X129740809Y-66070500D01*
X129740810Y-66070500D01*
X129950766Y-66037246D01*
X130152935Y-65971557D01*
X130342339Y-65875051D01*
X130428670Y-65812328D01*
X130514307Y-65750110D01*
X130514307Y-65750109D01*
X130514315Y-65750104D01*
X130627852Y-65636566D01*
X130689171Y-65603084D01*
X130758863Y-65608068D01*
X130814797Y-65649939D01*
X130831712Y-65680917D01*
X130880725Y-65812328D01*
X130880729Y-65812335D01*
X130966975Y-65927544D01*
X130966978Y-65927547D01*
X131082187Y-66013793D01*
X131082194Y-66013797D01*
X131217039Y-66064091D01*
X131263280Y-66069063D01*
X131327830Y-66095801D01*
X131367678Y-66153194D01*
X131374023Y-66192352D01*
X131374023Y-66198846D01*
X131404784Y-66353489D01*
X131404787Y-66353501D01*
X131465125Y-66499172D01*
X131465132Y-66499185D01*
X131552733Y-66630288D01*
X131552736Y-66630292D01*
X131664230Y-66741786D01*
X131664234Y-66741789D01*
X131795337Y-66829390D01*
X131795350Y-66829397D01*
X131941021Y-66889735D01*
X131941026Y-66889737D01*
X132095676Y-66920499D01*
X132095679Y-66920500D01*
X132095681Y-66920500D01*
X132253367Y-66920500D01*
X132253368Y-66920499D01*
X132408020Y-66889737D01*
X132553702Y-66829394D01*
X132684812Y-66741789D01*
X132796312Y-66630289D01*
X132883917Y-66499179D01*
X132944260Y-66353497D01*
X132975023Y-66198842D01*
X132975023Y-66192351D01*
X132994708Y-66125312D01*
X133047512Y-66079557D01*
X133085770Y-66069061D01*
X133132006Y-66064091D01*
X133266854Y-66013796D01*
X133382069Y-65927546D01*
X133468319Y-65812331D01*
X133518614Y-65677483D01*
X133525023Y-65617873D01*
X133525022Y-63822128D01*
X133518614Y-63762517D01*
X133517333Y-63759083D01*
X133468320Y-63627671D01*
X133468316Y-63627664D01*
X133382070Y-63512455D01*
X133382067Y-63512452D01*
X133266858Y-63426206D01*
X133266851Y-63426202D01*
X133168822Y-63389640D01*
X133112888Y-63347769D01*
X133088471Y-63282305D01*
X133103323Y-63214032D01*
X133152728Y-63164626D01*
X133212184Y-63149458D01*
X136675533Y-63150340D01*
X136742566Y-63170042D01*
X136788307Y-63222857D01*
X136799500Y-63274340D01*
X136799500Y-67845500D01*
X136779815Y-67912539D01*
X136727011Y-67958294D01*
X136675500Y-67969500D01*
X136581155Y-67969500D01*
X136426510Y-68000261D01*
X136426498Y-68000264D01*
X136280827Y-68060602D01*
X136280814Y-68060609D01*
X136149711Y-68148210D01*
X136149707Y-68148213D01*
X136038213Y-68259707D01*
X136038210Y-68259711D01*
X135950609Y-68390814D01*
X135950602Y-68390827D01*
X135890264Y-68536498D01*
X135890261Y-68536510D01*
X135859500Y-68691153D01*
X135859500Y-68848846D01*
X135890261Y-69003489D01*
X135890264Y-69003501D01*
X135950602Y-69149172D01*
X135950609Y-69149185D01*
X136038210Y-69280288D01*
X136038213Y-69280292D01*
X136149707Y-69391786D01*
X136149711Y-69391789D01*
X136280814Y-69479390D01*
X136280827Y-69479397D01*
X136426498Y-69539735D01*
X136426503Y-69539737D01*
X136581153Y-69570499D01*
X136581156Y-69570500D01*
X136581158Y-69570500D01*
X136738844Y-69570500D01*
X136738845Y-69570499D01*
X136893497Y-69539737D01*
X137022217Y-69486420D01*
X137039172Y-69479397D01*
X137039172Y-69479396D01*
X137039179Y-69479394D01*
X137170289Y-69391789D01*
X137281789Y-69280289D01*
X137369394Y-69149179D01*
X137378276Y-69127737D01*
X137414623Y-69039986D01*
X137429737Y-69003497D01*
X137460500Y-68848842D01*
X137460500Y-68774500D01*
X137480185Y-68707461D01*
X137532989Y-68661706D01*
X137584500Y-68650500D01*
X153226036Y-68650500D01*
X153227372Y-68650587D01*
X153300157Y-68650500D01*
X153300443Y-68650500D01*
X153365892Y-68650500D01*
X153373214Y-68650500D01*
X153374540Y-68650412D01*
X181975073Y-68616478D01*
X181984054Y-68616793D01*
X182184130Y-68631103D01*
X182201632Y-68633620D01*
X182393364Y-68675328D01*
X182410329Y-68680309D01*
X182594180Y-68748882D01*
X182610263Y-68756226D01*
X182779878Y-68848844D01*
X182782477Y-68850263D01*
X182797360Y-68859828D01*
X182954433Y-68977411D01*
X182967804Y-68988997D01*
X183106544Y-69127737D01*
X183118130Y-69141108D01*
X183235713Y-69298181D01*
X183245278Y-69313064D01*
X183339312Y-69485273D01*
X183346662Y-69501367D01*
X183415230Y-69685207D01*
X183420214Y-69702182D01*
X183461920Y-69893904D01*
X183464438Y-69911415D01*
X183478753Y-70111553D01*
X183479069Y-70120400D01*
X183479069Y-70189061D01*
X183479074Y-70189156D01*
X183480277Y-84959704D01*
X183460598Y-85026745D01*
X183407798Y-85072504D01*
X183338640Y-85082453D01*
X183287387Y-85062816D01*
X183239190Y-85030612D01*
X183239172Y-85030602D01*
X183093501Y-84970264D01*
X183093489Y-84970261D01*
X182938845Y-84939500D01*
X182938842Y-84939500D01*
X182781158Y-84939500D01*
X182781155Y-84939500D01*
X182626510Y-84970261D01*
X182626498Y-84970264D01*
X182480827Y-85030602D01*
X182480814Y-85030609D01*
X182349711Y-85118210D01*
X182349707Y-85118213D01*
X182238213Y-85229707D01*
X182196496Y-85292141D01*
X182142883Y-85336945D01*
X182073558Y-85345652D01*
X182010531Y-85315497D01*
X181977212Y-85266582D01*
X181971057Y-85250080D01*
X181971053Y-85250073D01*
X181884807Y-85134864D01*
X181884804Y-85134861D01*
X181769595Y-85048615D01*
X181769588Y-85048611D01*
X181638177Y-84999598D01*
X181582243Y-84957727D01*
X181557826Y-84892262D01*
X181572678Y-84823989D01*
X181593823Y-84795741D01*
X181707364Y-84682201D01*
X181726030Y-84656510D01*
X181832308Y-84510229D01*
X181832307Y-84510229D01*
X181832311Y-84510225D01*
X181928817Y-84320821D01*
X181994506Y-84118652D01*
X182027760Y-83908696D01*
X182027760Y-83696122D01*
X181994506Y-83486166D01*
X181928817Y-83283997D01*
X181832311Y-83094593D01*
X181832309Y-83094590D01*
X181832308Y-83094588D01*
X181707369Y-82922622D01*
X181557046Y-82772299D01*
X181385080Y-82647360D01*
X181384375Y-82647000D01*
X181376314Y-82642894D01*
X181325519Y-82594921D01*
X181308723Y-82527101D01*
X181331259Y-82460965D01*
X181376314Y-82421924D01*
X181385076Y-82417460D01*
X181462574Y-82361155D01*
X181557046Y-82292518D01*
X181557048Y-82292515D01*
X181557052Y-82292513D01*
X181707364Y-82142201D01*
X181707366Y-82142197D01*
X181707369Y-82142195D01*
X181832308Y-81970229D01*
X181832307Y-81970229D01*
X181832311Y-81970225D01*
X181928817Y-81780821D01*
X181994506Y-81578652D01*
X182027760Y-81368696D01*
X182027760Y-81156122D01*
X181994506Y-80946166D01*
X181928817Y-80743997D01*
X181832311Y-80554593D01*
X181832309Y-80554590D01*
X181832308Y-80554588D01*
X181707369Y-80382622D01*
X181557046Y-80232299D01*
X181385080Y-80107360D01*
X181384375Y-80107000D01*
X181376314Y-80102894D01*
X181325519Y-80054921D01*
X181308723Y-79987101D01*
X181331259Y-79920965D01*
X181376314Y-79881924D01*
X181385076Y-79877460D01*
X181421417Y-79851057D01*
X181557046Y-79752518D01*
X181557048Y-79752515D01*
X181557052Y-79752513D01*
X181707364Y-79602201D01*
X181707366Y-79602197D01*
X181707369Y-79602195D01*
X181832308Y-79430229D01*
X181832307Y-79430229D01*
X181832311Y-79430225D01*
X181928817Y-79240821D01*
X181994506Y-79038652D01*
X182027760Y-78828696D01*
X182027760Y-78616122D01*
X181994506Y-78406166D01*
X181928817Y-78203997D01*
X181832311Y-78014593D01*
X181832309Y-78014590D01*
X181832308Y-78014588D01*
X181707369Y-77842622D01*
X181557046Y-77692299D01*
X181385080Y-77567360D01*
X181195674Y-77470853D01*
X181195673Y-77470852D01*
X181195672Y-77470852D01*
X180993503Y-77405163D01*
X180993501Y-77405162D01*
X180993500Y-77405162D01*
X180832217Y-77379617D01*
X180783547Y-77371909D01*
X180570973Y-77371909D01*
X180522302Y-77379617D01*
X180361020Y-77405162D01*
X180158845Y-77470853D01*
X179969439Y-77567360D01*
X179797473Y-77692299D01*
X179647150Y-77842622D01*
X179522211Y-78014588D01*
X179425704Y-78203994D01*
X179360013Y-78406169D01*
X179326760Y-78616122D01*
X179326760Y-78828695D01*
X179349379Y-78971510D01*
X179360014Y-79038652D01*
X179415774Y-79210264D01*
X179425704Y-79240823D01*
X179522211Y-79430229D01*
X179647150Y-79602195D01*
X179797473Y-79752518D01*
X179969442Y-79877459D01*
X179978206Y-79881925D01*
X180029002Y-79929900D01*
X180045796Y-79997721D01*
X180023258Y-80063856D01*
X179978206Y-80102893D01*
X179969442Y-80107358D01*
X179797473Y-80232299D01*
X179647150Y-80382622D01*
X179522211Y-80554588D01*
X179425704Y-80743994D01*
X179360013Y-80946169D01*
X179340270Y-81070821D01*
X179326760Y-81156122D01*
X179326760Y-81368696D01*
X179328647Y-81380609D01*
X179355429Y-81549707D01*
X179360014Y-81578652D01*
X179423323Y-81773497D01*
X179425704Y-81780823D01*
X179522211Y-81970229D01*
X179647150Y-82142195D01*
X179797473Y-82292518D01*
X179969442Y-82417459D01*
X179978206Y-82421925D01*
X180029002Y-82469900D01*
X180045796Y-82537721D01*
X180023258Y-82603856D01*
X179978206Y-82642893D01*
X179969442Y-82647358D01*
X179797473Y-82772299D01*
X179647150Y-82922622D01*
X179522211Y-83094588D01*
X179425704Y-83283994D01*
X179360013Y-83486169D01*
X179326760Y-83696122D01*
X179326760Y-83908695D01*
X179356980Y-84099500D01*
X179360014Y-84118652D01*
X179406522Y-84261789D01*
X179425704Y-84320823D01*
X179522211Y-84510229D01*
X179647150Y-84682195D01*
X179760690Y-84795735D01*
X179794175Y-84857058D01*
X179789191Y-84926750D01*
X179747319Y-84982683D01*
X179716343Y-84999598D01*
X179584929Y-85048612D01*
X179584924Y-85048615D01*
X179469715Y-85134861D01*
X179469712Y-85134864D01*
X179383466Y-85250073D01*
X179383462Y-85250080D01*
X179333168Y-85384926D01*
X179326761Y-85444525D01*
X179326760Y-85444544D01*
X179326760Y-87240279D01*
X179326761Y-87240285D01*
X179333168Y-87299892D01*
X179383462Y-87434737D01*
X179383466Y-87434744D01*
X179469712Y-87549953D01*
X179469715Y-87549956D01*
X179584924Y-87636202D01*
X179584931Y-87636206D01*
X179719777Y-87686500D01*
X179719776Y-87686500D01*
X179726704Y-87687244D01*
X179779387Y-87692909D01*
X181575132Y-87692908D01*
X181634743Y-87686500D01*
X181769591Y-87636205D01*
X181884806Y-87549955D01*
X181971056Y-87434740D01*
X181971059Y-87434730D01*
X181971832Y-87433317D01*
X181972986Y-87432162D01*
X181976372Y-87427640D01*
X181977021Y-87428126D01*
X182021235Y-87383909D01*
X182089507Y-87369053D01*
X182154973Y-87393467D01*
X182183770Y-87423847D01*
X182248210Y-87520288D01*
X182248213Y-87520292D01*
X182359707Y-87631786D01*
X182359711Y-87631789D01*
X182490814Y-87719390D01*
X182490827Y-87719397D01*
X182636498Y-87779735D01*
X182636503Y-87779737D01*
X182791153Y-87810499D01*
X182791156Y-87810500D01*
X182791158Y-87810500D01*
X182948844Y-87810500D01*
X182948845Y-87810499D01*
X183103497Y-87779737D01*
X183249179Y-87719394D01*
X183287615Y-87693712D01*
X183354292Y-87672833D01*
X183421672Y-87691317D01*
X183468363Y-87743295D01*
X183480507Y-87796803D01*
X183482835Y-116391353D01*
X183482519Y-116400209D01*
X183468205Y-116600342D01*
X183465687Y-116617854D01*
X183423981Y-116809576D01*
X183418997Y-116826551D01*
X183350429Y-117010391D01*
X183343079Y-117026485D01*
X183249045Y-117198694D01*
X183239480Y-117213577D01*
X183121897Y-117370650D01*
X183110311Y-117384021D01*
X182971571Y-117522761D01*
X182958200Y-117534347D01*
X182801127Y-117651930D01*
X182786244Y-117661495D01*
X182614035Y-117755529D01*
X182597941Y-117762879D01*
X182414101Y-117831447D01*
X182397126Y-117836431D01*
X182205404Y-117878137D01*
X182187892Y-117880655D01*
X181987780Y-117894967D01*
X181978888Y-117895283D01*
X98074029Y-117864453D01*
X98060708Y-117863730D01*
X98054411Y-117863047D01*
X97995811Y-117864390D01*
X97992909Y-117864423D01*
X97988833Y-117864421D01*
X97982755Y-117864269D01*
X97780781Y-117854257D01*
X97762964Y-117852073D01*
X97599750Y-117819935D01*
X97567694Y-117813623D01*
X97550383Y-117808890D01*
X97420022Y-117762879D01*
X97362718Y-117742653D01*
X97346269Y-117735470D01*
X97170128Y-117642830D01*
X97154888Y-117633346D01*
X96993970Y-117516248D01*
X96980258Y-117504664D01*
X96837933Y-117365561D01*
X96826038Y-117352119D01*
X96705283Y-117193919D01*
X96695454Y-117178900D01*
X96634334Y-117068880D01*
X96598807Y-117004929D01*
X96591253Y-116988660D01*
X96520731Y-116802545D01*
X96515604Y-116785345D01*
X96472696Y-116591018D01*
X96470104Y-116573256D01*
X96459800Y-116431252D01*
X96455380Y-116370338D01*
X96455056Y-116361220D01*
X96456382Y-115451902D01*
X97259500Y-115451902D01*
X97259500Y-115688097D01*
X97296446Y-115921368D01*
X97369433Y-116145996D01*
X97463135Y-116329894D01*
X97476657Y-116356433D01*
X97615483Y-116547510D01*
X97782490Y-116714517D01*
X97973567Y-116853343D01*
X98072991Y-116904002D01*
X98184003Y-116960566D01*
X98184005Y-116960566D01*
X98184008Y-116960568D01*
X98270448Y-116988654D01*
X98408631Y-117033553D01*
X98641903Y-117070500D01*
X98641908Y-117070500D01*
X98878097Y-117070500D01*
X99111368Y-117033553D01*
X99133121Y-117026485D01*
X99335992Y-116960568D01*
X99546433Y-116853343D01*
X99737510Y-116714517D01*
X99904517Y-116547510D01*
X100043343Y-116356433D01*
X100150568Y-116145992D01*
X100223553Y-115921368D01*
X100255749Y-115718092D01*
X100260500Y-115688097D01*
X100260500Y-115481902D01*
X179679500Y-115481902D01*
X179679500Y-115718097D01*
X179716446Y-115951368D01*
X179789433Y-116175996D01*
X179886133Y-116365778D01*
X179896657Y-116386433D01*
X180035483Y-116577510D01*
X180202490Y-116744517D01*
X180393567Y-116883343D01*
X180492991Y-116934002D01*
X180604003Y-116990566D01*
X180604005Y-116990566D01*
X180604008Y-116990568D01*
X180714549Y-117026485D01*
X180828631Y-117063553D01*
X181061903Y-117100500D01*
X181061908Y-117100500D01*
X181298097Y-117100500D01*
X181531368Y-117063553D01*
X181755992Y-116990568D01*
X181966433Y-116883343D01*
X182157510Y-116744517D01*
X182324517Y-116577510D01*
X182463343Y-116386433D01*
X182570568Y-116175992D01*
X182643553Y-115951368D01*
X182680500Y-115718097D01*
X182680500Y-115481902D01*
X182643553Y-115248631D01*
X182570566Y-115024003D01*
X182463342Y-114813566D01*
X182324517Y-114622490D01*
X182157510Y-114455483D01*
X181966433Y-114316657D01*
X181755996Y-114209433D01*
X181531368Y-114136446D01*
X181298097Y-114099500D01*
X181298092Y-114099500D01*
X181061908Y-114099500D01*
X181061903Y-114099500D01*
X180828631Y-114136446D01*
X180604003Y-114209433D01*
X180393566Y-114316657D01*
X180284550Y-114395862D01*
X180202490Y-114455483D01*
X180202488Y-114455485D01*
X180202487Y-114455485D01*
X180035485Y-114622487D01*
X180035485Y-114622488D01*
X180035483Y-114622490D01*
X179979361Y-114699735D01*
X179896657Y-114813566D01*
X179789433Y-115024003D01*
X179716446Y-115248631D01*
X179679500Y-115481902D01*
X100260500Y-115481902D01*
X100260500Y-115451902D01*
X100223553Y-115218631D01*
X100189689Y-115114412D01*
X100150568Y-114994008D01*
X100150566Y-114994005D01*
X100150566Y-114994003D01*
X100094002Y-114882991D01*
X100043343Y-114783567D01*
X99904517Y-114592490D01*
X99737510Y-114425483D01*
X99546433Y-114286657D01*
X99335996Y-114179433D01*
X99111368Y-114106446D01*
X98878097Y-114069500D01*
X98878092Y-114069500D01*
X98641908Y-114069500D01*
X98641903Y-114069500D01*
X98408631Y-114106446D01*
X98184003Y-114179433D01*
X97973566Y-114286657D01*
X97864550Y-114365862D01*
X97782490Y-114425483D01*
X97782488Y-114425485D01*
X97782487Y-114425485D01*
X97615485Y-114592487D01*
X97615485Y-114592488D01*
X97615483Y-114592490D01*
X97593689Y-114622487D01*
X97476657Y-114783566D01*
X97369433Y-114994003D01*
X97296446Y-115218631D01*
X97259500Y-115451902D01*
X96456382Y-115451902D01*
X96458717Y-113851153D01*
X119729500Y-113851153D01*
X119729500Y-114008846D01*
X119760261Y-114163489D01*
X119760264Y-114163501D01*
X119820602Y-114309172D01*
X119820609Y-114309185D01*
X119908210Y-114440288D01*
X119908213Y-114440292D01*
X120019707Y-114551786D01*
X120019711Y-114551789D01*
X120150814Y-114639390D01*
X120150827Y-114639397D01*
X120296498Y-114699735D01*
X120296503Y-114699737D01*
X120451153Y-114730499D01*
X120451156Y-114730500D01*
X120451158Y-114730500D01*
X120608844Y-114730500D01*
X120608845Y-114730499D01*
X120763497Y-114699737D01*
X120909179Y-114639394D01*
X121040289Y-114551789D01*
X121151789Y-114440289D01*
X121239394Y-114309179D01*
X121299737Y-114163497D01*
X121330500Y-114008842D01*
X121330500Y-113851158D01*
X121330500Y-113851155D01*
X121330499Y-113851153D01*
X121299738Y-113696510D01*
X121299737Y-113696503D01*
X121299735Y-113696498D01*
X121239397Y-113550827D01*
X121239390Y-113550814D01*
X121151789Y-113419711D01*
X121151786Y-113419707D01*
X121040292Y-113308213D01*
X121040288Y-113308210D01*
X120909185Y-113220609D01*
X120909172Y-113220602D01*
X120763501Y-113160264D01*
X120763489Y-113160261D01*
X120608845Y-113129500D01*
X120608842Y-113129500D01*
X120451158Y-113129500D01*
X120451155Y-113129500D01*
X120296510Y-113160261D01*
X120296498Y-113160264D01*
X120150827Y-113220602D01*
X120150814Y-113220609D01*
X120019711Y-113308210D01*
X120019707Y-113308213D01*
X119908213Y-113419707D01*
X119908210Y-113419711D01*
X119820609Y-113550814D01*
X119820602Y-113550827D01*
X119760264Y-113696498D01*
X119760261Y-113696510D01*
X119729500Y-113851153D01*
X96458717Y-113851153D01*
X96462001Y-111600288D01*
X96462861Y-111011153D01*
X114249500Y-111011153D01*
X114249500Y-111168846D01*
X114280261Y-111323489D01*
X114280264Y-111323501D01*
X114340602Y-111469172D01*
X114340609Y-111469185D01*
X114428210Y-111600288D01*
X114428213Y-111600292D01*
X114539707Y-111711786D01*
X114539711Y-111711789D01*
X114670814Y-111799390D01*
X114670827Y-111799397D01*
X114816498Y-111859735D01*
X114816503Y-111859737D01*
X114971153Y-111890499D01*
X114971156Y-111890500D01*
X114971158Y-111890500D01*
X115128844Y-111890500D01*
X115128845Y-111890499D01*
X115283497Y-111859737D01*
X115429179Y-111799394D01*
X115560289Y-111711789D01*
X115671789Y-111600289D01*
X115759394Y-111469179D01*
X115819737Y-111323497D01*
X115850500Y-111168842D01*
X115850500Y-111011158D01*
X115850500Y-111011155D01*
X115850499Y-111011153D01*
X115819738Y-110856510D01*
X115819737Y-110856503D01*
X115785554Y-110773980D01*
X115778086Y-110704511D01*
X115797014Y-110657638D01*
X115829394Y-110609179D01*
X115855439Y-110546301D01*
X115899279Y-110491897D01*
X115965573Y-110469832D01*
X116033273Y-110487111D01*
X116080884Y-110538248D01*
X116084561Y-110546301D01*
X116110602Y-110609172D01*
X116110609Y-110609185D01*
X116198210Y-110740288D01*
X116198213Y-110740292D01*
X116309707Y-110851786D01*
X116309711Y-110851789D01*
X116440814Y-110939390D01*
X116440827Y-110939397D01*
X116586498Y-110999735D01*
X116586503Y-110999737D01*
X116741153Y-111030499D01*
X116741156Y-111030500D01*
X116741158Y-111030500D01*
X116898844Y-111030500D01*
X116898845Y-111030499D01*
X117053497Y-110999737D01*
X117199179Y-110939394D01*
X117330289Y-110851789D01*
X117441789Y-110740289D01*
X117529394Y-110609179D01*
X117589737Y-110463497D01*
X117620500Y-110308842D01*
X117620500Y-110151158D01*
X117620500Y-110151155D01*
X117620499Y-110151153D01*
X117589738Y-109996510D01*
X117589737Y-109996503D01*
X117587113Y-109990167D01*
X117529397Y-109850827D01*
X117529390Y-109850814D01*
X117441789Y-109719711D01*
X117441786Y-109719707D01*
X117330292Y-109608213D01*
X117330288Y-109608210D01*
X117199185Y-109520609D01*
X117199172Y-109520602D01*
X117053501Y-109460264D01*
X117053489Y-109460261D01*
X116898845Y-109429500D01*
X116898842Y-109429500D01*
X116741158Y-109429500D01*
X116741155Y-109429500D01*
X116586510Y-109460261D01*
X116586498Y-109460264D01*
X116440827Y-109520602D01*
X116440814Y-109520609D01*
X116309711Y-109608210D01*
X116309707Y-109608213D01*
X116198213Y-109719707D01*
X116198210Y-109719711D01*
X116110609Y-109850814D01*
X116110604Y-109850823D01*
X116084561Y-109913699D01*
X116040720Y-109968102D01*
X115974426Y-109990167D01*
X115906727Y-109972888D01*
X115859116Y-109921751D01*
X115855439Y-109913699D01*
X115829395Y-109850823D01*
X115829390Y-109850814D01*
X115741789Y-109719711D01*
X115741786Y-109719707D01*
X115630292Y-109608213D01*
X115630288Y-109608210D01*
X115499185Y-109520609D01*
X115499172Y-109520602D01*
X115353501Y-109460264D01*
X115353489Y-109460261D01*
X115198845Y-109429500D01*
X115198842Y-109429500D01*
X115041158Y-109429500D01*
X115041155Y-109429500D01*
X114886510Y-109460261D01*
X114886498Y-109460264D01*
X114740827Y-109520602D01*
X114740814Y-109520609D01*
X114609711Y-109608210D01*
X114609707Y-109608213D01*
X114498213Y-109719707D01*
X114498210Y-109719711D01*
X114410609Y-109850814D01*
X114410602Y-109850827D01*
X114350264Y-109996498D01*
X114350261Y-109996510D01*
X114319500Y-110151153D01*
X114319500Y-110308846D01*
X114350261Y-110463489D01*
X114350263Y-110463497D01*
X114384444Y-110546017D01*
X114391913Y-110615487D01*
X114372986Y-110662359D01*
X114340611Y-110710812D01*
X114340602Y-110710828D01*
X114280264Y-110856498D01*
X114280261Y-110856510D01*
X114249500Y-111011153D01*
X96462861Y-111011153D01*
X96462870Y-111004885D01*
X96471635Y-104996153D01*
X112519310Y-104996153D01*
X112519310Y-105153846D01*
X112550071Y-105308489D01*
X112550074Y-105308501D01*
X112610412Y-105454172D01*
X112610419Y-105454185D01*
X112698020Y-105585288D01*
X112698023Y-105585292D01*
X112809517Y-105696786D01*
X112809521Y-105696789D01*
X112940624Y-105784390D01*
X112940637Y-105784397D01*
X113086308Y-105844735D01*
X113086313Y-105844737D01*
X113240963Y-105875499D01*
X113240966Y-105875500D01*
X113240968Y-105875500D01*
X113398654Y-105875500D01*
X113398655Y-105875499D01*
X113553307Y-105844737D01*
X113698989Y-105784394D01*
X113763704Y-105741153D01*
X117369500Y-105741153D01*
X117369500Y-105898846D01*
X117400261Y-106053489D01*
X117400264Y-106053501D01*
X117460602Y-106199171D01*
X117460609Y-106199184D01*
X117481941Y-106231109D01*
X117502819Y-106297787D01*
X117484334Y-106365167D01*
X117481941Y-106368891D01*
X117460609Y-106400815D01*
X117460602Y-106400828D01*
X117400264Y-106546498D01*
X117400261Y-106546510D01*
X117369500Y-106701153D01*
X117369500Y-106858846D01*
X117400261Y-107013489D01*
X117400264Y-107013501D01*
X117460602Y-107159172D01*
X117460609Y-107159185D01*
X117548210Y-107290288D01*
X117548213Y-107290292D01*
X117659710Y-107401789D01*
X117729737Y-107448579D01*
X117774542Y-107502191D01*
X117783249Y-107571516D01*
X117753095Y-107634543D01*
X117729738Y-107654782D01*
X117679714Y-107688208D01*
X117679707Y-107688213D01*
X117568213Y-107799707D01*
X117568210Y-107799711D01*
X117480609Y-107930814D01*
X117480602Y-107930827D01*
X117420264Y-108076498D01*
X117420261Y-108076510D01*
X117389500Y-108231153D01*
X117389500Y-108388846D01*
X117420261Y-108543489D01*
X117420264Y-108543501D01*
X117480602Y-108689172D01*
X117480609Y-108689185D01*
X117568210Y-108820288D01*
X117568213Y-108820292D01*
X117679707Y-108931786D01*
X117679711Y-108931789D01*
X117810814Y-109019390D01*
X117810827Y-109019397D01*
X117956498Y-109079735D01*
X117956503Y-109079737D01*
X118111153Y-109110499D01*
X118111156Y-109110500D01*
X118111158Y-109110500D01*
X118268844Y-109110500D01*
X118268845Y-109110499D01*
X118423497Y-109079737D01*
X118569179Y-109019394D01*
X118700289Y-108931789D01*
X118811789Y-108820289D01*
X118899394Y-108689179D01*
X118959737Y-108543497D01*
X118984322Y-108419899D01*
X129677750Y-108419899D01*
X129677750Y-108545101D01*
X129710155Y-108666036D01*
X129772755Y-108774464D01*
X129861286Y-108862995D01*
X129969714Y-108925595D01*
X130090649Y-108958000D01*
X130090651Y-108958000D01*
X130215849Y-108958000D01*
X130215851Y-108958000D01*
X130336786Y-108925595D01*
X130445214Y-108862995D01*
X130465569Y-108842640D01*
X130526892Y-108809155D01*
X130596584Y-108814139D01*
X130640931Y-108842640D01*
X130661286Y-108862995D01*
X130769714Y-108925595D01*
X130890649Y-108958000D01*
X130890651Y-108958000D01*
X131015849Y-108958000D01*
X131015851Y-108958000D01*
X131136786Y-108925595D01*
X131245214Y-108862995D01*
X131265569Y-108842640D01*
X131326892Y-108809155D01*
X131396584Y-108814139D01*
X131440931Y-108842640D01*
X131461286Y-108862995D01*
X131569714Y-108925595D01*
X131690649Y-108958000D01*
X131690651Y-108958000D01*
X131815849Y-108958000D01*
X131815851Y-108958000D01*
X131936786Y-108925595D01*
X132045214Y-108862995D01*
X132133745Y-108774464D01*
X132196345Y-108666036D01*
X132228750Y-108545101D01*
X132228750Y-108419899D01*
X132217004Y-108376063D01*
X132218667Y-108306215D01*
X132257829Y-108248353D01*
X132275276Y-108236299D01*
X132289198Y-108228346D01*
X132336786Y-108215595D01*
X132445214Y-108152995D01*
X132477318Y-108120890D01*
X132491747Y-108112649D01*
X132510223Y-108108256D01*
X132526892Y-108099155D01*
X132543511Y-108100343D01*
X132559722Y-108096490D01*
X132577639Y-108102784D01*
X132596584Y-108104139D01*
X132614772Y-108115828D01*
X132625643Y-108119647D01*
X132630584Y-108125990D01*
X132640931Y-108132640D01*
X132661286Y-108152995D01*
X132769714Y-108215595D01*
X132769718Y-108215596D01*
X132801815Y-108224197D01*
X132861475Y-108260562D01*
X132892003Y-108323409D01*
X132889495Y-108376063D01*
X132877750Y-108419896D01*
X132877750Y-108419899D01*
X132877750Y-108545101D01*
X132910155Y-108666036D01*
X132972755Y-108774464D01*
X133061286Y-108862995D01*
X133169714Y-108925595D01*
X133290649Y-108958000D01*
X133290651Y-108958000D01*
X133415849Y-108958000D01*
X133415851Y-108958000D01*
X133536786Y-108925595D01*
X133645214Y-108862995D01*
X133665569Y-108842640D01*
X133726892Y-108809155D01*
X133796584Y-108814139D01*
X133840931Y-108842640D01*
X133861286Y-108862995D01*
X133969714Y-108925595D01*
X134090649Y-108958000D01*
X134090651Y-108958000D01*
X134215849Y-108958000D01*
X134215851Y-108958000D01*
X134336786Y-108925595D01*
X134445214Y-108862995D01*
X134465569Y-108842640D01*
X134526892Y-108809155D01*
X134596584Y-108814139D01*
X134640931Y-108842640D01*
X134661286Y-108862995D01*
X134769714Y-108925595D01*
X134890649Y-108958000D01*
X134890651Y-108958000D01*
X135015849Y-108958000D01*
X135015851Y-108958000D01*
X135136786Y-108925595D01*
X135245214Y-108862995D01*
X135333745Y-108774464D01*
X135396345Y-108666036D01*
X135428750Y-108545101D01*
X135428750Y-108419899D01*
X135396345Y-108298964D01*
X135333745Y-108190536D01*
X135245214Y-108102005D01*
X135136786Y-108039405D01*
X135136787Y-108039405D01*
X135096474Y-108028603D01*
X135015851Y-108007000D01*
X134890649Y-108007000D01*
X134810025Y-108028603D01*
X134769713Y-108039405D01*
X134661287Y-108102004D01*
X134661284Y-108102006D01*
X134640931Y-108122360D01*
X134579608Y-108155845D01*
X134509916Y-108150861D01*
X134491746Y-108142351D01*
X134477319Y-108134110D01*
X134445214Y-108102005D01*
X134336786Y-108039405D01*
X134289200Y-108026654D01*
X134275275Y-108018700D01*
X134261716Y-108004611D01*
X134245023Y-107994435D01*
X134237989Y-107979955D01*
X134226827Y-107968356D01*
X134223038Y-107949175D01*
X134214495Y-107931588D01*
X134215480Y-107910915D01*
X134213287Y-107899811D01*
X134216383Y-107891971D01*
X134217005Y-107878933D01*
X134228749Y-107835103D01*
X134228750Y-107835100D01*
X134228750Y-107709900D01*
X134222939Y-107688213D01*
X134196345Y-107588964D01*
X134133745Y-107480536D01*
X134045214Y-107392005D01*
X133936786Y-107329405D01*
X133936787Y-107329405D01*
X133896474Y-107318603D01*
X133815851Y-107297000D01*
X133690649Y-107297000D01*
X133610025Y-107318603D01*
X133569713Y-107329405D01*
X133461287Y-107392004D01*
X133461284Y-107392006D01*
X133440931Y-107412360D01*
X133379608Y-107445845D01*
X133309916Y-107440861D01*
X133265569Y-107412360D01*
X133245215Y-107392006D01*
X133245214Y-107392005D01*
X133136786Y-107329405D01*
X133136787Y-107329405D01*
X133096474Y-107318603D01*
X133015851Y-107297000D01*
X132890649Y-107297000D01*
X132810025Y-107318603D01*
X132769713Y-107329405D01*
X132661287Y-107392004D01*
X132661284Y-107392006D01*
X132640931Y-107412360D01*
X132579608Y-107445845D01*
X132509916Y-107440861D01*
X132465569Y-107412360D01*
X132445215Y-107392006D01*
X132445214Y-107392005D01*
X132336786Y-107329405D01*
X132336787Y-107329405D01*
X132296474Y-107318603D01*
X132215851Y-107297000D01*
X132090649Y-107297000D01*
X132010025Y-107318603D01*
X131969713Y-107329405D01*
X131861287Y-107392004D01*
X131861284Y-107392006D01*
X131840931Y-107412360D01*
X131779608Y-107445845D01*
X131709916Y-107440861D01*
X131665569Y-107412360D01*
X131645215Y-107392006D01*
X131645214Y-107392005D01*
X131536786Y-107329405D01*
X131536787Y-107329405D01*
X131496474Y-107318603D01*
X131415851Y-107297000D01*
X131290649Y-107297000D01*
X131210025Y-107318603D01*
X131169713Y-107329405D01*
X131061287Y-107392004D01*
X131061284Y-107392006D01*
X130972756Y-107480534D01*
X130972754Y-107480537D01*
X130910155Y-107588963D01*
X130910155Y-107588964D01*
X130883562Y-107688211D01*
X130877750Y-107709900D01*
X130877750Y-107835101D01*
X130889495Y-107878935D01*
X130887832Y-107948785D01*
X130848669Y-108006647D01*
X130831224Y-108018700D01*
X130817298Y-108026654D01*
X130769714Y-108039405D01*
X130661286Y-108102005D01*
X130629180Y-108134110D01*
X130614754Y-108142351D01*
X130596276Y-108146743D01*
X130579608Y-108155845D01*
X130562988Y-108154656D01*
X130546778Y-108158510D01*
X130528859Y-108152215D01*
X130509916Y-108150861D01*
X130491729Y-108139172D01*
X130480858Y-108135354D01*
X130475916Y-108129009D01*
X130465569Y-108122360D01*
X130445215Y-108102006D01*
X130445214Y-108102005D01*
X130336786Y-108039405D01*
X130336787Y-108039405D01*
X130296474Y-108028603D01*
X130215851Y-108007000D01*
X130090649Y-108007000D01*
X130010025Y-108028603D01*
X129969713Y-108039405D01*
X129861287Y-108102004D01*
X129861284Y-108102006D01*
X129772756Y-108190534D01*
X129772754Y-108190537D01*
X129710155Y-108298963D01*
X129710155Y-108298964D01*
X129677750Y-108419899D01*
X118984322Y-108419899D01*
X118990500Y-108388842D01*
X118990500Y-108231158D01*
X118990500Y-108231155D01*
X118990499Y-108231153D01*
X118989115Y-108224197D01*
X118959737Y-108076503D01*
X118940756Y-108030679D01*
X118899397Y-107930827D01*
X118899390Y-107930814D01*
X118811789Y-107799711D01*
X118811786Y-107799707D01*
X118700292Y-107688213D01*
X118700288Y-107688210D01*
X118630262Y-107641420D01*
X118585457Y-107587808D01*
X118576750Y-107518483D01*
X118606904Y-107455455D01*
X118630263Y-107435216D01*
X118664468Y-107412360D01*
X118680289Y-107401789D01*
X118791789Y-107290289D01*
X118879394Y-107159179D01*
X118939737Y-107013497D01*
X118970500Y-106858842D01*
X118970500Y-106701158D01*
X118970500Y-106701155D01*
X118970499Y-106701153D01*
X118939738Y-106546510D01*
X118939737Y-106546503D01*
X118879394Y-106400821D01*
X118858058Y-106368890D01*
X118837180Y-106302215D01*
X118855664Y-106234835D01*
X118858045Y-106231129D01*
X118878075Y-106201153D01*
X135479500Y-106201153D01*
X135479500Y-106358846D01*
X135510261Y-106513489D01*
X135510264Y-106513501D01*
X135570602Y-106659172D01*
X135570609Y-106659185D01*
X135658210Y-106790288D01*
X135658213Y-106790292D01*
X135769707Y-106901786D01*
X135769711Y-106901789D01*
X135900814Y-106989390D01*
X135900827Y-106989397D01*
X136046498Y-107049735D01*
X136046503Y-107049737D01*
X136201153Y-107080499D01*
X136201156Y-107080500D01*
X136201158Y-107080500D01*
X136358844Y-107080500D01*
X136358845Y-107080499D01*
X136513497Y-107049737D01*
X136659179Y-106989394D01*
X136790289Y-106901789D01*
X136901789Y-106790289D01*
X136989394Y-106659179D01*
X137049737Y-106513497D01*
X137080500Y-106358842D01*
X137080500Y-106201158D01*
X137080500Y-106201155D01*
X137080499Y-106201153D01*
X137054241Y-106069147D01*
X137049737Y-106046503D01*
X137005206Y-105938994D01*
X136989397Y-105900827D01*
X136989390Y-105900814D01*
X136901789Y-105769711D01*
X136901786Y-105769707D01*
X136790292Y-105658213D01*
X136790288Y-105658210D01*
X136659185Y-105570609D01*
X136659172Y-105570602D01*
X136513501Y-105510264D01*
X136513489Y-105510261D01*
X136358845Y-105479500D01*
X136358842Y-105479500D01*
X136201158Y-105479500D01*
X136201155Y-105479500D01*
X136046510Y-105510261D01*
X136046498Y-105510264D01*
X135900827Y-105570602D01*
X135900814Y-105570609D01*
X135769711Y-105658210D01*
X135769707Y-105658213D01*
X135658213Y-105769707D01*
X135658210Y-105769711D01*
X135570609Y-105900814D01*
X135570602Y-105900827D01*
X135510264Y-106046498D01*
X135510261Y-106046510D01*
X135479500Y-106201153D01*
X118878075Y-106201153D01*
X118879394Y-106199179D01*
X118939737Y-106053497D01*
X118970500Y-105898842D01*
X118970500Y-105741158D01*
X118970500Y-105741155D01*
X118970499Y-105741153D01*
X118954001Y-105658213D01*
X118939737Y-105586503D01*
X118908157Y-105510261D01*
X118879397Y-105440827D01*
X118879390Y-105440814D01*
X118791789Y-105309711D01*
X118791786Y-105309707D01*
X118680292Y-105198213D01*
X118680288Y-105198210D01*
X118549185Y-105110609D01*
X118549172Y-105110602D01*
X118403501Y-105050264D01*
X118403489Y-105050261D01*
X118248845Y-105019500D01*
X118248842Y-105019500D01*
X118091158Y-105019500D01*
X118091155Y-105019500D01*
X117936510Y-105050261D01*
X117936498Y-105050264D01*
X117790827Y-105110602D01*
X117790814Y-105110609D01*
X117659711Y-105198210D01*
X117659707Y-105198213D01*
X117548213Y-105309707D01*
X117548210Y-105309711D01*
X117460609Y-105440814D01*
X117460602Y-105440827D01*
X117400264Y-105586498D01*
X117400261Y-105586510D01*
X117369500Y-105741153D01*
X113763704Y-105741153D01*
X113830099Y-105696789D01*
X113848306Y-105678582D01*
X113879504Y-105647385D01*
X113941596Y-105585292D01*
X113941599Y-105585289D01*
X114029204Y-105454179D01*
X114089547Y-105308497D01*
X114120310Y-105153842D01*
X114120310Y-104996158D01*
X114120310Y-104996155D01*
X114120309Y-104996153D01*
X114105207Y-104920231D01*
X114089547Y-104841503D01*
X114048275Y-104741862D01*
X114029207Y-104695827D01*
X114029200Y-104695814D01*
X113941599Y-104564711D01*
X113941596Y-104564707D01*
X113830102Y-104453213D01*
X113830098Y-104453210D01*
X113698995Y-104365609D01*
X113698982Y-104365602D01*
X113553311Y-104305264D01*
X113553299Y-104305261D01*
X113398655Y-104274500D01*
X113398652Y-104274500D01*
X113240968Y-104274500D01*
X113240965Y-104274500D01*
X113086320Y-104305261D01*
X113086308Y-104305264D01*
X112940637Y-104365602D01*
X112940624Y-104365609D01*
X112809521Y-104453210D01*
X112809517Y-104453213D01*
X112698023Y-104564707D01*
X112698020Y-104564711D01*
X112610419Y-104695814D01*
X112610412Y-104695827D01*
X112550074Y-104841498D01*
X112550071Y-104841510D01*
X112519310Y-104996153D01*
X96471635Y-104996153D01*
X96471644Y-104989885D01*
X96473644Y-103618591D01*
X96474034Y-103351153D01*
X116219500Y-103351153D01*
X116219500Y-103508846D01*
X116250261Y-103663489D01*
X116250264Y-103663501D01*
X116310602Y-103809172D01*
X116310609Y-103809185D01*
X116398210Y-103940288D01*
X116398213Y-103940292D01*
X116509707Y-104051786D01*
X116509711Y-104051789D01*
X116640814Y-104139390D01*
X116640827Y-104139397D01*
X116786498Y-104199735D01*
X116786503Y-104199737D01*
X116910899Y-104224481D01*
X116941153Y-104230499D01*
X116941156Y-104230500D01*
X116941158Y-104230500D01*
X117098844Y-104230500D01*
X117098845Y-104230499D01*
X117253497Y-104199737D01*
X117366166Y-104153067D01*
X117399172Y-104139397D01*
X117399172Y-104139396D01*
X117399179Y-104139394D01*
X117530289Y-104051789D01*
X117641789Y-103940289D01*
X117729394Y-103809179D01*
X117789737Y-103663497D01*
X117820500Y-103508842D01*
X117820500Y-103351158D01*
X117820500Y-103351155D01*
X117820499Y-103351153D01*
X117798235Y-103239225D01*
X117789737Y-103196503D01*
X117757245Y-103118059D01*
X117731290Y-103055397D01*
X117723821Y-102985928D01*
X117742749Y-102939055D01*
X117769394Y-102899179D01*
X117829737Y-102753497D01*
X117860500Y-102598842D01*
X117860500Y-102441158D01*
X117860500Y-102441155D01*
X117860499Y-102441153D01*
X117829737Y-102286503D01*
X117789643Y-102189707D01*
X117769397Y-102140827D01*
X117769390Y-102140814D01*
X117738081Y-102093957D01*
X117696116Y-102031153D01*
X122699500Y-102031153D01*
X122699500Y-102188846D01*
X122730261Y-102343489D01*
X122730264Y-102343501D01*
X122790602Y-102489172D01*
X122790609Y-102489185D01*
X122847008Y-102573591D01*
X122867886Y-102640268D01*
X122849402Y-102707649D01*
X122847009Y-102711372D01*
X122800608Y-102780816D01*
X122800602Y-102780827D01*
X122740264Y-102926498D01*
X122740261Y-102926510D01*
X122709500Y-103081153D01*
X122709500Y-103238846D01*
X122740261Y-103393489D01*
X122740264Y-103393501D01*
X122800602Y-103539172D01*
X122800612Y-103539190D01*
X122852008Y-103616110D01*
X122872886Y-103682787D01*
X122854401Y-103750167D01*
X122852008Y-103753890D01*
X122800612Y-103830809D01*
X122800602Y-103830827D01*
X122740264Y-103976498D01*
X122740261Y-103976510D01*
X122709500Y-104131153D01*
X122709500Y-104288846D01*
X122740261Y-104443489D01*
X122740264Y-104443501D01*
X122800602Y-104589172D01*
X122800609Y-104589185D01*
X122888210Y-104720288D01*
X122888213Y-104720292D01*
X122999707Y-104831786D01*
X122999711Y-104831789D01*
X123130814Y-104919390D01*
X123130827Y-104919397D01*
X123175817Y-104938032D01*
X123276503Y-104979737D01*
X123431153Y-105010499D01*
X123431156Y-105010500D01*
X123431158Y-105010500D01*
X123588844Y-105010500D01*
X123588845Y-105010499D01*
X123743497Y-104979737D01*
X123856166Y-104933067D01*
X123889172Y-104919397D01*
X123889172Y-104919396D01*
X123889179Y-104919394D01*
X124020289Y-104831789D01*
X124131789Y-104720289D01*
X124219394Y-104589179D01*
X124279737Y-104443497D01*
X124310500Y-104288842D01*
X124310500Y-104131158D01*
X124310500Y-104131155D01*
X124310499Y-104131153D01*
X124294712Y-104051786D01*
X124279737Y-103976503D01*
X124277521Y-103971153D01*
X124219397Y-103830827D01*
X124219395Y-103830823D01*
X124219394Y-103830821D01*
X124167991Y-103753891D01*
X124147113Y-103687214D01*
X124165597Y-103619834D01*
X124167991Y-103616109D01*
X124195718Y-103574612D01*
X124219394Y-103539179D01*
X124279737Y-103393497D01*
X124310500Y-103238842D01*
X124310500Y-103081158D01*
X124310500Y-103081155D01*
X124310499Y-103081153D01*
X124304467Y-103050828D01*
X124279737Y-102926503D01*
X124266523Y-102894601D01*
X124219397Y-102780827D01*
X124219395Y-102780823D01*
X124219394Y-102780821D01*
X124162991Y-102696408D01*
X124142113Y-102629731D01*
X124160597Y-102562351D01*
X124162991Y-102558626D01*
X124178015Y-102536141D01*
X124209394Y-102489179D01*
X124269737Y-102343497D01*
X124300500Y-102188842D01*
X124300500Y-102031158D01*
X124298510Y-102021153D01*
X128379500Y-102021153D01*
X128379500Y-102178846D01*
X128410261Y-102333489D01*
X128410264Y-102333501D01*
X128470602Y-102479172D01*
X128470612Y-102479190D01*
X128528667Y-102566076D01*
X128549545Y-102632753D01*
X128531060Y-102700133D01*
X128528668Y-102703855D01*
X128490611Y-102760812D01*
X128490602Y-102760828D01*
X128430264Y-102906498D01*
X128430261Y-102906510D01*
X128399500Y-103061153D01*
X128399500Y-103218846D01*
X128430261Y-103373489D01*
X128430264Y-103373501D01*
X128490602Y-103519172D01*
X128490609Y-103519185D01*
X128557031Y-103618591D01*
X128577909Y-103685268D01*
X128559425Y-103752648D01*
X128557032Y-103756372D01*
X128500608Y-103840816D01*
X128500602Y-103840827D01*
X128440264Y-103986498D01*
X128440261Y-103986510D01*
X128409500Y-104141153D01*
X128409500Y-104298846D01*
X128440261Y-104453489D01*
X128440264Y-104453501D01*
X128500602Y-104599172D01*
X128500609Y-104599185D01*
X128588210Y-104730288D01*
X128588213Y-104730292D01*
X128699707Y-104841786D01*
X128699711Y-104841789D01*
X128830814Y-104929390D01*
X128830827Y-104929397D01*
X128952363Y-104979738D01*
X128976503Y-104989737D01*
X129126131Y-105019500D01*
X129131153Y-105020499D01*
X129131156Y-105020500D01*
X129131158Y-105020500D01*
X129288844Y-105020500D01*
X129288845Y-105020499D01*
X129443497Y-104989737D01*
X129589179Y-104929394D01*
X129720289Y-104841789D01*
X129831789Y-104730289D01*
X129919394Y-104599179D01*
X129979737Y-104453497D01*
X130006099Y-104320965D01*
X130038483Y-104259055D01*
X130099199Y-104224481D01*
X130168968Y-104228220D01*
X130215397Y-104257476D01*
X130309707Y-104351786D01*
X130309711Y-104351789D01*
X130382219Y-104400238D01*
X130427024Y-104453850D01*
X130435731Y-104523175D01*
X130405576Y-104586203D01*
X130382219Y-104606442D01*
X130275694Y-104677620D01*
X130275690Y-104677623D01*
X130164196Y-104789117D01*
X130164193Y-104789121D01*
X130076592Y-104920224D01*
X130076585Y-104920237D01*
X130016247Y-105065908D01*
X130016244Y-105065920D01*
X129985483Y-105220563D01*
X129985483Y-105378256D01*
X130016244Y-105532899D01*
X130016247Y-105532911D01*
X130076585Y-105678582D01*
X130076592Y-105678595D01*
X130164193Y-105809698D01*
X130164196Y-105809702D01*
X130275690Y-105921196D01*
X130275694Y-105921199D01*
X130406797Y-106008800D01*
X130406810Y-106008807D01*
X130552481Y-106069145D01*
X130552486Y-106069147D01*
X130707136Y-106099909D01*
X130707139Y-106099910D01*
X130707141Y-106099910D01*
X130864827Y-106099910D01*
X130864828Y-106099909D01*
X131019480Y-106069147D01*
X131165162Y-106008804D01*
X131296272Y-105921199D01*
X131407772Y-105809699D01*
X131495377Y-105678589D01*
X131555720Y-105532907D01*
X131586483Y-105378252D01*
X131586483Y-105238358D01*
X133478181Y-105238358D01*
X133478181Y-105396051D01*
X133508942Y-105550694D01*
X133508945Y-105550706D01*
X133569283Y-105696377D01*
X133569290Y-105696390D01*
X133656891Y-105827493D01*
X133656894Y-105827497D01*
X133768388Y-105938991D01*
X133768392Y-105938994D01*
X133899495Y-106026595D01*
X133899508Y-106026602D01*
X134045179Y-106086940D01*
X134045184Y-106086942D01*
X134199834Y-106117704D01*
X134199837Y-106117705D01*
X134199839Y-106117705D01*
X134357525Y-106117705D01*
X134357526Y-106117704D01*
X134512178Y-106086942D01*
X134521264Y-106083178D01*
X134527719Y-106080505D01*
X134657853Y-106026602D01*
X134657853Y-106026601D01*
X134657860Y-106026599D01*
X134788970Y-105938994D01*
X134900470Y-105827494D01*
X134988075Y-105696384D01*
X135048418Y-105550702D01*
X135079181Y-105396047D01*
X135079181Y-105238363D01*
X135079181Y-105238360D01*
X135079180Y-105238358D01*
X135062369Y-105153844D01*
X135048418Y-105083708D01*
X135022236Y-105020499D01*
X134988078Y-104938032D01*
X134988071Y-104938019D01*
X134918698Y-104834196D01*
X134897820Y-104767519D01*
X134916304Y-104700139D01*
X134936705Y-104676820D01*
X134935982Y-104676097D01*
X135051786Y-104560292D01*
X135051789Y-104560289D01*
X135139394Y-104429179D01*
X135141968Y-104422966D01*
X135171450Y-104351789D01*
X135199737Y-104283497D01*
X135230500Y-104128842D01*
X135230500Y-103971158D01*
X135230500Y-103971155D01*
X135230499Y-103971153D01*
X135224360Y-103940289D01*
X135199737Y-103816503D01*
X135196703Y-103809179D01*
X135139397Y-103670827D01*
X135139393Y-103670820D01*
X135139389Y-103670814D01*
X135075107Y-103574608D01*
X135054230Y-103507934D01*
X135072714Y-103440554D01*
X135109317Y-103402619D01*
X135230289Y-103321789D01*
X135341789Y-103210289D01*
X135429394Y-103079179D01*
X135436859Y-103061158D01*
X135453654Y-103020609D01*
X135489737Y-102933497D01*
X135520500Y-102778842D01*
X135520500Y-102621158D01*
X135520500Y-102621155D01*
X135520499Y-102621153D01*
X135508802Y-102562351D01*
X135489737Y-102466503D01*
X135479237Y-102441153D01*
X135429397Y-102320827D01*
X135429390Y-102320814D01*
X135341789Y-102189711D01*
X135341786Y-102189707D01*
X135230292Y-102078213D01*
X135230288Y-102078210D01*
X135099185Y-101990609D01*
X135099172Y-101990602D01*
X134953501Y-101930264D01*
X134953489Y-101930261D01*
X134798845Y-101899500D01*
X134798842Y-101899500D01*
X134641158Y-101899500D01*
X134641155Y-101899500D01*
X134486510Y-101930261D01*
X134486498Y-101930264D01*
X134340827Y-101990602D01*
X134340814Y-101990609D01*
X134209711Y-102078210D01*
X134209707Y-102078213D01*
X134098213Y-102189707D01*
X134098210Y-102189711D01*
X134010609Y-102320814D01*
X134010602Y-102320827D01*
X133950264Y-102466498D01*
X133950261Y-102466510D01*
X133919500Y-102621153D01*
X133919500Y-102778846D01*
X133950261Y-102933489D01*
X133950264Y-102933501D01*
X134010602Y-103079172D01*
X134010609Y-103079185D01*
X134074890Y-103175388D01*
X134095768Y-103242066D01*
X134077283Y-103309446D01*
X134040680Y-103347381D01*
X133919707Y-103428213D01*
X133808213Y-103539707D01*
X133808210Y-103539711D01*
X133720609Y-103670814D01*
X133720602Y-103670827D01*
X133660264Y-103816498D01*
X133660261Y-103816510D01*
X133629500Y-103971153D01*
X133629500Y-104128846D01*
X133660261Y-104283489D01*
X133660264Y-104283501D01*
X133720602Y-104429172D01*
X133720609Y-104429185D01*
X133789981Y-104533007D01*
X133810859Y-104599685D01*
X133792374Y-104667065D01*
X133771986Y-104690395D01*
X133772699Y-104691108D01*
X133656894Y-104806912D01*
X133656891Y-104806916D01*
X133569290Y-104938019D01*
X133569283Y-104938032D01*
X133508945Y-105083703D01*
X133508942Y-105083715D01*
X133478181Y-105238358D01*
X131586483Y-105238358D01*
X131586483Y-105220568D01*
X131586483Y-105220565D01*
X131586482Y-105220563D01*
X131573210Y-105153842D01*
X131555720Y-105065913D01*
X131549237Y-105050261D01*
X131495380Y-104920237D01*
X131495373Y-104920224D01*
X131407772Y-104789121D01*
X131407769Y-104789117D01*
X131296275Y-104677623D01*
X131296271Y-104677620D01*
X131223763Y-104629171D01*
X131178958Y-104575558D01*
X131170251Y-104506233D01*
X131200406Y-104443206D01*
X131223759Y-104422969D01*
X131330289Y-104351789D01*
X131441789Y-104240289D01*
X131529394Y-104109179D01*
X131589737Y-103963497D01*
X131620500Y-103808842D01*
X131620500Y-103651158D01*
X131620500Y-103651155D01*
X131620499Y-103651153D01*
X131605274Y-103574612D01*
X131589737Y-103496503D01*
X131589735Y-103496498D01*
X131529397Y-103350827D01*
X131529390Y-103350814D01*
X131441789Y-103219711D01*
X131441786Y-103219707D01*
X131330292Y-103108213D01*
X131330288Y-103108210D01*
X131199185Y-103020609D01*
X131199172Y-103020602D01*
X131053501Y-102960264D01*
X131053489Y-102960261D01*
X130898845Y-102929500D01*
X130898842Y-102929500D01*
X130741158Y-102929500D01*
X130741155Y-102929500D01*
X130586510Y-102960261D01*
X130586498Y-102960264D01*
X130440827Y-103020602D01*
X130440814Y-103020609D01*
X130309711Y-103108210D01*
X130309707Y-103108213D01*
X130212181Y-103205740D01*
X130150858Y-103239225D01*
X130081166Y-103234241D01*
X130025233Y-103192369D01*
X130000816Y-103126905D01*
X130000500Y-103118059D01*
X130000500Y-103061155D01*
X130000499Y-103061153D01*
X129980431Y-102960264D01*
X129969737Y-102906503D01*
X129966703Y-102899179D01*
X129909397Y-102760827D01*
X129909395Y-102760823D01*
X129909394Y-102760821D01*
X129851330Y-102673923D01*
X129830453Y-102607247D01*
X129848937Y-102539867D01*
X129851311Y-102536172D01*
X129889394Y-102479179D01*
X129949737Y-102333497D01*
X129980500Y-102178842D01*
X129980500Y-102021158D01*
X129980500Y-102021155D01*
X129980499Y-102021153D01*
X129962419Y-101930261D01*
X129949737Y-101866503D01*
X129901590Y-101750264D01*
X129889397Y-101720827D01*
X129889390Y-101720814D01*
X129801789Y-101589711D01*
X129801786Y-101589707D01*
X129690292Y-101478213D01*
X129690288Y-101478210D01*
X129559185Y-101390609D01*
X129559172Y-101390602D01*
X129413501Y-101330264D01*
X129413489Y-101330261D01*
X129258845Y-101299500D01*
X129258842Y-101299500D01*
X129101158Y-101299500D01*
X129101155Y-101299500D01*
X128946510Y-101330261D01*
X128946498Y-101330264D01*
X128800827Y-101390602D01*
X128800814Y-101390609D01*
X128669711Y-101478210D01*
X128669707Y-101478213D01*
X128558213Y-101589707D01*
X128558210Y-101589711D01*
X128470609Y-101720814D01*
X128470602Y-101720827D01*
X128410264Y-101866498D01*
X128410261Y-101866510D01*
X128379500Y-102021153D01*
X124298510Y-102021153D01*
X124269737Y-101876503D01*
X124242440Y-101810602D01*
X124209397Y-101730827D01*
X124209390Y-101730814D01*
X124121789Y-101599711D01*
X124121786Y-101599707D01*
X124010292Y-101488213D01*
X124010288Y-101488210D01*
X123879185Y-101400609D01*
X123879172Y-101400602D01*
X123733501Y-101340264D01*
X123733489Y-101340261D01*
X123578845Y-101309500D01*
X123578842Y-101309500D01*
X123421158Y-101309500D01*
X123421155Y-101309500D01*
X123266510Y-101340261D01*
X123266498Y-101340264D01*
X123120827Y-101400602D01*
X123120814Y-101400609D01*
X122989711Y-101488210D01*
X122989707Y-101488213D01*
X122878213Y-101599707D01*
X122878210Y-101599711D01*
X122790609Y-101730814D01*
X122790602Y-101730827D01*
X122730264Y-101876498D01*
X122730261Y-101876510D01*
X122699500Y-102031153D01*
X117696116Y-102031153D01*
X117681789Y-102009711D01*
X117681786Y-102009707D01*
X117570292Y-101898213D01*
X117570288Y-101898210D01*
X117439185Y-101810609D01*
X117439172Y-101810602D01*
X117293501Y-101750264D01*
X117293489Y-101750261D01*
X117138845Y-101719500D01*
X117138842Y-101719500D01*
X116981158Y-101719500D01*
X116981155Y-101719500D01*
X116826510Y-101750261D01*
X116826498Y-101750264D01*
X116680827Y-101810602D01*
X116680814Y-101810609D01*
X116549711Y-101898210D01*
X116549707Y-101898213D01*
X116438213Y-102009707D01*
X116438210Y-102009711D01*
X116350609Y-102140814D01*
X116350602Y-102140827D01*
X116290264Y-102286498D01*
X116290261Y-102286510D01*
X116259500Y-102441153D01*
X116259500Y-102598846D01*
X116290261Y-102753489D01*
X116290264Y-102753501D01*
X116348709Y-102894601D01*
X116356178Y-102964070D01*
X116337251Y-103010942D01*
X116310611Y-103050812D01*
X116310602Y-103050828D01*
X116250264Y-103196498D01*
X116250261Y-103196510D01*
X116219500Y-103351153D01*
X96474034Y-103351153D01*
X96475728Y-102189707D01*
X96478396Y-100361153D01*
X124219500Y-100361153D01*
X124219500Y-100518846D01*
X124250261Y-100673489D01*
X124250264Y-100673501D01*
X124310602Y-100819172D01*
X124310609Y-100819185D01*
X124398210Y-100950288D01*
X124398213Y-100950292D01*
X124509707Y-101061786D01*
X124509711Y-101061789D01*
X124640814Y-101149390D01*
X124640827Y-101149397D01*
X124786498Y-101209735D01*
X124786503Y-101209737D01*
X124941153Y-101240499D01*
X124941156Y-101240500D01*
X124941158Y-101240500D01*
X125098844Y-101240500D01*
X125098845Y-101240499D01*
X125253497Y-101209737D01*
X125399179Y-101149394D01*
X125530289Y-101061789D01*
X125641789Y-100950289D01*
X125729394Y-100819179D01*
X125789737Y-100673497D01*
X125820500Y-100518842D01*
X125820500Y-100361158D01*
X125820500Y-100361155D01*
X125820499Y-100361153D01*
X125789738Y-100206510D01*
X125789737Y-100206503D01*
X125789735Y-100206498D01*
X125729397Y-100060827D01*
X125729390Y-100060814D01*
X125641789Y-99929711D01*
X125641786Y-99929707D01*
X125530292Y-99818213D01*
X125530288Y-99818210D01*
X125399185Y-99730609D01*
X125399172Y-99730602D01*
X125253501Y-99670264D01*
X125253489Y-99670261D01*
X125098845Y-99639500D01*
X125098842Y-99639500D01*
X124941158Y-99639500D01*
X124941155Y-99639500D01*
X124786510Y-99670261D01*
X124786498Y-99670264D01*
X124640827Y-99730602D01*
X124640814Y-99730609D01*
X124509711Y-99818210D01*
X124509707Y-99818213D01*
X124398213Y-99929707D01*
X124398210Y-99929711D01*
X124310609Y-100060814D01*
X124310602Y-100060827D01*
X124250264Y-100206498D01*
X124250261Y-100206510D01*
X124219500Y-100361153D01*
X96478396Y-100361153D01*
X96478405Y-100354885D01*
X96481736Y-98071153D01*
X111189500Y-98071153D01*
X111189500Y-98228846D01*
X111220261Y-98383489D01*
X111220264Y-98383501D01*
X111280602Y-98529172D01*
X111280609Y-98529185D01*
X111368210Y-98660288D01*
X111368213Y-98660292D01*
X111479707Y-98771786D01*
X111479711Y-98771789D01*
X111610814Y-98859390D01*
X111610827Y-98859397D01*
X111756498Y-98919735D01*
X111756503Y-98919737D01*
X111911153Y-98950499D01*
X111911156Y-98950500D01*
X111911158Y-98950500D01*
X112068844Y-98950500D01*
X112068845Y-98950499D01*
X112223497Y-98919737D01*
X112369179Y-98859394D01*
X112500289Y-98771789D01*
X112611789Y-98660289D01*
X112699394Y-98529179D01*
X112756566Y-98391153D01*
X133029500Y-98391153D01*
X133029500Y-98548846D01*
X133060261Y-98703489D01*
X133060264Y-98703501D01*
X133120602Y-98849172D01*
X133120609Y-98849185D01*
X133208210Y-98980288D01*
X133208213Y-98980292D01*
X133319707Y-99091786D01*
X133319711Y-99091789D01*
X133450814Y-99179390D01*
X133450827Y-99179397D01*
X133596498Y-99239735D01*
X133596503Y-99239737D01*
X133751153Y-99270499D01*
X133751156Y-99270500D01*
X133751158Y-99270500D01*
X133908844Y-99270500D01*
X133908845Y-99270499D01*
X134063497Y-99239737D01*
X134209179Y-99179394D01*
X134340289Y-99091789D01*
X134451789Y-98980289D01*
X134539394Y-98849179D01*
X134599737Y-98703497D01*
X134630500Y-98548842D01*
X134630500Y-98391158D01*
X134630500Y-98391155D01*
X134630499Y-98391153D01*
X134599738Y-98236510D01*
X134599737Y-98236503D01*
X134596564Y-98228842D01*
X134539397Y-98090827D01*
X134539390Y-98090814D01*
X134451789Y-97959711D01*
X134451786Y-97959707D01*
X134340292Y-97848213D01*
X134340288Y-97848210D01*
X134209185Y-97760609D01*
X134209172Y-97760602D01*
X134063501Y-97700264D01*
X134063489Y-97700261D01*
X133908845Y-97669500D01*
X133908842Y-97669500D01*
X133751158Y-97669500D01*
X133751155Y-97669500D01*
X133596510Y-97700261D01*
X133596498Y-97700264D01*
X133450827Y-97760602D01*
X133450814Y-97760609D01*
X133319711Y-97848210D01*
X133319707Y-97848213D01*
X133208213Y-97959707D01*
X133208210Y-97959711D01*
X133120609Y-98090814D01*
X133120602Y-98090827D01*
X133060264Y-98236498D01*
X133060261Y-98236510D01*
X133029500Y-98391153D01*
X112756566Y-98391153D01*
X112759737Y-98383497D01*
X112788977Y-98236498D01*
X112790500Y-98228844D01*
X112790500Y-98071155D01*
X112790499Y-98071153D01*
X112789252Y-98064885D01*
X112759737Y-97916503D01*
X112731450Y-97848211D01*
X112699397Y-97770827D01*
X112699390Y-97770814D01*
X112611789Y-97639711D01*
X112611786Y-97639707D01*
X112500292Y-97528213D01*
X112500288Y-97528210D01*
X112369185Y-97440609D01*
X112369172Y-97440602D01*
X112223501Y-97380264D01*
X112223489Y-97380261D01*
X112068845Y-97349500D01*
X112068842Y-97349500D01*
X111911158Y-97349500D01*
X111911155Y-97349500D01*
X111756510Y-97380261D01*
X111756498Y-97380264D01*
X111610827Y-97440602D01*
X111610814Y-97440609D01*
X111479711Y-97528210D01*
X111479707Y-97528213D01*
X111368213Y-97639707D01*
X111368210Y-97639711D01*
X111280609Y-97770814D01*
X111280602Y-97770827D01*
X111220264Y-97916498D01*
X111220261Y-97916510D01*
X111189500Y-98071153D01*
X96481736Y-98071153D01*
X96481745Y-98064885D01*
X96484041Y-96491153D01*
X127099500Y-96491153D01*
X127099500Y-96648846D01*
X127130261Y-96803489D01*
X127130264Y-96803501D01*
X127190602Y-96949172D01*
X127190609Y-96949185D01*
X127278210Y-97080288D01*
X127278213Y-97080292D01*
X127389707Y-97191786D01*
X127389711Y-97191789D01*
X127520814Y-97279390D01*
X127520827Y-97279397D01*
X127666498Y-97339735D01*
X127666503Y-97339737D01*
X127821153Y-97370499D01*
X127821156Y-97370500D01*
X127821158Y-97370500D01*
X127978844Y-97370500D01*
X127978845Y-97370499D01*
X128133497Y-97339737D01*
X128279179Y-97279394D01*
X128410289Y-97191789D01*
X128521789Y-97080289D01*
X128609394Y-96949179D01*
X128669737Y-96803497D01*
X128700500Y-96648842D01*
X128700500Y-96648835D01*
X128701097Y-96642782D01*
X128702300Y-96642900D01*
X128720185Y-96581995D01*
X128772989Y-96536240D01*
X128788508Y-96530372D01*
X128790589Y-96529739D01*
X128790605Y-96529737D01*
X128936287Y-96469394D01*
X129067397Y-96381789D01*
X129178897Y-96270289D01*
X129266502Y-96139179D01*
X129326845Y-95993497D01*
X129357608Y-95838842D01*
X129357608Y-95681158D01*
X129357608Y-95681155D01*
X129357607Y-95681153D01*
X129326846Y-95526510D01*
X129326845Y-95526503D01*
X129326843Y-95526498D01*
X129266505Y-95380827D01*
X129266498Y-95380814D01*
X129178897Y-95249711D01*
X129178894Y-95249707D01*
X129067400Y-95138213D01*
X129067396Y-95138210D01*
X128936293Y-95050609D01*
X128936280Y-95050602D01*
X128790609Y-94990264D01*
X128790597Y-94990261D01*
X128635953Y-94959500D01*
X128635950Y-94959500D01*
X128478266Y-94959500D01*
X128478263Y-94959500D01*
X128323618Y-94990261D01*
X128323606Y-94990264D01*
X128177935Y-95050602D01*
X128177922Y-95050609D01*
X128046819Y-95138210D01*
X128046815Y-95138213D01*
X127935321Y-95249707D01*
X127935318Y-95249711D01*
X127847717Y-95380814D01*
X127847710Y-95380827D01*
X127787372Y-95526498D01*
X127787369Y-95526510D01*
X127756608Y-95681153D01*
X127756011Y-95687218D01*
X127754806Y-95687099D01*
X127736923Y-95748004D01*
X127684119Y-95793759D01*
X127668610Y-95799624D01*
X127666498Y-95800264D01*
X127520827Y-95860602D01*
X127520814Y-95860609D01*
X127389711Y-95948210D01*
X127389707Y-95948213D01*
X127278213Y-96059707D01*
X127278210Y-96059711D01*
X127190609Y-96190814D01*
X127190602Y-96190827D01*
X127130264Y-96336498D01*
X127130261Y-96336510D01*
X127099500Y-96491153D01*
X96484041Y-96491153D01*
X96484050Y-96484885D01*
X96487906Y-93841307D01*
X148079499Y-93841307D01*
X148111222Y-94000783D01*
X148111225Y-94000793D01*
X148173450Y-94151019D01*
X148173452Y-94151023D01*
X148263788Y-94286220D01*
X148263794Y-94286228D01*
X148378771Y-94401205D01*
X148378779Y-94401211D01*
X148513976Y-94491547D01*
X148513980Y-94491549D01*
X148664206Y-94553774D01*
X148664211Y-94553776D01*
X148664215Y-94553776D01*
X148664216Y-94553777D01*
X148823692Y-94585500D01*
X148823695Y-94585500D01*
X148986307Y-94585500D01*
X149093598Y-94564157D01*
X149145789Y-94553776D01*
X149245943Y-94512290D01*
X149272832Y-94501153D01*
X156929500Y-94501153D01*
X156929500Y-94658846D01*
X156960261Y-94813489D01*
X156960264Y-94813501D01*
X157020602Y-94959172D01*
X157020609Y-94959185D01*
X157108210Y-95090288D01*
X157108213Y-95090292D01*
X157219707Y-95201786D01*
X157219711Y-95201789D01*
X157350814Y-95289390D01*
X157350827Y-95289397D01*
X157496498Y-95349735D01*
X157496503Y-95349737D01*
X157651153Y-95380499D01*
X157651156Y-95380500D01*
X157651158Y-95380500D01*
X157808844Y-95380500D01*
X157808845Y-95380499D01*
X157963497Y-95349737D01*
X158109179Y-95289394D01*
X158240289Y-95201789D01*
X158351789Y-95090289D01*
X158439394Y-94959179D01*
X158499737Y-94813497D01*
X158530500Y-94658842D01*
X158530500Y-94501158D01*
X158530500Y-94501155D01*
X158530499Y-94501153D01*
X158510619Y-94401211D01*
X158499737Y-94346503D01*
X158490286Y-94323685D01*
X158439397Y-94200827D01*
X158439390Y-94200814D01*
X158351789Y-94069711D01*
X158351786Y-94069707D01*
X158240292Y-93958213D01*
X158240288Y-93958210D01*
X158109185Y-93870609D01*
X158109172Y-93870602D01*
X157963501Y-93810264D01*
X157963489Y-93810261D01*
X157808845Y-93779500D01*
X157808842Y-93779500D01*
X157651158Y-93779500D01*
X157651155Y-93779500D01*
X157496510Y-93810261D01*
X157496498Y-93810264D01*
X157350827Y-93870602D01*
X157350814Y-93870609D01*
X157219711Y-93958210D01*
X157219707Y-93958213D01*
X157108213Y-94069707D01*
X157108210Y-94069711D01*
X157020609Y-94200814D01*
X157020602Y-94200827D01*
X156960264Y-94346498D01*
X156960261Y-94346510D01*
X156929500Y-94501153D01*
X149272832Y-94501153D01*
X149296019Y-94491549D01*
X149296023Y-94491547D01*
X149431225Y-94401208D01*
X149546205Y-94286228D01*
X149546208Y-94286225D01*
X149603278Y-94200814D01*
X149636547Y-94151023D01*
X149636549Y-94151019D01*
X149670229Y-94069707D01*
X149698776Y-94000789D01*
X149724672Y-93870606D01*
X149730500Y-93841307D01*
X149730500Y-93678692D01*
X149698777Y-93519216D01*
X149698776Y-93519215D01*
X149698776Y-93519211D01*
X149682285Y-93479397D01*
X149636549Y-93368980D01*
X149636547Y-93368976D01*
X149546211Y-93233779D01*
X149546205Y-93233771D01*
X149431228Y-93118794D01*
X149431220Y-93118788D01*
X149296023Y-93028452D01*
X149296019Y-93028450D01*
X149145793Y-92966225D01*
X149145783Y-92966222D01*
X148986307Y-92934500D01*
X148986305Y-92934500D01*
X148823695Y-92934500D01*
X148823693Y-92934500D01*
X148664216Y-92966222D01*
X148664206Y-92966225D01*
X148513980Y-93028450D01*
X148513976Y-93028452D01*
X148378779Y-93118788D01*
X148378771Y-93118794D01*
X148263794Y-93233771D01*
X148263788Y-93233779D01*
X148173452Y-93368976D01*
X148173450Y-93368980D01*
X148111225Y-93519206D01*
X148111222Y-93519216D01*
X148079500Y-93678692D01*
X148079500Y-93678695D01*
X148079500Y-93841305D01*
X148079500Y-93841307D01*
X148079499Y-93841307D01*
X96487906Y-93841307D01*
X96488152Y-93672422D01*
X96488344Y-93540499D01*
X96490036Y-92380563D01*
X130795483Y-92380563D01*
X130795483Y-92538256D01*
X130826244Y-92692899D01*
X130826247Y-92692911D01*
X130886585Y-92838582D01*
X130886592Y-92838595D01*
X130974193Y-92969698D01*
X130974196Y-92969702D01*
X131085690Y-93081196D01*
X131085694Y-93081199D01*
X131216797Y-93168800D01*
X131216810Y-93168807D01*
X131362481Y-93229145D01*
X131362486Y-93229147D01*
X131517136Y-93259909D01*
X131517139Y-93259910D01*
X131517141Y-93259910D01*
X131674827Y-93259910D01*
X131674828Y-93259909D01*
X131829480Y-93229147D01*
X131975162Y-93168804D01*
X132106272Y-93081199D01*
X132217772Y-92969699D01*
X132305377Y-92838589D01*
X132365720Y-92692907D01*
X132396483Y-92538252D01*
X132396483Y-92380568D01*
X132396483Y-92380565D01*
X132396482Y-92380563D01*
X132372442Y-92259707D01*
X132365720Y-92225913D01*
X132334509Y-92150563D01*
X136175483Y-92150563D01*
X136175483Y-92308256D01*
X136206244Y-92462899D01*
X136206247Y-92462911D01*
X136266585Y-92608582D01*
X136266592Y-92608595D01*
X136354193Y-92739698D01*
X136354196Y-92739702D01*
X136465690Y-92851196D01*
X136465694Y-92851199D01*
X136596797Y-92938800D01*
X136596810Y-92938807D01*
X136728855Y-92993501D01*
X136742486Y-92999147D01*
X136889801Y-93028450D01*
X136897136Y-93029909D01*
X136897139Y-93029910D01*
X136897141Y-93029910D01*
X137054827Y-93029910D01*
X137054828Y-93029909D01*
X137209480Y-92999147D01*
X137353115Y-92939652D01*
X137355155Y-92938807D01*
X137355155Y-92938806D01*
X137355162Y-92938804D01*
X137486272Y-92851199D01*
X137597772Y-92739699D01*
X137650255Y-92661153D01*
X156479500Y-92661153D01*
X156479500Y-92818846D01*
X156510261Y-92973489D01*
X156510264Y-92973501D01*
X156570602Y-93119172D01*
X156570609Y-93119185D01*
X156658210Y-93250288D01*
X156658213Y-93250292D01*
X156769707Y-93361786D01*
X156769711Y-93361789D01*
X156900814Y-93449390D01*
X156900827Y-93449397D01*
X157042676Y-93508152D01*
X157046503Y-93509737D01*
X157197312Y-93539735D01*
X157201153Y-93540499D01*
X157201156Y-93540500D01*
X157201158Y-93540500D01*
X157358844Y-93540500D01*
X157358845Y-93540499D01*
X157513497Y-93509737D01*
X157659179Y-93449394D01*
X157790289Y-93361789D01*
X157901789Y-93250289D01*
X157989394Y-93119179D01*
X157989554Y-93118794D01*
X158005127Y-93081196D01*
X158049737Y-92973497D01*
X158080500Y-92818842D01*
X158080500Y-92681153D01*
X158389500Y-92681153D01*
X158389500Y-92838846D01*
X158420261Y-92993489D01*
X158420264Y-92993501D01*
X158480602Y-93139172D01*
X158480609Y-93139185D01*
X158568210Y-93270288D01*
X158568213Y-93270292D01*
X158679707Y-93381786D01*
X158679711Y-93381789D01*
X158810814Y-93469390D01*
X158810827Y-93469397D01*
X158931103Y-93519216D01*
X158956503Y-93529737D01*
X159111153Y-93560499D01*
X159111156Y-93560500D01*
X159111158Y-93560500D01*
X159268844Y-93560500D01*
X159268845Y-93560499D01*
X159423497Y-93529737D01*
X159536166Y-93483067D01*
X159569172Y-93469397D01*
X159569172Y-93469396D01*
X159569179Y-93469394D01*
X159699472Y-93382334D01*
X159766146Y-93361458D01*
X159833526Y-93379942D01*
X159847025Y-93389585D01*
X159849710Y-93391789D01*
X159980814Y-93479390D01*
X159980827Y-93479397D01*
X160102363Y-93529738D01*
X160126503Y-93539737D01*
X160281153Y-93570499D01*
X160281156Y-93570500D01*
X160281158Y-93570500D01*
X160438844Y-93570500D01*
X160438845Y-93570499D01*
X160593497Y-93539737D01*
X160739179Y-93479394D01*
X160870289Y-93391789D01*
X160981789Y-93280289D01*
X161069394Y-93149179D01*
X161129737Y-93003497D01*
X161160500Y-92848842D01*
X161160500Y-92691158D01*
X161160500Y-92691155D01*
X161160499Y-92691153D01*
X161154224Y-92659608D01*
X161129737Y-92536503D01*
X161117309Y-92506498D01*
X161099092Y-92462518D01*
X161081958Y-92421153D01*
X167759500Y-92421153D01*
X167759500Y-92578846D01*
X167790261Y-92733489D01*
X167790264Y-92733501D01*
X167850602Y-92879172D01*
X167850609Y-92879185D01*
X167938210Y-93010288D01*
X167938213Y-93010292D01*
X168049707Y-93121786D01*
X168049711Y-93121789D01*
X168180814Y-93209390D01*
X168180827Y-93209397D01*
X168279558Y-93250292D01*
X168326503Y-93269737D01*
X168481153Y-93300499D01*
X168481156Y-93300500D01*
X168481158Y-93300500D01*
X168638844Y-93300500D01*
X168735618Y-93281250D01*
X168805210Y-93287477D01*
X168860387Y-93330340D01*
X168883632Y-93396229D01*
X168877741Y-93441186D01*
X168855981Y-93508152D01*
X168829500Y-93675350D01*
X168829500Y-93844649D01*
X168855981Y-94011847D01*
X168908296Y-94172853D01*
X168985152Y-94323688D01*
X169084648Y-94460634D01*
X169084652Y-94460639D01*
X169204360Y-94580347D01*
X169204365Y-94580351D01*
X169312400Y-94658842D01*
X169341315Y-94679850D01*
X169437425Y-94728820D01*
X169492146Y-94756703D01*
X169492148Y-94756703D01*
X169492151Y-94756705D01*
X169578450Y-94784745D01*
X169653152Y-94809018D01*
X169820351Y-94835500D01*
X169820356Y-94835500D01*
X169989649Y-94835500D01*
X170156847Y-94809018D01*
X170317849Y-94756705D01*
X170468685Y-94679850D01*
X170605641Y-94580346D01*
X170725346Y-94460641D01*
X170824850Y-94323685D01*
X170901705Y-94172849D01*
X170954018Y-94011847D01*
X170976388Y-93870609D01*
X170980500Y-93844649D01*
X170980500Y-93675350D01*
X170954018Y-93508152D01*
X170913137Y-93382336D01*
X170901705Y-93347151D01*
X170901703Y-93347148D01*
X170901703Y-93347146D01*
X170868127Y-93281250D01*
X170824850Y-93196315D01*
X170783343Y-93139185D01*
X170725351Y-93059365D01*
X170725347Y-93059360D01*
X170605639Y-92939652D01*
X170605634Y-92939648D01*
X170468688Y-92840152D01*
X170468687Y-92840151D01*
X170468685Y-92840150D01*
X170421582Y-92816150D01*
X170317853Y-92763296D01*
X170156847Y-92710981D01*
X169989649Y-92684500D01*
X169989644Y-92684500D01*
X169820356Y-92684500D01*
X169820351Y-92684500D01*
X169653151Y-92710982D01*
X169653148Y-92710982D01*
X169513387Y-92756394D01*
X169443546Y-92758389D01*
X169383713Y-92722309D01*
X169352885Y-92659608D01*
X169353451Y-92614274D01*
X169360500Y-92578842D01*
X169360500Y-92421158D01*
X169360500Y-92421155D01*
X169360499Y-92421153D01*
X169354467Y-92390827D01*
X169329737Y-92266503D01*
X169322780Y-92249707D01*
X169269397Y-92120827D01*
X169269390Y-92120814D01*
X169181789Y-91989711D01*
X169181786Y-91989707D01*
X169070292Y-91878213D01*
X169070288Y-91878210D01*
X168939185Y-91790609D01*
X168939172Y-91790602D01*
X168793501Y-91730264D01*
X168793489Y-91730261D01*
X168638845Y-91699500D01*
X168638842Y-91699500D01*
X168481158Y-91699500D01*
X168481155Y-91699500D01*
X168326510Y-91730261D01*
X168326498Y-91730264D01*
X168180827Y-91790602D01*
X168180814Y-91790609D01*
X168049711Y-91878210D01*
X168049707Y-91878213D01*
X167938213Y-91989707D01*
X167938210Y-91989711D01*
X167850609Y-92120814D01*
X167850602Y-92120827D01*
X167790264Y-92266498D01*
X167790261Y-92266510D01*
X167759500Y-92421153D01*
X161081958Y-92421153D01*
X161069397Y-92390827D01*
X161069390Y-92390814D01*
X160981789Y-92259711D01*
X160981786Y-92259707D01*
X160870292Y-92148213D01*
X160870288Y-92148210D01*
X160739185Y-92060609D01*
X160739172Y-92060602D01*
X160593501Y-92000264D01*
X160593489Y-92000261D01*
X160438845Y-91969500D01*
X160438842Y-91969500D01*
X160281158Y-91969500D01*
X160281155Y-91969500D01*
X160126510Y-92000261D01*
X160126498Y-92000264D01*
X159980827Y-92060602D01*
X159980814Y-92060609D01*
X159850530Y-92147663D01*
X159783852Y-92168541D01*
X159716472Y-92150056D01*
X159702975Y-92140415D01*
X159700288Y-92138210D01*
X159569185Y-92050609D01*
X159569172Y-92050602D01*
X159423501Y-91990264D01*
X159423489Y-91990261D01*
X159268845Y-91959500D01*
X159268842Y-91959500D01*
X159111158Y-91959500D01*
X159111155Y-91959500D01*
X158956510Y-91990261D01*
X158956498Y-91990264D01*
X158810827Y-92050602D01*
X158810814Y-92050609D01*
X158679711Y-92138210D01*
X158679707Y-92138213D01*
X158568213Y-92249707D01*
X158568210Y-92249711D01*
X158480609Y-92380814D01*
X158480602Y-92380827D01*
X158420264Y-92526498D01*
X158420261Y-92526510D01*
X158389500Y-92681153D01*
X158080500Y-92681153D01*
X158080500Y-92661158D01*
X158080500Y-92661155D01*
X158080499Y-92661153D01*
X158070044Y-92608595D01*
X158049737Y-92506503D01*
X158031518Y-92462518D01*
X157989397Y-92360827D01*
X157989390Y-92360814D01*
X157901789Y-92229711D01*
X157901786Y-92229707D01*
X157790292Y-92118213D01*
X157790288Y-92118210D01*
X157659185Y-92030609D01*
X157659172Y-92030602D01*
X157513501Y-91970264D01*
X157513489Y-91970261D01*
X157358845Y-91939500D01*
X157358842Y-91939500D01*
X157201158Y-91939500D01*
X157201155Y-91939500D01*
X157046510Y-91970261D01*
X157046498Y-91970264D01*
X156900827Y-92030602D01*
X156900814Y-92030609D01*
X156769711Y-92118210D01*
X156769707Y-92118213D01*
X156658213Y-92229707D01*
X156658210Y-92229711D01*
X156570609Y-92360814D01*
X156570602Y-92360827D01*
X156510264Y-92506498D01*
X156510261Y-92506510D01*
X156479500Y-92661153D01*
X137650255Y-92661153D01*
X137685377Y-92608589D01*
X137745720Y-92462907D01*
X137776483Y-92308252D01*
X137776483Y-92150568D01*
X137776483Y-92150565D01*
X137776482Y-92150563D01*
X137770566Y-92120821D01*
X137745720Y-91995913D01*
X137743151Y-91989711D01*
X137685380Y-91850237D01*
X137685373Y-91850224D01*
X137597772Y-91719121D01*
X137597769Y-91719117D01*
X137486275Y-91607623D01*
X137486271Y-91607620D01*
X137355168Y-91520019D01*
X137355155Y-91520012D01*
X137209484Y-91459674D01*
X137209472Y-91459671D01*
X137054828Y-91428910D01*
X137054825Y-91428910D01*
X136897141Y-91428910D01*
X136897138Y-91428910D01*
X136742493Y-91459671D01*
X136742481Y-91459674D01*
X136596810Y-91520012D01*
X136596797Y-91520019D01*
X136465694Y-91607620D01*
X136465690Y-91607623D01*
X136354196Y-91719117D01*
X136354193Y-91719121D01*
X136266592Y-91850224D01*
X136266585Y-91850237D01*
X136206247Y-91995908D01*
X136206244Y-91995920D01*
X136175483Y-92150563D01*
X132334509Y-92150563D01*
X132321108Y-92118210D01*
X132305380Y-92080237D01*
X132305373Y-92080224D01*
X132217772Y-91949121D01*
X132217769Y-91949117D01*
X132106275Y-91837623D01*
X132106271Y-91837620D01*
X131975168Y-91750019D01*
X131975155Y-91750012D01*
X131829484Y-91689674D01*
X131829472Y-91689671D01*
X131674828Y-91658910D01*
X131674825Y-91658910D01*
X131517141Y-91658910D01*
X131517138Y-91658910D01*
X131362493Y-91689671D01*
X131362481Y-91689674D01*
X131216810Y-91750012D01*
X131216797Y-91750019D01*
X131085694Y-91837620D01*
X131085690Y-91837623D01*
X130974196Y-91949117D01*
X130974193Y-91949121D01*
X130886592Y-92080224D01*
X130886585Y-92080237D01*
X130826247Y-92225908D01*
X130826244Y-92225920D01*
X130795483Y-92380563D01*
X96490036Y-92380563D01*
X96492588Y-90631153D01*
X110749500Y-90631153D01*
X110749500Y-90788846D01*
X110780261Y-90943489D01*
X110780264Y-90943501D01*
X110840602Y-91089172D01*
X110840609Y-91089185D01*
X110928210Y-91220288D01*
X110928213Y-91220292D01*
X111039707Y-91331786D01*
X111039711Y-91331789D01*
X111170814Y-91419390D01*
X111170827Y-91419397D01*
X111292363Y-91469738D01*
X111316503Y-91479737D01*
X111471153Y-91510499D01*
X111471156Y-91510500D01*
X111471158Y-91510500D01*
X111628844Y-91510500D01*
X111628845Y-91510499D01*
X111783497Y-91479737D01*
X111929179Y-91419394D01*
X112060289Y-91331789D01*
X112171789Y-91220289D01*
X112259394Y-91089179D01*
X112319737Y-90943497D01*
X112350500Y-90788842D01*
X112350500Y-90631158D01*
X112348510Y-90621153D01*
X113509500Y-90621153D01*
X113509500Y-90778846D01*
X113540261Y-90933489D01*
X113540264Y-90933501D01*
X113600602Y-91079172D01*
X113600609Y-91079185D01*
X113688210Y-91210288D01*
X113688213Y-91210292D01*
X113799707Y-91321786D01*
X113799711Y-91321789D01*
X113930814Y-91409390D01*
X113930827Y-91409397D01*
X114076498Y-91469735D01*
X114076503Y-91469737D01*
X114231153Y-91500499D01*
X114231156Y-91500500D01*
X114231158Y-91500500D01*
X114388844Y-91500500D01*
X114388845Y-91500499D01*
X114543497Y-91469737D01*
X114662369Y-91420499D01*
X114689172Y-91409397D01*
X114689172Y-91409396D01*
X114689179Y-91409394D01*
X114820289Y-91321789D01*
X114931789Y-91210289D01*
X115019394Y-91079179D01*
X115079737Y-90933497D01*
X115110500Y-90778842D01*
X115110500Y-90621158D01*
X115110500Y-90621155D01*
X115110499Y-90621153D01*
X115095051Y-90543492D01*
X115079737Y-90466503D01*
X115023539Y-90330827D01*
X115019397Y-90320827D01*
X115019391Y-90320816D01*
X115001444Y-90293956D01*
X115001443Y-90293955D01*
X114959480Y-90231153D01*
X121079500Y-90231153D01*
X121079500Y-90388846D01*
X121110261Y-90543489D01*
X121110264Y-90543501D01*
X121170602Y-90689172D01*
X121170609Y-90689185D01*
X121258210Y-90820288D01*
X121258213Y-90820292D01*
X121369707Y-90931786D01*
X121369711Y-90931789D01*
X121500814Y-91019390D01*
X121500827Y-91019397D01*
X121645139Y-91079172D01*
X121646503Y-91079737D01*
X121801153Y-91110499D01*
X121801156Y-91110500D01*
X121801158Y-91110500D01*
X121958844Y-91110500D01*
X121958845Y-91110499D01*
X122113497Y-91079737D01*
X122259179Y-91019394D01*
X122390289Y-90931789D01*
X122501789Y-90820289D01*
X122589394Y-90689179D01*
X122649737Y-90543497D01*
X122650203Y-90541153D01*
X123939500Y-90541153D01*
X123939500Y-90698846D01*
X123970261Y-90853489D01*
X123970264Y-90853501D01*
X124030602Y-90999172D01*
X124030609Y-90999185D01*
X124118210Y-91130288D01*
X124118213Y-91130292D01*
X124229707Y-91241786D01*
X124229711Y-91241789D01*
X124360814Y-91329390D01*
X124360827Y-91329397D01*
X124506498Y-91389735D01*
X124506503Y-91389737D01*
X124655578Y-91419390D01*
X124661153Y-91420499D01*
X124661156Y-91420500D01*
X124661158Y-91420500D01*
X124818844Y-91420500D01*
X124818845Y-91420499D01*
X124973497Y-91389737D01*
X125119179Y-91329394D01*
X125250289Y-91241789D01*
X125361789Y-91130289D01*
X125449394Y-90999179D01*
X125509737Y-90853497D01*
X125540500Y-90698842D01*
X125540500Y-90631153D01*
X125849500Y-90631153D01*
X125849500Y-90788846D01*
X125880261Y-90943489D01*
X125880264Y-90943501D01*
X125940602Y-91089172D01*
X125940609Y-91089185D01*
X126028210Y-91220288D01*
X126028213Y-91220292D01*
X126139707Y-91331786D01*
X126139711Y-91331789D01*
X126270814Y-91419390D01*
X126270827Y-91419397D01*
X126392363Y-91469738D01*
X126416503Y-91479737D01*
X126571153Y-91510499D01*
X126571156Y-91510500D01*
X126571158Y-91510500D01*
X126728844Y-91510500D01*
X126728845Y-91510499D01*
X126883497Y-91479737D01*
X127029179Y-91419394D01*
X127160289Y-91331789D01*
X127271789Y-91220289D01*
X127359394Y-91089179D01*
X127419737Y-90943497D01*
X127450500Y-90788842D01*
X127450500Y-90631158D01*
X127450500Y-90631155D01*
X127450499Y-90631153D01*
X127432597Y-90541153D01*
X127419737Y-90476503D01*
X127382456Y-90386498D01*
X127359397Y-90330827D01*
X127359390Y-90330814D01*
X127271789Y-90199711D01*
X127271786Y-90199707D01*
X127160292Y-90088213D01*
X127160288Y-90088210D01*
X127029185Y-90000609D01*
X127029172Y-90000602D01*
X126883501Y-89940264D01*
X126883489Y-89940261D01*
X126728845Y-89909500D01*
X126728842Y-89909500D01*
X126571158Y-89909500D01*
X126571155Y-89909500D01*
X126416510Y-89940261D01*
X126416498Y-89940264D01*
X126270827Y-90000602D01*
X126270814Y-90000609D01*
X126139711Y-90088210D01*
X126139707Y-90088213D01*
X126028213Y-90199707D01*
X126028210Y-90199711D01*
X125940609Y-90330814D01*
X125940602Y-90330827D01*
X125880264Y-90476498D01*
X125880261Y-90476510D01*
X125849500Y-90631153D01*
X125540500Y-90631153D01*
X125540500Y-90541158D01*
X125540500Y-90541155D01*
X125540499Y-90541153D01*
X125534476Y-90510873D01*
X125509737Y-90386503D01*
X125509735Y-90386498D01*
X125449397Y-90240827D01*
X125449390Y-90240814D01*
X125361789Y-90109711D01*
X125361786Y-90109707D01*
X125250292Y-89998213D01*
X125250288Y-89998210D01*
X125119185Y-89910609D01*
X125119172Y-89910602D01*
X124973501Y-89850264D01*
X124973489Y-89850261D01*
X124818845Y-89819500D01*
X124818842Y-89819500D01*
X124661158Y-89819500D01*
X124661155Y-89819500D01*
X124506510Y-89850261D01*
X124506498Y-89850264D01*
X124360827Y-89910602D01*
X124360814Y-89910609D01*
X124229711Y-89998210D01*
X124229707Y-89998213D01*
X124118213Y-90109707D01*
X124118210Y-90109711D01*
X124030609Y-90240814D01*
X124030602Y-90240827D01*
X123970264Y-90386498D01*
X123970261Y-90386510D01*
X123939500Y-90541153D01*
X122650203Y-90541153D01*
X122656227Y-90510873D01*
X122656227Y-90510871D01*
X122680499Y-90388846D01*
X122680500Y-90388844D01*
X122680500Y-90231155D01*
X122680499Y-90231153D01*
X122672255Y-90189707D01*
X122649737Y-90076503D01*
X122618298Y-90000602D01*
X122589397Y-89930827D01*
X122589390Y-89930814D01*
X122501789Y-89799711D01*
X122501786Y-89799707D01*
X122390292Y-89688213D01*
X122390286Y-89688208D01*
X122350227Y-89661441D01*
X122305423Y-89607829D01*
X122296716Y-89538504D01*
X122326871Y-89475476D01*
X122350228Y-89455238D01*
X122400289Y-89421789D01*
X122511789Y-89310289D01*
X122599394Y-89179179D01*
X122659737Y-89033497D01*
X122664375Y-89010176D01*
X122676117Y-88951153D01*
X156239500Y-88951153D01*
X156239500Y-89108846D01*
X156270261Y-89263489D01*
X156270264Y-89263501D01*
X156330602Y-89409172D01*
X156330609Y-89409185D01*
X156418210Y-89540288D01*
X156418213Y-89540292D01*
X156529707Y-89651786D01*
X156529711Y-89651789D01*
X156660814Y-89739390D01*
X156660827Y-89739397D01*
X156806440Y-89799711D01*
X156806503Y-89799737D01*
X156905858Y-89819500D01*
X156961153Y-89830499D01*
X156961156Y-89830500D01*
X156961158Y-89830500D01*
X157118844Y-89830500D01*
X157118845Y-89830499D01*
X157273497Y-89799737D01*
X157419179Y-89739394D01*
X157550289Y-89651789D01*
X157661789Y-89540289D01*
X157749394Y-89409179D01*
X157809737Y-89263497D01*
X157840500Y-89108842D01*
X157840500Y-89041153D01*
X164019500Y-89041153D01*
X164019500Y-89198846D01*
X164050261Y-89353489D01*
X164050264Y-89353501D01*
X164110602Y-89499172D01*
X164110609Y-89499185D01*
X164198210Y-89630288D01*
X164198213Y-89630292D01*
X164309707Y-89741786D01*
X164309711Y-89741789D01*
X164440814Y-89829390D01*
X164440827Y-89829397D01*
X164586498Y-89889735D01*
X164586503Y-89889737D01*
X164741153Y-89920499D01*
X164741156Y-89920500D01*
X164741158Y-89920500D01*
X164898844Y-89920500D01*
X164898845Y-89920499D01*
X165053497Y-89889737D01*
X165199179Y-89829394D01*
X165330289Y-89741789D01*
X165441789Y-89630289D01*
X165529394Y-89499179D01*
X165589737Y-89353497D01*
X165620500Y-89198842D01*
X165620500Y-89041158D01*
X165620500Y-89041155D01*
X165620499Y-89041153D01*
X174949500Y-89041153D01*
X174949500Y-89198846D01*
X174980261Y-89353489D01*
X174980264Y-89353501D01*
X175040602Y-89499172D01*
X175040609Y-89499185D01*
X175128210Y-89630288D01*
X175128213Y-89630292D01*
X175239707Y-89741786D01*
X175239711Y-89741789D01*
X175370814Y-89829390D01*
X175370827Y-89829397D01*
X175516498Y-89889735D01*
X175516503Y-89889737D01*
X175671153Y-89920499D01*
X175671156Y-89920500D01*
X175671158Y-89920500D01*
X175828844Y-89920500D01*
X175828845Y-89920499D01*
X175983497Y-89889737D01*
X176129179Y-89829394D01*
X176260289Y-89741789D01*
X176371789Y-89630289D01*
X176459394Y-89499179D01*
X176519737Y-89353497D01*
X176550500Y-89198842D01*
X176550500Y-89041158D01*
X176550500Y-89041155D01*
X176550499Y-89041153D01*
X176526574Y-88920874D01*
X176519737Y-88886503D01*
X176482456Y-88796498D01*
X176459397Y-88740827D01*
X176459390Y-88740814D01*
X176371789Y-88609711D01*
X176371786Y-88609707D01*
X176260292Y-88498213D01*
X176260288Y-88498210D01*
X176129185Y-88410609D01*
X176129172Y-88410602D01*
X175983501Y-88350264D01*
X175983489Y-88350261D01*
X175828845Y-88319500D01*
X175828842Y-88319500D01*
X175671158Y-88319500D01*
X175671155Y-88319500D01*
X175516510Y-88350261D01*
X175516498Y-88350264D01*
X175370827Y-88410602D01*
X175370814Y-88410609D01*
X175239711Y-88498210D01*
X175239707Y-88498213D01*
X175128213Y-88609707D01*
X175128210Y-88609711D01*
X175040609Y-88740814D01*
X175040602Y-88740827D01*
X174980264Y-88886498D01*
X174980261Y-88886510D01*
X174949500Y-89041153D01*
X165620499Y-89041153D01*
X165596574Y-88920874D01*
X165589737Y-88886503D01*
X165552456Y-88796498D01*
X165529397Y-88740827D01*
X165529390Y-88740814D01*
X165441789Y-88609711D01*
X165441786Y-88609707D01*
X165330292Y-88498213D01*
X165330288Y-88498210D01*
X165199185Y-88410609D01*
X165199172Y-88410602D01*
X165053501Y-88350264D01*
X165053489Y-88350261D01*
X164898845Y-88319500D01*
X164898842Y-88319500D01*
X164741158Y-88319500D01*
X164741155Y-88319500D01*
X164586510Y-88350261D01*
X164586498Y-88350264D01*
X164440827Y-88410602D01*
X164440814Y-88410609D01*
X164309711Y-88498210D01*
X164309707Y-88498213D01*
X164198213Y-88609707D01*
X164198210Y-88609711D01*
X164110609Y-88740814D01*
X164110602Y-88740827D01*
X164050264Y-88886498D01*
X164050261Y-88886510D01*
X164019500Y-89041153D01*
X157840500Y-89041153D01*
X157840500Y-88951158D01*
X157840500Y-88951155D01*
X157840499Y-88951153D01*
X157834476Y-88920873D01*
X157809737Y-88796503D01*
X157809735Y-88796498D01*
X157749397Y-88650827D01*
X157749390Y-88650814D01*
X157661789Y-88519711D01*
X157661786Y-88519707D01*
X157550292Y-88408213D01*
X157550288Y-88408210D01*
X157419185Y-88320609D01*
X157419172Y-88320602D01*
X157273501Y-88260264D01*
X157273489Y-88260261D01*
X157118845Y-88229500D01*
X157118842Y-88229500D01*
X156961158Y-88229500D01*
X156961155Y-88229500D01*
X156806510Y-88260261D01*
X156806498Y-88260264D01*
X156660827Y-88320602D01*
X156660814Y-88320609D01*
X156529711Y-88408210D01*
X156529707Y-88408213D01*
X156418213Y-88519707D01*
X156418210Y-88519711D01*
X156330609Y-88650814D01*
X156330602Y-88650827D01*
X156270264Y-88796498D01*
X156270261Y-88796510D01*
X156239500Y-88951153D01*
X122676117Y-88951153D01*
X122682140Y-88920874D01*
X122682140Y-88920873D01*
X122690499Y-88878846D01*
X122690500Y-88878844D01*
X122690500Y-88721155D01*
X122690499Y-88721153D01*
X122676509Y-88650821D01*
X122659737Y-88566503D01*
X122631450Y-88498211D01*
X122599397Y-88420827D01*
X122599390Y-88420814D01*
X122511789Y-88289711D01*
X122511786Y-88289707D01*
X122400292Y-88178213D01*
X122400288Y-88178210D01*
X122269185Y-88090609D01*
X122269172Y-88090602D01*
X122123501Y-88030264D01*
X122123489Y-88030261D01*
X121968845Y-87999500D01*
X121968842Y-87999500D01*
X121811158Y-87999500D01*
X121811155Y-87999500D01*
X121656510Y-88030261D01*
X121656498Y-88030264D01*
X121510827Y-88090602D01*
X121510814Y-88090609D01*
X121379711Y-88178210D01*
X121379707Y-88178213D01*
X121268213Y-88289707D01*
X121268210Y-88289711D01*
X121180609Y-88420814D01*
X121180602Y-88420827D01*
X121120264Y-88566498D01*
X121120261Y-88566510D01*
X121089500Y-88721153D01*
X121089500Y-88878846D01*
X121120261Y-89033489D01*
X121120264Y-89033501D01*
X121180602Y-89179172D01*
X121180609Y-89179185D01*
X121268210Y-89310288D01*
X121268213Y-89310292D01*
X121379707Y-89421786D01*
X121379715Y-89421792D01*
X121419771Y-89448557D01*
X121464577Y-89502169D01*
X121473284Y-89571494D01*
X121443130Y-89634521D01*
X121419772Y-89654761D01*
X121369711Y-89688210D01*
X121369707Y-89688213D01*
X121258213Y-89799707D01*
X121258210Y-89799711D01*
X121170609Y-89930814D01*
X121170602Y-89930827D01*
X121110264Y-90076498D01*
X121110261Y-90076510D01*
X121079500Y-90231153D01*
X114959480Y-90231153D01*
X114931789Y-90189711D01*
X114931786Y-90189707D01*
X114820292Y-90078213D01*
X114820288Y-90078210D01*
X114689185Y-89990609D01*
X114689172Y-89990602D01*
X114543501Y-89930264D01*
X114543489Y-89930261D01*
X114388845Y-89899500D01*
X114388842Y-89899500D01*
X114231158Y-89899500D01*
X114231155Y-89899500D01*
X114076510Y-89930261D01*
X114076498Y-89930264D01*
X113930827Y-89990602D01*
X113930814Y-89990609D01*
X113799711Y-90078210D01*
X113799707Y-90078213D01*
X113688213Y-90189707D01*
X113688210Y-90189711D01*
X113600609Y-90320814D01*
X113600602Y-90320827D01*
X113540264Y-90466498D01*
X113540261Y-90466510D01*
X113509500Y-90621153D01*
X112348510Y-90621153D01*
X112319737Y-90476503D01*
X112282456Y-90386498D01*
X112259397Y-90330827D01*
X112259390Y-90330814D01*
X112171789Y-90199711D01*
X112171786Y-90199707D01*
X112060292Y-90088213D01*
X112060288Y-90088210D01*
X111929185Y-90000609D01*
X111929172Y-90000602D01*
X111783501Y-89940264D01*
X111783489Y-89940261D01*
X111628845Y-89909500D01*
X111628842Y-89909500D01*
X111471158Y-89909500D01*
X111471155Y-89909500D01*
X111316510Y-89940261D01*
X111316498Y-89940264D01*
X111170827Y-90000602D01*
X111170814Y-90000609D01*
X111039711Y-90088210D01*
X111039707Y-90088213D01*
X110928213Y-90199707D01*
X110928210Y-90199711D01*
X110840609Y-90330814D01*
X110840602Y-90330827D01*
X110780264Y-90476498D01*
X110780261Y-90476510D01*
X110749500Y-90631153D01*
X96492588Y-90631153D01*
X96501063Y-84821153D01*
X111609500Y-84821153D01*
X111609500Y-84978846D01*
X111640261Y-85133489D01*
X111640264Y-85133501D01*
X111700602Y-85279172D01*
X111700609Y-85279185D01*
X111788210Y-85410288D01*
X111788213Y-85410292D01*
X111899707Y-85521786D01*
X111899711Y-85521789D01*
X112030814Y-85609390D01*
X112030827Y-85609397D01*
X112152363Y-85659738D01*
X112176503Y-85669737D01*
X112331153Y-85700499D01*
X112331156Y-85700500D01*
X112331158Y-85700500D01*
X112488844Y-85700500D01*
X112488845Y-85700499D01*
X112643497Y-85669737D01*
X112789179Y-85609394D01*
X112848594Y-85569693D01*
X112915266Y-85548816D01*
X112982647Y-85567299D01*
X112986356Y-85569683D01*
X113030821Y-85599394D01*
X113030824Y-85599395D01*
X113030825Y-85599396D01*
X113083352Y-85621153D01*
X113176503Y-85659737D01*
X113331153Y-85690499D01*
X113331156Y-85690500D01*
X113331158Y-85690500D01*
X113488844Y-85690500D01*
X113488845Y-85690499D01*
X113643497Y-85659737D01*
X113736645Y-85621153D01*
X166509500Y-85621153D01*
X166509500Y-85778846D01*
X166540261Y-85933489D01*
X166540264Y-85933501D01*
X166600602Y-86079172D01*
X166600609Y-86079185D01*
X166688210Y-86210288D01*
X166688213Y-86210292D01*
X166799707Y-86321786D01*
X166799711Y-86321789D01*
X166930814Y-86409390D01*
X166930827Y-86409397D01*
X167076498Y-86469735D01*
X167076503Y-86469737D01*
X167231153Y-86500499D01*
X167231156Y-86500500D01*
X167231158Y-86500500D01*
X167388844Y-86500500D01*
X167388845Y-86500499D01*
X167543497Y-86469737D01*
X167689179Y-86409394D01*
X167820289Y-86321789D01*
X167931789Y-86210289D01*
X168019394Y-86079179D01*
X168079737Y-85933497D01*
X168110500Y-85778842D01*
X168110500Y-85621158D01*
X168110500Y-85621155D01*
X168110499Y-85621153D01*
X168100177Y-85569257D01*
X168096576Y-85551153D01*
X169739500Y-85551153D01*
X169739500Y-85708846D01*
X169770261Y-85863489D01*
X169770264Y-85863501D01*
X169830602Y-86009172D01*
X169830609Y-86009185D01*
X169918210Y-86140288D01*
X169918213Y-86140292D01*
X170029707Y-86251786D01*
X170029711Y-86251789D01*
X170160814Y-86339390D01*
X170160827Y-86339397D01*
X170306498Y-86399735D01*
X170306503Y-86399737D01*
X170461153Y-86430499D01*
X170461156Y-86430500D01*
X170461158Y-86430500D01*
X170618844Y-86430500D01*
X170618845Y-86430499D01*
X170773497Y-86399737D01*
X170919179Y-86339394D01*
X171050289Y-86251789D01*
X171161789Y-86140289D01*
X171249394Y-86009179D01*
X171309737Y-85863497D01*
X171340500Y-85708842D01*
X171340500Y-85551158D01*
X171340500Y-85551155D01*
X171340499Y-85551153D01*
X171334658Y-85521789D01*
X171309737Y-85396503D01*
X171288674Y-85345652D01*
X171249397Y-85250827D01*
X171249390Y-85250814D01*
X171161789Y-85119711D01*
X171161786Y-85119707D01*
X171050292Y-85008213D01*
X171050288Y-85008210D01*
X170919185Y-84920609D01*
X170919172Y-84920602D01*
X170773501Y-84860264D01*
X170773489Y-84860261D01*
X170618845Y-84829500D01*
X170618842Y-84829500D01*
X170461158Y-84829500D01*
X170461155Y-84829500D01*
X170306510Y-84860261D01*
X170306498Y-84860264D01*
X170160827Y-84920602D01*
X170160814Y-84920609D01*
X170029711Y-85008210D01*
X170029707Y-85008213D01*
X169918213Y-85119707D01*
X169918210Y-85119711D01*
X169830609Y-85250814D01*
X169830602Y-85250827D01*
X169770264Y-85396498D01*
X169770261Y-85396510D01*
X169739500Y-85551153D01*
X168096576Y-85551153D01*
X168079738Y-85466508D01*
X168079737Y-85466507D01*
X168079737Y-85466503D01*
X168070641Y-85444544D01*
X168019397Y-85320827D01*
X168019390Y-85320814D01*
X167931789Y-85189711D01*
X167931786Y-85189707D01*
X167820292Y-85078213D01*
X167820288Y-85078210D01*
X167689185Y-84990609D01*
X167689172Y-84990602D01*
X167543501Y-84930264D01*
X167543489Y-84930261D01*
X167388845Y-84899500D01*
X167388842Y-84899500D01*
X167231158Y-84899500D01*
X167231155Y-84899500D01*
X167076510Y-84930261D01*
X167076498Y-84930264D01*
X166930827Y-84990602D01*
X166930814Y-84990609D01*
X166799711Y-85078210D01*
X166799707Y-85078213D01*
X166688213Y-85189707D01*
X166688210Y-85189711D01*
X166600609Y-85320814D01*
X166600602Y-85320827D01*
X166540264Y-85466498D01*
X166540261Y-85466510D01*
X166509500Y-85621153D01*
X113736645Y-85621153D01*
X113756166Y-85613067D01*
X113789172Y-85599397D01*
X113789172Y-85599396D01*
X113789179Y-85599394D01*
X113837213Y-85567299D01*
X113920028Y-85511964D01*
X113920194Y-85511852D01*
X113920289Y-85511789D01*
X114031789Y-85400289D01*
X114119394Y-85269179D01*
X114179737Y-85123497D01*
X114210500Y-84968842D01*
X114210500Y-84811158D01*
X114210500Y-84811155D01*
X114210499Y-84811153D01*
X114207432Y-84795734D01*
X114179737Y-84656503D01*
X114123539Y-84520827D01*
X114119397Y-84510827D01*
X114119390Y-84510814D01*
X114031789Y-84379711D01*
X114031786Y-84379707D01*
X113920292Y-84268213D01*
X113920288Y-84268210D01*
X113789185Y-84180609D01*
X113789172Y-84180602D01*
X113643501Y-84120264D01*
X113643489Y-84120261D01*
X113488845Y-84089500D01*
X113488842Y-84089500D01*
X113331158Y-84089500D01*
X113331155Y-84089500D01*
X113176510Y-84120261D01*
X113176498Y-84120264D01*
X113030828Y-84180602D01*
X113030812Y-84180611D01*
X112971405Y-84220305D01*
X112904728Y-84241182D01*
X112837348Y-84222697D01*
X112833626Y-84220304D01*
X112789181Y-84190607D01*
X112789174Y-84190603D01*
X112643501Y-84130264D01*
X112643489Y-84130261D01*
X112488845Y-84099500D01*
X112488842Y-84099500D01*
X112331158Y-84099500D01*
X112331155Y-84099500D01*
X112176510Y-84130261D01*
X112176498Y-84130264D01*
X112030827Y-84190602D01*
X112030814Y-84190609D01*
X111899711Y-84278210D01*
X111899707Y-84278213D01*
X111788213Y-84389707D01*
X111788210Y-84389711D01*
X111700609Y-84520814D01*
X111700602Y-84520827D01*
X111640264Y-84666498D01*
X111640261Y-84666510D01*
X111609500Y-84821153D01*
X96501063Y-84821153D01*
X96502901Y-83561153D01*
X143519500Y-83561153D01*
X143519500Y-83718846D01*
X143550261Y-83873489D01*
X143550264Y-83873501D01*
X143610602Y-84019172D01*
X143610609Y-84019185D01*
X143698210Y-84150288D01*
X143698213Y-84150292D01*
X143809707Y-84261786D01*
X143809711Y-84261789D01*
X143940814Y-84349390D01*
X143940827Y-84349397D01*
X144086498Y-84409735D01*
X144086503Y-84409737D01*
X144241153Y-84440499D01*
X144241156Y-84440500D01*
X144241158Y-84440500D01*
X144398844Y-84440500D01*
X144398845Y-84440499D01*
X144553497Y-84409737D01*
X144699179Y-84349394D01*
X144830289Y-84261789D01*
X144941789Y-84150289D01*
X145029394Y-84019179D01*
X145089737Y-83873497D01*
X145120500Y-83718842D01*
X145120500Y-83561158D01*
X145120500Y-83561155D01*
X145120499Y-83561153D01*
X145119252Y-83554885D01*
X145089737Y-83406503D01*
X145038994Y-83283997D01*
X145029397Y-83260827D01*
X145029390Y-83260814D01*
X144941789Y-83129711D01*
X144941786Y-83129707D01*
X144830292Y-83018213D01*
X144830288Y-83018210D01*
X144699185Y-82930609D01*
X144699172Y-82930602D01*
X144553501Y-82870264D01*
X144553489Y-82870261D01*
X144398845Y-82839500D01*
X144398842Y-82839500D01*
X144241158Y-82839500D01*
X144241155Y-82839500D01*
X144086510Y-82870261D01*
X144086498Y-82870264D01*
X143940827Y-82930602D01*
X143940814Y-82930609D01*
X143809711Y-83018210D01*
X143809707Y-83018213D01*
X143698213Y-83129707D01*
X143698210Y-83129711D01*
X143610609Y-83260814D01*
X143610602Y-83260827D01*
X143550264Y-83406498D01*
X143550261Y-83406510D01*
X143519500Y-83561153D01*
X96502901Y-83561153D01*
X96504651Y-82361153D01*
X130709500Y-82361153D01*
X130709500Y-82518846D01*
X130740261Y-82673489D01*
X130740264Y-82673501D01*
X130800602Y-82819172D01*
X130800609Y-82819185D01*
X130888210Y-82950288D01*
X130888213Y-82950292D01*
X130999707Y-83061786D01*
X130999711Y-83061789D01*
X131130814Y-83149390D01*
X131130827Y-83149397D01*
X131276498Y-83209735D01*
X131276503Y-83209737D01*
X131431153Y-83240499D01*
X131431156Y-83240500D01*
X131431158Y-83240500D01*
X131588844Y-83240500D01*
X131588845Y-83240499D01*
X131743497Y-83209737D01*
X131889179Y-83149394D01*
X132020289Y-83061789D01*
X132131789Y-82950289D01*
X132219394Y-82819179D01*
X132279737Y-82673497D01*
X132310500Y-82518842D01*
X132310500Y-82361158D01*
X132310500Y-82361155D01*
X132303014Y-82323522D01*
X132309241Y-82253930D01*
X132352104Y-82198753D01*
X132417993Y-82175508D01*
X132472080Y-82184768D01*
X132556503Y-82219737D01*
X132705578Y-82249390D01*
X132711153Y-82250499D01*
X132711156Y-82250500D01*
X132711158Y-82250500D01*
X132868844Y-82250500D01*
X132868845Y-82250499D01*
X133023497Y-82219737D01*
X133146369Y-82168842D01*
X133169172Y-82159397D01*
X133169172Y-82159396D01*
X133169179Y-82159394D01*
X133300289Y-82071789D01*
X133360925Y-82011153D01*
X138519500Y-82011153D01*
X138519500Y-82168846D01*
X138550261Y-82323489D01*
X138550264Y-82323501D01*
X138610602Y-82469172D01*
X138610609Y-82469185D01*
X138698210Y-82600288D01*
X138698213Y-82600292D01*
X138809707Y-82711786D01*
X138809711Y-82711789D01*
X138940814Y-82799390D01*
X138940827Y-82799397D01*
X139014078Y-82829738D01*
X139086503Y-82859737D01*
X139241153Y-82890499D01*
X139241156Y-82890500D01*
X139241158Y-82890500D01*
X139398844Y-82890500D01*
X139398845Y-82890499D01*
X139553497Y-82859737D01*
X139699179Y-82799394D01*
X139830289Y-82711789D01*
X139941789Y-82600289D01*
X140029394Y-82469179D01*
X140089737Y-82323497D01*
X140120500Y-82168842D01*
X140120500Y-82011158D01*
X140120500Y-82011155D01*
X140120499Y-82011153D01*
X140110381Y-81960288D01*
X140089737Y-81856503D01*
X140063641Y-81793501D01*
X140029397Y-81710827D01*
X140029390Y-81710814D01*
X139941789Y-81579711D01*
X139941786Y-81579707D01*
X139830292Y-81468213D01*
X139830288Y-81468210D01*
X139819727Y-81461153D01*
X147799500Y-81461153D01*
X147799500Y-81618846D01*
X147830261Y-81773489D01*
X147830264Y-81773501D01*
X147890602Y-81919172D01*
X147890609Y-81919185D01*
X147978210Y-82050288D01*
X147978213Y-82050292D01*
X148089707Y-82161786D01*
X148089711Y-82161789D01*
X148220814Y-82249390D01*
X148220827Y-82249397D01*
X148366498Y-82309735D01*
X148366503Y-82309737D01*
X148521153Y-82340499D01*
X148521156Y-82340500D01*
X148521158Y-82340500D01*
X148678844Y-82340500D01*
X148678845Y-82340499D01*
X148833497Y-82309737D01*
X148926648Y-82271153D01*
X149699500Y-82271153D01*
X149699500Y-82428846D01*
X149730261Y-82583489D01*
X149730264Y-82583501D01*
X149790602Y-82729172D01*
X149790609Y-82729185D01*
X149878210Y-82860288D01*
X149878213Y-82860292D01*
X149989707Y-82971786D01*
X149989711Y-82971789D01*
X150120814Y-83059390D01*
X150120827Y-83059397D01*
X150266498Y-83119735D01*
X150266503Y-83119737D01*
X150415578Y-83149390D01*
X150421153Y-83150499D01*
X150421156Y-83150500D01*
X150421158Y-83150500D01*
X150578844Y-83150500D01*
X150578845Y-83150499D01*
X150733497Y-83119737D01*
X150879179Y-83059394D01*
X151010289Y-82971789D01*
X151121789Y-82860289D01*
X151209394Y-82729179D01*
X151269737Y-82583497D01*
X151300500Y-82428842D01*
X151300500Y-82271158D01*
X151300500Y-82271155D01*
X151300499Y-82271153D01*
X151290271Y-82219735D01*
X151269737Y-82116503D01*
X151250595Y-82070289D01*
X151230808Y-82022518D01*
X151213674Y-81981153D01*
X164809500Y-81981153D01*
X164809500Y-82138846D01*
X164840261Y-82293489D01*
X164840264Y-82293501D01*
X164900602Y-82439172D01*
X164900609Y-82439185D01*
X164988210Y-82570288D01*
X164988213Y-82570292D01*
X165099707Y-82681786D01*
X165099711Y-82681789D01*
X165230814Y-82769390D01*
X165230827Y-82769397D01*
X165351028Y-82819185D01*
X165376503Y-82829737D01*
X165527312Y-82859735D01*
X165531153Y-82860499D01*
X165531156Y-82860500D01*
X165531158Y-82860500D01*
X165688844Y-82860500D01*
X165688845Y-82860499D01*
X165843497Y-82829737D01*
X165989179Y-82769394D01*
X166120289Y-82681789D01*
X166231789Y-82570289D01*
X166319394Y-82439179D01*
X166328392Y-82417457D01*
X166360268Y-82340499D01*
X166379737Y-82293497D01*
X166410500Y-82138842D01*
X166410500Y-81981158D01*
X166410500Y-81981155D01*
X166410499Y-81981153D01*
X166398173Y-81919185D01*
X166379737Y-81826503D01*
X166357783Y-81773501D01*
X166319397Y-81680827D01*
X166319390Y-81680814D01*
X166231790Y-81549712D01*
X166231784Y-81549705D01*
X166163232Y-81481153D01*
X168819500Y-81481153D01*
X168819500Y-81638846D01*
X168850261Y-81793489D01*
X168850264Y-81793501D01*
X168910602Y-81939172D01*
X168910609Y-81939185D01*
X168998210Y-82070288D01*
X168998213Y-82070292D01*
X169109707Y-82181786D01*
X169109711Y-82181789D01*
X169240814Y-82269390D01*
X169240827Y-82269397D01*
X169386498Y-82329735D01*
X169386503Y-82329737D01*
X169512930Y-82354885D01*
X169541153Y-82360499D01*
X169541156Y-82360500D01*
X169541158Y-82360500D01*
X169698844Y-82360500D01*
X169698845Y-82360499D01*
X169853497Y-82329737D01*
X169966166Y-82283067D01*
X169999172Y-82269397D01*
X169999172Y-82269396D01*
X169999179Y-82269394D01*
X170130289Y-82181789D01*
X170241789Y-82070289D01*
X170329394Y-81939179D01*
X170389737Y-81793497D01*
X170420500Y-81638842D01*
X170420500Y-81481158D01*
X170420500Y-81481155D01*
X170420499Y-81481153D01*
X170398618Y-81371153D01*
X170389737Y-81326503D01*
X170387152Y-81320263D01*
X170329397Y-81180827D01*
X170329390Y-81180814D01*
X170241789Y-81049711D01*
X170241786Y-81049707D01*
X170130292Y-80938213D01*
X170130288Y-80938210D01*
X169999185Y-80850609D01*
X169999172Y-80850602D01*
X169853501Y-80790264D01*
X169853489Y-80790261D01*
X169698845Y-80759500D01*
X169698842Y-80759500D01*
X169541158Y-80759500D01*
X169541155Y-80759500D01*
X169386510Y-80790261D01*
X169386498Y-80790264D01*
X169240827Y-80850602D01*
X169240814Y-80850609D01*
X169109711Y-80938210D01*
X169109707Y-80938213D01*
X168998213Y-81049707D01*
X168998210Y-81049711D01*
X168910609Y-81180814D01*
X168910602Y-81180827D01*
X168850264Y-81326498D01*
X168850261Y-81326510D01*
X168819500Y-81481153D01*
X166163232Y-81481153D01*
X166120292Y-81438213D01*
X166120288Y-81438210D01*
X165989185Y-81350609D01*
X165989172Y-81350602D01*
X165843501Y-81290264D01*
X165843489Y-81290261D01*
X165688845Y-81259500D01*
X165688842Y-81259500D01*
X165531158Y-81259500D01*
X165531155Y-81259500D01*
X165376510Y-81290261D01*
X165376498Y-81290264D01*
X165230827Y-81350602D01*
X165230814Y-81350609D01*
X165099711Y-81438210D01*
X165099707Y-81438213D01*
X164988213Y-81549707D01*
X164988210Y-81549711D01*
X164900609Y-81680814D01*
X164900602Y-81680827D01*
X164840264Y-81826498D01*
X164840261Y-81826510D01*
X164809500Y-81981153D01*
X151213674Y-81981153D01*
X151209397Y-81970827D01*
X151209390Y-81970814D01*
X151121789Y-81839711D01*
X151121786Y-81839707D01*
X151010292Y-81728213D01*
X151010288Y-81728210D01*
X150879185Y-81640609D01*
X150879172Y-81640602D01*
X150733501Y-81580264D01*
X150733489Y-81580261D01*
X150578845Y-81549500D01*
X150578842Y-81549500D01*
X150421158Y-81549500D01*
X150421155Y-81549500D01*
X150266510Y-81580261D01*
X150266498Y-81580264D01*
X150120827Y-81640602D01*
X150120814Y-81640609D01*
X149989711Y-81728210D01*
X149989707Y-81728213D01*
X149878213Y-81839707D01*
X149878210Y-81839711D01*
X149790609Y-81970814D01*
X149790602Y-81970827D01*
X149730264Y-82116498D01*
X149730261Y-82116510D01*
X149699500Y-82271153D01*
X148926648Y-82271153D01*
X148979179Y-82249394D01*
X148979185Y-82249390D01*
X149110028Y-82161964D01*
X149110194Y-82161852D01*
X149110289Y-82161789D01*
X149221789Y-82050289D01*
X149309394Y-81919179D01*
X149369737Y-81773497D01*
X149400500Y-81618842D01*
X149400500Y-81461158D01*
X149400500Y-81461155D01*
X149400499Y-81461153D01*
X149395936Y-81438213D01*
X149369737Y-81306503D01*
X149363010Y-81290263D01*
X149309397Y-81160827D01*
X149309390Y-81160814D01*
X149221789Y-81029711D01*
X149221786Y-81029707D01*
X149110292Y-80918213D01*
X149110288Y-80918210D01*
X148979185Y-80830609D01*
X148979172Y-80830602D01*
X148833501Y-80770264D01*
X148833489Y-80770261D01*
X148678845Y-80739500D01*
X148678842Y-80739500D01*
X148521158Y-80739500D01*
X148521155Y-80739500D01*
X148366510Y-80770261D01*
X148366498Y-80770264D01*
X148220827Y-80830602D01*
X148220814Y-80830609D01*
X148089711Y-80918210D01*
X148089707Y-80918213D01*
X147978213Y-81029707D01*
X147978210Y-81029711D01*
X147890609Y-81160814D01*
X147890602Y-81160827D01*
X147830264Y-81306498D01*
X147830261Y-81306510D01*
X147799500Y-81461153D01*
X139819727Y-81461153D01*
X139699185Y-81380609D01*
X139699172Y-81380602D01*
X139553501Y-81320264D01*
X139553489Y-81320261D01*
X139398845Y-81289500D01*
X139398842Y-81289500D01*
X139241158Y-81289500D01*
X139241155Y-81289500D01*
X139086510Y-81320261D01*
X139086498Y-81320264D01*
X138940827Y-81380602D01*
X138940814Y-81380609D01*
X138809711Y-81468210D01*
X138809707Y-81468213D01*
X138698213Y-81579707D01*
X138698210Y-81579711D01*
X138610609Y-81710814D01*
X138610602Y-81710827D01*
X138550264Y-81856498D01*
X138550261Y-81856510D01*
X138519500Y-82011153D01*
X133360925Y-82011153D01*
X133411789Y-81960289D01*
X133420833Y-81946752D01*
X133427902Y-81936175D01*
X133499390Y-81829185D01*
X133499390Y-81829184D01*
X133499394Y-81829179D01*
X133500503Y-81826503D01*
X133540224Y-81730606D01*
X133559737Y-81683497D01*
X133590500Y-81528842D01*
X133590500Y-81371158D01*
X133590500Y-81371155D01*
X133590499Y-81371153D01*
X133590010Y-81368695D01*
X133559737Y-81216503D01*
X133544954Y-81180814D01*
X133499397Y-81070827D01*
X133499390Y-81070814D01*
X133411789Y-80939711D01*
X133411786Y-80939707D01*
X133300292Y-80828213D01*
X133300288Y-80828210D01*
X133169185Y-80740609D01*
X133169172Y-80740602D01*
X133059777Y-80695290D01*
X133005373Y-80651449D01*
X132983308Y-80585155D01*
X132985612Y-80556537D01*
X133009268Y-80437612D01*
X133009268Y-80279923D01*
X133009267Y-80279921D01*
X133007063Y-80268842D01*
X132978505Y-80125271D01*
X132963155Y-80088213D01*
X132918165Y-79979595D01*
X132918159Y-79979584D01*
X132907717Y-79963956D01*
X132907716Y-79963955D01*
X132865753Y-79901153D01*
X138869500Y-79901153D01*
X138869500Y-80058846D01*
X138900261Y-80213489D01*
X138900264Y-80213501D01*
X138960602Y-80359172D01*
X138960609Y-80359185D01*
X139048210Y-80490288D01*
X139048213Y-80490292D01*
X139159707Y-80601786D01*
X139159711Y-80601789D01*
X139290814Y-80689390D01*
X139290827Y-80689397D01*
X139414466Y-80740609D01*
X139436503Y-80749737D01*
X139539699Y-80770264D01*
X139591153Y-80780499D01*
X139591156Y-80780500D01*
X139591158Y-80780500D01*
X139748844Y-80780500D01*
X139748845Y-80780499D01*
X139903497Y-80749737D01*
X140049179Y-80689394D01*
X140180289Y-80601789D01*
X140291789Y-80490289D01*
X140379394Y-80359179D01*
X140439737Y-80213497D01*
X140457040Y-80126510D01*
X140460095Y-80111153D01*
X151239500Y-80111153D01*
X151239500Y-80268846D01*
X151270261Y-80423489D01*
X151270264Y-80423501D01*
X151330602Y-80569172D01*
X151330609Y-80569185D01*
X151418210Y-80700288D01*
X151418213Y-80700292D01*
X151529707Y-80811786D01*
X151529711Y-80811789D01*
X151660814Y-80899390D01*
X151660827Y-80899397D01*
X151806498Y-80959735D01*
X151806503Y-80959737D01*
X151961153Y-80990499D01*
X151961156Y-80990500D01*
X151961158Y-80990500D01*
X152118844Y-80990500D01*
X152118845Y-80990499D01*
X152273497Y-80959737D01*
X152419179Y-80899394D01*
X152550289Y-80811789D01*
X152661789Y-80700289D01*
X152707984Y-80631153D01*
X174869500Y-80631153D01*
X174869500Y-80788846D01*
X174900261Y-80943489D01*
X174900264Y-80943501D01*
X174960602Y-81089172D01*
X174960609Y-81089185D01*
X175048210Y-81220288D01*
X175048213Y-81220292D01*
X175159707Y-81331786D01*
X175159711Y-81331789D01*
X175290814Y-81419390D01*
X175290827Y-81419397D01*
X175408681Y-81468213D01*
X175436503Y-81479737D01*
X175591153Y-81510499D01*
X175591156Y-81510500D01*
X175591158Y-81510500D01*
X175748844Y-81510500D01*
X175748845Y-81510499D01*
X175903497Y-81479737D01*
X176049179Y-81419394D01*
X176180289Y-81331789D01*
X176291789Y-81220289D01*
X176379394Y-81089179D01*
X176439737Y-80943497D01*
X176470500Y-80788842D01*
X176470500Y-80631158D01*
X176470500Y-80631155D01*
X176470499Y-80631153D01*
X176464658Y-80601789D01*
X176439737Y-80476503D01*
X176424138Y-80438844D01*
X176379397Y-80330827D01*
X176379390Y-80330814D01*
X176291789Y-80199711D01*
X176291786Y-80199707D01*
X176180292Y-80088213D01*
X176180288Y-80088210D01*
X176143969Y-80063942D01*
X176099164Y-80010329D01*
X176090457Y-79941004D01*
X176120612Y-79877977D01*
X176143967Y-79857740D01*
X176190289Y-79826789D01*
X176301789Y-79715289D01*
X176389394Y-79584179D01*
X176449737Y-79438497D01*
X176480500Y-79283842D01*
X176480500Y-79126158D01*
X176480500Y-79126155D01*
X176480499Y-79126153D01*
X176474476Y-79095874D01*
X176449737Y-78971503D01*
X176433026Y-78931158D01*
X176389397Y-78825827D01*
X176389390Y-78825814D01*
X176301789Y-78694711D01*
X176301786Y-78694707D01*
X176190292Y-78583213D01*
X176190288Y-78583210D01*
X176059185Y-78495609D01*
X176059172Y-78495602D01*
X175913501Y-78435264D01*
X175913489Y-78435261D01*
X175758845Y-78404500D01*
X175758842Y-78404500D01*
X175601158Y-78404500D01*
X175601155Y-78404500D01*
X175446510Y-78435261D01*
X175446498Y-78435264D01*
X175300827Y-78495602D01*
X175300814Y-78495609D01*
X175169711Y-78583210D01*
X175169707Y-78583213D01*
X175058213Y-78694707D01*
X175058210Y-78694711D01*
X174970609Y-78825814D01*
X174970602Y-78825827D01*
X174910264Y-78971498D01*
X174910261Y-78971510D01*
X174879500Y-79126153D01*
X174879500Y-79283846D01*
X174910261Y-79438489D01*
X174910264Y-79438501D01*
X174970602Y-79584172D01*
X174970609Y-79584185D01*
X175058210Y-79715288D01*
X175058213Y-79715292D01*
X175169707Y-79826786D01*
X175169711Y-79826789D01*
X175206030Y-79851057D01*
X175250835Y-79904669D01*
X175259542Y-79973994D01*
X175229387Y-80037022D01*
X175206030Y-80057261D01*
X175159711Y-80088210D01*
X175159707Y-80088213D01*
X175048213Y-80199707D01*
X175048210Y-80199711D01*
X174960609Y-80330814D01*
X174960602Y-80330827D01*
X174900264Y-80476498D01*
X174900261Y-80476510D01*
X174869500Y-80631153D01*
X152707984Y-80631153D01*
X152749394Y-80569179D01*
X152809737Y-80423497D01*
X152840500Y-80268842D01*
X152840500Y-80111158D01*
X152840500Y-80111155D01*
X152840499Y-80111153D01*
X152835936Y-80088213D01*
X152809737Y-79956503D01*
X152792295Y-79914394D01*
X152749397Y-79810827D01*
X152749390Y-79810814D01*
X152661789Y-79679711D01*
X152661786Y-79679707D01*
X152550292Y-79568213D01*
X152550288Y-79568210D01*
X152419185Y-79480609D01*
X152419172Y-79480602D01*
X152273501Y-79420264D01*
X152273489Y-79420261D01*
X152118845Y-79389500D01*
X152118842Y-79389500D01*
X151961158Y-79389500D01*
X151961155Y-79389500D01*
X151806510Y-79420261D01*
X151806498Y-79420264D01*
X151660827Y-79480602D01*
X151660814Y-79480609D01*
X151529711Y-79568210D01*
X151529707Y-79568213D01*
X151418213Y-79679707D01*
X151418210Y-79679711D01*
X151330609Y-79810814D01*
X151330602Y-79810827D01*
X151270264Y-79956498D01*
X151270261Y-79956510D01*
X151239500Y-80111153D01*
X140460095Y-80111153D01*
X140466118Y-80080875D01*
X140470499Y-80058846D01*
X140470500Y-80058844D01*
X140470500Y-79901155D01*
X140470499Y-79901153D01*
X140460929Y-79853038D01*
X140467156Y-79783447D01*
X140510019Y-79728269D01*
X140575909Y-79705025D01*
X140634760Y-79718105D01*
X140635192Y-79717063D01*
X140786498Y-79779735D01*
X140786503Y-79779737D01*
X140941153Y-79810499D01*
X140941156Y-79810500D01*
X140941158Y-79810500D01*
X141098844Y-79810500D01*
X141098845Y-79810499D01*
X141253497Y-79779737D01*
X141399179Y-79719394D01*
X141530289Y-79631789D01*
X141641789Y-79520289D01*
X141729394Y-79389179D01*
X141789737Y-79243497D01*
X141795688Y-79213574D01*
X141813079Y-79126153D01*
X161329500Y-79126153D01*
X161329500Y-79283846D01*
X161360261Y-79438489D01*
X161360264Y-79438501D01*
X161420602Y-79584172D01*
X161420609Y-79584185D01*
X161508210Y-79715288D01*
X161508213Y-79715292D01*
X161619707Y-79826786D01*
X161619711Y-79826789D01*
X161750814Y-79914390D01*
X161750827Y-79914397D01*
X161894709Y-79973994D01*
X161896503Y-79974737D01*
X162051153Y-80005499D01*
X162051156Y-80005500D01*
X162051158Y-80005500D01*
X162208844Y-80005500D01*
X162208845Y-80005499D01*
X162363497Y-79974737D01*
X162509179Y-79914394D01*
X162640289Y-79826789D01*
X162751789Y-79715289D01*
X162839394Y-79584179D01*
X162899737Y-79438497D01*
X162930500Y-79283842D01*
X162930500Y-79126158D01*
X162930500Y-79126155D01*
X162930499Y-79126153D01*
X162924476Y-79095874D01*
X162899737Y-78971503D01*
X162883026Y-78931158D01*
X162839397Y-78825827D01*
X162839390Y-78825814D01*
X162751789Y-78694711D01*
X162751786Y-78694707D01*
X162640292Y-78583213D01*
X162640288Y-78583210D01*
X162509185Y-78495609D01*
X162509172Y-78495602D01*
X162363501Y-78435264D01*
X162363489Y-78435261D01*
X162208845Y-78404500D01*
X162208842Y-78404500D01*
X162051158Y-78404500D01*
X162051155Y-78404500D01*
X161896510Y-78435261D01*
X161896498Y-78435264D01*
X161750827Y-78495602D01*
X161750814Y-78495609D01*
X161619711Y-78583210D01*
X161619707Y-78583213D01*
X161508213Y-78694707D01*
X161508210Y-78694711D01*
X161420609Y-78825814D01*
X161420602Y-78825827D01*
X161360264Y-78971498D01*
X161360261Y-78971510D01*
X161329500Y-79126153D01*
X141813079Y-79126153D01*
X141819102Y-79095874D01*
X141820500Y-79088843D01*
X141820500Y-78931155D01*
X141820499Y-78931153D01*
X141800119Y-78828696D01*
X141789737Y-78776503D01*
X141732577Y-78638505D01*
X141725108Y-78569036D01*
X141744034Y-78522165D01*
X141759394Y-78499179D01*
X141819737Y-78353497D01*
X141850500Y-78198842D01*
X141850500Y-78041158D01*
X141850500Y-78041155D01*
X141850499Y-78041153D01*
X141819738Y-77886510D01*
X141819737Y-77886503D01*
X141759794Y-77741786D01*
X141759397Y-77740827D01*
X141759390Y-77740814D01*
X141671789Y-77609711D01*
X141671786Y-77609707D01*
X141560292Y-77498213D01*
X141560288Y-77498210D01*
X141429185Y-77410609D01*
X141429172Y-77410602D01*
X141283501Y-77350264D01*
X141283489Y-77350261D01*
X141128845Y-77319500D01*
X141128842Y-77319500D01*
X140971158Y-77319500D01*
X140971155Y-77319500D01*
X140816510Y-77350261D01*
X140816498Y-77350264D01*
X140670827Y-77410602D01*
X140670814Y-77410609D01*
X140539711Y-77498210D01*
X140539707Y-77498213D01*
X140428213Y-77609707D01*
X140428210Y-77609711D01*
X140340609Y-77740814D01*
X140340602Y-77740827D01*
X140280264Y-77886498D01*
X140280261Y-77886510D01*
X140249500Y-78041153D01*
X140249500Y-78198846D01*
X140280261Y-78353489D01*
X140280264Y-78353501D01*
X140337422Y-78491493D01*
X140344891Y-78560962D01*
X140325965Y-78607833D01*
X140310610Y-78630814D01*
X140310602Y-78630828D01*
X140250264Y-78776498D01*
X140250261Y-78776510D01*
X140219500Y-78931153D01*
X140219500Y-79088841D01*
X140229071Y-79136962D01*
X140222842Y-79206554D01*
X140179978Y-79261731D01*
X140114088Y-79284974D01*
X140055239Y-79271895D01*
X140054808Y-79272937D01*
X139903501Y-79210264D01*
X139903489Y-79210261D01*
X139748845Y-79179500D01*
X139748842Y-79179500D01*
X139591158Y-79179500D01*
X139591155Y-79179500D01*
X139436510Y-79210261D01*
X139436498Y-79210264D01*
X139290827Y-79270602D01*
X139290814Y-79270609D01*
X139159711Y-79358210D01*
X139159707Y-79358213D01*
X139048213Y-79469707D01*
X139048210Y-79469711D01*
X138960609Y-79600814D01*
X138960602Y-79600827D01*
X138900264Y-79746498D01*
X138900261Y-79746510D01*
X138869500Y-79901153D01*
X132865753Y-79901153D01*
X132830557Y-79848479D01*
X132830554Y-79848475D01*
X132719060Y-79736981D01*
X132719056Y-79736978D01*
X132587953Y-79649377D01*
X132587940Y-79649370D01*
X132442269Y-79589032D01*
X132442257Y-79589029D01*
X132287613Y-79558268D01*
X132287610Y-79558268D01*
X132129926Y-79558268D01*
X132129923Y-79558268D01*
X131975278Y-79589029D01*
X131975266Y-79589032D01*
X131829595Y-79649370D01*
X131829582Y-79649377D01*
X131698479Y-79736978D01*
X131698475Y-79736981D01*
X131586981Y-79848475D01*
X131586978Y-79848479D01*
X131499377Y-79979582D01*
X131499370Y-79979595D01*
X131439032Y-80125266D01*
X131439029Y-80125278D01*
X131408268Y-80279921D01*
X131408268Y-80437614D01*
X131439029Y-80592257D01*
X131439032Y-80592269D01*
X131499370Y-80737940D01*
X131499377Y-80737953D01*
X131586978Y-80869056D01*
X131586981Y-80869060D01*
X131698475Y-80980554D01*
X131698479Y-80980557D01*
X131829582Y-81068158D01*
X131829595Y-81068165D01*
X131938990Y-81113477D01*
X131993394Y-81157317D01*
X132015459Y-81223611D01*
X132013156Y-81252228D01*
X131997331Y-81331789D01*
X131989500Y-81371158D01*
X131989500Y-81528842D01*
X131989501Y-81528846D01*
X131996986Y-81566479D01*
X131990757Y-81636071D01*
X131947894Y-81691248D01*
X131882003Y-81714491D01*
X131827916Y-81705230D01*
X131743501Y-81670264D01*
X131743489Y-81670261D01*
X131588845Y-81639500D01*
X131588842Y-81639500D01*
X131431158Y-81639500D01*
X131431155Y-81639500D01*
X131276510Y-81670261D01*
X131276498Y-81670264D01*
X131130827Y-81730602D01*
X131130814Y-81730609D01*
X130999711Y-81818210D01*
X130999707Y-81818213D01*
X130888213Y-81929707D01*
X130888210Y-81929711D01*
X130800609Y-82060814D01*
X130800602Y-82060827D01*
X130740264Y-82206498D01*
X130740261Y-82206510D01*
X130709500Y-82361153D01*
X96504651Y-82361153D01*
X96507685Y-80281153D01*
X105059500Y-80281153D01*
X105059500Y-80438846D01*
X105090261Y-80593489D01*
X105090264Y-80593501D01*
X105150602Y-80739172D01*
X105150609Y-80739185D01*
X105238210Y-80870288D01*
X105238213Y-80870292D01*
X105349707Y-80981786D01*
X105349711Y-80981789D01*
X105480814Y-81069390D01*
X105480827Y-81069397D01*
X105626498Y-81129735D01*
X105626503Y-81129737D01*
X105765156Y-81157317D01*
X105781153Y-81160499D01*
X105781156Y-81160500D01*
X105781158Y-81160500D01*
X105938844Y-81160500D01*
X105938845Y-81160499D01*
X106093497Y-81129737D01*
X106206166Y-81083067D01*
X106239172Y-81069397D01*
X106239172Y-81069396D01*
X106239179Y-81069394D01*
X106370289Y-80981789D01*
X106481789Y-80870289D01*
X106569394Y-80739179D01*
X106629737Y-80593497D01*
X106660500Y-80438842D01*
X106660500Y-80281158D01*
X106660500Y-80281155D01*
X106660499Y-80281153D01*
X106629738Y-80126510D01*
X106629737Y-80126503D01*
X106619958Y-80102895D01*
X106569397Y-79980827D01*
X106569390Y-79980814D01*
X106481789Y-79849711D01*
X106481786Y-79849707D01*
X106370292Y-79738213D01*
X106370288Y-79738210D01*
X106239185Y-79650609D01*
X106239172Y-79650602D01*
X106093501Y-79590264D01*
X106093489Y-79590261D01*
X105938845Y-79559500D01*
X105938842Y-79559500D01*
X105781158Y-79559500D01*
X105781155Y-79559500D01*
X105626510Y-79590261D01*
X105626498Y-79590264D01*
X105480827Y-79650602D01*
X105480814Y-79650609D01*
X105349711Y-79738210D01*
X105349707Y-79738213D01*
X105238213Y-79849707D01*
X105238210Y-79849711D01*
X105150609Y-79980814D01*
X105150602Y-79980827D01*
X105090264Y-80126498D01*
X105090261Y-80126510D01*
X105059500Y-80281153D01*
X96507685Y-80281153D01*
X96512411Y-77041153D01*
X132219500Y-77041153D01*
X132219500Y-77198846D01*
X132250261Y-77353489D01*
X132250264Y-77353501D01*
X132310602Y-77499172D01*
X132310609Y-77499185D01*
X132398210Y-77630288D01*
X132398213Y-77630292D01*
X132509707Y-77741786D01*
X132509711Y-77741789D01*
X132640814Y-77829390D01*
X132640827Y-77829397D01*
X132778683Y-77886498D01*
X132786503Y-77889737D01*
X132941153Y-77920499D01*
X132941156Y-77920500D01*
X132941158Y-77920500D01*
X133098844Y-77920500D01*
X133098845Y-77920499D01*
X133253497Y-77889737D01*
X133399179Y-77829394D01*
X133530289Y-77741789D01*
X133641789Y-77630289D01*
X133729394Y-77499179D01*
X133789737Y-77353497D01*
X133820500Y-77198842D01*
X133820500Y-77041158D01*
X133820500Y-77041155D01*
X133820499Y-77041153D01*
X133789738Y-76886510D01*
X133789737Y-76886503D01*
X133789735Y-76886498D01*
X133729397Y-76740827D01*
X133729390Y-76740814D01*
X133641789Y-76609711D01*
X133641786Y-76609707D01*
X133530292Y-76498213D01*
X133530288Y-76498210D01*
X133399185Y-76410609D01*
X133399172Y-76410602D01*
X133253501Y-76350264D01*
X133253489Y-76350261D01*
X133098845Y-76319500D01*
X133098842Y-76319500D01*
X132941158Y-76319500D01*
X132941155Y-76319500D01*
X132786510Y-76350261D01*
X132786498Y-76350264D01*
X132640827Y-76410602D01*
X132640814Y-76410609D01*
X132509711Y-76498210D01*
X132509707Y-76498213D01*
X132398213Y-76609707D01*
X132398210Y-76609711D01*
X132310609Y-76740814D01*
X132310602Y-76740827D01*
X132250264Y-76886498D01*
X132250261Y-76886510D01*
X132219500Y-77041153D01*
X96512411Y-77041153D01*
X96514074Y-75901153D01*
X144649500Y-75901153D01*
X144649500Y-76058846D01*
X144680261Y-76213489D01*
X144680264Y-76213501D01*
X144740602Y-76359172D01*
X144740609Y-76359185D01*
X144828210Y-76490288D01*
X144828213Y-76490292D01*
X144939707Y-76601786D01*
X144939711Y-76601789D01*
X145070814Y-76689390D01*
X145070827Y-76689397D01*
X145194992Y-76740827D01*
X145216503Y-76749737D01*
X145371153Y-76780499D01*
X145371156Y-76780500D01*
X145371158Y-76780500D01*
X145528844Y-76780500D01*
X145528845Y-76780499D01*
X145683497Y-76749737D01*
X145829179Y-76689394D01*
X145960289Y-76601789D01*
X146071789Y-76490289D01*
X146159394Y-76359179D01*
X146219737Y-76213497D01*
X146250500Y-76058842D01*
X146250500Y-75901158D01*
X146250500Y-75901155D01*
X146250499Y-75901153D01*
X146219738Y-75746510D01*
X146219737Y-75746503D01*
X146169212Y-75624523D01*
X146161743Y-75555054D01*
X146169212Y-75529619D01*
X146229735Y-75383501D01*
X146229737Y-75383497D01*
X146260500Y-75228842D01*
X146260500Y-75071158D01*
X146260500Y-75071155D01*
X146260499Y-75071153D01*
X146240649Y-74971361D01*
X146229737Y-74916503D01*
X146218281Y-74888846D01*
X146169397Y-74770827D01*
X146169390Y-74770814D01*
X146111354Y-74683957D01*
X146081789Y-74639711D01*
X146081786Y-74639707D01*
X146063232Y-74621153D01*
X153529500Y-74621153D01*
X153529500Y-74778846D01*
X153560261Y-74933489D01*
X153560264Y-74933501D01*
X153620602Y-75079172D01*
X153620609Y-75079185D01*
X153708210Y-75210288D01*
X153708213Y-75210292D01*
X153819707Y-75321786D01*
X153819711Y-75321789D01*
X153950814Y-75409390D01*
X153950827Y-75409397D01*
X154096498Y-75469735D01*
X154096503Y-75469737D01*
X154251153Y-75500499D01*
X154251156Y-75500500D01*
X154251158Y-75500500D01*
X154408844Y-75500500D01*
X154408845Y-75500499D01*
X154563497Y-75469737D01*
X154709179Y-75409394D01*
X154840289Y-75321789D01*
X154951789Y-75210289D01*
X155039394Y-75079179D01*
X155042719Y-75071153D01*
X155099735Y-74933501D01*
X155099737Y-74933497D01*
X155130500Y-74778842D01*
X155130500Y-74621158D01*
X155130500Y-74621155D01*
X155112654Y-74531440D01*
X155112654Y-74531439D01*
X155109053Y-74513335D01*
X171419500Y-74513335D01*
X171419500Y-74671028D01*
X171450261Y-74825671D01*
X171450264Y-74825683D01*
X171510602Y-74971354D01*
X171510609Y-74971367D01*
X171598210Y-75102470D01*
X171598213Y-75102474D01*
X171709707Y-75213968D01*
X171709711Y-75213971D01*
X171840814Y-75301572D01*
X171840827Y-75301579D01*
X171986498Y-75361917D01*
X171986503Y-75361919D01*
X172141153Y-75392681D01*
X172141156Y-75392682D01*
X172141158Y-75392682D01*
X172298844Y-75392682D01*
X172298845Y-75392681D01*
X172453497Y-75361919D01*
X172599179Y-75301576D01*
X172730289Y-75213971D01*
X172841789Y-75102471D01*
X172929394Y-74971361D01*
X172989737Y-74825679D01*
X173020500Y-74671024D01*
X173020500Y-74513340D01*
X173020500Y-74513337D01*
X173020499Y-74513335D01*
X172994029Y-74380263D01*
X172989737Y-74358685D01*
X172989735Y-74358680D01*
X172929397Y-74213009D01*
X172929390Y-74212996D01*
X172841789Y-74081893D01*
X172841786Y-74081889D01*
X172730292Y-73970395D01*
X172730288Y-73970392D01*
X172599185Y-73882791D01*
X172599172Y-73882784D01*
X172453501Y-73822446D01*
X172453489Y-73822443D01*
X172298845Y-73791682D01*
X172298842Y-73791682D01*
X172141158Y-73791682D01*
X172141155Y-73791682D01*
X171986510Y-73822443D01*
X171986498Y-73822446D01*
X171840827Y-73882784D01*
X171840814Y-73882791D01*
X171709711Y-73970392D01*
X171709707Y-73970395D01*
X171598213Y-74081889D01*
X171598210Y-74081893D01*
X171510609Y-74212996D01*
X171510602Y-74213009D01*
X171450264Y-74358680D01*
X171450261Y-74358692D01*
X171419500Y-74513335D01*
X155109053Y-74513335D01*
X155099738Y-74466510D01*
X155099737Y-74466503D01*
X155099735Y-74466498D01*
X155039397Y-74320827D01*
X155039390Y-74320814D01*
X154951789Y-74189711D01*
X154951786Y-74189707D01*
X154840292Y-74078213D01*
X154840288Y-74078210D01*
X154709185Y-73990609D01*
X154709172Y-73990602D01*
X154563501Y-73930264D01*
X154563489Y-73930261D01*
X154408845Y-73899500D01*
X154408842Y-73899500D01*
X154251158Y-73899500D01*
X154251155Y-73899500D01*
X154096510Y-73930261D01*
X154096498Y-73930264D01*
X153950827Y-73990602D01*
X153950814Y-73990609D01*
X153819711Y-74078210D01*
X153819707Y-74078213D01*
X153708213Y-74189707D01*
X153708210Y-74189711D01*
X153620609Y-74320814D01*
X153620602Y-74320827D01*
X153560264Y-74466498D01*
X153560261Y-74466510D01*
X153529500Y-74621153D01*
X146063232Y-74621153D01*
X145970292Y-74528213D01*
X145970288Y-74528210D01*
X145839185Y-74440609D01*
X145839172Y-74440602D01*
X145693501Y-74380264D01*
X145693489Y-74380261D01*
X145538845Y-74349500D01*
X145538842Y-74349500D01*
X145381158Y-74349500D01*
X145381155Y-74349500D01*
X145226510Y-74380261D01*
X145226498Y-74380264D01*
X145080827Y-74440602D01*
X145080814Y-74440609D01*
X144949711Y-74528210D01*
X144949707Y-74528213D01*
X144838213Y-74639707D01*
X144838210Y-74639711D01*
X144750609Y-74770814D01*
X144750602Y-74770827D01*
X144690264Y-74916498D01*
X144690261Y-74916510D01*
X144659500Y-75071153D01*
X144659500Y-75228846D01*
X144685971Y-75361920D01*
X144690263Y-75383497D01*
X144738726Y-75500499D01*
X144740788Y-75505475D01*
X144748257Y-75574945D01*
X144740788Y-75600380D01*
X144680264Y-75746498D01*
X144680261Y-75746510D01*
X144649500Y-75901153D01*
X96514074Y-75901153D01*
X96515781Y-74731153D01*
X138629500Y-74731153D01*
X138629500Y-74888846D01*
X138660261Y-75043489D01*
X138660264Y-75043501D01*
X138720602Y-75189172D01*
X138720609Y-75189185D01*
X138808210Y-75320288D01*
X138808213Y-75320292D01*
X138919707Y-75431786D01*
X138919711Y-75431789D01*
X139050814Y-75519390D01*
X139050827Y-75519397D01*
X139142856Y-75557516D01*
X139196503Y-75579737D01*
X139300282Y-75600380D01*
X139351153Y-75610499D01*
X139351156Y-75610500D01*
X139351158Y-75610500D01*
X139508844Y-75610500D01*
X139508845Y-75610499D01*
X139663497Y-75579737D01*
X139776166Y-75533067D01*
X139809172Y-75519397D01*
X139809172Y-75519396D01*
X139809179Y-75519394D01*
X139940289Y-75431789D01*
X140051789Y-75320289D01*
X140139394Y-75189179D01*
X140199737Y-75043497D01*
X140230500Y-74888842D01*
X140230500Y-74731158D01*
X140230500Y-74731155D01*
X140230499Y-74731153D01*
X140218539Y-74671026D01*
X140199737Y-74576503D01*
X140199735Y-74576498D01*
X140139397Y-74430827D01*
X140139390Y-74430814D01*
X140051789Y-74299711D01*
X140051786Y-74299707D01*
X139940292Y-74188213D01*
X139940288Y-74188210D01*
X139809185Y-74100609D01*
X139809172Y-74100602D01*
X139663501Y-74040264D01*
X139663489Y-74040261D01*
X139508845Y-74009500D01*
X139508842Y-74009500D01*
X139351158Y-74009500D01*
X139351155Y-74009500D01*
X139196510Y-74040261D01*
X139196498Y-74040264D01*
X139050827Y-74100602D01*
X139050814Y-74100609D01*
X138919711Y-74188210D01*
X138919707Y-74188213D01*
X138808213Y-74299707D01*
X138808210Y-74299711D01*
X138720609Y-74430814D01*
X138720602Y-74430827D01*
X138660264Y-74576498D01*
X138660261Y-74576510D01*
X138629500Y-74731153D01*
X96515781Y-74731153D01*
X96519349Y-72284755D01*
X110860304Y-72284755D01*
X110860304Y-72442448D01*
X110891065Y-72597091D01*
X110891068Y-72597103D01*
X110951406Y-72742774D01*
X110951413Y-72742787D01*
X111039014Y-72873890D01*
X111039017Y-72873894D01*
X111150511Y-72985388D01*
X111150515Y-72985391D01*
X111281618Y-73072992D01*
X111281631Y-73072999D01*
X111427302Y-73133337D01*
X111427307Y-73133339D01*
X111581957Y-73164101D01*
X111581960Y-73164102D01*
X111581962Y-73164102D01*
X111739648Y-73164102D01*
X111739649Y-73164101D01*
X111894301Y-73133339D01*
X112039983Y-73072996D01*
X112171093Y-72985391D01*
X112282593Y-72873891D01*
X112291104Y-72861153D01*
X116829500Y-72861153D01*
X116829500Y-73018846D01*
X116860261Y-73173489D01*
X116860264Y-73173501D01*
X116920602Y-73319172D01*
X116920609Y-73319185D01*
X117008210Y-73450288D01*
X117008213Y-73450292D01*
X117119707Y-73561786D01*
X117119711Y-73561789D01*
X117250814Y-73649390D01*
X117250827Y-73649397D01*
X117396498Y-73709735D01*
X117396503Y-73709737D01*
X117551153Y-73740499D01*
X117551156Y-73740500D01*
X117551158Y-73740500D01*
X117708844Y-73740500D01*
X117708845Y-73740499D01*
X117863497Y-73709737D01*
X118009179Y-73649394D01*
X118140289Y-73561789D01*
X118251789Y-73450289D01*
X118339394Y-73319179D01*
X118399737Y-73173497D01*
X118430500Y-73018842D01*
X118430500Y-72861158D01*
X118430500Y-72861155D01*
X118430499Y-72861153D01*
X118411603Y-72766158D01*
X118399737Y-72706503D01*
X118388966Y-72680499D01*
X118339397Y-72560827D01*
X118339390Y-72560814D01*
X118251789Y-72429711D01*
X118251786Y-72429707D01*
X118140292Y-72318213D01*
X118140288Y-72318210D01*
X118009185Y-72230609D01*
X118009172Y-72230602D01*
X117863501Y-72170264D01*
X117863489Y-72170261D01*
X117708845Y-72139500D01*
X117708842Y-72139500D01*
X117551158Y-72139500D01*
X117551155Y-72139500D01*
X117396510Y-72170261D01*
X117396498Y-72170264D01*
X117250827Y-72230602D01*
X117250814Y-72230609D01*
X117119711Y-72318210D01*
X117119707Y-72318213D01*
X117008213Y-72429707D01*
X117008210Y-72429711D01*
X116920609Y-72560814D01*
X116920602Y-72560827D01*
X116860264Y-72706498D01*
X116860261Y-72706510D01*
X116829500Y-72861153D01*
X112291104Y-72861153D01*
X112306404Y-72838254D01*
X112341204Y-72786175D01*
X112341205Y-72786173D01*
X112370191Y-72742792D01*
X112370194Y-72742787D01*
X112370198Y-72742781D01*
X112430541Y-72597099D01*
X112461304Y-72442444D01*
X112461304Y-72284760D01*
X112461304Y-72284757D01*
X112461303Y-72284755D01*
X112456214Y-72259172D01*
X112430541Y-72130105D01*
X112426698Y-72120827D01*
X112370201Y-71984429D01*
X112370194Y-71984416D01*
X112289705Y-71863957D01*
X112289704Y-71863955D01*
X112282594Y-71853314D01*
X112282590Y-71853309D01*
X112230434Y-71801153D01*
X144109500Y-71801153D01*
X144109500Y-71958846D01*
X144140261Y-72113489D01*
X144140264Y-72113501D01*
X144200602Y-72259172D01*
X144200609Y-72259185D01*
X144288210Y-72390288D01*
X144288213Y-72390292D01*
X144399707Y-72501786D01*
X144399711Y-72501789D01*
X144530814Y-72589390D01*
X144530827Y-72589397D01*
X144676498Y-72649735D01*
X144676503Y-72649737D01*
X144831153Y-72680499D01*
X144831156Y-72680500D01*
X144831158Y-72680500D01*
X144988844Y-72680500D01*
X144988845Y-72680499D01*
X145143497Y-72649737D01*
X145289179Y-72589394D01*
X145420289Y-72501789D01*
X145500925Y-72421153D01*
X159879500Y-72421153D01*
X159879500Y-72578846D01*
X159910261Y-72733489D01*
X159910264Y-72733501D01*
X159970602Y-72879172D01*
X159970609Y-72879185D01*
X160058210Y-73010288D01*
X160058213Y-73010292D01*
X160169707Y-73121786D01*
X160169711Y-73121789D01*
X160300814Y-73209390D01*
X160300827Y-73209397D01*
X160446498Y-73269735D01*
X160446503Y-73269737D01*
X160601153Y-73300499D01*
X160601156Y-73300500D01*
X160601158Y-73300500D01*
X160758844Y-73300500D01*
X160758845Y-73300499D01*
X160913497Y-73269737D01*
X161059179Y-73209394D01*
X161190289Y-73121789D01*
X161301789Y-73010289D01*
X161389394Y-72879179D01*
X161396859Y-72861158D01*
X161436208Y-72766158D01*
X161436210Y-72766153D01*
X168004500Y-72766153D01*
X168004500Y-72923846D01*
X168035261Y-73078489D01*
X168035264Y-73078501D01*
X168095602Y-73224172D01*
X168095609Y-73224185D01*
X168183210Y-73355288D01*
X168183213Y-73355292D01*
X168294707Y-73466786D01*
X168294711Y-73466789D01*
X168425814Y-73554390D01*
X168425827Y-73554397D01*
X168571498Y-73614735D01*
X168571503Y-73614737D01*
X168726153Y-73645499D01*
X168726156Y-73645500D01*
X168726158Y-73645500D01*
X168883844Y-73645500D01*
X168883845Y-73645499D01*
X169038497Y-73614737D01*
X169184179Y-73554394D01*
X169315289Y-73466789D01*
X169426789Y-73355289D01*
X169514394Y-73224179D01*
X169574737Y-73078497D01*
X169605500Y-72923842D01*
X169605500Y-72766158D01*
X169605500Y-72766155D01*
X169605499Y-72766153D01*
X169574738Y-72611510D01*
X169574737Y-72611503D01*
X169568771Y-72597099D01*
X169514397Y-72465827D01*
X169514390Y-72465814D01*
X169426789Y-72334711D01*
X169426786Y-72334707D01*
X169315292Y-72223213D01*
X169315288Y-72223210D01*
X169184185Y-72135609D01*
X169184172Y-72135602D01*
X169038501Y-72075264D01*
X169038489Y-72075261D01*
X168883845Y-72044500D01*
X168883842Y-72044500D01*
X168726158Y-72044500D01*
X168726155Y-72044500D01*
X168571510Y-72075261D01*
X168571498Y-72075264D01*
X168425827Y-72135602D01*
X168425814Y-72135609D01*
X168294711Y-72223210D01*
X168294707Y-72223213D01*
X168183213Y-72334707D01*
X168183210Y-72334711D01*
X168095609Y-72465814D01*
X168095602Y-72465827D01*
X168035264Y-72611498D01*
X168035261Y-72611510D01*
X168004500Y-72766153D01*
X161436210Y-72766153D01*
X161449737Y-72733497D01*
X161476868Y-72597103D01*
X161480500Y-72578844D01*
X161480500Y-72421155D01*
X161480499Y-72421153D01*
X161474360Y-72390289D01*
X161449737Y-72266503D01*
X161446703Y-72259179D01*
X161389397Y-72120827D01*
X161389390Y-72120814D01*
X161301789Y-71989711D01*
X161301786Y-71989707D01*
X161190292Y-71878213D01*
X161190288Y-71878210D01*
X161059185Y-71790609D01*
X161059172Y-71790602D01*
X160913501Y-71730264D01*
X160913489Y-71730261D01*
X160769820Y-71701683D01*
X160758845Y-71699500D01*
X160758842Y-71699500D01*
X160601158Y-71699500D01*
X160601155Y-71699500D01*
X160446510Y-71730261D01*
X160446498Y-71730264D01*
X160300827Y-71790602D01*
X160300814Y-71790609D01*
X160169711Y-71878210D01*
X160169707Y-71878213D01*
X160058213Y-71989707D01*
X160058210Y-71989711D01*
X159970609Y-72120814D01*
X159970602Y-72120827D01*
X159910264Y-72266498D01*
X159910261Y-72266510D01*
X159879500Y-72421153D01*
X145500925Y-72421153D01*
X145531789Y-72390289D01*
X145619394Y-72259179D01*
X145679737Y-72113497D01*
X145710500Y-71958842D01*
X145710500Y-71801158D01*
X145710500Y-71801155D01*
X145710499Y-71801153D01*
X145696398Y-71730263D01*
X145679737Y-71646503D01*
X145655216Y-71587303D01*
X145654740Y-71586153D01*
X171174500Y-71586153D01*
X171174500Y-71743846D01*
X171205261Y-71898489D01*
X171205264Y-71898501D01*
X171265602Y-72044172D01*
X171265609Y-72044185D01*
X171353210Y-72175288D01*
X171353213Y-72175292D01*
X171464707Y-72286786D01*
X171464711Y-72286789D01*
X171595814Y-72374390D01*
X171595827Y-72374397D01*
X171708720Y-72421158D01*
X171741503Y-72434737D01*
X171896153Y-72465499D01*
X171896156Y-72465500D01*
X171896158Y-72465500D01*
X172053844Y-72465500D01*
X172053845Y-72465499D01*
X172208497Y-72434737D01*
X172354179Y-72374394D01*
X172485289Y-72286789D01*
X172596789Y-72175289D01*
X172684394Y-72044179D01*
X172744737Y-71898497D01*
X172775500Y-71743842D01*
X172775500Y-71586158D01*
X172775500Y-71586155D01*
X172775499Y-71586153D01*
X172765042Y-71533581D01*
X172744737Y-71431503D01*
X172719142Y-71369711D01*
X172684397Y-71285827D01*
X172684390Y-71285814D01*
X172596789Y-71154711D01*
X172596786Y-71154707D01*
X172485292Y-71043213D01*
X172485288Y-71043210D01*
X172354185Y-70955609D01*
X172354172Y-70955602D01*
X172208499Y-70895263D01*
X172208492Y-70895261D01*
X172053845Y-70864500D01*
X172053842Y-70864500D01*
X171896158Y-70864500D01*
X171896155Y-70864500D01*
X171741510Y-70895261D01*
X171741498Y-70895264D01*
X171595827Y-70955602D01*
X171595814Y-70955609D01*
X171464711Y-71043210D01*
X171464707Y-71043213D01*
X171353213Y-71154707D01*
X171353210Y-71154711D01*
X171265609Y-71285814D01*
X171265602Y-71285827D01*
X171205264Y-71431498D01*
X171205261Y-71431510D01*
X171174500Y-71586153D01*
X145654740Y-71586153D01*
X145619397Y-71500827D01*
X145619390Y-71500814D01*
X145531789Y-71369711D01*
X145531786Y-71369707D01*
X145420292Y-71258213D01*
X145420288Y-71258210D01*
X145289185Y-71170609D01*
X145289172Y-71170602D01*
X145143501Y-71110264D01*
X145143489Y-71110261D01*
X144988845Y-71079500D01*
X144988842Y-71079500D01*
X144831158Y-71079500D01*
X144831155Y-71079500D01*
X144676510Y-71110261D01*
X144676498Y-71110264D01*
X144530827Y-71170602D01*
X144530814Y-71170609D01*
X144399711Y-71258210D01*
X144399707Y-71258213D01*
X144288213Y-71369707D01*
X144288210Y-71369711D01*
X144200609Y-71500814D01*
X144200602Y-71500827D01*
X144140264Y-71646498D01*
X144140261Y-71646510D01*
X144109500Y-71801153D01*
X112230434Y-71801153D01*
X112171096Y-71741815D01*
X112171092Y-71741812D01*
X112039989Y-71654211D01*
X112039976Y-71654204D01*
X111894305Y-71593866D01*
X111894293Y-71593863D01*
X111739649Y-71563102D01*
X111739646Y-71563102D01*
X111581962Y-71563102D01*
X111581959Y-71563102D01*
X111427314Y-71593863D01*
X111427302Y-71593866D01*
X111281631Y-71654204D01*
X111281618Y-71654211D01*
X111150515Y-71741812D01*
X111150511Y-71741815D01*
X111039017Y-71853309D01*
X111039014Y-71853313D01*
X110951413Y-71984416D01*
X110951406Y-71984429D01*
X110891068Y-72130100D01*
X110891065Y-72130112D01*
X110860304Y-72284755D01*
X96519349Y-72284755D01*
X96522065Y-70423074D01*
X105495500Y-70423074D01*
X105495500Y-70596926D01*
X105496033Y-70600289D01*
X105522697Y-70768639D01*
X105522697Y-70768642D01*
X105576418Y-70933978D01*
X105619279Y-71018097D01*
X105655347Y-71088884D01*
X105757535Y-71229533D01*
X105880467Y-71352465D01*
X106021116Y-71454653D01*
X106111726Y-71500821D01*
X106176021Y-71533581D01*
X106341358Y-71587302D01*
X106341359Y-71587302D01*
X106341362Y-71587303D01*
X106513074Y-71614500D01*
X106513075Y-71614500D01*
X106686925Y-71614500D01*
X106686926Y-71614500D01*
X106858638Y-71587303D01*
X106858641Y-71587302D01*
X106858642Y-71587302D01*
X107023978Y-71533581D01*
X107023978Y-71533580D01*
X107023981Y-71533580D01*
X107178884Y-71454653D01*
X107319533Y-71352465D01*
X107442465Y-71229533D01*
X107544653Y-71088884D01*
X107623580Y-70933981D01*
X107667311Y-70799390D01*
X107677302Y-70768642D01*
X107677302Y-70768641D01*
X107677303Y-70768638D01*
X107704500Y-70596926D01*
X107704500Y-70423074D01*
X107677303Y-70251362D01*
X107677302Y-70251358D01*
X107677302Y-70251357D01*
X107623581Y-70086021D01*
X107585434Y-70011153D01*
X133949500Y-70011153D01*
X133949500Y-70168846D01*
X133980261Y-70323489D01*
X133980264Y-70323501D01*
X134040602Y-70469172D01*
X134040609Y-70469185D01*
X134128210Y-70600288D01*
X134128213Y-70600292D01*
X134239707Y-70711786D01*
X134239711Y-70711789D01*
X134370814Y-70799390D01*
X134370827Y-70799397D01*
X134516498Y-70859735D01*
X134516503Y-70859737D01*
X134671153Y-70890499D01*
X134671156Y-70890500D01*
X134671158Y-70890500D01*
X134828844Y-70890500D01*
X134828845Y-70890499D01*
X134983497Y-70859737D01*
X135129179Y-70799394D01*
X135260289Y-70711789D01*
X135371789Y-70600289D01*
X135377894Y-70591153D01*
X148859500Y-70591153D01*
X148859500Y-70748846D01*
X148890261Y-70903489D01*
X148890264Y-70903501D01*
X148950602Y-71049172D01*
X148950609Y-71049185D01*
X149038210Y-71180288D01*
X149038213Y-71180292D01*
X149149707Y-71291786D01*
X149149711Y-71291789D01*
X149280814Y-71379390D01*
X149280827Y-71379397D01*
X149406612Y-71431498D01*
X149426503Y-71439737D01*
X149581153Y-71470499D01*
X149581156Y-71470500D01*
X149581158Y-71470500D01*
X149738844Y-71470500D01*
X149738845Y-71470499D01*
X149893497Y-71439737D01*
X150039179Y-71379394D01*
X150170289Y-71291789D01*
X150281789Y-71180289D01*
X150369394Y-71049179D01*
X150371867Y-71043210D01*
X150398157Y-70979738D01*
X150429737Y-70903497D01*
X150460500Y-70748842D01*
X150460500Y-70591158D01*
X150460500Y-70591155D01*
X150460499Y-70591153D01*
X150436238Y-70469185D01*
X150429737Y-70436503D01*
X150422082Y-70418021D01*
X150369397Y-70290827D01*
X150369390Y-70290814D01*
X150304672Y-70193957D01*
X150281789Y-70159711D01*
X150281786Y-70159707D01*
X150253232Y-70131153D01*
X156969500Y-70131153D01*
X156969500Y-70288846D01*
X157000261Y-70443489D01*
X157000264Y-70443501D01*
X157060602Y-70589172D01*
X157060609Y-70589185D01*
X157148210Y-70720288D01*
X157148213Y-70720292D01*
X157259707Y-70831786D01*
X157259711Y-70831789D01*
X157390814Y-70919390D01*
X157390827Y-70919397D01*
X157478245Y-70955606D01*
X157536503Y-70979737D01*
X157691153Y-71010499D01*
X157691156Y-71010500D01*
X157691158Y-71010500D01*
X157848844Y-71010500D01*
X157848845Y-71010499D01*
X158003497Y-70979737D01*
X158149179Y-70919394D01*
X158280289Y-70831789D01*
X158330176Y-70781902D01*
X179699500Y-70781902D01*
X179699500Y-71018097D01*
X179736446Y-71251368D01*
X179809433Y-71475996D01*
X179900239Y-71654211D01*
X179916657Y-71686433D01*
X180055483Y-71877510D01*
X180222490Y-72044517D01*
X180413567Y-72183343D01*
X180506318Y-72230602D01*
X180624003Y-72290566D01*
X180624005Y-72290566D01*
X180624008Y-72290568D01*
X180744412Y-72329689D01*
X180848631Y-72363553D01*
X181081903Y-72400500D01*
X181081908Y-72400500D01*
X181318097Y-72400500D01*
X181551368Y-72363553D01*
X181775992Y-72290568D01*
X181986433Y-72183343D01*
X182177510Y-72044517D01*
X182344517Y-71877510D01*
X182483343Y-71686433D01*
X182590568Y-71475992D01*
X182663553Y-71251368D01*
X182676344Y-71170609D01*
X182700500Y-71018097D01*
X182700500Y-70781902D01*
X182663553Y-70548631D01*
X182590566Y-70324003D01*
X182524304Y-70193957D01*
X182483343Y-70113567D01*
X182344517Y-69922490D01*
X182177510Y-69755483D01*
X181986433Y-69616657D01*
X181775996Y-69509433D01*
X181551368Y-69436446D01*
X181318097Y-69399500D01*
X181318092Y-69399500D01*
X181081908Y-69399500D01*
X181081903Y-69399500D01*
X180848631Y-69436446D01*
X180624003Y-69509433D01*
X180413566Y-69616657D01*
X180343537Y-69667537D01*
X180222490Y-69755483D01*
X180222488Y-69755485D01*
X180222487Y-69755485D01*
X180055485Y-69922487D01*
X180055485Y-69922488D01*
X180055483Y-69922490D01*
X180016244Y-69976498D01*
X179916657Y-70113566D01*
X179809433Y-70324003D01*
X179736446Y-70548631D01*
X179699500Y-70781902D01*
X158330176Y-70781902D01*
X158391789Y-70720289D01*
X158479394Y-70589179D01*
X158539737Y-70443497D01*
X158570500Y-70288842D01*
X158570500Y-70131158D01*
X158570500Y-70131155D01*
X158570499Y-70131153D01*
X158554001Y-70048213D01*
X158539737Y-69976503D01*
X158517364Y-69922490D01*
X158479397Y-69830827D01*
X158479390Y-69830814D01*
X158391789Y-69699711D01*
X158391786Y-69699707D01*
X158280292Y-69588213D01*
X158280288Y-69588210D01*
X158149185Y-69500609D01*
X158149172Y-69500602D01*
X158003501Y-69440264D01*
X158003489Y-69440261D01*
X157848845Y-69409500D01*
X157848842Y-69409500D01*
X157691158Y-69409500D01*
X157691155Y-69409500D01*
X157536510Y-69440261D01*
X157536498Y-69440264D01*
X157390827Y-69500602D01*
X157390814Y-69500609D01*
X157259711Y-69588210D01*
X157259707Y-69588213D01*
X157148213Y-69699707D01*
X157148210Y-69699711D01*
X157060609Y-69830814D01*
X157060602Y-69830827D01*
X157000264Y-69976498D01*
X157000261Y-69976510D01*
X156969500Y-70131153D01*
X150253232Y-70131153D01*
X150170292Y-70048213D01*
X150170288Y-70048210D01*
X150039185Y-69960609D01*
X150039172Y-69960602D01*
X149893501Y-69900264D01*
X149893489Y-69900261D01*
X149738845Y-69869500D01*
X149738842Y-69869500D01*
X149581158Y-69869500D01*
X149581155Y-69869500D01*
X149426510Y-69900261D01*
X149426498Y-69900264D01*
X149280827Y-69960602D01*
X149280814Y-69960609D01*
X149149711Y-70048210D01*
X149149707Y-70048213D01*
X149038213Y-70159707D01*
X149038210Y-70159711D01*
X148950609Y-70290814D01*
X148950602Y-70290827D01*
X148890264Y-70436498D01*
X148890261Y-70436510D01*
X148859500Y-70591153D01*
X135377894Y-70591153D01*
X135406306Y-70548631D01*
X135427993Y-70516175D01*
X135459390Y-70469185D01*
X135459390Y-70469184D01*
X135459394Y-70469179D01*
X135519737Y-70323497D01*
X135550500Y-70168842D01*
X135550500Y-70011158D01*
X135550500Y-70011155D01*
X135550499Y-70011153D01*
X135540445Y-69960609D01*
X135519737Y-69856503D01*
X135504366Y-69819394D01*
X135459397Y-69710827D01*
X135459390Y-69710814D01*
X135371789Y-69579711D01*
X135371786Y-69579707D01*
X135260292Y-69468213D01*
X135260288Y-69468210D01*
X135129185Y-69380609D01*
X135129172Y-69380602D01*
X134983501Y-69320264D01*
X134983489Y-69320261D01*
X134828845Y-69289500D01*
X134828842Y-69289500D01*
X134671158Y-69289500D01*
X134671155Y-69289500D01*
X134516510Y-69320261D01*
X134516498Y-69320264D01*
X134370827Y-69380602D01*
X134370814Y-69380609D01*
X134239711Y-69468210D01*
X134239707Y-69468213D01*
X134128213Y-69579707D01*
X134128210Y-69579711D01*
X134040609Y-69710814D01*
X134040602Y-69710827D01*
X133980264Y-69856498D01*
X133980261Y-69856510D01*
X133949500Y-70011153D01*
X107585434Y-70011153D01*
X107567782Y-69976510D01*
X107544653Y-69931116D01*
X107442465Y-69790467D01*
X107319533Y-69667535D01*
X107178884Y-69565347D01*
X107023978Y-69486418D01*
X106858641Y-69432697D01*
X106729854Y-69412299D01*
X106686926Y-69405500D01*
X106513074Y-69405500D01*
X106455836Y-69414565D01*
X106341360Y-69432697D01*
X106341357Y-69432697D01*
X106176021Y-69486418D01*
X106021115Y-69565347D01*
X105950494Y-69616657D01*
X105880467Y-69667535D01*
X105880465Y-69667537D01*
X105880464Y-69667537D01*
X105757537Y-69790464D01*
X105757537Y-69790465D01*
X105757535Y-69790467D01*
X105736521Y-69819390D01*
X105655347Y-69931115D01*
X105576418Y-70086021D01*
X105522697Y-70251357D01*
X105522697Y-70251360D01*
X105511191Y-70324008D01*
X105495500Y-70423074D01*
X96522065Y-70423074D01*
X96524693Y-68621153D01*
X115369500Y-68621153D01*
X115369500Y-68778846D01*
X115400261Y-68933489D01*
X115400264Y-68933501D01*
X115460602Y-69079172D01*
X115460609Y-69079185D01*
X115548210Y-69210288D01*
X115548213Y-69210292D01*
X115659707Y-69321786D01*
X115659711Y-69321789D01*
X115790814Y-69409390D01*
X115790827Y-69409397D01*
X115865348Y-69440264D01*
X115936503Y-69469737D01*
X116053745Y-69493058D01*
X116091153Y-69500499D01*
X116091156Y-69500500D01*
X116091158Y-69500500D01*
X116248844Y-69500500D01*
X116248845Y-69500499D01*
X116403497Y-69469737D01*
X116549179Y-69409394D01*
X116680289Y-69321789D01*
X116791789Y-69210289D01*
X116879394Y-69079179D01*
X116899287Y-69031153D01*
X125809500Y-69031153D01*
X125809500Y-69188846D01*
X125840261Y-69343489D01*
X125840264Y-69343501D01*
X125900602Y-69489172D01*
X125900609Y-69489185D01*
X125988210Y-69620288D01*
X125988213Y-69620292D01*
X126099707Y-69731786D01*
X126099711Y-69731789D01*
X126230814Y-69819390D01*
X126230827Y-69819397D01*
X126376498Y-69879735D01*
X126376503Y-69879737D01*
X126479699Y-69900264D01*
X126531153Y-69910499D01*
X126531156Y-69910500D01*
X126531158Y-69910500D01*
X126688844Y-69910500D01*
X126824837Y-69883449D01*
X126824837Y-69883448D01*
X126843497Y-69879737D01*
X126961592Y-69830821D01*
X126989172Y-69819397D01*
X126989172Y-69819396D01*
X126989179Y-69819394D01*
X127120289Y-69731789D01*
X127231789Y-69620289D01*
X127319394Y-69489179D01*
X127379737Y-69343497D01*
X127410500Y-69188842D01*
X127410500Y-69039986D01*
X127430185Y-68972947D01*
X127482989Y-68927192D01*
X127552147Y-68917248D01*
X127581948Y-68925424D01*
X127616503Y-68939737D01*
X127771153Y-68970499D01*
X127771156Y-68970500D01*
X127771158Y-68970500D01*
X127928844Y-68970500D01*
X127928845Y-68970499D01*
X128083497Y-68939737D01*
X128229179Y-68879394D01*
X128360289Y-68791789D01*
X128471789Y-68680289D01*
X128559394Y-68549179D01*
X128619737Y-68403497D01*
X128650500Y-68248842D01*
X128650500Y-68091158D01*
X128650500Y-68091155D01*
X128650499Y-68091153D01*
X128628700Y-67981565D01*
X128619737Y-67936503D01*
X128617152Y-67930263D01*
X128559397Y-67790827D01*
X128559390Y-67790814D01*
X128471789Y-67659711D01*
X128471786Y-67659707D01*
X128360292Y-67548213D01*
X128360288Y-67548210D01*
X128229185Y-67460609D01*
X128229172Y-67460602D01*
X128083501Y-67400264D01*
X128083489Y-67400261D01*
X127928845Y-67369500D01*
X127928842Y-67369500D01*
X127771158Y-67369500D01*
X127771155Y-67369500D01*
X127616510Y-67400261D01*
X127616498Y-67400264D01*
X127470827Y-67460602D01*
X127470814Y-67460609D01*
X127339711Y-67548210D01*
X127339707Y-67548213D01*
X127228213Y-67659707D01*
X127228210Y-67659711D01*
X127140609Y-67790814D01*
X127140602Y-67790827D01*
X127080264Y-67936498D01*
X127080261Y-67936510D01*
X127049500Y-68091153D01*
X127049500Y-68240013D01*
X127029815Y-68307052D01*
X126977011Y-68352807D01*
X126907853Y-68362751D01*
X126878048Y-68354574D01*
X126843501Y-68340264D01*
X126843489Y-68340261D01*
X126688845Y-68309500D01*
X126688842Y-68309500D01*
X126531158Y-68309500D01*
X126531155Y-68309500D01*
X126376510Y-68340261D01*
X126376498Y-68340264D01*
X126230827Y-68400602D01*
X126230814Y-68400609D01*
X126099711Y-68488210D01*
X126099707Y-68488213D01*
X125988213Y-68599707D01*
X125988210Y-68599711D01*
X125900609Y-68730814D01*
X125900602Y-68730827D01*
X125840264Y-68876498D01*
X125840261Y-68876510D01*
X125809500Y-69031153D01*
X116899287Y-69031153D01*
X116910746Y-69003489D01*
X116921464Y-68977613D01*
X116924715Y-68969761D01*
X116939737Y-68933497D01*
X116970500Y-68778842D01*
X116970500Y-68621158D01*
X116970500Y-68621155D01*
X116970499Y-68621153D01*
X116960533Y-68571049D01*
X116939737Y-68466503D01*
X116913641Y-68403501D01*
X116879397Y-68320827D01*
X116879390Y-68320814D01*
X116791789Y-68189711D01*
X116791786Y-68189707D01*
X116680292Y-68078213D01*
X116680288Y-68078210D01*
X116549185Y-67990609D01*
X116549172Y-67990602D01*
X116403501Y-67930264D01*
X116403489Y-67930261D01*
X116248845Y-67899500D01*
X116248842Y-67899500D01*
X116091158Y-67899500D01*
X116091155Y-67899500D01*
X115936510Y-67930261D01*
X115936498Y-67930264D01*
X115790827Y-67990602D01*
X115790814Y-67990609D01*
X115659711Y-68078210D01*
X115659707Y-68078213D01*
X115548213Y-68189707D01*
X115548210Y-68189711D01*
X115460609Y-68320814D01*
X115460602Y-68320827D01*
X115400264Y-68466498D01*
X115400261Y-68466510D01*
X115369500Y-68621153D01*
X96524693Y-68621153D01*
X96529520Y-65311902D01*
X97319500Y-65311902D01*
X97319500Y-65548097D01*
X97356446Y-65781368D01*
X97429433Y-66005996D01*
X97524387Y-66192352D01*
X97536657Y-66216433D01*
X97675483Y-66407510D01*
X97842490Y-66574517D01*
X98033567Y-66713343D01*
X98132991Y-66764002D01*
X98244003Y-66820566D01*
X98244005Y-66820566D01*
X98244008Y-66820568D01*
X98364412Y-66859689D01*
X98468631Y-66893553D01*
X98701903Y-66930500D01*
X98701908Y-66930500D01*
X98938097Y-66930500D01*
X99171368Y-66893553D01*
X99183112Y-66889737D01*
X99395992Y-66820568D01*
X99606433Y-66713343D01*
X99797510Y-66574517D01*
X99964517Y-66407510D01*
X100103343Y-66216433D01*
X100210568Y-66005992D01*
X100283553Y-65781368D01*
X100300007Y-65677482D01*
X100320500Y-65548097D01*
X100320500Y-65311902D01*
X100283553Y-65078631D01*
X100210566Y-64854003D01*
X100103342Y-64643566D01*
X100097532Y-64635569D01*
X99964517Y-64452490D01*
X99797510Y-64285483D01*
X99606433Y-64146657D01*
X99395996Y-64039433D01*
X99171368Y-63966446D01*
X98938097Y-63929500D01*
X98938092Y-63929500D01*
X98701908Y-63929500D01*
X98701903Y-63929500D01*
X98468631Y-63966446D01*
X98244003Y-64039433D01*
X98033566Y-64146657D01*
X97976045Y-64188449D01*
X97842490Y-64285483D01*
X97842488Y-64285485D01*
X97842487Y-64285485D01*
X97675485Y-64452487D01*
X97675485Y-64452488D01*
X97675483Y-64452490D01*
X97649140Y-64488748D01*
X97536657Y-64643566D01*
X97429433Y-64854003D01*
X97356446Y-65078631D01*
X97319500Y-65311902D01*
X96529520Y-65311902D01*
X96530391Y-64714674D01*
X96530500Y-64713058D01*
X96530500Y-64644415D01*
X96530816Y-64635569D01*
X96532734Y-64608744D01*
X96545130Y-64435437D01*
X96547646Y-64417938D01*
X96589356Y-64226200D01*
X96594335Y-64209242D01*
X96662911Y-64025382D01*
X96670251Y-64009310D01*
X96764294Y-63837083D01*
X96773850Y-63822214D01*
X96891443Y-63665128D01*
X96903017Y-63651771D01*
X97041771Y-63513017D01*
X97055128Y-63501443D01*
X97212214Y-63383850D01*
X97227083Y-63374294D01*
X97399310Y-63280251D01*
X97415382Y-63272911D01*
X97599242Y-63204335D01*
X97616200Y-63199356D01*
X97807938Y-63157646D01*
X97825434Y-63155131D01*
X98025596Y-63140814D01*
X98034419Y-63140500D01*
X126812279Y-63147828D01*
G37*
%TD.AperFunction*%
%TD*%
M02*
