%TF.GenerationSoftware,KiCad,Pcbnew,10.0.6-10.0.6~ubuntu24.04.1*%
%TF.CreationDate,2026-08-29T14:17:59+02:00*%
%TF.ProjectId,Tutorial03-ESP32-IoT-4-layer-PCB,5475746f-7269-4616-9c30-332d45535033,rev?*%
%TF.SameCoordinates,Original*%
%TF.FileFunction,Copper,L4,Bot*%
%TF.FilePolarity,Positive*%
%FSLAX46Y46*%
G04 Gerber Fmt 4.6, Leading zero omitted, Abs format (unit mm)*
G04 Created by KiCad (PCBNEW 10.0.6-10.0.6~ubuntu24.04.1) date 2026-08-29 14:17:59*
%MOMM*%
%LPD*%
G01*
G04 APERTURE LIST*
%TA.AperFunction,ComponentPad*%
%ADD10R,1.700000X1.700000*%
%TD*%
%TA.AperFunction,ComponentPad*%
%ADD11C,1.700000*%
%TD*%
%TA.AperFunction,ComponentPad*%
%ADD12C,0.600000*%
%TD*%
%TA.AperFunction,ComponentPad*%
%ADD13C,0.650000*%
%TD*%
%TA.AperFunction,ComponentPad*%
%ADD14O,1.050000X2.100000*%
%TD*%
%TA.AperFunction,ComponentPad*%
%ADD15C,1.208000*%
%TD*%
%TA.AperFunction,ViaPad*%
%ADD16C,0.600000*%
%TD*%
%TA.AperFunction,Conductor*%
%ADD17C,0.300000*%
%TD*%
%TA.AperFunction,Conductor*%
%ADD18C,0.250000*%
%TD*%
%TA.AperFunction,Conductor*%
%ADD19C,0.200000*%
%TD*%
G04 APERTURE END LIST*
D10*
%TO.P,J4,1,Pin_1_1*%
%TO.N,+3.3V*%
X132174523Y-64720000D03*
D11*
%TO.P,J4,2,Pin_2_2*%
%TO.N,/ESP-32-C3-02/SCL*%
X129634523Y-64720000D03*
%TO.P,J4,3,Pin_3_3*%
%TO.N,/ESP-32-C3-02/SDA*%
X127094523Y-64720000D03*
%TO.P,J4,4,Pin_4_4*%
%TO.N,GND*%
X124554523Y-64720000D03*
%TD*%
D10*
%TO.P,J5,1,Pin_1_1*%
%TO.N,+3.3V*%
X180677260Y-86342409D03*
D11*
%TO.P,J5,2,Pin_2_2*%
%TO.N,/ESP-32-C3-02/GPIO8*%
X180677260Y-83802409D03*
%TO.P,J5,3,Pin_3_3*%
%TO.N,/ESP-32-C3-02/GPIO18*%
X180677260Y-81262409D03*
%TO.P,J5,4,Pin_4_4*%
%TO.N,/ESP-32-C3-02/GPIO19*%
X180677260Y-78722409D03*
%TO.P,J5,5,Pin_5_5*%
%TO.N,GND*%
X180677260Y-76182409D03*
%TD*%
D12*
%TO.P,U3,28,GND_28*%
%TO.N,GND*%
X165272500Y-75305000D03*
%TO.P,U3,29,GND_29*%
X166372500Y-75305000D03*
%TO.P,U3,30,GND_30*%
X164722500Y-75855000D03*
%TO.P,U3,31,GND_31*%
X165822500Y-75855000D03*
%TO.P,U3,32,GND_32*%
X166922500Y-75855000D03*
%TO.P,U3,33,GND_33*%
X165272500Y-76405000D03*
%TO.P,U3,34,GND_34*%
X166372500Y-76405000D03*
%TO.P,U3,35,GND_35*%
X164722500Y-76955000D03*
%TO.P,U3,36,GND_36*%
X165822500Y-76955000D03*
%TO.P,U3,37,GND_37*%
X166922500Y-76955000D03*
%TO.P,U3,38,GND_38*%
X165272500Y-77505000D03*
%TO.P,U3,39,GND_39*%
X166372500Y-77505000D03*
%TD*%
D13*
%TO.P,J1,B1,GNDB1_B1*%
%TO.N,GND*%
X135353250Y-107772500D03*
%TO.P,J1,B2,SSTXP2_B2*%
%TO.N,unconnected-(J1-SSTXP2-PadB2)*%
X134953250Y-108482500D03*
%TO.P,J1,B3,SSTXN2_B3*%
%TO.N,unconnected-(J1-SSTXN2-PadB3)*%
X134153250Y-108482500D03*
%TO.P,J1,B4,VBUSB1_B4*%
%TO.N,/VBUS*%
X133753250Y-107772500D03*
%TO.P,J1,B5,CC2_B5*%
%TO.N,Net-(J1-CC2)*%
X133353250Y-108482500D03*
%TO.P,J1,B6,DP2_B6*%
%TO.N,/USB_DP*%
X132953250Y-107772500D03*
%TO.P,J1,B7,DN2_B7*%
%TO.N,/USB_DN*%
X132153250Y-107772500D03*
%TO.P,J1,B8,SBU2_B8*%
%TO.N,unconnected-(J1-SBU2-PadB8)*%
X131753250Y-108482500D03*
%TO.P,J1,B9,VBUSB2_B9*%
%TO.N,/VBUS*%
X131353250Y-107772500D03*
%TO.P,J1,B10,SSRXN1_B10*%
%TO.N,unconnected-(J1-SSRXN1-PadB10)*%
X130953250Y-108482500D03*
%TO.P,J1,B11,SSRXP1_B11*%
%TO.N,unconnected-(J1-SSRXP1-PadB11)*%
X130153250Y-108482500D03*
%TO.P,J1,B12,GNDB2_B12*%
%TO.N,GND*%
X129753250Y-107772500D03*
%TO.P,J1,G1,GND/SHIELD_G1*%
X134553250Y-107772500D03*
%TO.P,J1,G2,GND/SHIELD_G2*%
X130553250Y-107772500D03*
D14*
%TO.P,J1,S1,GND/SHIELD_S1*%
X128283250Y-108922500D03*
%TO.P,J1,S2,GND/SHIELD_S2*%
X136823250Y-108922500D03*
%TO.P,J1,S3,GND/SHIELD_S3*%
X128283250Y-113652500D03*
%TO.P,J1,S4,GND/SHIELD_S4*%
X136823250Y-113652500D03*
%TD*%
D15*
%TO.P,MK1,GND*%
%TO.N,GND*%
X104700000Y-70510000D03*
%TO.P,MK1,OUT*%
%TO.N,Net-(C22-Pad1)*%
X106600000Y-70510000D03*
%TD*%
D16*
%TO.N,/ESP-32-C3-02/CS_SD*%
X168805000Y-72845000D03*
X170540000Y-85630000D03*
%TO.N,GND*%
X148330000Y-113200000D03*
X114420000Y-78110000D03*
X130700000Y-114820000D03*
X108860000Y-89120000D03*
X132580000Y-100410000D03*
X113720000Y-68640000D03*
X162830000Y-92780000D03*
X173190000Y-91060000D03*
X121990000Y-86130000D03*
X123550000Y-111390000D03*
X118465000Y-84560000D03*
X102980000Y-92183333D03*
X138105983Y-97040000D03*
X109500000Y-109720000D03*
X110780000Y-78710000D03*
X118860000Y-86130000D03*
X172470000Y-113160000D03*
X112810000Y-108810000D03*
X112820000Y-116010000D03*
X126600000Y-67360000D03*
X114940000Y-84540000D03*
X148580000Y-73520000D03*
X155310000Y-92680000D03*
X131145983Y-99829410D03*
X104640000Y-71560000D03*
X149510000Y-74370000D03*
X172970000Y-94620000D03*
X122470000Y-106860000D03*
X121250000Y-104830000D03*
X132560000Y-112650000D03*
X136830000Y-110590000D03*
X139260000Y-106410000D03*
X154270000Y-92680000D03*
X134515983Y-91499410D03*
X120227500Y-84590000D03*
X113280000Y-78710000D03*
X127909523Y-69880000D03*
X148090000Y-92460000D03*
X102980000Y-90646667D03*
X116702500Y-84520000D03*
X112820000Y-115340000D03*
X147630000Y-85900000D03*
X148090000Y-94660000D03*
X154480000Y-89020000D03*
X112810000Y-116730000D03*
X131625983Y-93749410D03*
X131470000Y-79730000D03*
X121990000Y-84650000D03*
X172480000Y-115210000D03*
X113700000Y-65120000D03*
X127800000Y-79900000D03*
X161700000Y-92750000D03*
X104400000Y-91140000D03*
X136000000Y-105400000D03*
X113320000Y-75760000D03*
X134760000Y-114930000D03*
X106120000Y-76750000D03*
X106810000Y-89120000D03*
X108860000Y-90350000D03*
X102940000Y-93720000D03*
X126397500Y-80820000D03*
X157500000Y-82180000D03*
X122490000Y-108940000D03*
X141120000Y-81550000D03*
X121990000Y-87600000D03*
X106810000Y-90350000D03*
X138890000Y-103820000D03*
X102980000Y-89110000D03*
X148330000Y-115270000D03*
%TO.N,+3.3V*%
X114310000Y-90700000D03*
X121880000Y-90310000D03*
X131595983Y-92459410D03*
X127850000Y-68170000D03*
X157770000Y-70210000D03*
X111550000Y-90710000D03*
X121890000Y-88800000D03*
X132174523Y-66120000D03*
X145460000Y-75150000D03*
X112410000Y-84900000D03*
X124740000Y-90620000D03*
X182860000Y-85740000D03*
X182870000Y-87010000D03*
X167310000Y-85700000D03*
X111660804Y-72363602D03*
X131510000Y-82440000D03*
X113410000Y-84890000D03*
X160360000Y-92770000D03*
X159190000Y-92760000D03*
X136975983Y-92229410D03*
X149660000Y-70670000D03*
X117630000Y-72940000D03*
X105860000Y-80360000D03*
X145450000Y-75980000D03*
X116170000Y-68700000D03*
X126610000Y-69110000D03*
X133830000Y-98470000D03*
X157040000Y-89030000D03*
%TO.N,/ESP-32-C3-02/PHOTO_C*%
X136660000Y-68770000D03*
X171975000Y-71665000D03*
%TO.N,/ESP-32-C3-02/SCL*%
X172220000Y-74592182D03*
X144910000Y-71880000D03*
%TO.N,/ESP-32-C3-02/SDA*%
X134750000Y-70090000D03*
X160680000Y-72500000D03*
%TO.N,/ESP-32-C3-02/CS*%
X169620000Y-81560000D03*
X141050000Y-78120000D03*
%TO.N,Net-(U6-DO(IO1))*%
X141020000Y-79010000D03*
X144320000Y-83640000D03*
%TO.N,/ESP-32-C3-02/MISO_DI*%
X148600000Y-81540000D03*
X175750000Y-89120000D03*
X164820000Y-89120000D03*
X152040000Y-80190000D03*
%TO.N,/ESP-32-C3-02/SCLK*%
X157280000Y-92740000D03*
X150500000Y-82350000D03*
%TO.N,Net-(LED5G1-K)*%
X125020000Y-100440000D03*
X126650000Y-90710000D03*
%TO.N,/ESP-32-C3-02/MIC_OUT*%
X154330000Y-74700000D03*
X139430000Y-74810000D03*
%TO.N,Net-(J3-DAT1)*%
X157730000Y-94580000D03*
X168560000Y-92500000D03*
%TO.N,/USB_DP*%
X130820000Y-103730000D03*
%TO.N,/VBUS*%
X129210000Y-104220000D03*
X129180000Y-102100000D03*
X134278681Y-105317205D03*
X136280000Y-106280000D03*
X134720000Y-102700000D03*
X130785983Y-105299410D03*
X129200000Y-103140000D03*
%TO.N,/USB_DN*%
X134430000Y-104050000D03*
%TO.N,Net-(U1-PROG3)*%
X115050000Y-111090000D03*
X120530000Y-113930000D03*
%TO.N,/ESP-32-C3-02/EN*%
X132790000Y-81450000D03*
X133020000Y-77120000D03*
X132208768Y-80358768D03*
%TO.N,Net-(U1-PROG1)*%
X115120000Y-110230000D03*
X116820000Y-110230000D03*
%TO.N,/ESP-32-C3-02/GPIO8*%
X162130000Y-79205000D03*
X165610000Y-82060000D03*
%TO.N,/+5V_USB*%
X111990000Y-98150000D03*
X117060000Y-102520000D03*
X117020000Y-103430000D03*
X123510000Y-103160000D03*
X123510000Y-104210000D03*
X118170000Y-106780000D03*
X123500000Y-102110000D03*
X118170000Y-105820000D03*
%TO.N,/ESP-32-C3-02/TX_RX*%
X127900000Y-96570000D03*
X175670000Y-80710000D03*
%TO.N,/ESP-32-C3-02/RX_TX*%
X175680000Y-79205000D03*
X128557108Y-95760000D03*
%TO.N,Net-(U1-THERM)*%
X118190000Y-108310000D03*
X113319810Y-105075000D03*
%TO.N,/ESP-32-C3-02/DTR*%
X139320000Y-82090000D03*
X139670000Y-79980000D03*
%TD*%
%TO.N,/ESP-32-C3-02/CS_SD*%
D17*
X168805000Y-72845000D02*
X170540000Y-74580000D01*
X170540000Y-74580000D02*
X170540000Y-85630000D01*
%TO.N,/ESP-32-C3-02/PHOTO_C*%
D18*
X171660000Y-69230000D02*
X171975000Y-69545000D01*
X137120000Y-69230000D02*
X171660000Y-69230000D01*
X136660000Y-68770000D02*
X137120000Y-69230000D01*
X171975000Y-71665000D02*
X171990000Y-71680000D01*
X171975000Y-69545000D02*
X171975000Y-71665000D01*
%TO.N,/ESP-32-C3-02/SCL*%
D17*
X160928529Y-71900000D02*
X160431471Y-71900000D01*
X172220000Y-74592182D02*
X171572182Y-74592182D01*
X160431471Y-71900000D02*
X160411471Y-71920000D01*
X144910000Y-71880000D02*
X144950000Y-71920000D01*
X171572182Y-74592182D02*
X171572182Y-74565786D01*
X171572182Y-74565786D02*
X168926396Y-71920000D01*
X168926396Y-71920000D02*
X160948529Y-71920000D01*
X160948529Y-71920000D02*
X160928529Y-71900000D01*
X144950000Y-71920000D02*
X160411471Y-71920000D01*
%TO.N,/ESP-32-C3-02/SDA*%
X160680000Y-72500000D02*
X160660000Y-72480000D01*
X156620000Y-72480000D02*
X156530000Y-72480000D01*
X159770000Y-73480000D02*
X159680000Y-73480000D01*
X158150000Y-72660000D02*
X158150000Y-73300000D01*
X157970000Y-73480000D02*
X157880000Y-73480000D01*
X159320000Y-72480000D02*
X159230000Y-72480000D01*
X158420000Y-72480000D02*
X158330000Y-72480000D01*
X157520000Y-72480000D02*
X157430000Y-72480000D01*
X158870000Y-73480000D02*
X158780000Y-73480000D01*
X157250000Y-72660000D02*
X157250000Y-73300000D01*
X159950000Y-72660000D02*
X159950000Y-73300000D01*
X159050000Y-72660000D02*
X159050000Y-73300000D01*
X156530000Y-72480000D02*
X156170000Y-72480000D01*
X157700000Y-73300000D02*
X157700000Y-72660000D01*
X158600000Y-73300000D02*
X158600000Y-72660000D01*
X157070000Y-73480000D02*
X156980000Y-73480000D01*
X159500000Y-73300000D02*
X159500000Y-72660000D01*
X156170000Y-72480000D02*
X137140000Y-72480000D01*
X160660000Y-72480000D02*
X160130000Y-72480000D01*
X137140000Y-72480000D02*
X134750000Y-70090000D01*
X156800000Y-73300000D02*
X156800000Y-72660000D01*
X157700000Y-72660000D02*
G75*
G03*
X157520000Y-72480000I-180000J0D01*
G01*
X157430000Y-72480000D02*
G75*
G03*
X157250000Y-72660000I0J-180000D01*
G01*
X160130000Y-72480000D02*
G75*
G03*
X159950000Y-72660000I0J-180000D01*
G01*
X158150000Y-73300000D02*
G75*
G02*
X157970000Y-73480000I-180000J0D01*
G01*
X159050000Y-73300000D02*
G75*
G02*
X158870000Y-73480000I-180000J0D01*
G01*
X157250000Y-73300000D02*
G75*
G02*
X157070000Y-73480000I-180000J0D01*
G01*
X158600000Y-72660000D02*
G75*
G03*
X158420000Y-72480000I-180000J0D01*
G01*
X158330000Y-72480000D02*
G75*
G03*
X158150000Y-72660000I0J-180000D01*
G01*
X156800000Y-72660000D02*
G75*
G03*
X156620000Y-72480000I-180000J0D01*
G01*
X157880000Y-73480000D02*
G75*
G02*
X157700000Y-73300000I0J180000D01*
G01*
X159950000Y-73300000D02*
G75*
G02*
X159770000Y-73480000I-180000J0D01*
G01*
X156980000Y-73480000D02*
G75*
G02*
X156800000Y-73300000I0J180000D01*
G01*
X159500000Y-72660000D02*
G75*
G03*
X159320000Y-72480000I-180000J0D01*
G01*
X158780000Y-73480000D02*
G75*
G02*
X158600000Y-73300000I0J180000D01*
G01*
X159230000Y-72480000D02*
G75*
G03*
X159050000Y-72660000I0J-180000D01*
G01*
X159680000Y-73480000D02*
G75*
G02*
X159500000Y-73300000I0J180000D01*
G01*
%TO.N,/ESP-32-C3-02/CS*%
X163470000Y-78510000D02*
X141440000Y-78510000D01*
X166520000Y-81560000D02*
X163470000Y-78510000D01*
X169620000Y-81560000D02*
X166520000Y-81560000D01*
X141440000Y-78510000D02*
X141050000Y-78120000D01*
%TO.N,Net-(U6-DO(IO1))*%
D19*
X144320000Y-80100000D02*
X143230000Y-79010000D01*
X141020000Y-79010000D02*
X140940000Y-79010000D01*
X144320000Y-83640000D02*
X144320000Y-80100000D01*
X143230000Y-79010000D02*
X141020000Y-79010000D01*
%TO.N,/ESP-32-C3-02/MISO_DI*%
D17*
X148600000Y-81540000D02*
X150690000Y-81540000D01*
X164820000Y-89120000D02*
X175750000Y-89120000D01*
X164800000Y-89100000D02*
X164820000Y-89120000D01*
X152880000Y-84690000D02*
X163580000Y-84690000D01*
X152100000Y-80250000D02*
X152100000Y-83910000D01*
X164800000Y-85910000D02*
X164800000Y-89100000D01*
X163580000Y-84690000D02*
X164800000Y-85910000D01*
X150690000Y-81540000D02*
X152040000Y-80190000D01*
X152040000Y-80190000D02*
X152100000Y-80250000D01*
X152100000Y-83910000D02*
X152880000Y-84690000D01*
%TO.N,/ESP-32-C3-02/SCLK*%
X157280000Y-92740000D02*
X157280000Y-93310000D01*
X157280000Y-93310000D02*
X155730000Y-94860000D01*
X153430000Y-94860000D02*
X150500000Y-91930000D01*
X155730000Y-94860000D02*
X153430000Y-94860000D01*
X150500000Y-91930000D02*
X150500000Y-82350000D01*
%TO.N,Net-(LED5G1-K)*%
D19*
X125020000Y-100440000D02*
X125460000Y-100440000D01*
X125860000Y-100040000D02*
X125860000Y-90930000D01*
X125460000Y-100440000D02*
X125860000Y-100040000D01*
X125860000Y-90930000D02*
X126080000Y-90710000D01*
X126080000Y-90710000D02*
X126650000Y-90710000D01*
%TO.N,/ESP-32-C3-02/MIC_OUT*%
D18*
X140385000Y-74525000D02*
X148471116Y-74525000D01*
X139430000Y-74810000D02*
X140100000Y-74810000D01*
X148471116Y-74525000D02*
X148941116Y-74995000D01*
X140100000Y-74810000D02*
X140385000Y-74525000D01*
X154035000Y-74995000D02*
X154330000Y-74700000D01*
X148941116Y-74995000D02*
X154035000Y-74995000D01*
%TO.N,Net-(J3-DAT1)*%
D19*
X157730000Y-94580000D02*
X167230000Y-94580000D01*
X167230000Y-94580000D02*
X168210000Y-93600000D01*
X168210000Y-92850000D02*
X168560000Y-92500000D01*
X168210000Y-93600000D02*
X168210000Y-92850000D01*
%TO.N,/USB_DN*%
X133530000Y-105380000D02*
X132153250Y-106756750D01*
X133530000Y-105020000D02*
X133530000Y-105380000D01*
X134430000Y-104050000D02*
X134430000Y-104120000D01*
X132153250Y-106756750D02*
X132153250Y-107772500D01*
X134430000Y-104120000D02*
X133530000Y-105020000D01*
%TO.N,Net-(U1-PROG3)*%
X115050000Y-111090000D02*
X117890000Y-113930000D01*
X117890000Y-113930000D02*
X120530000Y-113930000D01*
%TO.N,/ESP-32-C3-02/EN*%
D18*
X132320000Y-80470000D02*
X132320000Y-80980000D01*
X133020000Y-77120000D02*
X133020000Y-79547536D01*
X132208768Y-80358768D02*
X132320000Y-80470000D01*
X132320000Y-80980000D02*
X132790000Y-81450000D01*
X133020000Y-79547536D02*
X132208768Y-80358768D01*
%TO.N,Net-(U1-PROG1)*%
D19*
X115120000Y-110230000D02*
X116820000Y-110230000D01*
%TO.N,/ESP-32-C3-02/GPIO8*%
D18*
X165610000Y-82060000D02*
X164280000Y-80730000D01*
X162740000Y-79200000D02*
X162135000Y-79200000D01*
X164270000Y-80730000D02*
X162740000Y-79200000D01*
X162135000Y-79200000D02*
X162130000Y-79205000D01*
X164280000Y-80730000D02*
X164270000Y-80730000D01*
%TO.N,/ESP-32-C3-02/TX_RX*%
D19*
X173258529Y-95180000D02*
X174470000Y-95180000D01*
X174470000Y-95180000D02*
X178400000Y-91250000D01*
X148418529Y-95180000D02*
X153184315Y-95180000D01*
X128980000Y-95030000D02*
X129130000Y-95180000D01*
X147841471Y-95260000D02*
X148338529Y-95260000D01*
X178400000Y-91250000D02*
X178400000Y-81510000D01*
X172721471Y-95220000D02*
X173218529Y-95220000D01*
X129130000Y-95180000D02*
X147761471Y-95180000D01*
X173218529Y-95220000D02*
X173258529Y-95180000D01*
X127850000Y-95300000D02*
X128120000Y-95030000D01*
X177600000Y-80710000D02*
X175670000Y-80710000D01*
X127850000Y-96520000D02*
X127850000Y-95300000D01*
X147761471Y-95180000D02*
X147841471Y-95260000D01*
X127900000Y-96570000D02*
X127850000Y-96520000D01*
X155895685Y-95260000D02*
X155975686Y-95180000D01*
X148338529Y-95260000D02*
X148418529Y-95180000D01*
X128120000Y-95030000D02*
X128980000Y-95030000D01*
X155975686Y-95180000D02*
X172681471Y-95180000D01*
X172681471Y-95180000D02*
X172721471Y-95220000D01*
X178400000Y-81510000D02*
X177600000Y-80710000D01*
X153184315Y-95180000D02*
X153264314Y-95260000D01*
X153264314Y-95260000D02*
X155895685Y-95260000D01*
%TO.N,/ESP-32-C3-02/RX_TX*%
X178810000Y-81030000D02*
X178810000Y-91334974D01*
X128707108Y-95610000D02*
X128557108Y-95760000D01*
X176985000Y-79205000D02*
X178810000Y-81030000D01*
X175680000Y-79205000D02*
X176985000Y-79205000D01*
X178810000Y-91334974D02*
X174534974Y-95610000D01*
X174534974Y-95610000D02*
X128707108Y-95610000D01*
%TO.N,Net-(U1-THERM)*%
X116690000Y-108310000D02*
X113455000Y-105075000D01*
X116690000Y-108310000D02*
X118190000Y-108310000D01*
X113455000Y-105075000D02*
X113319810Y-105075000D01*
%TO.N,/ESP-32-C3-02/DTR*%
X139320000Y-80330000D02*
X139670000Y-79980000D01*
X139320000Y-82090000D02*
X139320000Y-80330000D01*
%TD*%
M02*
