%TF.GenerationSoftware,KiCad,Pcbnew,9.0.6*%
%TF.CreationDate,2025-11-19T10:10:41-08:00*%
%TF.ProjectId,Tutorial01,5475746f-7269-4616-9c30-312e6b696361,rev?*%
%TF.SameCoordinates,Original*%
%TF.FileFunction,Legend,Top*%
%TF.FilePolarity,Positive*%
%FSLAX46Y46*%
G04 Gerber Fmt 4.6, Leading zero omitted, Abs format (unit mm)*
G04 Created by KiCad (PCBNEW 9.0.6) date 2025-11-19 10:10:41*
%MOMM*%
%LPD*%
G01*
G04 APERTURE LIST*
%ADD10C,0.150000*%
%ADD11C,0.120000*%
G04 APERTURE END LIST*
D10*
X143809523Y-89859580D02*
X143761904Y-89907200D01*
X143761904Y-89907200D02*
X143619047Y-89954819D01*
X143619047Y-89954819D02*
X143523809Y-89954819D01*
X143523809Y-89954819D02*
X143380952Y-89907200D01*
X143380952Y-89907200D02*
X143285714Y-89811961D01*
X143285714Y-89811961D02*
X143238095Y-89716723D01*
X143238095Y-89716723D02*
X143190476Y-89526247D01*
X143190476Y-89526247D02*
X143190476Y-89383390D01*
X143190476Y-89383390D02*
X143238095Y-89192914D01*
X143238095Y-89192914D02*
X143285714Y-89097676D01*
X143285714Y-89097676D02*
X143380952Y-89002438D01*
X143380952Y-89002438D02*
X143523809Y-88954819D01*
X143523809Y-88954819D02*
X143619047Y-88954819D01*
X143619047Y-88954819D02*
X143761904Y-89002438D01*
X143761904Y-89002438D02*
X143809523Y-89050057D01*
X119131008Y-116583333D02*
X119178627Y-116440476D01*
X119178627Y-116440476D02*
X119226246Y-116392857D01*
X119226246Y-116392857D02*
X119321484Y-116345238D01*
X119321484Y-116345238D02*
X119464341Y-116345238D01*
X119464341Y-116345238D02*
X119559579Y-116392857D01*
X119559579Y-116392857D02*
X119607199Y-116440476D01*
X119607199Y-116440476D02*
X119654818Y-116535714D01*
X119654818Y-116535714D02*
X119654818Y-116916666D01*
X119654818Y-116916666D02*
X118654818Y-116916666D01*
X118654818Y-116916666D02*
X118654818Y-116583333D01*
X118654818Y-116583333D02*
X118702437Y-116488095D01*
X118702437Y-116488095D02*
X118750056Y-116440476D01*
X118750056Y-116440476D02*
X118845294Y-116392857D01*
X118845294Y-116392857D02*
X118940532Y-116392857D01*
X118940532Y-116392857D02*
X119035770Y-116440476D01*
X119035770Y-116440476D02*
X119083389Y-116488095D01*
X119083389Y-116488095D02*
X119131008Y-116583333D01*
X119131008Y-116583333D02*
X119131008Y-116916666D01*
X119654818Y-115488095D02*
X119131008Y-115488095D01*
X119131008Y-115488095D02*
X119035770Y-115535714D01*
X119035770Y-115535714D02*
X118988151Y-115630952D01*
X118988151Y-115630952D02*
X118988151Y-115821428D01*
X118988151Y-115821428D02*
X119035770Y-115916666D01*
X119607199Y-115488095D02*
X119654818Y-115583333D01*
X119654818Y-115583333D02*
X119654818Y-115821428D01*
X119654818Y-115821428D02*
X119607199Y-115916666D01*
X119607199Y-115916666D02*
X119511960Y-115964285D01*
X119511960Y-115964285D02*
X119416722Y-115964285D01*
X119416722Y-115964285D02*
X119321484Y-115916666D01*
X119321484Y-115916666D02*
X119273865Y-115821428D01*
X119273865Y-115821428D02*
X119273865Y-115583333D01*
X119273865Y-115583333D02*
X119226246Y-115488095D01*
X118988151Y-115154761D02*
X118988151Y-114773809D01*
X118654818Y-115011904D02*
X119511960Y-115011904D01*
X119511960Y-115011904D02*
X119607199Y-114964285D01*
X119607199Y-114964285D02*
X119654818Y-114869047D01*
X119654818Y-114869047D02*
X119654818Y-114773809D01*
X118988151Y-114583332D02*
X118988151Y-114202380D01*
X118654818Y-114440475D02*
X119511960Y-114440475D01*
X119511960Y-114440475D02*
X119607199Y-114392856D01*
X119607199Y-114392856D02*
X119654818Y-114297618D01*
X119654818Y-114297618D02*
X119654818Y-114202380D01*
X119607199Y-113488094D02*
X119654818Y-113583332D01*
X119654818Y-113583332D02*
X119654818Y-113773808D01*
X119654818Y-113773808D02*
X119607199Y-113869046D01*
X119607199Y-113869046D02*
X119511960Y-113916665D01*
X119511960Y-113916665D02*
X119131008Y-113916665D01*
X119131008Y-113916665D02*
X119035770Y-113869046D01*
X119035770Y-113869046D02*
X118988151Y-113773808D01*
X118988151Y-113773808D02*
X118988151Y-113583332D01*
X118988151Y-113583332D02*
X119035770Y-113488094D01*
X119035770Y-113488094D02*
X119131008Y-113440475D01*
X119131008Y-113440475D02*
X119226246Y-113440475D01*
X119226246Y-113440475D02*
X119321484Y-113916665D01*
X119654818Y-113011903D02*
X118988151Y-113011903D01*
X119178627Y-113011903D02*
X119083389Y-112964284D01*
X119083389Y-112964284D02*
X119035770Y-112916665D01*
X119035770Y-112916665D02*
X118988151Y-112821427D01*
X118988151Y-112821427D02*
X118988151Y-112726189D01*
X119654818Y-112392855D02*
X118988151Y-112392855D01*
X118654818Y-112392855D02*
X118702437Y-112440474D01*
X118702437Y-112440474D02*
X118750056Y-112392855D01*
X118750056Y-112392855D02*
X118702437Y-112345236D01*
X118702437Y-112345236D02*
X118654818Y-112392855D01*
X118654818Y-112392855D02*
X118750056Y-112392855D01*
X119607199Y-111535713D02*
X119654818Y-111630951D01*
X119654818Y-111630951D02*
X119654818Y-111821427D01*
X119654818Y-111821427D02*
X119607199Y-111916665D01*
X119607199Y-111916665D02*
X119511960Y-111964284D01*
X119511960Y-111964284D02*
X119131008Y-111964284D01*
X119131008Y-111964284D02*
X119035770Y-111916665D01*
X119035770Y-111916665D02*
X118988151Y-111821427D01*
X118988151Y-111821427D02*
X118988151Y-111630951D01*
X118988151Y-111630951D02*
X119035770Y-111535713D01*
X119035770Y-111535713D02*
X119131008Y-111488094D01*
X119131008Y-111488094D02*
X119226246Y-111488094D01*
X119226246Y-111488094D02*
X119321484Y-111964284D01*
X119654818Y-110535713D02*
X119654818Y-111107141D01*
X119654818Y-110821427D02*
X118654818Y-110821427D01*
X118654818Y-110821427D02*
X118797675Y-110916665D01*
X118797675Y-110916665D02*
X118892913Y-111011903D01*
X118892913Y-111011903D02*
X118940532Y-111107141D01*
X123614699Y-111571428D02*
X123614699Y-110428571D01*
X124186127Y-110999999D02*
X123043270Y-110999999D01*
X143238095Y-113954819D02*
X143238095Y-112954819D01*
X143238095Y-112954819D02*
X143476190Y-112954819D01*
X143476190Y-112954819D02*
X143619047Y-113002438D01*
X143619047Y-113002438D02*
X143714285Y-113097676D01*
X143714285Y-113097676D02*
X143761904Y-113192914D01*
X143761904Y-113192914D02*
X143809523Y-113383390D01*
X143809523Y-113383390D02*
X143809523Y-113526247D01*
X143809523Y-113526247D02*
X143761904Y-113716723D01*
X143761904Y-113716723D02*
X143714285Y-113811961D01*
X143714285Y-113811961D02*
X143619047Y-113907200D01*
X143619047Y-113907200D02*
X143476190Y-113954819D01*
X143476190Y-113954819D02*
X143238095Y-113954819D01*
X106690476Y-109954819D02*
X106690476Y-108954819D01*
X106690476Y-108954819D02*
X107023809Y-109669104D01*
X107023809Y-109669104D02*
X107357142Y-108954819D01*
X107357142Y-108954819D02*
X107357142Y-109954819D01*
X107738095Y-108954819D02*
X108357142Y-108954819D01*
X108357142Y-108954819D02*
X108023809Y-109335771D01*
X108023809Y-109335771D02*
X108166666Y-109335771D01*
X108166666Y-109335771D02*
X108261904Y-109383390D01*
X108261904Y-109383390D02*
X108309523Y-109431009D01*
X108309523Y-109431009D02*
X108357142Y-109526247D01*
X108357142Y-109526247D02*
X108357142Y-109764342D01*
X108357142Y-109764342D02*
X108309523Y-109859580D01*
X108309523Y-109859580D02*
X108261904Y-109907200D01*
X108261904Y-109907200D02*
X108166666Y-109954819D01*
X108166666Y-109954819D02*
X107880952Y-109954819D01*
X107880952Y-109954819D02*
X107785714Y-109907200D01*
X107785714Y-109907200D02*
X107738095Y-109859580D01*
X131991905Y-116914819D02*
X131991905Y-115914819D01*
X131991905Y-115914819D02*
X132230000Y-115914819D01*
X132230000Y-115914819D02*
X132372857Y-115962438D01*
X132372857Y-115962438D02*
X132468095Y-116057676D01*
X132468095Y-116057676D02*
X132515714Y-116152914D01*
X132515714Y-116152914D02*
X132563333Y-116343390D01*
X132563333Y-116343390D02*
X132563333Y-116486247D01*
X132563333Y-116486247D02*
X132515714Y-116676723D01*
X132515714Y-116676723D02*
X132468095Y-116771961D01*
X132468095Y-116771961D02*
X132372857Y-116867200D01*
X132372857Y-116867200D02*
X132230000Y-116914819D01*
X132230000Y-116914819D02*
X131991905Y-116914819D01*
X133515714Y-116914819D02*
X132944286Y-116914819D01*
X133230000Y-116914819D02*
X133230000Y-115914819D01*
X133230000Y-115914819D02*
X133134762Y-116057676D01*
X133134762Y-116057676D02*
X133039524Y-116152914D01*
X133039524Y-116152914D02*
X132944286Y-116200533D01*
X139084819Y-101086666D02*
X138608628Y-101419999D01*
X139084819Y-101658094D02*
X138084819Y-101658094D01*
X138084819Y-101658094D02*
X138084819Y-101277142D01*
X138084819Y-101277142D02*
X138132438Y-101181904D01*
X138132438Y-101181904D02*
X138180057Y-101134285D01*
X138180057Y-101134285D02*
X138275295Y-101086666D01*
X138275295Y-101086666D02*
X138418152Y-101086666D01*
X138418152Y-101086666D02*
X138513390Y-101134285D01*
X138513390Y-101134285D02*
X138561009Y-101181904D01*
X138561009Y-101181904D02*
X138608628Y-101277142D01*
X138608628Y-101277142D02*
X138608628Y-101658094D01*
X139084819Y-100134285D02*
X139084819Y-100705713D01*
X139084819Y-100419999D02*
X138084819Y-100419999D01*
X138084819Y-100419999D02*
X138227676Y-100515237D01*
X138227676Y-100515237D02*
X138322914Y-100610475D01*
X138322914Y-100610475D02*
X138370533Y-100705713D01*
D11*
%TO.C,Batterie1*%
X120499999Y-115950000D02*
X120499999Y-110250000D01*
X126499999Y-115950000D02*
X120499999Y-115950000D01*
X126499999Y-115950000D02*
X126499999Y-110250000D01*
X119999999Y-109500000D02*
G75*
G02*
X120499999Y-110250000I-312500J-750000D01*
G01*
X119999999Y-109500000D02*
G75*
G02*
X123499999Y-87054329I3499989J10949956D01*
G01*
X123499999Y-87054329D02*
G75*
G02*
X126999999Y-109500000I11J-11495715D01*
G01*
X126499999Y-110250000D02*
G75*
G02*
X126999999Y-109500000I812500J0D01*
G01*
%TO.C,D1*%
X134290000Y-112420000D02*
X134290000Y-112264000D01*
X134290000Y-114736000D02*
X134290000Y-114580000D01*
X131058563Y-112420000D02*
G75*
G02*
X134290000Y-112264484I1671437J-1080000D01*
G01*
X131689039Y-112420000D02*
G75*
G02*
X133770961Y-112420000I1040961J-1080000D01*
G01*
X133770961Y-114580000D02*
G75*
G02*
X131689039Y-114580000I-1040961J1080000D01*
G01*
X134290000Y-114735516D02*
G75*
G02*
X131058563Y-114580000I-1560000J1235516D01*
G01*
%TO.C,R1*%
X141000000Y-96880000D02*
X141000000Y-97650000D01*
X141000000Y-104960000D02*
X141000000Y-104190000D01*
X139630000Y-104190000D02*
X142370000Y-104190000D01*
X142370000Y-97650000D01*
X139630000Y-97650000D01*
X139630000Y-104190000D01*
%TD*%
M02*
