%TF.GenerationSoftware,KiCad,Pcbnew,9.0.6*%
%TF.CreationDate,2025-11-19T10:10:41-08:00*%
%TF.ProjectId,Tutorial01,5475746f-7269-4616-9c30-312e6b696361,rev?*%
%TF.SameCoordinates,Original*%
%TF.FileFunction,Legend,Bot*%
%TF.FilePolarity,Positive*%
%FSLAX46Y46*%
G04 Gerber Fmt 4.6, Leading zero omitted, Abs format (unit mm)*
G04 Created by KiCad (PCBNEW 9.0.6) date 2025-11-19 10:10:41*
%MOMM*%
%LPD*%
G01*
G04 APERTURE LIST*
%ADD10C,0.100000*%
%ADD11C,0.010000*%
G04 APERTURE END LIST*
D10*
X94107419Y-99726191D02*
X94107419Y-100345238D01*
X94107419Y-100345238D02*
X94488371Y-100011905D01*
X94488371Y-100011905D02*
X94488371Y-100154762D01*
X94488371Y-100154762D02*
X94535990Y-100250000D01*
X94535990Y-100250000D02*
X94583609Y-100297619D01*
X94583609Y-100297619D02*
X94678847Y-100345238D01*
X94678847Y-100345238D02*
X94916942Y-100345238D01*
X94916942Y-100345238D02*
X95012180Y-100297619D01*
X95012180Y-100297619D02*
X95059800Y-100250000D01*
X95059800Y-100250000D02*
X95107419Y-100154762D01*
X95107419Y-100154762D02*
X95107419Y-99869048D01*
X95107419Y-99869048D02*
X95059800Y-99773810D01*
X95059800Y-99773810D02*
X95012180Y-99726191D01*
X94202657Y-100726191D02*
X94155038Y-100773810D01*
X94155038Y-100773810D02*
X94107419Y-100869048D01*
X94107419Y-100869048D02*
X94107419Y-101107143D01*
X94107419Y-101107143D02*
X94155038Y-101202381D01*
X94155038Y-101202381D02*
X94202657Y-101250000D01*
X94202657Y-101250000D02*
X94297895Y-101297619D01*
X94297895Y-101297619D02*
X94393133Y-101297619D01*
X94393133Y-101297619D02*
X94535990Y-101250000D01*
X94535990Y-101250000D02*
X95107419Y-100678572D01*
X95107419Y-100678572D02*
X95107419Y-101297619D01*
X95012180Y-101726191D02*
X95059800Y-101773810D01*
X95059800Y-101773810D02*
X95107419Y-101726191D01*
X95107419Y-101726191D02*
X95059800Y-101678572D01*
X95059800Y-101678572D02*
X95012180Y-101726191D01*
X95012180Y-101726191D02*
X95107419Y-101726191D01*
X94107419Y-102678571D02*
X94107419Y-102202381D01*
X94107419Y-102202381D02*
X94583609Y-102154762D01*
X94583609Y-102154762D02*
X94535990Y-102202381D01*
X94535990Y-102202381D02*
X94488371Y-102297619D01*
X94488371Y-102297619D02*
X94488371Y-102535714D01*
X94488371Y-102535714D02*
X94535990Y-102630952D01*
X94535990Y-102630952D02*
X94583609Y-102678571D01*
X94583609Y-102678571D02*
X94678847Y-102726190D01*
X94678847Y-102726190D02*
X94916942Y-102726190D01*
X94916942Y-102726190D02*
X95012180Y-102678571D01*
X95012180Y-102678571D02*
X95059800Y-102630952D01*
X95059800Y-102630952D02*
X95107419Y-102535714D01*
X95107419Y-102535714D02*
X95107419Y-102297619D01*
X95107419Y-102297619D02*
X95059800Y-102202381D01*
X95059800Y-102202381D02*
X95012180Y-102154762D01*
X105000000Y-85000000D02*
X95163580Y-85000000D01*
X95163580Y-117500000D02*
X105000000Y-117500000D01*
X95750000Y-85000000D02*
X95750000Y-117500000D01*
X95750000Y-85000000D02*
X96336421Y-86126504D01*
X95750000Y-85000000D02*
X95163579Y-86126504D01*
X95750000Y-117500000D02*
X95163579Y-116373496D01*
X95750000Y-117500000D02*
X96336421Y-116373496D01*
X127249999Y-119690752D02*
X127249999Y-120357419D01*
X127488094Y-119309800D02*
X127726189Y-120024085D01*
X127726189Y-120024085D02*
X127107142Y-120024085D01*
X126773808Y-119452657D02*
X126726189Y-119405038D01*
X126726189Y-119405038D02*
X126630951Y-119357419D01*
X126630951Y-119357419D02*
X126392856Y-119357419D01*
X126392856Y-119357419D02*
X126297618Y-119405038D01*
X126297618Y-119405038D02*
X126249999Y-119452657D01*
X126249999Y-119452657D02*
X126202380Y-119547895D01*
X126202380Y-119547895D02*
X126202380Y-119643133D01*
X126202380Y-119643133D02*
X126249999Y-119785990D01*
X126249999Y-119785990D02*
X126821427Y-120357419D01*
X126821427Y-120357419D02*
X126202380Y-120357419D01*
X125773808Y-120262180D02*
X125726189Y-120309800D01*
X125726189Y-120309800D02*
X125773808Y-120357419D01*
X125773808Y-120357419D02*
X125821427Y-120309800D01*
X125821427Y-120309800D02*
X125773808Y-120262180D01*
X125773808Y-120262180D02*
X125773808Y-120357419D01*
X124821428Y-119357419D02*
X125297618Y-119357419D01*
X125297618Y-119357419D02*
X125345237Y-119833609D01*
X125345237Y-119833609D02*
X125297618Y-119785990D01*
X125297618Y-119785990D02*
X125202380Y-119738371D01*
X125202380Y-119738371D02*
X124964285Y-119738371D01*
X124964285Y-119738371D02*
X124869047Y-119785990D01*
X124869047Y-119785990D02*
X124821428Y-119833609D01*
X124821428Y-119833609D02*
X124773809Y-119928847D01*
X124773809Y-119928847D02*
X124773809Y-120166942D01*
X124773809Y-120166942D02*
X124821428Y-120262180D01*
X124821428Y-120262180D02*
X124869047Y-120309800D01*
X124869047Y-120309800D02*
X124964285Y-120357419D01*
X124964285Y-120357419D02*
X125202380Y-120357419D01*
X125202380Y-120357419D02*
X125297618Y-120309800D01*
X125297618Y-120309800D02*
X125345237Y-120262180D01*
X105000000Y-117500000D02*
X105000000Y-121586420D01*
X147500000Y-121586420D02*
X147500000Y-117500000D01*
X105000000Y-121000000D02*
X147500000Y-121000000D01*
X105000000Y-121000000D02*
X106126504Y-120413579D01*
X105000000Y-121000000D02*
X106126504Y-121586421D01*
X147500000Y-121000000D02*
X146373496Y-121586421D01*
X147500000Y-121000000D02*
X146373496Y-120413579D01*
D11*
%TO.C,REF\u002A\u002A*%
X119855406Y-101274949D02*
X119881127Y-101290647D01*
X119907778Y-101312227D01*
X119907778Y-101959684D01*
X119881127Y-101981264D01*
X119849767Y-101998739D01*
X119813966Y-101999575D01*
X119782528Y-101979082D01*
X119778652Y-101974416D01*
X119773186Y-101964949D01*
X119768979Y-101951267D01*
X119765867Y-101930748D01*
X119763687Y-101900768D01*
X119762276Y-101858704D01*
X119761471Y-101801932D01*
X119761107Y-101727830D01*
X119761022Y-101633773D01*
X119761022Y-101312227D01*
X119787673Y-101290647D01*
X119811386Y-101275877D01*
X119834400Y-101269067D01*
X119855406Y-101274949D01*
G36*
X119855406Y-101274949D02*
G01*
X119881127Y-101290647D01*
X119907778Y-101312227D01*
X119907778Y-101959684D01*
X119881127Y-101981264D01*
X119849767Y-101998739D01*
X119813966Y-101999575D01*
X119782528Y-101979082D01*
X119778652Y-101974416D01*
X119773186Y-101964949D01*
X119768979Y-101951267D01*
X119765867Y-101930748D01*
X119763687Y-101900768D01*
X119762276Y-101858704D01*
X119761471Y-101801932D01*
X119761107Y-101727830D01*
X119761022Y-101633773D01*
X119761022Y-101312227D01*
X119787673Y-101290647D01*
X119811386Y-101275877D01*
X119834400Y-101269067D01*
X119855406Y-101274949D01*
G37*
X126986137Y-101273463D02*
X127020291Y-101296776D01*
X127048000Y-101324485D01*
X127048000Y-101637537D01*
X127047959Y-101721567D01*
X127047701Y-101795789D01*
X127047030Y-101852541D01*
X127045752Y-101894512D01*
X127043673Y-101924389D01*
X127040599Y-101944861D01*
X127036334Y-101958614D01*
X127030684Y-101968337D01*
X127023455Y-101976717D01*
X126991991Y-101998181D01*
X126956826Y-101999947D01*
X126923822Y-101980267D01*
X126918516Y-101974398D01*
X126913066Y-101965314D01*
X126908900Y-101951973D01*
X126905846Y-101931757D01*
X126903732Y-101902049D01*
X126902386Y-101860232D01*
X126901638Y-101803689D01*
X126901314Y-101729802D01*
X126901245Y-101635956D01*
X126901284Y-101560294D01*
X126901539Y-101482385D01*
X126902183Y-101422375D01*
X126903387Y-101377648D01*
X126905324Y-101345585D01*
X126908164Y-101323571D01*
X126912079Y-101308987D01*
X126917242Y-101299218D01*
X126923822Y-101291645D01*
X126953006Y-101272623D01*
X126986137Y-101273463D01*
G36*
X126986137Y-101273463D02*
G01*
X127020291Y-101296776D01*
X127048000Y-101324485D01*
X127048000Y-101637537D01*
X127047959Y-101721567D01*
X127047701Y-101795789D01*
X127047030Y-101852541D01*
X127045752Y-101894512D01*
X127043673Y-101924389D01*
X127040599Y-101944861D01*
X127036334Y-101958614D01*
X127030684Y-101968337D01*
X127023455Y-101976717D01*
X126991991Y-101998181D01*
X126956826Y-101999947D01*
X126923822Y-101980267D01*
X126918516Y-101974398D01*
X126913066Y-101965314D01*
X126908900Y-101951973D01*
X126905846Y-101931757D01*
X126903732Y-101902049D01*
X126902386Y-101860232D01*
X126901638Y-101803689D01*
X126901314Y-101729802D01*
X126901245Y-101635956D01*
X126901284Y-101560294D01*
X126901539Y-101482385D01*
X126902183Y-101422375D01*
X126903387Y-101377648D01*
X126905324Y-101345585D01*
X126908164Y-101323571D01*
X126912079Y-101308987D01*
X126917242Y-101299218D01*
X126923822Y-101291645D01*
X126953006Y-101272623D01*
X126986137Y-101273463D01*
G37*
X126454562Y-96032850D02*
X126537313Y-96060053D01*
X126612406Y-96105484D01*
X126684298Y-96171302D01*
X126722846Y-96215567D01*
X126762256Y-96273961D01*
X126787446Y-96334586D01*
X126800861Y-96403865D01*
X126804948Y-96488222D01*
X126804669Y-96534307D01*
X126802460Y-96575450D01*
X126796894Y-96607582D01*
X126786586Y-96638122D01*
X126770148Y-96674489D01*
X126756200Y-96701728D01*
X126697665Y-96787429D01*
X126625619Y-96856617D01*
X126541947Y-96907741D01*
X126448531Y-96939250D01*
X126415434Y-96946225D01*
X126374960Y-96953094D01*
X126341999Y-96954919D01*
X126307698Y-96951947D01*
X126263200Y-96944426D01*
X126211934Y-96932002D01*
X126121434Y-96894112D01*
X126042345Y-96839836D01*
X125976528Y-96771770D01*
X125925840Y-96692511D01*
X125892140Y-96604654D01*
X125877286Y-96510795D01*
X125883136Y-96413530D01*
X125909399Y-96317220D01*
X125954418Y-96228494D01*
X126015373Y-96153419D01*
X126090184Y-96093641D01*
X126176768Y-96050809D01*
X126273043Y-96026571D01*
X126376928Y-96022576D01*
X126454562Y-96032850D01*
G36*
X126454562Y-96032850D02*
G01*
X126537313Y-96060053D01*
X126612406Y-96105484D01*
X126684298Y-96171302D01*
X126722846Y-96215567D01*
X126762256Y-96273961D01*
X126787446Y-96334586D01*
X126800861Y-96403865D01*
X126804948Y-96488222D01*
X126804669Y-96534307D01*
X126802460Y-96575450D01*
X126796894Y-96607582D01*
X126786586Y-96638122D01*
X126770148Y-96674489D01*
X126756200Y-96701728D01*
X126697665Y-96787429D01*
X126625619Y-96856617D01*
X126541947Y-96907741D01*
X126448531Y-96939250D01*
X126415434Y-96946225D01*
X126374960Y-96953094D01*
X126341999Y-96954919D01*
X126307698Y-96951947D01*
X126263200Y-96944426D01*
X126211934Y-96932002D01*
X126121434Y-96894112D01*
X126042345Y-96839836D01*
X125976528Y-96771770D01*
X125925840Y-96692511D01*
X125892140Y-96604654D01*
X125877286Y-96510795D01*
X125883136Y-96413530D01*
X125909399Y-96317220D01*
X125954418Y-96228494D01*
X126015373Y-96153419D01*
X126090184Y-96093641D01*
X126176768Y-96050809D01*
X126273043Y-96026571D01*
X126376928Y-96022576D01*
X126454562Y-96032850D01*
G37*
X119155767Y-101269068D02*
X119249890Y-101269158D01*
X119324405Y-101269498D01*
X119381811Y-101270239D01*
X119424611Y-101271535D01*
X119455304Y-101273537D01*
X119476391Y-101276396D01*
X119490373Y-101280266D01*
X119499750Y-101285298D01*
X119507022Y-101291645D01*
X119525828Y-101324362D01*
X119527275Y-101361939D01*
X119510917Y-101395178D01*
X119509557Y-101396631D01*
X119498354Y-101404992D01*
X119481252Y-101410547D01*
X119454082Y-101413840D01*
X119412678Y-101415418D01*
X119352873Y-101415822D01*
X119213511Y-101415822D01*
X119213511Y-101679589D01*
X119213436Y-101755417D01*
X119213028Y-101822083D01*
X119212046Y-101871867D01*
X119210250Y-101907784D01*
X119207399Y-101932850D01*
X119203253Y-101950081D01*
X119197571Y-101962492D01*
X119190114Y-101973100D01*
X119187824Y-101975906D01*
X119156646Y-101998548D01*
X119122266Y-102000112D01*
X119089334Y-101980267D01*
X119082355Y-101972191D01*
X119076883Y-101961593D01*
X119072863Y-101945749D01*
X119070072Y-101921773D01*
X119068288Y-101886774D01*
X119067289Y-101837864D01*
X119066852Y-101772154D01*
X119066756Y-101686756D01*
X119066756Y-101415822D01*
X118920820Y-101415822D01*
X118909720Y-101415821D01*
X118853202Y-101415596D01*
X118814358Y-101414457D01*
X118788965Y-101411657D01*
X118772804Y-101406450D01*
X118761652Y-101398089D01*
X118751289Y-101385826D01*
X118735441Y-101355138D01*
X118738543Y-101321358D01*
X118764187Y-101288822D01*
X118769129Y-101285105D01*
X118779338Y-101280269D01*
X118794764Y-101276506D01*
X118817886Y-101273683D01*
X118851183Y-101271670D01*
X118897137Y-101270333D01*
X118958228Y-101269542D01*
X119036935Y-101269163D01*
X119135740Y-101269067D01*
X119155767Y-101269068D01*
G36*
X119155767Y-101269068D02*
G01*
X119249890Y-101269158D01*
X119324405Y-101269498D01*
X119381811Y-101270239D01*
X119424611Y-101271535D01*
X119455304Y-101273537D01*
X119476391Y-101276396D01*
X119490373Y-101280266D01*
X119499750Y-101285298D01*
X119507022Y-101291645D01*
X119525828Y-101324362D01*
X119527275Y-101361939D01*
X119510917Y-101395178D01*
X119509557Y-101396631D01*
X119498354Y-101404992D01*
X119481252Y-101410547D01*
X119454082Y-101413840D01*
X119412678Y-101415418D01*
X119352873Y-101415822D01*
X119213511Y-101415822D01*
X119213511Y-101679589D01*
X119213436Y-101755417D01*
X119213028Y-101822083D01*
X119212046Y-101871867D01*
X119210250Y-101907784D01*
X119207399Y-101932850D01*
X119203253Y-101950081D01*
X119197571Y-101962492D01*
X119190114Y-101973100D01*
X119187824Y-101975906D01*
X119156646Y-101998548D01*
X119122266Y-102000112D01*
X119089334Y-101980267D01*
X119082355Y-101972191D01*
X119076883Y-101961593D01*
X119072863Y-101945749D01*
X119070072Y-101921773D01*
X119068288Y-101886774D01*
X119067289Y-101837864D01*
X119066852Y-101772154D01*
X119066756Y-101686756D01*
X119066756Y-101415822D01*
X118920820Y-101415822D01*
X118909720Y-101415821D01*
X118853202Y-101415596D01*
X118814358Y-101414457D01*
X118788965Y-101411657D01*
X118772804Y-101406450D01*
X118761652Y-101398089D01*
X118751289Y-101385826D01*
X118735441Y-101355138D01*
X118738543Y-101321358D01*
X118764187Y-101288822D01*
X118769129Y-101285105D01*
X118779338Y-101280269D01*
X118794764Y-101276506D01*
X118817886Y-101273683D01*
X118851183Y-101271670D01*
X118897137Y-101270333D01*
X118958228Y-101269542D01*
X119036935Y-101269163D01*
X119135740Y-101269067D01*
X119155767Y-101269068D01*
G37*
X118479734Y-101291645D02*
X118485366Y-101297835D01*
X118490456Y-101306041D01*
X118494543Y-101317817D01*
X118497721Y-101335276D01*
X118500087Y-101360530D01*
X118501738Y-101395690D01*
X118502769Y-101442869D01*
X118503277Y-101504177D01*
X118503359Y-101581727D01*
X118503109Y-101677631D01*
X118502625Y-101794000D01*
X118502557Y-101808175D01*
X118501971Y-101869937D01*
X118500648Y-101913620D01*
X118498103Y-101943001D01*
X118493848Y-101961855D01*
X118487396Y-101973959D01*
X118478262Y-101983089D01*
X118444804Y-102000506D01*
X118409856Y-101997604D01*
X118378953Y-101973100D01*
X118369944Y-101959897D01*
X118362492Y-101941361D01*
X118358124Y-101915333D01*
X118356069Y-101876787D01*
X118355556Y-101820700D01*
X118355556Y-101698045D01*
X117858845Y-101698045D01*
X117858845Y-101832871D01*
X117858772Y-101868662D01*
X117858009Y-101914992D01*
X117855833Y-101945526D01*
X117851536Y-101964557D01*
X117844412Y-101976374D01*
X117833755Y-101985271D01*
X117801504Y-102000341D01*
X117766217Y-101997673D01*
X117735486Y-101973100D01*
X117730831Y-101966845D01*
X117724895Y-101956321D01*
X117720364Y-101942391D01*
X117717048Y-101922317D01*
X117714759Y-101893360D01*
X117713308Y-101852780D01*
X117712505Y-101797840D01*
X117712162Y-101725799D01*
X117712089Y-101633920D01*
X117712089Y-101324485D01*
X117739798Y-101296776D01*
X117771177Y-101274533D01*
X117804406Y-101271844D01*
X117836267Y-101291645D01*
X117844553Y-101301415D01*
X117851965Y-101317307D01*
X117856302Y-101341275D01*
X117858338Y-101378148D01*
X117858845Y-101432756D01*
X117858845Y-101551289D01*
X118355556Y-101551289D01*
X118355556Y-101435776D01*
X118355994Y-101384078D01*
X118357958Y-101349554D01*
X118362474Y-101326978D01*
X118370567Y-101311126D01*
X118383265Y-101296776D01*
X118414643Y-101274533D01*
X118447872Y-101271844D01*
X118479734Y-101291645D01*
G36*
X118479734Y-101291645D02*
G01*
X118485366Y-101297835D01*
X118490456Y-101306041D01*
X118494543Y-101317817D01*
X118497721Y-101335276D01*
X118500087Y-101360530D01*
X118501738Y-101395690D01*
X118502769Y-101442869D01*
X118503277Y-101504177D01*
X118503359Y-101581727D01*
X118503109Y-101677631D01*
X118502625Y-101794000D01*
X118502557Y-101808175D01*
X118501971Y-101869937D01*
X118500648Y-101913620D01*
X118498103Y-101943001D01*
X118493848Y-101961855D01*
X118487396Y-101973959D01*
X118478262Y-101983089D01*
X118444804Y-102000506D01*
X118409856Y-101997604D01*
X118378953Y-101973100D01*
X118369944Y-101959897D01*
X118362492Y-101941361D01*
X118358124Y-101915333D01*
X118356069Y-101876787D01*
X118355556Y-101820700D01*
X118355556Y-101698045D01*
X117858845Y-101698045D01*
X117858845Y-101832871D01*
X117858772Y-101868662D01*
X117858009Y-101914992D01*
X117855833Y-101945526D01*
X117851536Y-101964557D01*
X117844412Y-101976374D01*
X117833755Y-101985271D01*
X117801504Y-102000341D01*
X117766217Y-101997673D01*
X117735486Y-101973100D01*
X117730831Y-101966845D01*
X117724895Y-101956321D01*
X117720364Y-101942391D01*
X117717048Y-101922317D01*
X117714759Y-101893360D01*
X117713308Y-101852780D01*
X117712505Y-101797840D01*
X117712162Y-101725799D01*
X117712089Y-101633920D01*
X117712089Y-101324485D01*
X117739798Y-101296776D01*
X117771177Y-101274533D01*
X117804406Y-101271844D01*
X117836267Y-101291645D01*
X117844553Y-101301415D01*
X117851965Y-101317307D01*
X117856302Y-101341275D01*
X117858338Y-101378148D01*
X117858845Y-101432756D01*
X117858845Y-101551289D01*
X118355556Y-101551289D01*
X118355556Y-101435776D01*
X118355994Y-101384078D01*
X118357958Y-101349554D01*
X118362474Y-101326978D01*
X118370567Y-101311126D01*
X118383265Y-101296776D01*
X118414643Y-101274533D01*
X118447872Y-101271844D01*
X118479734Y-101291645D01*
G37*
X123185133Y-101880396D02*
X123183163Y-101913175D01*
X123180235Y-101936095D01*
X123176158Y-101951897D01*
X123170743Y-101963319D01*
X123163803Y-101973100D01*
X123140406Y-102002845D01*
X122974714Y-102002251D01*
X122939918Y-102001953D01*
X122841435Y-101998522D01*
X122760473Y-101990839D01*
X122693379Y-101978282D01*
X122636496Y-101960227D01*
X122586169Y-101936052D01*
X122582810Y-101934135D01*
X122524998Y-101897417D01*
X122482644Y-101860451D01*
X122449828Y-101816966D01*
X122420628Y-101760689D01*
X122416346Y-101751073D01*
X122393769Y-101687887D01*
X122388034Y-101642333D01*
X122537279Y-101642333D01*
X122542892Y-101667061D01*
X122548618Y-101682939D01*
X122581548Y-101742847D01*
X122628886Y-101788600D01*
X122692652Y-101821736D01*
X122774861Y-101843790D01*
X122777655Y-101844292D01*
X122823940Y-101850255D01*
X122880336Y-101854483D01*
X122935274Y-101856089D01*
X123029156Y-101856089D01*
X123029156Y-101415822D01*
X122941667Y-101416270D01*
X122874747Y-101418746D01*
X122782349Y-101429998D01*
X122703034Y-101449537D01*
X122641060Y-101476511D01*
X122610120Y-101497240D01*
X122582000Y-101527006D01*
X122558660Y-101569434D01*
X122551533Y-101585400D01*
X122539709Y-101617902D01*
X122537279Y-101642333D01*
X122388034Y-101642333D01*
X122386797Y-101632509D01*
X122395399Y-101577483D01*
X122419541Y-101515351D01*
X122420337Y-101513658D01*
X122460788Y-101444236D01*
X122511473Y-101387638D01*
X122574198Y-101343070D01*
X122650774Y-101309741D01*
X122743009Y-101286861D01*
X122852712Y-101273636D01*
X122981691Y-101269275D01*
X122985263Y-101269270D01*
X123045283Y-101269410D01*
X123087214Y-101270446D01*
X123115328Y-101273040D01*
X123133897Y-101277853D01*
X123147194Y-101285544D01*
X123159491Y-101296776D01*
X123187200Y-101324485D01*
X123187200Y-101633920D01*
X123187175Y-101695526D01*
X123186950Y-101774311D01*
X123186332Y-101835021D01*
X123185775Y-101856089D01*
X123185133Y-101880396D01*
G36*
X123185133Y-101880396D02*
G01*
X123183163Y-101913175D01*
X123180235Y-101936095D01*
X123176158Y-101951897D01*
X123170743Y-101963319D01*
X123163803Y-101973100D01*
X123140406Y-102002845D01*
X122974714Y-102002251D01*
X122939918Y-102001953D01*
X122841435Y-101998522D01*
X122760473Y-101990839D01*
X122693379Y-101978282D01*
X122636496Y-101960227D01*
X122586169Y-101936052D01*
X122582810Y-101934135D01*
X122524998Y-101897417D01*
X122482644Y-101860451D01*
X122449828Y-101816966D01*
X122420628Y-101760689D01*
X122416346Y-101751073D01*
X122393769Y-101687887D01*
X122388034Y-101642333D01*
X122537279Y-101642333D01*
X122542892Y-101667061D01*
X122548618Y-101682939D01*
X122581548Y-101742847D01*
X122628886Y-101788600D01*
X122692652Y-101821736D01*
X122774861Y-101843790D01*
X122777655Y-101844292D01*
X122823940Y-101850255D01*
X122880336Y-101854483D01*
X122935274Y-101856089D01*
X123029156Y-101856089D01*
X123029156Y-101415822D01*
X122941667Y-101416270D01*
X122874747Y-101418746D01*
X122782349Y-101429998D01*
X122703034Y-101449537D01*
X122641060Y-101476511D01*
X122610120Y-101497240D01*
X122582000Y-101527006D01*
X122558660Y-101569434D01*
X122551533Y-101585400D01*
X122539709Y-101617902D01*
X122537279Y-101642333D01*
X122388034Y-101642333D01*
X122386797Y-101632509D01*
X122395399Y-101577483D01*
X122419541Y-101515351D01*
X122420337Y-101513658D01*
X122460788Y-101444236D01*
X122511473Y-101387638D01*
X122574198Y-101343070D01*
X122650774Y-101309741D01*
X122743009Y-101286861D01*
X122852712Y-101273636D01*
X122981691Y-101269275D01*
X122985263Y-101269270D01*
X123045283Y-101269410D01*
X123087214Y-101270446D01*
X123115328Y-101273040D01*
X123133897Y-101277853D01*
X123147194Y-101285544D01*
X123159491Y-101296776D01*
X123187200Y-101324485D01*
X123187200Y-101633920D01*
X123187175Y-101695526D01*
X123186950Y-101774311D01*
X123186332Y-101835021D01*
X123185775Y-101856089D01*
X123185133Y-101880396D01*
G37*
X130276817Y-101454427D02*
X130276870Y-101535041D01*
X130276622Y-101635956D01*
X130276583Y-101711617D01*
X130276328Y-101789526D01*
X130275684Y-101849536D01*
X130274480Y-101894264D01*
X130272543Y-101926326D01*
X130269703Y-101948340D01*
X130265788Y-101962924D01*
X130260626Y-101972694D01*
X130254045Y-101980267D01*
X130247077Y-101986501D01*
X130234079Y-101993801D01*
X130214931Y-101998554D01*
X130185528Y-102001292D01*
X130141762Y-102002545D01*
X130079528Y-102002845D01*
X130030582Y-102002469D01*
X129923722Y-101998041D01*
X129834494Y-101987953D01*
X129759696Y-101971365D01*
X129696125Y-101947435D01*
X129640579Y-101915321D01*
X129589854Y-101874182D01*
X129583866Y-101868330D01*
X129546999Y-101819821D01*
X129515899Y-101759013D01*
X129494417Y-101694769D01*
X129489136Y-101656026D01*
X129636353Y-101656026D01*
X129654635Y-101706961D01*
X129684305Y-101752878D01*
X129731002Y-101795287D01*
X129792392Y-101825090D01*
X129871538Y-101844226D01*
X129873028Y-101844464D01*
X129921999Y-101850256D01*
X129980693Y-101854396D01*
X130036734Y-101856004D01*
X130129867Y-101856089D01*
X130129867Y-101415822D01*
X130053667Y-101415808D01*
X130050639Y-101415817D01*
X129999519Y-101417782D01*
X129939416Y-101422507D01*
X129882708Y-101429035D01*
X129832750Y-101438331D01*
X129757998Y-101464600D01*
X129700489Y-101503899D01*
X129658988Y-101556933D01*
X129637771Y-101608200D01*
X129636353Y-101656026D01*
X129489136Y-101656026D01*
X129486400Y-101635956D01*
X129487679Y-101614739D01*
X129499991Y-101557323D01*
X129522520Y-101497413D01*
X129551750Y-101443363D01*
X129584167Y-101403532D01*
X129603708Y-101386510D01*
X129658420Y-101347322D01*
X129718723Y-101317193D01*
X129787919Y-101295232D01*
X129869311Y-101280550D01*
X129966200Y-101272259D01*
X130081889Y-101269467D01*
X130121371Y-101269066D01*
X130167082Y-101268653D01*
X130202883Y-101270457D01*
X130229974Y-101276739D01*
X130249556Y-101289759D01*
X130262830Y-101311778D01*
X130270998Y-101345055D01*
X130275260Y-101391851D01*
X130275857Y-101415822D01*
X130276817Y-101454427D01*
G36*
X130276817Y-101454427D02*
G01*
X130276870Y-101535041D01*
X130276622Y-101635956D01*
X130276583Y-101711617D01*
X130276328Y-101789526D01*
X130275684Y-101849536D01*
X130274480Y-101894264D01*
X130272543Y-101926326D01*
X130269703Y-101948340D01*
X130265788Y-101962924D01*
X130260626Y-101972694D01*
X130254045Y-101980267D01*
X130247077Y-101986501D01*
X130234079Y-101993801D01*
X130214931Y-101998554D01*
X130185528Y-102001292D01*
X130141762Y-102002545D01*
X130079528Y-102002845D01*
X130030582Y-102002469D01*
X129923722Y-101998041D01*
X129834494Y-101987953D01*
X129759696Y-101971365D01*
X129696125Y-101947435D01*
X129640579Y-101915321D01*
X129589854Y-101874182D01*
X129583866Y-101868330D01*
X129546999Y-101819821D01*
X129515899Y-101759013D01*
X129494417Y-101694769D01*
X129489136Y-101656026D01*
X129636353Y-101656026D01*
X129654635Y-101706961D01*
X129684305Y-101752878D01*
X129731002Y-101795287D01*
X129792392Y-101825090D01*
X129871538Y-101844226D01*
X129873028Y-101844464D01*
X129921999Y-101850256D01*
X129980693Y-101854396D01*
X130036734Y-101856004D01*
X130129867Y-101856089D01*
X130129867Y-101415822D01*
X130053667Y-101415808D01*
X130050639Y-101415817D01*
X129999519Y-101417782D01*
X129939416Y-101422507D01*
X129882708Y-101429035D01*
X129832750Y-101438331D01*
X129757998Y-101464600D01*
X129700489Y-101503899D01*
X129658988Y-101556933D01*
X129637771Y-101608200D01*
X129636353Y-101656026D01*
X129489136Y-101656026D01*
X129486400Y-101635956D01*
X129487679Y-101614739D01*
X129499991Y-101557323D01*
X129522520Y-101497413D01*
X129551750Y-101443363D01*
X129584167Y-101403532D01*
X129603708Y-101386510D01*
X129658420Y-101347322D01*
X129718723Y-101317193D01*
X129787919Y-101295232D01*
X129869311Y-101280550D01*
X129966200Y-101272259D01*
X130081889Y-101269467D01*
X130121371Y-101269066D01*
X130167082Y-101268653D01*
X130202883Y-101270457D01*
X130229974Y-101276739D01*
X130249556Y-101289759D01*
X130262830Y-101311778D01*
X130270998Y-101345055D01*
X130275260Y-101391851D01*
X130275857Y-101415822D01*
X130276817Y-101454427D01*
G37*
X125331893Y-101267892D02*
X125343301Y-101274029D01*
X125353850Y-101284691D01*
X125365136Y-101298811D01*
X125369589Y-101304772D01*
X125375588Y-101315268D01*
X125380167Y-101329093D01*
X125383519Y-101348998D01*
X125385833Y-101377732D01*
X125387301Y-101418045D01*
X125388113Y-101472687D01*
X125388460Y-101544407D01*
X125388534Y-101635956D01*
X125388511Y-101694486D01*
X125388292Y-101773573D01*
X125387683Y-101834516D01*
X125386492Y-101880062D01*
X125384529Y-101912963D01*
X125381603Y-101935968D01*
X125377523Y-101951826D01*
X125372097Y-101963286D01*
X125365136Y-101973100D01*
X125334708Y-101997493D01*
X125299765Y-102000372D01*
X125262784Y-101981282D01*
X125258600Y-101977807D01*
X125250424Y-101969279D01*
X125244364Y-101957728D01*
X125239981Y-101939896D01*
X125236839Y-101912524D01*
X125234502Y-101872354D01*
X125232531Y-101816128D01*
X125230489Y-101740589D01*
X125224845Y-101521458D01*
X124959556Y-101762099D01*
X124885722Y-101828875D01*
X124820542Y-101886991D01*
X124768348Y-101931949D01*
X124727273Y-101964871D01*
X124695455Y-101986879D01*
X124671026Y-101999094D01*
X124652124Y-102002639D01*
X124636883Y-101998636D01*
X124623439Y-101988207D01*
X124609927Y-101972474D01*
X124603682Y-101963991D01*
X124598050Y-101953413D01*
X124593839Y-101939255D01*
X124590887Y-101918803D01*
X124589032Y-101889342D01*
X124588113Y-101848161D01*
X124587968Y-101792544D01*
X124588435Y-101719779D01*
X124589352Y-101627151D01*
X124592667Y-101312199D01*
X124619318Y-101290633D01*
X124645383Y-101274441D01*
X124678241Y-101271670D01*
X124712772Y-101290623D01*
X124717084Y-101294208D01*
X124725216Y-101302737D01*
X124731245Y-101314329D01*
X124735606Y-101332235D01*
X124738734Y-101359706D01*
X124741063Y-101399994D01*
X124743029Y-101456351D01*
X124745067Y-101532029D01*
X124750711Y-101751878D01*
X124931334Y-101588084D01*
X125018072Y-101509451D01*
X125093843Y-101441058D01*
X125155980Y-101385708D01*
X125206078Y-101342338D01*
X125245735Y-101309881D01*
X125276548Y-101287273D01*
X125300114Y-101273448D01*
X125318030Y-101267343D01*
X125331893Y-101267892D01*
G36*
X125331893Y-101267892D02*
G01*
X125343301Y-101274029D01*
X125353850Y-101284691D01*
X125365136Y-101298811D01*
X125369589Y-101304772D01*
X125375588Y-101315268D01*
X125380167Y-101329093D01*
X125383519Y-101348998D01*
X125385833Y-101377732D01*
X125387301Y-101418045D01*
X125388113Y-101472687D01*
X125388460Y-101544407D01*
X125388534Y-101635956D01*
X125388511Y-101694486D01*
X125388292Y-101773573D01*
X125387683Y-101834516D01*
X125386492Y-101880062D01*
X125384529Y-101912963D01*
X125381603Y-101935968D01*
X125377523Y-101951826D01*
X125372097Y-101963286D01*
X125365136Y-101973100D01*
X125334708Y-101997493D01*
X125299765Y-102000372D01*
X125262784Y-101981282D01*
X125258600Y-101977807D01*
X125250424Y-101969279D01*
X125244364Y-101957728D01*
X125239981Y-101939896D01*
X125236839Y-101912524D01*
X125234502Y-101872354D01*
X125232531Y-101816128D01*
X125230489Y-101740589D01*
X125224845Y-101521458D01*
X124959556Y-101762099D01*
X124885722Y-101828875D01*
X124820542Y-101886991D01*
X124768348Y-101931949D01*
X124727273Y-101964871D01*
X124695455Y-101986879D01*
X124671026Y-101999094D01*
X124652124Y-102002639D01*
X124636883Y-101998636D01*
X124623439Y-101988207D01*
X124609927Y-101972474D01*
X124603682Y-101963991D01*
X124598050Y-101953413D01*
X124593839Y-101939255D01*
X124590887Y-101918803D01*
X124589032Y-101889342D01*
X124588113Y-101848161D01*
X124587968Y-101792544D01*
X124588435Y-101719779D01*
X124589352Y-101627151D01*
X124592667Y-101312199D01*
X124619318Y-101290633D01*
X124645383Y-101274441D01*
X124678241Y-101271670D01*
X124712772Y-101290623D01*
X124717084Y-101294208D01*
X124725216Y-101302737D01*
X124731245Y-101314329D01*
X124735606Y-101332235D01*
X124738734Y-101359706D01*
X124741063Y-101399994D01*
X124743029Y-101456351D01*
X124745067Y-101532029D01*
X124750711Y-101751878D01*
X124931334Y-101588084D01*
X125018072Y-101509451D01*
X125093843Y-101441058D01*
X125155980Y-101385708D01*
X125206078Y-101342338D01*
X125245735Y-101309881D01*
X125276548Y-101287273D01*
X125300114Y-101273448D01*
X125318030Y-101267343D01*
X125331893Y-101267892D01*
G37*
X126129150Y-101274179D02*
X126235157Y-101290494D01*
X126328969Y-101318545D01*
X126407765Y-101357452D01*
X126468719Y-101406334D01*
X126494789Y-101439195D01*
X126524297Y-101488394D01*
X126549568Y-101542252D01*
X126567218Y-101593419D01*
X126573858Y-101634544D01*
X126572298Y-101654259D01*
X126559357Y-101705592D01*
X126536194Y-101762118D01*
X126506302Y-101816035D01*
X126473173Y-101859539D01*
X126462977Y-101869887D01*
X126395892Y-101921662D01*
X126315766Y-101961554D01*
X126229556Y-101985956D01*
X126174592Y-101994068D01*
X126081139Y-102000673D01*
X125991358Y-101998586D01*
X125908869Y-101988340D01*
X125837286Y-101970470D01*
X125780228Y-101945508D01*
X125741311Y-101913988D01*
X125739936Y-101912012D01*
X125732848Y-101886786D01*
X125728609Y-101839535D01*
X125727200Y-101770071D01*
X125728060Y-101707838D01*
X125732780Y-101660456D01*
X125744470Y-101628353D01*
X125766239Y-101608800D01*
X125801198Y-101599070D01*
X125852456Y-101596433D01*
X125923123Y-101598161D01*
X125971743Y-101601173D01*
X126021939Y-101609366D01*
X126054433Y-101623419D01*
X126071892Y-101644654D01*
X126076983Y-101674394D01*
X126076877Y-101678936D01*
X126068175Y-101713730D01*
X126044165Y-101737147D01*
X126002900Y-101750347D01*
X125942431Y-101754489D01*
X125873956Y-101754489D01*
X125873956Y-101792841D01*
X125874006Y-101801976D01*
X125876227Y-101819227D01*
X125885494Y-101829521D01*
X125906875Y-101836459D01*
X125945436Y-101843641D01*
X125950910Y-101844575D01*
X126047860Y-101854478D01*
X126137852Y-101851559D01*
X126218760Y-101836829D01*
X126288459Y-101811299D01*
X126344824Y-101775978D01*
X126385729Y-101731879D01*
X126409051Y-101680012D01*
X126412663Y-101621388D01*
X126407145Y-101592494D01*
X126380461Y-101536604D01*
X126334273Y-101490945D01*
X126269291Y-101456108D01*
X126186229Y-101432690D01*
X126161555Y-101428241D01*
X126072226Y-101417742D01*
X125992419Y-101418971D01*
X125914326Y-101431906D01*
X125879183Y-101438696D01*
X125833745Y-101439713D01*
X125802430Y-101427182D01*
X125782277Y-101400395D01*
X125775893Y-101372148D01*
X125785379Y-101340924D01*
X125794708Y-101327499D01*
X125828943Y-101303967D01*
X125881565Y-101286095D01*
X125950081Y-101274599D01*
X126032000Y-101270192D01*
X126129150Y-101274179D01*
G36*
X126129150Y-101274179D02*
G01*
X126235157Y-101290494D01*
X126328969Y-101318545D01*
X126407765Y-101357452D01*
X126468719Y-101406334D01*
X126494789Y-101439195D01*
X126524297Y-101488394D01*
X126549568Y-101542252D01*
X126567218Y-101593419D01*
X126573858Y-101634544D01*
X126572298Y-101654259D01*
X126559357Y-101705592D01*
X126536194Y-101762118D01*
X126506302Y-101816035D01*
X126473173Y-101859539D01*
X126462977Y-101869887D01*
X126395892Y-101921662D01*
X126315766Y-101961554D01*
X126229556Y-101985956D01*
X126174592Y-101994068D01*
X126081139Y-102000673D01*
X125991358Y-101998586D01*
X125908869Y-101988340D01*
X125837286Y-101970470D01*
X125780228Y-101945508D01*
X125741311Y-101913988D01*
X125739936Y-101912012D01*
X125732848Y-101886786D01*
X125728609Y-101839535D01*
X125727200Y-101770071D01*
X125728060Y-101707838D01*
X125732780Y-101660456D01*
X125744470Y-101628353D01*
X125766239Y-101608800D01*
X125801198Y-101599070D01*
X125852456Y-101596433D01*
X125923123Y-101598161D01*
X125971743Y-101601173D01*
X126021939Y-101609366D01*
X126054433Y-101623419D01*
X126071892Y-101644654D01*
X126076983Y-101674394D01*
X126076877Y-101678936D01*
X126068175Y-101713730D01*
X126044165Y-101737147D01*
X126002900Y-101750347D01*
X125942431Y-101754489D01*
X125873956Y-101754489D01*
X125873956Y-101792841D01*
X125874006Y-101801976D01*
X125876227Y-101819227D01*
X125885494Y-101829521D01*
X125906875Y-101836459D01*
X125945436Y-101843641D01*
X125950910Y-101844575D01*
X126047860Y-101854478D01*
X126137852Y-101851559D01*
X126218760Y-101836829D01*
X126288459Y-101811299D01*
X126344824Y-101775978D01*
X126385729Y-101731879D01*
X126409051Y-101680012D01*
X126412663Y-101621388D01*
X126407145Y-101592494D01*
X126380461Y-101536604D01*
X126334273Y-101490945D01*
X126269291Y-101456108D01*
X126186229Y-101432690D01*
X126161555Y-101428241D01*
X126072226Y-101417742D01*
X125992419Y-101418971D01*
X125914326Y-101431906D01*
X125879183Y-101438696D01*
X125833745Y-101439713D01*
X125802430Y-101427182D01*
X125782277Y-101400395D01*
X125775893Y-101372148D01*
X125785379Y-101340924D01*
X125794708Y-101327499D01*
X125828943Y-101303967D01*
X125881565Y-101286095D01*
X125950081Y-101274599D01*
X126032000Y-101270192D01*
X126129150Y-101274179D01*
G37*
X124179803Y-101298811D02*
X124184752Y-101305495D01*
X124190596Y-101316066D01*
X124195057Y-101330153D01*
X124198321Y-101350478D01*
X124200574Y-101379765D01*
X124202002Y-101420737D01*
X124202792Y-101476117D01*
X124203129Y-101548628D01*
X124203200Y-101640994D01*
X124203171Y-101706911D01*
X124202939Y-101785228D01*
X124202319Y-101845496D01*
X124201126Y-101890393D01*
X124199179Y-101922602D01*
X124196294Y-101944800D01*
X124192288Y-101959669D01*
X124186979Y-101969889D01*
X124180183Y-101978138D01*
X124175668Y-101982795D01*
X124167438Y-101989282D01*
X124156078Y-101994194D01*
X124138810Y-101997749D01*
X124112855Y-102000167D01*
X124075436Y-102001667D01*
X124023773Y-102002467D01*
X123955089Y-102002787D01*
X123866606Y-102002845D01*
X123846931Y-102002838D01*
X123759906Y-102002572D01*
X123692254Y-102001806D01*
X123641299Y-102000392D01*
X123604367Y-101998180D01*
X123578783Y-101995022D01*
X123561871Y-101990769D01*
X123550957Y-101985271D01*
X123540464Y-101975285D01*
X123527203Y-101944168D01*
X123528386Y-101908280D01*
X123544550Y-101876733D01*
X123546739Y-101874457D01*
X123555427Y-101868189D01*
X123568769Y-101863523D01*
X123589752Y-101860227D01*
X123621363Y-101858068D01*
X123666590Y-101856814D01*
X123728420Y-101856231D01*
X123809839Y-101856089D01*
X124056445Y-101856089D01*
X124056445Y-101698045D01*
X123894006Y-101698045D01*
X123858338Y-101697964D01*
X123802568Y-101697167D01*
X123763430Y-101695162D01*
X123736976Y-101691521D01*
X123719259Y-101685812D01*
X123706329Y-101677607D01*
X123702686Y-101674423D01*
X123684278Y-101643448D01*
X123683644Y-101607112D01*
X123701183Y-101573493D01*
X123701245Y-101573424D01*
X123710916Y-101564798D01*
X123724209Y-101558742D01*
X123744917Y-101554811D01*
X123776828Y-101552556D01*
X123823734Y-101551531D01*
X123889424Y-101551289D01*
X124057571Y-101551289D01*
X124054186Y-101486378D01*
X124050800Y-101421467D01*
X123808723Y-101418414D01*
X123783707Y-101418086D01*
X123702087Y-101416606D01*
X123639768Y-101414222D01*
X123594154Y-101410227D01*
X123562652Y-101403913D01*
X123542667Y-101394574D01*
X123531604Y-101381503D01*
X123526869Y-101363992D01*
X123525867Y-101341335D01*
X123525873Y-101338970D01*
X123527027Y-101318939D01*
X123531824Y-101303146D01*
X123542632Y-101291090D01*
X123561817Y-101282267D01*
X123591745Y-101276175D01*
X123634783Y-101272311D01*
X123693299Y-101270174D01*
X123769657Y-101269260D01*
X123866226Y-101269067D01*
X124156406Y-101269067D01*
X124179803Y-101298811D01*
G36*
X124179803Y-101298811D02*
G01*
X124184752Y-101305495D01*
X124190596Y-101316066D01*
X124195057Y-101330153D01*
X124198321Y-101350478D01*
X124200574Y-101379765D01*
X124202002Y-101420737D01*
X124202792Y-101476117D01*
X124203129Y-101548628D01*
X124203200Y-101640994D01*
X124203171Y-101706911D01*
X124202939Y-101785228D01*
X124202319Y-101845496D01*
X124201126Y-101890393D01*
X124199179Y-101922602D01*
X124196294Y-101944800D01*
X124192288Y-101959669D01*
X124186979Y-101969889D01*
X124180183Y-101978138D01*
X124175668Y-101982795D01*
X124167438Y-101989282D01*
X124156078Y-101994194D01*
X124138810Y-101997749D01*
X124112855Y-102000167D01*
X124075436Y-102001667D01*
X124023773Y-102002467D01*
X123955089Y-102002787D01*
X123866606Y-102002845D01*
X123846931Y-102002838D01*
X123759906Y-102002572D01*
X123692254Y-102001806D01*
X123641299Y-102000392D01*
X123604367Y-101998180D01*
X123578783Y-101995022D01*
X123561871Y-101990769D01*
X123550957Y-101985271D01*
X123540464Y-101975285D01*
X123527203Y-101944168D01*
X123528386Y-101908280D01*
X123544550Y-101876733D01*
X123546739Y-101874457D01*
X123555427Y-101868189D01*
X123568769Y-101863523D01*
X123589752Y-101860227D01*
X123621363Y-101858068D01*
X123666590Y-101856814D01*
X123728420Y-101856231D01*
X123809839Y-101856089D01*
X124056445Y-101856089D01*
X124056445Y-101698045D01*
X123894006Y-101698045D01*
X123858338Y-101697964D01*
X123802568Y-101697167D01*
X123763430Y-101695162D01*
X123736976Y-101691521D01*
X123719259Y-101685812D01*
X123706329Y-101677607D01*
X123702686Y-101674423D01*
X123684278Y-101643448D01*
X123683644Y-101607112D01*
X123701183Y-101573493D01*
X123701245Y-101573424D01*
X123710916Y-101564798D01*
X123724209Y-101558742D01*
X123744917Y-101554811D01*
X123776828Y-101552556D01*
X123823734Y-101551531D01*
X123889424Y-101551289D01*
X124057571Y-101551289D01*
X124054186Y-101486378D01*
X124050800Y-101421467D01*
X123808723Y-101418414D01*
X123783707Y-101418086D01*
X123702087Y-101416606D01*
X123639768Y-101414222D01*
X123594154Y-101410227D01*
X123562652Y-101403913D01*
X123542667Y-101394574D01*
X123531604Y-101381503D01*
X123526869Y-101363992D01*
X123525867Y-101341335D01*
X123525873Y-101338970D01*
X123527027Y-101318939D01*
X123531824Y-101303146D01*
X123542632Y-101291090D01*
X123561817Y-101282267D01*
X123591745Y-101276175D01*
X123634783Y-101272311D01*
X123693299Y-101270174D01*
X123769657Y-101269260D01*
X123866226Y-101269067D01*
X124156406Y-101269067D01*
X124179803Y-101298811D01*
G37*
X128856734Y-101269083D02*
X128933831Y-101269275D01*
X128992777Y-101269860D01*
X129036364Y-101271051D01*
X129067383Y-101273064D01*
X129088625Y-101276112D01*
X129102882Y-101280409D01*
X129112945Y-101286172D01*
X129121606Y-101293612D01*
X129123391Y-101295293D01*
X129130635Y-101302832D01*
X129136277Y-101311850D01*
X129140517Y-101324984D01*
X129143556Y-101344872D01*
X129145594Y-101374151D01*
X129146830Y-101415458D01*
X129147465Y-101471431D01*
X129147700Y-101544707D01*
X129147734Y-101637923D01*
X129147697Y-101710713D01*
X129147448Y-101788889D01*
X129146812Y-101849103D01*
X129145615Y-101893982D01*
X129143684Y-101926152D01*
X129140846Y-101948239D01*
X129136927Y-101962870D01*
X129131755Y-101972670D01*
X129125156Y-101980267D01*
X129121822Y-101983444D01*
X129113300Y-101989554D01*
X129101298Y-101994229D01*
X129083087Y-101997659D01*
X129055940Y-102000036D01*
X129017129Y-102001552D01*
X128963924Y-102002398D01*
X128893598Y-102002765D01*
X128803422Y-102002845D01*
X128761314Y-102002833D01*
X128680167Y-102002651D01*
X128617675Y-102002098D01*
X128571109Y-102000982D01*
X128537741Y-101999113D01*
X128514844Y-101996298D01*
X128499688Y-101992346D01*
X128489546Y-101987066D01*
X128481689Y-101980267D01*
X128466963Y-101958667D01*
X128459111Y-101929467D01*
X128464610Y-101905560D01*
X128481689Y-101878667D01*
X128486668Y-101874059D01*
X128496443Y-101867772D01*
X128510559Y-101863146D01*
X128532054Y-101859930D01*
X128563968Y-101857870D01*
X128609342Y-101856712D01*
X128671213Y-101856202D01*
X128752622Y-101856089D01*
X129000978Y-101856089D01*
X129000978Y-101698045D01*
X128839801Y-101698045D01*
X128803983Y-101697899D01*
X128738359Y-101696176D01*
X128691118Y-101691741D01*
X128659383Y-101683637D01*
X128640277Y-101670906D01*
X128630923Y-101652592D01*
X128628445Y-101627738D01*
X128629242Y-101607482D01*
X128634494Y-101585656D01*
X128647288Y-101570304D01*
X128670628Y-101560309D01*
X128707517Y-101554553D01*
X128760959Y-101551919D01*
X128833958Y-101551289D01*
X129002105Y-101551289D01*
X128998719Y-101486378D01*
X128995334Y-101421467D01*
X128747617Y-101418418D01*
X128685026Y-101417539D01*
X128616565Y-101416095D01*
X128565661Y-101414164D01*
X128529408Y-101411514D01*
X128504901Y-101407910D01*
X128489235Y-101403121D01*
X128479506Y-101396913D01*
X128473491Y-101390510D01*
X128460482Y-101358828D01*
X128464043Y-101323142D01*
X128483818Y-101292084D01*
X128487069Y-101289161D01*
X128496049Y-101282810D01*
X128508153Y-101277957D01*
X128526159Y-101274403D01*
X128552847Y-101271946D01*
X128590997Y-101270385D01*
X128643386Y-101269518D01*
X128712794Y-101269146D01*
X128802001Y-101269067D01*
X128856734Y-101269083D01*
G36*
X128856734Y-101269083D02*
G01*
X128933831Y-101269275D01*
X128992777Y-101269860D01*
X129036364Y-101271051D01*
X129067383Y-101273064D01*
X129088625Y-101276112D01*
X129102882Y-101280409D01*
X129112945Y-101286172D01*
X129121606Y-101293612D01*
X129123391Y-101295293D01*
X129130635Y-101302832D01*
X129136277Y-101311850D01*
X129140517Y-101324984D01*
X129143556Y-101344872D01*
X129145594Y-101374151D01*
X129146830Y-101415458D01*
X129147465Y-101471431D01*
X129147700Y-101544707D01*
X129147734Y-101637923D01*
X129147697Y-101710713D01*
X129147448Y-101788889D01*
X129146812Y-101849103D01*
X129145615Y-101893982D01*
X129143684Y-101926152D01*
X129140846Y-101948239D01*
X129136927Y-101962870D01*
X129131755Y-101972670D01*
X129125156Y-101980267D01*
X129121822Y-101983444D01*
X129113300Y-101989554D01*
X129101298Y-101994229D01*
X129083087Y-101997659D01*
X129055940Y-102000036D01*
X129017129Y-102001552D01*
X128963924Y-102002398D01*
X128893598Y-102002765D01*
X128803422Y-102002845D01*
X128761314Y-102002833D01*
X128680167Y-102002651D01*
X128617675Y-102002098D01*
X128571109Y-102000982D01*
X128537741Y-101999113D01*
X128514844Y-101996298D01*
X128499688Y-101992346D01*
X128489546Y-101987066D01*
X128481689Y-101980267D01*
X128466963Y-101958667D01*
X128459111Y-101929467D01*
X128464610Y-101905560D01*
X128481689Y-101878667D01*
X128486668Y-101874059D01*
X128496443Y-101867772D01*
X128510559Y-101863146D01*
X128532054Y-101859930D01*
X128563968Y-101857870D01*
X128609342Y-101856712D01*
X128671213Y-101856202D01*
X128752622Y-101856089D01*
X129000978Y-101856089D01*
X129000978Y-101698045D01*
X128839801Y-101698045D01*
X128803983Y-101697899D01*
X128738359Y-101696176D01*
X128691118Y-101691741D01*
X128659383Y-101683637D01*
X128640277Y-101670906D01*
X128630923Y-101652592D01*
X128628445Y-101627738D01*
X128629242Y-101607482D01*
X128634494Y-101585656D01*
X128647288Y-101570304D01*
X128670628Y-101560309D01*
X128707517Y-101554553D01*
X128760959Y-101551919D01*
X128833958Y-101551289D01*
X129002105Y-101551289D01*
X128998719Y-101486378D01*
X128995334Y-101421467D01*
X128747617Y-101418418D01*
X128685026Y-101417539D01*
X128616565Y-101416095D01*
X128565661Y-101414164D01*
X128529408Y-101411514D01*
X128504901Y-101407910D01*
X128489235Y-101403121D01*
X128479506Y-101396913D01*
X128473491Y-101390510D01*
X128460482Y-101358828D01*
X128464043Y-101323142D01*
X128483818Y-101292084D01*
X128487069Y-101289161D01*
X128496049Y-101282810D01*
X128508153Y-101277957D01*
X128526159Y-101274403D01*
X128552847Y-101271946D01*
X128590997Y-101270385D01*
X128643386Y-101269518D01*
X128712794Y-101269146D01*
X128802001Y-101269067D01*
X128856734Y-101269083D01*
G37*
X120289702Y-101278478D02*
X120307663Y-101296989D01*
X120328263Y-101328071D01*
X120353095Y-101373756D01*
X120383750Y-101436078D01*
X120421820Y-101517071D01*
X120436454Y-101548454D01*
X120466203Y-101611638D01*
X120492297Y-101666244D01*
X120513292Y-101709290D01*
X120527739Y-101737793D01*
X120534191Y-101748770D01*
X120535550Y-101748189D01*
X120545542Y-101734242D01*
X120562833Y-101704704D01*
X120585430Y-101663087D01*
X120611338Y-101612903D01*
X120627311Y-101581414D01*
X120656261Y-101526061D01*
X120678749Y-101487044D01*
X120696965Y-101461566D01*
X120713096Y-101446831D01*
X120729330Y-101440042D01*
X120747857Y-101438400D01*
X120758360Y-101438875D01*
X120774476Y-101443082D01*
X120789790Y-101453946D01*
X120806388Y-101474219D01*
X120826357Y-101506654D01*
X120851783Y-101554004D01*
X120884752Y-101619022D01*
X120894485Y-101638277D01*
X120918943Y-101684946D01*
X120939178Y-101721109D01*
X120953311Y-101743497D01*
X120959460Y-101748845D01*
X120960827Y-101745573D01*
X120970202Y-101724664D01*
X120987062Y-101687725D01*
X121009979Y-101637874D01*
X121037520Y-101578226D01*
X121068255Y-101511898D01*
X121094970Y-101454677D01*
X121124593Y-101392688D01*
X121147664Y-101346949D01*
X121165643Y-101314908D01*
X121179990Y-101294014D01*
X121192166Y-101281718D01*
X121203632Y-101275466D01*
X121213042Y-101272574D01*
X121238147Y-101272425D01*
X121265290Y-101287768D01*
X121266590Y-101288753D01*
X121288674Y-101311388D01*
X121299723Y-101333613D01*
X121299769Y-101334253D01*
X121295228Y-101351915D01*
X121282364Y-101386481D01*
X121262605Y-101434826D01*
X121237381Y-101493825D01*
X121208119Y-101560355D01*
X121176250Y-101631291D01*
X121143201Y-101703507D01*
X121110401Y-101773880D01*
X121079280Y-101839285D01*
X121051265Y-101896597D01*
X121027786Y-101942692D01*
X121010272Y-101974446D01*
X121000151Y-101988733D01*
X120965743Y-102002102D01*
X120924046Y-101995741D01*
X120918681Y-101991044D01*
X120902852Y-101968893D01*
X120880650Y-101932132D01*
X120854233Y-101884415D01*
X120825760Y-101829393D01*
X120745986Y-101670150D01*
X120672799Y-101816742D01*
X120663103Y-101836032D01*
X120636125Y-101888380D01*
X120612096Y-101933170D01*
X120593332Y-101966154D01*
X120582146Y-101983089D01*
X120581000Y-101984332D01*
X120552879Y-101999619D01*
X120517817Y-102001302D01*
X120486776Y-101988733D01*
X120484350Y-101985884D01*
X120472090Y-101965259D01*
X120452352Y-101927708D01*
X120426448Y-101875880D01*
X120395685Y-101812423D01*
X120361375Y-101739985D01*
X120324825Y-101661216D01*
X120304585Y-101617093D01*
X120267812Y-101536365D01*
X120239355Y-101472687D01*
X120218331Y-101423752D01*
X120203854Y-101387257D01*
X120195039Y-101360895D01*
X120191004Y-101342361D01*
X120190862Y-101329352D01*
X120193730Y-101319561D01*
X120208387Y-101298678D01*
X120234990Y-101278377D01*
X120235745Y-101278035D01*
X120255335Y-101271034D01*
X120272790Y-101270504D01*
X120289702Y-101278478D01*
G36*
X120289702Y-101278478D02*
G01*
X120307663Y-101296989D01*
X120328263Y-101328071D01*
X120353095Y-101373756D01*
X120383750Y-101436078D01*
X120421820Y-101517071D01*
X120436454Y-101548454D01*
X120466203Y-101611638D01*
X120492297Y-101666244D01*
X120513292Y-101709290D01*
X120527739Y-101737793D01*
X120534191Y-101748770D01*
X120535550Y-101748189D01*
X120545542Y-101734242D01*
X120562833Y-101704704D01*
X120585430Y-101663087D01*
X120611338Y-101612903D01*
X120627311Y-101581414D01*
X120656261Y-101526061D01*
X120678749Y-101487044D01*
X120696965Y-101461566D01*
X120713096Y-101446831D01*
X120729330Y-101440042D01*
X120747857Y-101438400D01*
X120758360Y-101438875D01*
X120774476Y-101443082D01*
X120789790Y-101453946D01*
X120806388Y-101474219D01*
X120826357Y-101506654D01*
X120851783Y-101554004D01*
X120884752Y-101619022D01*
X120894485Y-101638277D01*
X120918943Y-101684946D01*
X120939178Y-101721109D01*
X120953311Y-101743497D01*
X120959460Y-101748845D01*
X120960827Y-101745573D01*
X120970202Y-101724664D01*
X120987062Y-101687725D01*
X121009979Y-101637874D01*
X121037520Y-101578226D01*
X121068255Y-101511898D01*
X121094970Y-101454677D01*
X121124593Y-101392688D01*
X121147664Y-101346949D01*
X121165643Y-101314908D01*
X121179990Y-101294014D01*
X121192166Y-101281718D01*
X121203632Y-101275466D01*
X121213042Y-101272574D01*
X121238147Y-101272425D01*
X121265290Y-101287768D01*
X121266590Y-101288753D01*
X121288674Y-101311388D01*
X121299723Y-101333613D01*
X121299769Y-101334253D01*
X121295228Y-101351915D01*
X121282364Y-101386481D01*
X121262605Y-101434826D01*
X121237381Y-101493825D01*
X121208119Y-101560355D01*
X121176250Y-101631291D01*
X121143201Y-101703507D01*
X121110401Y-101773880D01*
X121079280Y-101839285D01*
X121051265Y-101896597D01*
X121027786Y-101942692D01*
X121010272Y-101974446D01*
X121000151Y-101988733D01*
X120965743Y-102002102D01*
X120924046Y-101995741D01*
X120918681Y-101991044D01*
X120902852Y-101968893D01*
X120880650Y-101932132D01*
X120854233Y-101884415D01*
X120825760Y-101829393D01*
X120745986Y-101670150D01*
X120672799Y-101816742D01*
X120663103Y-101836032D01*
X120636125Y-101888380D01*
X120612096Y-101933170D01*
X120593332Y-101966154D01*
X120582146Y-101983089D01*
X120581000Y-101984332D01*
X120552879Y-101999619D01*
X120517817Y-102001302D01*
X120486776Y-101988733D01*
X120484350Y-101985884D01*
X120472090Y-101965259D01*
X120452352Y-101927708D01*
X120426448Y-101875880D01*
X120395685Y-101812423D01*
X120361375Y-101739985D01*
X120324825Y-101661216D01*
X120304585Y-101617093D01*
X120267812Y-101536365D01*
X120239355Y-101472687D01*
X120218331Y-101423752D01*
X120203854Y-101387257D01*
X120195039Y-101360895D01*
X120191004Y-101342361D01*
X120190862Y-101329352D01*
X120193730Y-101319561D01*
X120208387Y-101298678D01*
X120234990Y-101278377D01*
X120235745Y-101278035D01*
X120255335Y-101271034D01*
X120272790Y-101270504D01*
X120289702Y-101278478D01*
G37*
X127840853Y-101269936D02*
X127907100Y-101275366D01*
X127962400Y-101284964D01*
X128013283Y-101299825D01*
X128084595Y-101332958D01*
X128135752Y-101375640D01*
X128166575Y-101427705D01*
X128176889Y-101488983D01*
X128175952Y-101520232D01*
X128170160Y-101545029D01*
X128155353Y-101566699D01*
X128127380Y-101594049D01*
X128119402Y-101601378D01*
X128095692Y-101622281D01*
X128073298Y-101639251D01*
X128049265Y-101653205D01*
X128020637Y-101665056D01*
X127984460Y-101675720D01*
X127937780Y-101686111D01*
X127877641Y-101697146D01*
X127801090Y-101709738D01*
X127705171Y-101724804D01*
X127686808Y-101727838D01*
X127624478Y-101741458D01*
X127579260Y-101757192D01*
X127552976Y-101774263D01*
X127547447Y-101791897D01*
X127550068Y-101796168D01*
X127568000Y-101811233D01*
X127596126Y-101827867D01*
X127608926Y-101833857D01*
X127630224Y-101841050D01*
X127656610Y-101845827D01*
X127692454Y-101848646D01*
X127742128Y-101849964D01*
X127810000Y-101850237D01*
X127827785Y-101850164D01*
X127895406Y-101849053D01*
X127960345Y-101846828D01*
X128015970Y-101843762D01*
X128055651Y-101840127D01*
X128091162Y-101836059D01*
X128120415Y-101835276D01*
X128139315Y-101839876D01*
X128154429Y-101850551D01*
X128158085Y-101854144D01*
X128174427Y-101885918D01*
X128173107Y-101921572D01*
X128154150Y-101952190D01*
X128133780Y-101963796D01*
X128097796Y-101976491D01*
X128055372Y-101986541D01*
X128051922Y-101987140D01*
X128009252Y-101992356D01*
X127951866Y-101996730D01*
X127886849Y-101999818D01*
X127821289Y-102001177D01*
X127805057Y-102001218D01*
X127706744Y-101998741D01*
X127626692Y-101990735D01*
X127561513Y-101976203D01*
X127507817Y-101954149D01*
X127462216Y-101923576D01*
X127421323Y-101883486D01*
X127401202Y-101857259D01*
X127389576Y-101827712D01*
X127386667Y-101787995D01*
X127386808Y-101776026D01*
X127390681Y-101743345D01*
X127403065Y-101716819D01*
X127428230Y-101685971D01*
X127449442Y-101663831D01*
X127475838Y-101641285D01*
X127505555Y-101622917D01*
X127541785Y-101607661D01*
X127587717Y-101594449D01*
X127646544Y-101582214D01*
X127721456Y-101569889D01*
X127815645Y-101556406D01*
X127860957Y-101549396D01*
X127928911Y-101534837D01*
X127978047Y-101518337D01*
X128007614Y-101500439D01*
X128016864Y-101481685D01*
X128005048Y-101462615D01*
X127971416Y-101443771D01*
X127968370Y-101442557D01*
X127922011Y-101430479D01*
X127859361Y-101422279D01*
X127785927Y-101418119D01*
X127707217Y-101418161D01*
X127628739Y-101422569D01*
X127556000Y-101431505D01*
X127552073Y-101432154D01*
X127503257Y-101439861D01*
X127471005Y-101443473D01*
X127450008Y-101442876D01*
X127434954Y-101437954D01*
X127420534Y-101428596D01*
X127419364Y-101427725D01*
X127394847Y-101397351D01*
X127390054Y-101361850D01*
X127405860Y-101327269D01*
X127410406Y-101322813D01*
X127440020Y-101307673D01*
X127487002Y-101294550D01*
X127547306Y-101283750D01*
X127616888Y-101275581D01*
X127691703Y-101270351D01*
X127767706Y-101268367D01*
X127840853Y-101269936D01*
G36*
X127840853Y-101269936D02*
G01*
X127907100Y-101275366D01*
X127962400Y-101284964D01*
X128013283Y-101299825D01*
X128084595Y-101332958D01*
X128135752Y-101375640D01*
X128166575Y-101427705D01*
X128176889Y-101488983D01*
X128175952Y-101520232D01*
X128170160Y-101545029D01*
X128155353Y-101566699D01*
X128127380Y-101594049D01*
X128119402Y-101601378D01*
X128095692Y-101622281D01*
X128073298Y-101639251D01*
X128049265Y-101653205D01*
X128020637Y-101665056D01*
X127984460Y-101675720D01*
X127937780Y-101686111D01*
X127877641Y-101697146D01*
X127801090Y-101709738D01*
X127705171Y-101724804D01*
X127686808Y-101727838D01*
X127624478Y-101741458D01*
X127579260Y-101757192D01*
X127552976Y-101774263D01*
X127547447Y-101791897D01*
X127550068Y-101796168D01*
X127568000Y-101811233D01*
X127596126Y-101827867D01*
X127608926Y-101833857D01*
X127630224Y-101841050D01*
X127656610Y-101845827D01*
X127692454Y-101848646D01*
X127742128Y-101849964D01*
X127810000Y-101850237D01*
X127827785Y-101850164D01*
X127895406Y-101849053D01*
X127960345Y-101846828D01*
X128015970Y-101843762D01*
X128055651Y-101840127D01*
X128091162Y-101836059D01*
X128120415Y-101835276D01*
X128139315Y-101839876D01*
X128154429Y-101850551D01*
X128158085Y-101854144D01*
X128174427Y-101885918D01*
X128173107Y-101921572D01*
X128154150Y-101952190D01*
X128133780Y-101963796D01*
X128097796Y-101976491D01*
X128055372Y-101986541D01*
X128051922Y-101987140D01*
X128009252Y-101992356D01*
X127951866Y-101996730D01*
X127886849Y-101999818D01*
X127821289Y-102001177D01*
X127805057Y-102001218D01*
X127706744Y-101998741D01*
X127626692Y-101990735D01*
X127561513Y-101976203D01*
X127507817Y-101954149D01*
X127462216Y-101923576D01*
X127421323Y-101883486D01*
X127401202Y-101857259D01*
X127389576Y-101827712D01*
X127386667Y-101787995D01*
X127386808Y-101776026D01*
X127390681Y-101743345D01*
X127403065Y-101716819D01*
X127428230Y-101685971D01*
X127449442Y-101663831D01*
X127475838Y-101641285D01*
X127505555Y-101622917D01*
X127541785Y-101607661D01*
X127587717Y-101594449D01*
X127646544Y-101582214D01*
X127721456Y-101569889D01*
X127815645Y-101556406D01*
X127860957Y-101549396D01*
X127928911Y-101534837D01*
X127978047Y-101518337D01*
X128007614Y-101500439D01*
X128016864Y-101481685D01*
X128005048Y-101462615D01*
X127971416Y-101443771D01*
X127968370Y-101442557D01*
X127922011Y-101430479D01*
X127859361Y-101422279D01*
X127785927Y-101418119D01*
X127707217Y-101418161D01*
X127628739Y-101422569D01*
X127556000Y-101431505D01*
X127552073Y-101432154D01*
X127503257Y-101439861D01*
X127471005Y-101443473D01*
X127450008Y-101442876D01*
X127434954Y-101437954D01*
X127420534Y-101428596D01*
X127419364Y-101427725D01*
X127394847Y-101397351D01*
X127390054Y-101361850D01*
X127405860Y-101327269D01*
X127410406Y-101322813D01*
X127440020Y-101307673D01*
X127487002Y-101294550D01*
X127547306Y-101283750D01*
X127616888Y-101275581D01*
X127691703Y-101270351D01*
X127767706Y-101268367D01*
X127840853Y-101269936D01*
G37*
X123988711Y-96962033D02*
X124084268Y-96979523D01*
X124248558Y-97024564D01*
X124402589Y-97087656D01*
X124548509Y-97169915D01*
X124688466Y-97272457D01*
X124824608Y-97396399D01*
X124868473Y-97441661D01*
X124980758Y-97573865D01*
X125073972Y-97711832D01*
X125150719Y-97859750D01*
X125213603Y-98021803D01*
X125217420Y-98033391D01*
X125267507Y-98219392D01*
X125300899Y-98415521D01*
X125317584Y-98617568D01*
X125317551Y-98821325D01*
X125300791Y-99022581D01*
X125267292Y-99217128D01*
X125217044Y-99400756D01*
X125173190Y-99518053D01*
X125095348Y-99680951D01*
X125001828Y-99834866D01*
X124894822Y-99976671D01*
X124776519Y-100103239D01*
X124649111Y-100211441D01*
X124571606Y-100264120D01*
X124444725Y-100333750D01*
X124307243Y-100392468D01*
X124165716Y-100437587D01*
X124026702Y-100466422D01*
X124012597Y-100468106D01*
X123969153Y-100471434D01*
X123911723Y-100474275D01*
X123846122Y-100476373D01*
X123778167Y-100477468D01*
X123651378Y-100475140D01*
X123503673Y-100462136D01*
X123365779Y-100437133D01*
X123232014Y-100399318D01*
X123208562Y-100390889D01*
X123160612Y-100371408D01*
X123104140Y-100346473D01*
X123042379Y-100317722D01*
X122978563Y-100286790D01*
X122915926Y-100255315D01*
X122857703Y-100224934D01*
X122807127Y-100197283D01*
X122767433Y-100173999D01*
X122741854Y-100156718D01*
X122733625Y-100147079D01*
X122735076Y-100143984D01*
X122746250Y-100124079D01*
X122767134Y-100088420D01*
X122796265Y-100039459D01*
X122832181Y-99979646D01*
X122873420Y-99911433D01*
X122918517Y-99837271D01*
X123099785Y-99540008D01*
X123146315Y-99584539D01*
X123237723Y-99662865D01*
X123351334Y-99737439D01*
X123469122Y-99791474D01*
X123589559Y-99824290D01*
X123711117Y-99835211D01*
X123752585Y-99833868D01*
X123870080Y-99815612D01*
X123980089Y-99776617D01*
X124081430Y-99717670D01*
X124172921Y-99639557D01*
X124253380Y-99543064D01*
X124321627Y-99428978D01*
X124337908Y-99394724D01*
X124383982Y-99271240D01*
X124419106Y-99132918D01*
X124443197Y-98983561D01*
X124456173Y-98826973D01*
X124457949Y-98666956D01*
X124448443Y-98507314D01*
X124427572Y-98351850D01*
X124395252Y-98204366D01*
X124351399Y-98068667D01*
X124313982Y-97982076D01*
X124249185Y-97868688D01*
X124173772Y-97775070D01*
X124087418Y-97700959D01*
X123989795Y-97646094D01*
X123880577Y-97610212D01*
X123759439Y-97593051D01*
X123690038Y-97591880D01*
X123567168Y-97606141D01*
X123451664Y-97641241D01*
X123344953Y-97696682D01*
X123248464Y-97771964D01*
X123232720Y-97786440D01*
X123202150Y-97812962D01*
X123179809Y-97830138D01*
X123169691Y-97834787D01*
X123167706Y-97832597D01*
X123153241Y-97813721D01*
X123129400Y-97780397D01*
X123098029Y-97735380D01*
X123060974Y-97681425D01*
X123020083Y-97621285D01*
X122977202Y-97557718D01*
X122934178Y-97493476D01*
X122892857Y-97431315D01*
X122855086Y-97373991D01*
X122822712Y-97324257D01*
X122797582Y-97284868D01*
X122781542Y-97258580D01*
X122776439Y-97248147D01*
X122781050Y-97243941D01*
X122800267Y-97238933D01*
X122809838Y-97236386D01*
X122837809Y-97225249D01*
X122879448Y-97206802D01*
X122930995Y-97182725D01*
X122988690Y-97154699D01*
X122999957Y-97149154D01*
X123177687Y-97069889D01*
X123347490Y-97010385D01*
X123511430Y-96970245D01*
X123671571Y-96949071D01*
X123829977Y-96946466D01*
X123988711Y-96962033D01*
G36*
X123988711Y-96962033D02*
G01*
X124084268Y-96979523D01*
X124248558Y-97024564D01*
X124402589Y-97087656D01*
X124548509Y-97169915D01*
X124688466Y-97272457D01*
X124824608Y-97396399D01*
X124868473Y-97441661D01*
X124980758Y-97573865D01*
X125073972Y-97711832D01*
X125150719Y-97859750D01*
X125213603Y-98021803D01*
X125217420Y-98033391D01*
X125267507Y-98219392D01*
X125300899Y-98415521D01*
X125317584Y-98617568D01*
X125317551Y-98821325D01*
X125300791Y-99022581D01*
X125267292Y-99217128D01*
X125217044Y-99400756D01*
X125173190Y-99518053D01*
X125095348Y-99680951D01*
X125001828Y-99834866D01*
X124894822Y-99976671D01*
X124776519Y-100103239D01*
X124649111Y-100211441D01*
X124571606Y-100264120D01*
X124444725Y-100333750D01*
X124307243Y-100392468D01*
X124165716Y-100437587D01*
X124026702Y-100466422D01*
X124012597Y-100468106D01*
X123969153Y-100471434D01*
X123911723Y-100474275D01*
X123846122Y-100476373D01*
X123778167Y-100477468D01*
X123651378Y-100475140D01*
X123503673Y-100462136D01*
X123365779Y-100437133D01*
X123232014Y-100399318D01*
X123208562Y-100390889D01*
X123160612Y-100371408D01*
X123104140Y-100346473D01*
X123042379Y-100317722D01*
X122978563Y-100286790D01*
X122915926Y-100255315D01*
X122857703Y-100224934D01*
X122807127Y-100197283D01*
X122767433Y-100173999D01*
X122741854Y-100156718D01*
X122733625Y-100147079D01*
X122735076Y-100143984D01*
X122746250Y-100124079D01*
X122767134Y-100088420D01*
X122796265Y-100039459D01*
X122832181Y-99979646D01*
X122873420Y-99911433D01*
X122918517Y-99837271D01*
X123099785Y-99540008D01*
X123146315Y-99584539D01*
X123237723Y-99662865D01*
X123351334Y-99737439D01*
X123469122Y-99791474D01*
X123589559Y-99824290D01*
X123711117Y-99835211D01*
X123752585Y-99833868D01*
X123870080Y-99815612D01*
X123980089Y-99776617D01*
X124081430Y-99717670D01*
X124172921Y-99639557D01*
X124253380Y-99543064D01*
X124321627Y-99428978D01*
X124337908Y-99394724D01*
X124383982Y-99271240D01*
X124419106Y-99132918D01*
X124443197Y-98983561D01*
X124456173Y-98826973D01*
X124457949Y-98666956D01*
X124448443Y-98507314D01*
X124427572Y-98351850D01*
X124395252Y-98204366D01*
X124351399Y-98068667D01*
X124313982Y-97982076D01*
X124249185Y-97868688D01*
X124173772Y-97775070D01*
X124087418Y-97700959D01*
X123989795Y-97646094D01*
X123880577Y-97610212D01*
X123759439Y-97593051D01*
X123690038Y-97591880D01*
X123567168Y-97606141D01*
X123451664Y-97641241D01*
X123344953Y-97696682D01*
X123248464Y-97771964D01*
X123232720Y-97786440D01*
X123202150Y-97812962D01*
X123179809Y-97830138D01*
X123169691Y-97834787D01*
X123167706Y-97832597D01*
X123153241Y-97813721D01*
X123129400Y-97780397D01*
X123098029Y-97735380D01*
X123060974Y-97681425D01*
X123020083Y-97621285D01*
X122977202Y-97557718D01*
X122934178Y-97493476D01*
X122892857Y-97431315D01*
X122855086Y-97373991D01*
X122822712Y-97324257D01*
X122797582Y-97284868D01*
X122781542Y-97258580D01*
X122776439Y-97248147D01*
X122781050Y-97243941D01*
X122800267Y-97238933D01*
X122809838Y-97236386D01*
X122837809Y-97225249D01*
X122879448Y-97206802D01*
X122930995Y-97182725D01*
X122988690Y-97154699D01*
X122999957Y-97149154D01*
X123177687Y-97069889D01*
X123347490Y-97010385D01*
X123511430Y-96970245D01*
X123671571Y-96949071D01*
X123829977Y-96946466D01*
X123988711Y-96962033D01*
G37*
X120185994Y-99242711D02*
X120185268Y-99320158D01*
X120176689Y-99471594D01*
X120157833Y-99608283D01*
X120127837Y-99734276D01*
X120085836Y-99853625D01*
X120030969Y-99970381D01*
X119964167Y-100081179D01*
X119873363Y-100194739D01*
X119769708Y-100290211D01*
X119653887Y-100367073D01*
X119526586Y-100424797D01*
X119388489Y-100462858D01*
X119350793Y-100468666D01*
X119271752Y-100474396D01*
X119183629Y-100474583D01*
X119094236Y-100469539D01*
X119011384Y-100459578D01*
X118942887Y-100445012D01*
X118912035Y-100435364D01*
X118834730Y-100405123D01*
X118757679Y-100367617D01*
X118688200Y-100326614D01*
X118633615Y-100285879D01*
X118610916Y-100266505D01*
X118588201Y-100248662D01*
X118576779Y-100241778D01*
X118575537Y-100243424D01*
X118572728Y-100261205D01*
X118570776Y-100294370D01*
X118570045Y-100337733D01*
X118570045Y-100433689D01*
X117711896Y-100433689D01*
X117746161Y-100372974D01*
X117751355Y-100363868D01*
X117759715Y-100349249D01*
X117767288Y-100335173D01*
X117774112Y-100320540D01*
X117780227Y-100304249D01*
X117785673Y-100285198D01*
X117790487Y-100262286D01*
X117794708Y-100234413D01*
X117798377Y-100200478D01*
X117801531Y-100159379D01*
X117804211Y-100110015D01*
X117806454Y-100051286D01*
X117808299Y-99982090D01*
X117809787Y-99901326D01*
X117810955Y-99807894D01*
X117811844Y-99700692D01*
X117812491Y-99578620D01*
X117812936Y-99440576D01*
X117813218Y-99285459D01*
X117813375Y-99112168D01*
X117813448Y-98919603D01*
X117813474Y-98706662D01*
X117813485Y-98570530D01*
X118615200Y-98570530D01*
X118615200Y-99720721D01*
X118685756Y-99767089D01*
X118726417Y-99790791D01*
X118780546Y-99816639D01*
X118829689Y-99834829D01*
X118893165Y-99850551D01*
X118989331Y-99861541D01*
X119073900Y-99853365D01*
X119147219Y-99825805D01*
X119209637Y-99778642D01*
X119261502Y-99711658D01*
X119303160Y-99624633D01*
X119334962Y-99517350D01*
X119337545Y-99505009D01*
X119346000Y-99443772D01*
X119351663Y-99366692D01*
X119354576Y-99279002D01*
X119354783Y-99185934D01*
X119352330Y-99092720D01*
X119347261Y-99004594D01*
X119339619Y-98926788D01*
X119329448Y-98864533D01*
X119328167Y-98858666D01*
X119299126Y-98748121D01*
X119264610Y-98657575D01*
X119223456Y-98584953D01*
X119174499Y-98528181D01*
X119116574Y-98485184D01*
X119084620Y-98469615D01*
X119011784Y-98450722D01*
X118930443Y-98447465D01*
X118845319Y-98459389D01*
X118761133Y-98486040D01*
X118682608Y-98526962D01*
X118615200Y-98570530D01*
X117813485Y-98570530D01*
X117813493Y-98472245D01*
X117813689Y-96787378D01*
X118719017Y-96787378D01*
X118694585Y-96824067D01*
X118688318Y-96833647D01*
X118662208Y-96879981D01*
X118644469Y-96927102D01*
X118632908Y-96982251D01*
X118625331Y-97052667D01*
X118624839Y-97059650D01*
X118623062Y-97097641D01*
X118621444Y-97151576D01*
X118619999Y-97218703D01*
X118618740Y-97296271D01*
X118617680Y-97381528D01*
X118616829Y-97471724D01*
X118616203Y-97564107D01*
X118615812Y-97655925D01*
X118615670Y-97744427D01*
X118615790Y-97826862D01*
X118616183Y-97900479D01*
X118616862Y-97962526D01*
X118617841Y-98010251D01*
X118619132Y-98040904D01*
X118620747Y-98051733D01*
X118628957Y-98047333D01*
X118650647Y-98032362D01*
X118680014Y-98010448D01*
X118728879Y-97976236D01*
X118817125Y-97929714D01*
X118915916Y-97896046D01*
X119028510Y-97874231D01*
X119158164Y-97863265D01*
X119250670Y-97862219D01*
X119372011Y-97872014D01*
X119482099Y-97896174D01*
X119585389Y-97935785D01*
X119686338Y-97991932D01*
X119731503Y-98022883D01*
X119836911Y-98114115D01*
X119928538Y-98223106D01*
X120006332Y-98349726D01*
X120070241Y-98493845D01*
X120120214Y-98655332D01*
X120156198Y-98834059D01*
X120178143Y-99029895D01*
X120183900Y-99185934D01*
X120185994Y-99242711D01*
G36*
X120185994Y-99242711D02*
G01*
X120185268Y-99320158D01*
X120176689Y-99471594D01*
X120157833Y-99608283D01*
X120127837Y-99734276D01*
X120085836Y-99853625D01*
X120030969Y-99970381D01*
X119964167Y-100081179D01*
X119873363Y-100194739D01*
X119769708Y-100290211D01*
X119653887Y-100367073D01*
X119526586Y-100424797D01*
X119388489Y-100462858D01*
X119350793Y-100468666D01*
X119271752Y-100474396D01*
X119183629Y-100474583D01*
X119094236Y-100469539D01*
X119011384Y-100459578D01*
X118942887Y-100445012D01*
X118912035Y-100435364D01*
X118834730Y-100405123D01*
X118757679Y-100367617D01*
X118688200Y-100326614D01*
X118633615Y-100285879D01*
X118610916Y-100266505D01*
X118588201Y-100248662D01*
X118576779Y-100241778D01*
X118575537Y-100243424D01*
X118572728Y-100261205D01*
X118570776Y-100294370D01*
X118570045Y-100337733D01*
X118570045Y-100433689D01*
X117711896Y-100433689D01*
X117746161Y-100372974D01*
X117751355Y-100363868D01*
X117759715Y-100349249D01*
X117767288Y-100335173D01*
X117774112Y-100320540D01*
X117780227Y-100304249D01*
X117785673Y-100285198D01*
X117790487Y-100262286D01*
X117794708Y-100234413D01*
X117798377Y-100200478D01*
X117801531Y-100159379D01*
X117804211Y-100110015D01*
X117806454Y-100051286D01*
X117808299Y-99982090D01*
X117809787Y-99901326D01*
X117810955Y-99807894D01*
X117811844Y-99700692D01*
X117812491Y-99578620D01*
X117812936Y-99440576D01*
X117813218Y-99285459D01*
X117813375Y-99112168D01*
X117813448Y-98919603D01*
X117813474Y-98706662D01*
X117813485Y-98570530D01*
X118615200Y-98570530D01*
X118615200Y-99720721D01*
X118685756Y-99767089D01*
X118726417Y-99790791D01*
X118780546Y-99816639D01*
X118829689Y-99834829D01*
X118893165Y-99850551D01*
X118989331Y-99861541D01*
X119073900Y-99853365D01*
X119147219Y-99825805D01*
X119209637Y-99778642D01*
X119261502Y-99711658D01*
X119303160Y-99624633D01*
X119334962Y-99517350D01*
X119337545Y-99505009D01*
X119346000Y-99443772D01*
X119351663Y-99366692D01*
X119354576Y-99279002D01*
X119354783Y-99185934D01*
X119352330Y-99092720D01*
X119347261Y-99004594D01*
X119339619Y-98926788D01*
X119329448Y-98864533D01*
X119328167Y-98858666D01*
X119299126Y-98748121D01*
X119264610Y-98657575D01*
X119223456Y-98584953D01*
X119174499Y-98528181D01*
X119116574Y-98485184D01*
X119084620Y-98469615D01*
X119011784Y-98450722D01*
X118930443Y-98447465D01*
X118845319Y-98459389D01*
X118761133Y-98486040D01*
X118682608Y-98526962D01*
X118615200Y-98570530D01*
X117813485Y-98570530D01*
X117813493Y-98472245D01*
X117813689Y-96787378D01*
X118719017Y-96787378D01*
X118694585Y-96824067D01*
X118688318Y-96833647D01*
X118662208Y-96879981D01*
X118644469Y-96927102D01*
X118632908Y-96982251D01*
X118625331Y-97052667D01*
X118624839Y-97059650D01*
X118623062Y-97097641D01*
X118621444Y-97151576D01*
X118619999Y-97218703D01*
X118618740Y-97296271D01*
X118617680Y-97381528D01*
X118616829Y-97471724D01*
X118616203Y-97564107D01*
X118615812Y-97655925D01*
X118615670Y-97744427D01*
X118615790Y-97826862D01*
X118616183Y-97900479D01*
X118616862Y-97962526D01*
X118617841Y-98010251D01*
X118619132Y-98040904D01*
X118620747Y-98051733D01*
X118628957Y-98047333D01*
X118650647Y-98032362D01*
X118680014Y-98010448D01*
X118728879Y-97976236D01*
X118817125Y-97929714D01*
X118915916Y-97896046D01*
X119028510Y-97874231D01*
X119158164Y-97863265D01*
X119250670Y-97862219D01*
X119372011Y-97872014D01*
X119482099Y-97896174D01*
X119585389Y-97935785D01*
X119686338Y-97991932D01*
X119731503Y-98022883D01*
X119836911Y-98114115D01*
X119928538Y-98223106D01*
X120006332Y-98349726D01*
X120070241Y-98493845D01*
X120120214Y-98655332D01*
X120156198Y-98834059D01*
X120178143Y-99029895D01*
X120183900Y-99185934D01*
X120185994Y-99242711D01*
G37*
X122727755Y-99643467D02*
X122727261Y-99677363D01*
X122723632Y-99752202D01*
X122716022Y-99814401D01*
X122703688Y-99870984D01*
X122659313Y-99997076D01*
X122596400Y-100111679D01*
X122516238Y-100212568D01*
X122419740Y-100298924D01*
X122307822Y-100369932D01*
X122181397Y-100424776D01*
X122041378Y-100462638D01*
X122005149Y-100468351D01*
X121926155Y-100474313D01*
X121837841Y-100474646D01*
X121748075Y-100469659D01*
X121664722Y-100459666D01*
X121595651Y-100444978D01*
X121509187Y-100414749D01*
X121399286Y-100360057D01*
X121301956Y-100292543D01*
X121239867Y-100241556D01*
X121236605Y-100337622D01*
X121233343Y-100433689D01*
X120810450Y-100433689D01*
X120799543Y-100433686D01*
X120705056Y-100433380D01*
X120618331Y-100432616D01*
X120541837Y-100431451D01*
X120478043Y-100429942D01*
X120429418Y-100428147D01*
X120398433Y-100426121D01*
X120387556Y-100423922D01*
X120387578Y-100423463D01*
X120394614Y-100407910D01*
X120410434Y-100385071D01*
X120414734Y-100379638D01*
X120425777Y-100365606D01*
X120435311Y-100352186D01*
X120443461Y-100337722D01*
X120450352Y-100320556D01*
X120456111Y-100299034D01*
X120460862Y-100271498D01*
X120464731Y-100236292D01*
X120467844Y-100191760D01*
X120470325Y-100136246D01*
X120472300Y-100068093D01*
X120473894Y-99985645D01*
X120475234Y-99887246D01*
X120476444Y-99771239D01*
X120477649Y-99635968D01*
X120478595Y-99524586D01*
X121279378Y-99524586D01*
X121279378Y-99720462D01*
X121324048Y-99776973D01*
X121336785Y-99792212D01*
X121383604Y-99834844D01*
X121444255Y-99870672D01*
X121454897Y-99875850D01*
X121493676Y-99892745D01*
X121528692Y-99902909D01*
X121568722Y-99908325D01*
X121622541Y-99910978D01*
X121640648Y-99911383D01*
X121716011Y-99908540D01*
X121776743Y-99896620D01*
X121828452Y-99874037D01*
X121876746Y-99839211D01*
X121881803Y-99834798D01*
X121930272Y-99779160D01*
X121958459Y-99715333D01*
X121967752Y-99640282D01*
X121960520Y-99568693D01*
X121935796Y-99505645D01*
X121891249Y-99447758D01*
X121836319Y-99400808D01*
X121763894Y-99360961D01*
X121677340Y-99333263D01*
X121574670Y-99317096D01*
X121453894Y-99311842D01*
X121445007Y-99311857D01*
X121389660Y-99312655D01*
X121342736Y-99314488D01*
X121308953Y-99317111D01*
X121293028Y-99320274D01*
X121288943Y-99326741D01*
X121284572Y-99348875D01*
X121281604Y-99387988D01*
X121279914Y-99445939D01*
X121279378Y-99524586D01*
X120478595Y-99524586D01*
X120478975Y-99479778D01*
X120480228Y-99337012D01*
X120481651Y-99191942D01*
X120483176Y-99066027D01*
X120484933Y-98957436D01*
X120487051Y-98864334D01*
X120489660Y-98784891D01*
X120492890Y-98717273D01*
X120496869Y-98659649D01*
X120501728Y-98610185D01*
X120507597Y-98567050D01*
X120514604Y-98528410D01*
X120522880Y-98492434D01*
X120532554Y-98457289D01*
X120543756Y-98421142D01*
X120556616Y-98382161D01*
X120572090Y-98339091D01*
X120614994Y-98246871D01*
X120668735Y-98167099D01*
X120737576Y-98092965D01*
X120815185Y-98029405D01*
X120919761Y-97967725D01*
X121039244Y-97920202D01*
X121174508Y-97886567D01*
X121326426Y-97866552D01*
X121495872Y-97859889D01*
X121553890Y-97860287D01*
X121619398Y-97862335D01*
X121680693Y-97866704D01*
X121742097Y-97874035D01*
X121807932Y-97884969D01*
X121882520Y-97900147D01*
X121970184Y-97920209D01*
X122075245Y-97945797D01*
X122103806Y-97952820D01*
X122179054Y-97970776D01*
X122249388Y-97986820D01*
X122310567Y-98000028D01*
X122358354Y-98009474D01*
X122388511Y-98014231D01*
X122416783Y-98017910D01*
X122443060Y-98023187D01*
X122453059Y-98027942D01*
X122449952Y-98036781D01*
X122439194Y-98064072D01*
X122421864Y-98106906D01*
X122399126Y-98162425D01*
X122372147Y-98227772D01*
X122342090Y-98300089D01*
X122335493Y-98315879D01*
X122296907Y-98406484D01*
X122265768Y-98476217D01*
X122241917Y-98525405D01*
X122225198Y-98554374D01*
X122215454Y-98563452D01*
X122207766Y-98561405D01*
X122181415Y-98551760D01*
X122142982Y-98536190D01*
X122097822Y-98516815D01*
X122003293Y-98478814D01*
X121866480Y-98437780D01*
X121725289Y-98412612D01*
X121687314Y-98408611D01*
X121584059Y-98406447D01*
X121496952Y-98419622D01*
X121425129Y-98448756D01*
X121367731Y-98494466D01*
X121323896Y-98557372D01*
X121292762Y-98638092D01*
X121273470Y-98737245D01*
X121266050Y-98796224D01*
X121427936Y-98789445D01*
X121554495Y-98787813D01*
X121705951Y-98794194D01*
X121854396Y-98808777D01*
X121990578Y-98830882D01*
X122055245Y-98845821D01*
X122187490Y-98888741D01*
X122309762Y-98945340D01*
X122419685Y-99014017D01*
X122514883Y-99093170D01*
X122592980Y-99181196D01*
X122651599Y-99276493D01*
X122675595Y-99328864D01*
X122701232Y-99399590D01*
X122717478Y-99470812D01*
X122725822Y-99549712D01*
X122727690Y-99640282D01*
X122727755Y-99643467D01*
G36*
X122727755Y-99643467D02*
G01*
X122727261Y-99677363D01*
X122723632Y-99752202D01*
X122716022Y-99814401D01*
X122703688Y-99870984D01*
X122659313Y-99997076D01*
X122596400Y-100111679D01*
X122516238Y-100212568D01*
X122419740Y-100298924D01*
X122307822Y-100369932D01*
X122181397Y-100424776D01*
X122041378Y-100462638D01*
X122005149Y-100468351D01*
X121926155Y-100474313D01*
X121837841Y-100474646D01*
X121748075Y-100469659D01*
X121664722Y-100459666D01*
X121595651Y-100444978D01*
X121509187Y-100414749D01*
X121399286Y-100360057D01*
X121301956Y-100292543D01*
X121239867Y-100241556D01*
X121236605Y-100337622D01*
X121233343Y-100433689D01*
X120810450Y-100433689D01*
X120799543Y-100433686D01*
X120705056Y-100433380D01*
X120618331Y-100432616D01*
X120541837Y-100431451D01*
X120478043Y-100429942D01*
X120429418Y-100428147D01*
X120398433Y-100426121D01*
X120387556Y-100423922D01*
X120387578Y-100423463D01*
X120394614Y-100407910D01*
X120410434Y-100385071D01*
X120414734Y-100379638D01*
X120425777Y-100365606D01*
X120435311Y-100352186D01*
X120443461Y-100337722D01*
X120450352Y-100320556D01*
X120456111Y-100299034D01*
X120460862Y-100271498D01*
X120464731Y-100236292D01*
X120467844Y-100191760D01*
X120470325Y-100136246D01*
X120472300Y-100068093D01*
X120473894Y-99985645D01*
X120475234Y-99887246D01*
X120476444Y-99771239D01*
X120477649Y-99635968D01*
X120478595Y-99524586D01*
X121279378Y-99524586D01*
X121279378Y-99720462D01*
X121324048Y-99776973D01*
X121336785Y-99792212D01*
X121383604Y-99834844D01*
X121444255Y-99870672D01*
X121454897Y-99875850D01*
X121493676Y-99892745D01*
X121528692Y-99902909D01*
X121568722Y-99908325D01*
X121622541Y-99910978D01*
X121640648Y-99911383D01*
X121716011Y-99908540D01*
X121776743Y-99896620D01*
X121828452Y-99874037D01*
X121876746Y-99839211D01*
X121881803Y-99834798D01*
X121930272Y-99779160D01*
X121958459Y-99715333D01*
X121967752Y-99640282D01*
X121960520Y-99568693D01*
X121935796Y-99505645D01*
X121891249Y-99447758D01*
X121836319Y-99400808D01*
X121763894Y-99360961D01*
X121677340Y-99333263D01*
X121574670Y-99317096D01*
X121453894Y-99311842D01*
X121445007Y-99311857D01*
X121389660Y-99312655D01*
X121342736Y-99314488D01*
X121308953Y-99317111D01*
X121293028Y-99320274D01*
X121288943Y-99326741D01*
X121284572Y-99348875D01*
X121281604Y-99387988D01*
X121279914Y-99445939D01*
X121279378Y-99524586D01*
X120478595Y-99524586D01*
X120478975Y-99479778D01*
X120480228Y-99337012D01*
X120481651Y-99191942D01*
X120483176Y-99066027D01*
X120484933Y-98957436D01*
X120487051Y-98864334D01*
X120489660Y-98784891D01*
X120492890Y-98717273D01*
X120496869Y-98659649D01*
X120501728Y-98610185D01*
X120507597Y-98567050D01*
X120514604Y-98528410D01*
X120522880Y-98492434D01*
X120532554Y-98457289D01*
X120543756Y-98421142D01*
X120556616Y-98382161D01*
X120572090Y-98339091D01*
X120614994Y-98246871D01*
X120668735Y-98167099D01*
X120737576Y-98092965D01*
X120815185Y-98029405D01*
X120919761Y-97967725D01*
X121039244Y-97920202D01*
X121174508Y-97886567D01*
X121326426Y-97866552D01*
X121495872Y-97859889D01*
X121553890Y-97860287D01*
X121619398Y-97862335D01*
X121680693Y-97866704D01*
X121742097Y-97874035D01*
X121807932Y-97884969D01*
X121882520Y-97900147D01*
X121970184Y-97920209D01*
X122075245Y-97945797D01*
X122103806Y-97952820D01*
X122179054Y-97970776D01*
X122249388Y-97986820D01*
X122310567Y-98000028D01*
X122358354Y-98009474D01*
X122388511Y-98014231D01*
X122416783Y-98017910D01*
X122443060Y-98023187D01*
X122453059Y-98027942D01*
X122449952Y-98036781D01*
X122439194Y-98064072D01*
X122421864Y-98106906D01*
X122399126Y-98162425D01*
X122372147Y-98227772D01*
X122342090Y-98300089D01*
X122335493Y-98315879D01*
X122296907Y-98406484D01*
X122265768Y-98476217D01*
X122241917Y-98525405D01*
X122225198Y-98554374D01*
X122215454Y-98563452D01*
X122207766Y-98561405D01*
X122181415Y-98551760D01*
X122142982Y-98536190D01*
X122097822Y-98516815D01*
X122003293Y-98478814D01*
X121866480Y-98437780D01*
X121725289Y-98412612D01*
X121687314Y-98408611D01*
X121584059Y-98406447D01*
X121496952Y-98419622D01*
X121425129Y-98448756D01*
X121367731Y-98494466D01*
X121323896Y-98557372D01*
X121292762Y-98638092D01*
X121273470Y-98737245D01*
X121266050Y-98796224D01*
X121427936Y-98789445D01*
X121554495Y-98787813D01*
X121705951Y-98794194D01*
X121854396Y-98808777D01*
X121990578Y-98830882D01*
X122055245Y-98845821D01*
X122187490Y-98888741D01*
X122309762Y-98945340D01*
X122419685Y-99014017D01*
X122514883Y-99093170D01*
X122592980Y-99181196D01*
X122651599Y-99276493D01*
X122675595Y-99328864D01*
X122701232Y-99399590D01*
X122717478Y-99470812D01*
X122725822Y-99549712D01*
X122727690Y-99640282D01*
X122727755Y-99643467D01*
G37*
X130275614Y-97111792D02*
X130276059Y-97243011D01*
X130276362Y-97390216D01*
X130276548Y-97554349D01*
X130276642Y-97736352D01*
X130276671Y-97937165D01*
X130276661Y-98157732D01*
X130276636Y-98398992D01*
X130276622Y-98661889D01*
X130276622Y-98704040D01*
X130276646Y-98964668D01*
X130276685Y-99203796D01*
X130276708Y-99422360D01*
X130276687Y-99621295D01*
X130276593Y-99801535D01*
X130276395Y-99964015D01*
X130276063Y-100109670D01*
X130275569Y-100239434D01*
X130274883Y-100354243D01*
X130273976Y-100455030D01*
X130272817Y-100542730D01*
X130271378Y-100618279D01*
X130269629Y-100682611D01*
X130267540Y-100736661D01*
X130265083Y-100781363D01*
X130262227Y-100817652D01*
X130258943Y-100846463D01*
X130255202Y-100868731D01*
X130250974Y-100885390D01*
X130246229Y-100897375D01*
X130240939Y-100905621D01*
X130235073Y-100911062D01*
X130228602Y-100914634D01*
X130221497Y-100917270D01*
X130213728Y-100919906D01*
X130205266Y-100923477D01*
X130200908Y-100925145D01*
X130192395Y-100927111D01*
X130179694Y-100928911D01*
X130161885Y-100930555D01*
X130138049Y-100932047D01*
X130107266Y-100933397D01*
X130068617Y-100934611D01*
X130021182Y-100935697D01*
X129964043Y-100936661D01*
X129896279Y-100937511D01*
X129816971Y-100938253D01*
X129725199Y-100938897D01*
X129620044Y-100939447D01*
X129500587Y-100939913D01*
X129365908Y-100940300D01*
X129215088Y-100940616D01*
X129047206Y-100940869D01*
X128861345Y-100941066D01*
X128656583Y-100941213D01*
X128432002Y-100941318D01*
X128186682Y-100941389D01*
X127919704Y-100941432D01*
X127881321Y-100941437D01*
X127615922Y-100941480D01*
X127372050Y-100941525D01*
X127148783Y-100941548D01*
X126945196Y-100941524D01*
X126760367Y-100941430D01*
X126593373Y-100941243D01*
X126443290Y-100940939D01*
X126309196Y-100940494D01*
X126190166Y-100939885D01*
X126085279Y-100939089D01*
X125993610Y-100938080D01*
X125914237Y-100936837D01*
X125846237Y-100935335D01*
X125788686Y-100933551D01*
X125740662Y-100931461D01*
X125701240Y-100929042D01*
X125669499Y-100926270D01*
X125644514Y-100923121D01*
X125625364Y-100919572D01*
X125611123Y-100915598D01*
X125600871Y-100911178D01*
X125593682Y-100906286D01*
X125588635Y-100900900D01*
X125584805Y-100894996D01*
X125581271Y-100888549D01*
X125577108Y-100881537D01*
X125576025Y-100879687D01*
X125573813Y-100874180D01*
X125571786Y-100865868D01*
X125569938Y-100853809D01*
X125568261Y-100837063D01*
X125566745Y-100814687D01*
X125565383Y-100785740D01*
X125564167Y-100749280D01*
X125563089Y-100704367D01*
X125562140Y-100650057D01*
X125561312Y-100585410D01*
X125560597Y-100509484D01*
X125559987Y-100421338D01*
X125559942Y-100412493D01*
X125851378Y-100412493D01*
X125855260Y-100413765D01*
X125878520Y-100415791D01*
X125920874Y-100417626D01*
X125980132Y-100419227D01*
X126054107Y-100420549D01*
X126140610Y-100421548D01*
X126237452Y-100422180D01*
X126342445Y-100422400D01*
X127040651Y-100422400D01*
X128195090Y-100422400D01*
X128194456Y-100346200D01*
X128195574Y-100304160D01*
X128201304Y-100268334D01*
X128213890Y-100230772D01*
X128235568Y-100182577D01*
X128238789Y-100175897D01*
X128264188Y-100126359D01*
X128290996Y-100078369D01*
X128313917Y-100041466D01*
X128318485Y-100034834D01*
X128340516Y-100003593D01*
X128372693Y-99958654D01*
X128413457Y-99902147D01*
X128461245Y-99836204D01*
X128514498Y-99762957D01*
X128571655Y-99684536D01*
X128631155Y-99603072D01*
X128691437Y-99520698D01*
X128750940Y-99439544D01*
X128808105Y-99361742D01*
X128861370Y-99289423D01*
X128909174Y-99224718D01*
X128949957Y-99169759D01*
X128982158Y-99126676D01*
X129004216Y-99097602D01*
X129014571Y-99084667D01*
X129019044Y-99080351D01*
X129023236Y-99078312D01*
X129026643Y-99080926D01*
X129029325Y-99089986D01*
X129031341Y-99107285D01*
X129032748Y-99134614D01*
X129033605Y-99173765D01*
X129033970Y-99226533D01*
X129033903Y-99294707D01*
X129033460Y-99380082D01*
X129032702Y-99484449D01*
X129031685Y-99609600D01*
X129031308Y-99654300D01*
X129030169Y-99775395D01*
X129028972Y-99876688D01*
X129027636Y-99960262D01*
X129026077Y-100028204D01*
X129024215Y-100082599D01*
X129021966Y-100125532D01*
X129019248Y-100159089D01*
X129015979Y-100185355D01*
X129012078Y-100206416D01*
X129007461Y-100224357D01*
X128999192Y-100250770D01*
X128975583Y-100312772D01*
X128949685Y-100365573D01*
X128924535Y-100402645D01*
X128923339Y-100404075D01*
X128921168Y-100408424D01*
X128923328Y-100412026D01*
X128931644Y-100414951D01*
X128947940Y-100417269D01*
X128974041Y-100419051D01*
X129011771Y-100420367D01*
X129062956Y-100421286D01*
X129129420Y-100421878D01*
X129212987Y-100422215D01*
X129315483Y-100422365D01*
X129438732Y-100422400D01*
X129970296Y-100422400D01*
X129931523Y-100364783D01*
X129925432Y-100355893D01*
X129914976Y-100341069D01*
X129905579Y-100327422D01*
X129897183Y-100313765D01*
X129889733Y-100298911D01*
X129883173Y-100281670D01*
X129877446Y-100260855D01*
X129872495Y-100235280D01*
X129868266Y-100203755D01*
X129864701Y-100165093D01*
X129861744Y-100118107D01*
X129859340Y-100061608D01*
X129857431Y-99994409D01*
X129855962Y-99915322D01*
X129854876Y-99823160D01*
X129854118Y-99716734D01*
X129853630Y-99594857D01*
X129853358Y-99456341D01*
X129853243Y-99299999D01*
X129853231Y-99124642D01*
X129853265Y-98929082D01*
X129853289Y-98712133D01*
X129853280Y-98589513D01*
X129853243Y-98384447D01*
X129853227Y-98200116D01*
X129853288Y-98035334D01*
X129853484Y-97888916D01*
X129853870Y-97759674D01*
X129854505Y-97646422D01*
X129855444Y-97547975D01*
X129856745Y-97463144D01*
X129858464Y-97390744D01*
X129860659Y-97329589D01*
X129863385Y-97278492D01*
X129866701Y-97236267D01*
X129870662Y-97201727D01*
X129875325Y-97173686D01*
X129880747Y-97150958D01*
X129886986Y-97132356D01*
X129894097Y-97116693D01*
X129902138Y-97102784D01*
X129911166Y-97089441D01*
X129921236Y-97075479D01*
X129932407Y-97059711D01*
X129972197Y-97001867D01*
X128912314Y-97001867D01*
X128950311Y-97064966D01*
X128964993Y-97090005D01*
X128979531Y-97117586D01*
X128991627Y-97145700D01*
X129001532Y-97176551D01*
X129009494Y-97212344D01*
X129015761Y-97255283D01*
X129020582Y-97307574D01*
X129024206Y-97371419D01*
X129026881Y-97449025D01*
X129028857Y-97542594D01*
X129030382Y-97654333D01*
X129031704Y-97786445D01*
X129032613Y-97906434D01*
X129033020Y-98023063D01*
X129032767Y-98118531D01*
X129031857Y-98192556D01*
X129030293Y-98244855D01*
X129028079Y-98275149D01*
X129025220Y-98283156D01*
X129022161Y-98279858D01*
X129004006Y-98258408D01*
X128974275Y-98221889D01*
X128934639Y-98172442D01*
X128886771Y-98112207D01*
X128832343Y-98043327D01*
X128773027Y-97967943D01*
X128710495Y-97888196D01*
X128646421Y-97806228D01*
X128582475Y-97724180D01*
X128520331Y-97644194D01*
X128461661Y-97568411D01*
X128408137Y-97498973D01*
X128361430Y-97438021D01*
X128323214Y-97387696D01*
X128295161Y-97350140D01*
X128278943Y-97327495D01*
X128233635Y-97255212D01*
X128193661Y-97175463D01*
X128172130Y-97107188D01*
X128168827Y-97049844D01*
X128174116Y-97001867D01*
X127042356Y-97002117D01*
X127081867Y-97032722D01*
X127091248Y-97040089D01*
X127154183Y-97094438D01*
X127222997Y-97162259D01*
X127299596Y-97245516D01*
X127385888Y-97346178D01*
X127403052Y-97366847D01*
X127443833Y-97416409D01*
X127493588Y-97477326D01*
X127550955Y-97547898D01*
X127614569Y-97626424D01*
X127683069Y-97711204D01*
X127755090Y-97800537D01*
X127829270Y-97892722D01*
X127844517Y-97911702D01*
X127904246Y-97986060D01*
X127978653Y-98078848D01*
X128051131Y-98169388D01*
X128120314Y-98255978D01*
X128184841Y-98336918D01*
X128243347Y-98410506D01*
X128294470Y-98475044D01*
X128336847Y-98528829D01*
X128369115Y-98570162D01*
X128389910Y-98597342D01*
X128397869Y-98608668D01*
X128396111Y-98612771D01*
X128383230Y-98633334D01*
X128358885Y-98669561D01*
X128324247Y-98719824D01*
X128280486Y-98782492D01*
X128228775Y-98855936D01*
X128170284Y-98938527D01*
X128106184Y-99028636D01*
X128037646Y-99124631D01*
X127965843Y-99224885D01*
X127891944Y-99327768D01*
X127817121Y-99431650D01*
X127742545Y-99534901D01*
X127669387Y-99635892D01*
X127598819Y-99732994D01*
X127532011Y-99824577D01*
X127470135Y-99909011D01*
X127414361Y-99984667D01*
X127365862Y-100049916D01*
X127325807Y-100103128D01*
X127295369Y-100142673D01*
X127274944Y-100168026D01*
X127228899Y-100222295D01*
X127178612Y-100278775D01*
X127131815Y-100328669D01*
X127040651Y-100422400D01*
X126342445Y-100422400D01*
X126411356Y-100422349D01*
X126509607Y-100422091D01*
X126599030Y-100421637D01*
X126677333Y-100421010D01*
X126742223Y-100420235D01*
X126791411Y-100419335D01*
X126822604Y-100418334D01*
X126833511Y-100417257D01*
X126832322Y-100414037D01*
X126822176Y-100396452D01*
X126805040Y-100370158D01*
X126796540Y-100357691D01*
X126787329Y-100343622D01*
X126779233Y-100329351D01*
X126772185Y-100313479D01*
X126766117Y-100294609D01*
X126760961Y-100271341D01*
X126756651Y-100242278D01*
X126753119Y-100206021D01*
X126750297Y-100161170D01*
X126748118Y-100106328D01*
X126746514Y-100040097D01*
X126745419Y-99961077D01*
X126744765Y-99867871D01*
X126744484Y-99759079D01*
X126744509Y-99633303D01*
X126744772Y-99489145D01*
X126745206Y-99325207D01*
X126745745Y-99140089D01*
X126746279Y-98961232D01*
X126746805Y-98802374D01*
X126747350Y-98663316D01*
X126747945Y-98542665D01*
X126748619Y-98439028D01*
X126749403Y-98351011D01*
X126750326Y-98277223D01*
X126751419Y-98216269D01*
X126752712Y-98166757D01*
X126754235Y-98127293D01*
X126756019Y-98096484D01*
X126758092Y-98072938D01*
X126760486Y-98055260D01*
X126763230Y-98042059D01*
X126766356Y-98031940D01*
X126769892Y-98023511D01*
X126773791Y-98015375D01*
X126793438Y-97978544D01*
X126812225Y-97948391D01*
X126813272Y-97946908D01*
X126827602Y-97924659D01*
X126833511Y-97911702D01*
X126832504Y-97911249D01*
X126815305Y-97909803D01*
X126778656Y-97908480D01*
X126724962Y-97907316D01*
X126656630Y-97906347D01*
X126576064Y-97905611D01*
X126485670Y-97905142D01*
X126387853Y-97904978D01*
X125942195Y-97904978D01*
X125939120Y-99081845D01*
X125936045Y-100258711D01*
X125909407Y-100317622D01*
X125897485Y-100342183D01*
X125880246Y-100372434D01*
X125867074Y-100389560D01*
X125859076Y-100397591D01*
X125851378Y-100412493D01*
X125559942Y-100412493D01*
X125559474Y-100320029D01*
X125559050Y-100204617D01*
X125558706Y-100074160D01*
X125558434Y-99927716D01*
X125558227Y-99764344D01*
X125558076Y-99583101D01*
X125557972Y-99383048D01*
X125557908Y-99163241D01*
X125557876Y-98922739D01*
X125557867Y-98660602D01*
X125557867Y-96469031D01*
X125596249Y-96430649D01*
X125623355Y-96406911D01*
X125650253Y-96395111D01*
X125686560Y-96392267D01*
X125738489Y-96392267D01*
X125738489Y-96480206D01*
X125740427Y-96530102D01*
X125759199Y-96640523D01*
X125796217Y-96741987D01*
X125849369Y-96833152D01*
X125916546Y-96912673D01*
X125995638Y-96979205D01*
X126084534Y-97031406D01*
X126181125Y-97067930D01*
X126283300Y-97087434D01*
X126388950Y-97088573D01*
X126495964Y-97070005D01*
X126602232Y-97030384D01*
X126699219Y-96972516D01*
X126784293Y-96897684D01*
X126853015Y-96809615D01*
X126903918Y-96710616D01*
X126935535Y-96602993D01*
X126946400Y-96489054D01*
X126946400Y-96392267D01*
X128566753Y-96392267D01*
X128777897Y-96392280D01*
X128982020Y-96392330D01*
X129165686Y-96392430D01*
X129329991Y-96392592D01*
X129476029Y-96392829D01*
X129604894Y-96393153D01*
X129717683Y-96393575D01*
X129815488Y-96394109D01*
X129899404Y-96394767D01*
X129970527Y-96395561D01*
X130029950Y-96396504D01*
X130078768Y-96397608D01*
X130118077Y-96398884D01*
X130148969Y-96400347D01*
X130172541Y-96402007D01*
X130189886Y-96403878D01*
X130202099Y-96405972D01*
X130210275Y-96408300D01*
X130215508Y-96410876D01*
X130221504Y-96414445D01*
X130228279Y-96417978D01*
X130234478Y-96421488D01*
X130240126Y-96425918D01*
X130245247Y-96432208D01*
X130249869Y-96441301D01*
X130254015Y-96454139D01*
X130257713Y-96471662D01*
X130260987Y-96494813D01*
X130263863Y-96524534D01*
X130266367Y-96561765D01*
X130268524Y-96607449D01*
X130270360Y-96662527D01*
X130271900Y-96727941D01*
X130273170Y-96804633D01*
X130274195Y-96893544D01*
X130275001Y-96995617D01*
X130275034Y-97001867D01*
X130275614Y-97111792D01*
G36*
X130275614Y-97111792D02*
G01*
X130276059Y-97243011D01*
X130276362Y-97390216D01*
X130276548Y-97554349D01*
X130276642Y-97736352D01*
X130276671Y-97937165D01*
X130276661Y-98157732D01*
X130276636Y-98398992D01*
X130276622Y-98661889D01*
X130276622Y-98704040D01*
X130276646Y-98964668D01*
X130276685Y-99203796D01*
X130276708Y-99422360D01*
X130276687Y-99621295D01*
X130276593Y-99801535D01*
X130276395Y-99964015D01*
X130276063Y-100109670D01*
X130275569Y-100239434D01*
X130274883Y-100354243D01*
X130273976Y-100455030D01*
X130272817Y-100542730D01*
X130271378Y-100618279D01*
X130269629Y-100682611D01*
X130267540Y-100736661D01*
X130265083Y-100781363D01*
X130262227Y-100817652D01*
X130258943Y-100846463D01*
X130255202Y-100868731D01*
X130250974Y-100885390D01*
X130246229Y-100897375D01*
X130240939Y-100905621D01*
X130235073Y-100911062D01*
X130228602Y-100914634D01*
X130221497Y-100917270D01*
X130213728Y-100919906D01*
X130205266Y-100923477D01*
X130200908Y-100925145D01*
X130192395Y-100927111D01*
X130179694Y-100928911D01*
X130161885Y-100930555D01*
X130138049Y-100932047D01*
X130107266Y-100933397D01*
X130068617Y-100934611D01*
X130021182Y-100935697D01*
X129964043Y-100936661D01*
X129896279Y-100937511D01*
X129816971Y-100938253D01*
X129725199Y-100938897D01*
X129620044Y-100939447D01*
X129500587Y-100939913D01*
X129365908Y-100940300D01*
X129215088Y-100940616D01*
X129047206Y-100940869D01*
X128861345Y-100941066D01*
X128656583Y-100941213D01*
X128432002Y-100941318D01*
X128186682Y-100941389D01*
X127919704Y-100941432D01*
X127881321Y-100941437D01*
X127615922Y-100941480D01*
X127372050Y-100941525D01*
X127148783Y-100941548D01*
X126945196Y-100941524D01*
X126760367Y-100941430D01*
X126593373Y-100941243D01*
X126443290Y-100940939D01*
X126309196Y-100940494D01*
X126190166Y-100939885D01*
X126085279Y-100939089D01*
X125993610Y-100938080D01*
X125914237Y-100936837D01*
X125846237Y-100935335D01*
X125788686Y-100933551D01*
X125740662Y-100931461D01*
X125701240Y-100929042D01*
X125669499Y-100926270D01*
X125644514Y-100923121D01*
X125625364Y-100919572D01*
X125611123Y-100915598D01*
X125600871Y-100911178D01*
X125593682Y-100906286D01*
X125588635Y-100900900D01*
X125584805Y-100894996D01*
X125581271Y-100888549D01*
X125577108Y-100881537D01*
X125576025Y-100879687D01*
X125573813Y-100874180D01*
X125571786Y-100865868D01*
X125569938Y-100853809D01*
X125568261Y-100837063D01*
X125566745Y-100814687D01*
X125565383Y-100785740D01*
X125564167Y-100749280D01*
X125563089Y-100704367D01*
X125562140Y-100650057D01*
X125561312Y-100585410D01*
X125560597Y-100509484D01*
X125559987Y-100421338D01*
X125559942Y-100412493D01*
X125851378Y-100412493D01*
X125855260Y-100413765D01*
X125878520Y-100415791D01*
X125920874Y-100417626D01*
X125980132Y-100419227D01*
X126054107Y-100420549D01*
X126140610Y-100421548D01*
X126237452Y-100422180D01*
X126342445Y-100422400D01*
X127040651Y-100422400D01*
X128195090Y-100422400D01*
X128194456Y-100346200D01*
X128195574Y-100304160D01*
X128201304Y-100268334D01*
X128213890Y-100230772D01*
X128235568Y-100182577D01*
X128238789Y-100175897D01*
X128264188Y-100126359D01*
X128290996Y-100078369D01*
X128313917Y-100041466D01*
X128318485Y-100034834D01*
X128340516Y-100003593D01*
X128372693Y-99958654D01*
X128413457Y-99902147D01*
X128461245Y-99836204D01*
X128514498Y-99762957D01*
X128571655Y-99684536D01*
X128631155Y-99603072D01*
X128691437Y-99520698D01*
X128750940Y-99439544D01*
X128808105Y-99361742D01*
X128861370Y-99289423D01*
X128909174Y-99224718D01*
X128949957Y-99169759D01*
X128982158Y-99126676D01*
X129004216Y-99097602D01*
X129014571Y-99084667D01*
X129019044Y-99080351D01*
X129023236Y-99078312D01*
X129026643Y-99080926D01*
X129029325Y-99089986D01*
X129031341Y-99107285D01*
X129032748Y-99134614D01*
X129033605Y-99173765D01*
X129033970Y-99226533D01*
X129033903Y-99294707D01*
X129033460Y-99380082D01*
X129032702Y-99484449D01*
X129031685Y-99609600D01*
X129031308Y-99654300D01*
X129030169Y-99775395D01*
X129028972Y-99876688D01*
X129027636Y-99960262D01*
X129026077Y-100028204D01*
X129024215Y-100082599D01*
X129021966Y-100125532D01*
X129019248Y-100159089D01*
X129015979Y-100185355D01*
X129012078Y-100206416D01*
X129007461Y-100224357D01*
X128999192Y-100250770D01*
X128975583Y-100312772D01*
X128949685Y-100365573D01*
X128924535Y-100402645D01*
X128923339Y-100404075D01*
X128921168Y-100408424D01*
X128923328Y-100412026D01*
X128931644Y-100414951D01*
X128947940Y-100417269D01*
X128974041Y-100419051D01*
X129011771Y-100420367D01*
X129062956Y-100421286D01*
X129129420Y-100421878D01*
X129212987Y-100422215D01*
X129315483Y-100422365D01*
X129438732Y-100422400D01*
X129970296Y-100422400D01*
X129931523Y-100364783D01*
X129925432Y-100355893D01*
X129914976Y-100341069D01*
X129905579Y-100327422D01*
X129897183Y-100313765D01*
X129889733Y-100298911D01*
X129883173Y-100281670D01*
X129877446Y-100260855D01*
X129872495Y-100235280D01*
X129868266Y-100203755D01*
X129864701Y-100165093D01*
X129861744Y-100118107D01*
X129859340Y-100061608D01*
X129857431Y-99994409D01*
X129855962Y-99915322D01*
X129854876Y-99823160D01*
X129854118Y-99716734D01*
X129853630Y-99594857D01*
X129853358Y-99456341D01*
X129853243Y-99299999D01*
X129853231Y-99124642D01*
X129853265Y-98929082D01*
X129853289Y-98712133D01*
X129853280Y-98589513D01*
X129853243Y-98384447D01*
X129853227Y-98200116D01*
X129853288Y-98035334D01*
X129853484Y-97888916D01*
X129853870Y-97759674D01*
X129854505Y-97646422D01*
X129855444Y-97547975D01*
X129856745Y-97463144D01*
X129858464Y-97390744D01*
X129860659Y-97329589D01*
X129863385Y-97278492D01*
X129866701Y-97236267D01*
X129870662Y-97201727D01*
X129875325Y-97173686D01*
X129880747Y-97150958D01*
X129886986Y-97132356D01*
X129894097Y-97116693D01*
X129902138Y-97102784D01*
X129911166Y-97089441D01*
X129921236Y-97075479D01*
X129932407Y-97059711D01*
X129972197Y-97001867D01*
X128912314Y-97001867D01*
X128950311Y-97064966D01*
X128964993Y-97090005D01*
X128979531Y-97117586D01*
X128991627Y-97145700D01*
X129001532Y-97176551D01*
X129009494Y-97212344D01*
X129015761Y-97255283D01*
X129020582Y-97307574D01*
X129024206Y-97371419D01*
X129026881Y-97449025D01*
X129028857Y-97542594D01*
X129030382Y-97654333D01*
X129031704Y-97786445D01*
X129032613Y-97906434D01*
X129033020Y-98023063D01*
X129032767Y-98118531D01*
X129031857Y-98192556D01*
X129030293Y-98244855D01*
X129028079Y-98275149D01*
X129025220Y-98283156D01*
X129022161Y-98279858D01*
X129004006Y-98258408D01*
X128974275Y-98221889D01*
X128934639Y-98172442D01*
X128886771Y-98112207D01*
X128832343Y-98043327D01*
X128773027Y-97967943D01*
X128710495Y-97888196D01*
X128646421Y-97806228D01*
X128582475Y-97724180D01*
X128520331Y-97644194D01*
X128461661Y-97568411D01*
X128408137Y-97498973D01*
X128361430Y-97438021D01*
X128323214Y-97387696D01*
X128295161Y-97350140D01*
X128278943Y-97327495D01*
X128233635Y-97255212D01*
X128193661Y-97175463D01*
X128172130Y-97107188D01*
X128168827Y-97049844D01*
X128174116Y-97001867D01*
X127042356Y-97002117D01*
X127081867Y-97032722D01*
X127091248Y-97040089D01*
X127154183Y-97094438D01*
X127222997Y-97162259D01*
X127299596Y-97245516D01*
X127385888Y-97346178D01*
X127403052Y-97366847D01*
X127443833Y-97416409D01*
X127493588Y-97477326D01*
X127550955Y-97547898D01*
X127614569Y-97626424D01*
X127683069Y-97711204D01*
X127755090Y-97800537D01*
X127829270Y-97892722D01*
X127844517Y-97911702D01*
X127904246Y-97986060D01*
X127978653Y-98078848D01*
X128051131Y-98169388D01*
X128120314Y-98255978D01*
X128184841Y-98336918D01*
X128243347Y-98410506D01*
X128294470Y-98475044D01*
X128336847Y-98528829D01*
X128369115Y-98570162D01*
X128389910Y-98597342D01*
X128397869Y-98608668D01*
X128396111Y-98612771D01*
X128383230Y-98633334D01*
X128358885Y-98669561D01*
X128324247Y-98719824D01*
X128280486Y-98782492D01*
X128228775Y-98855936D01*
X128170284Y-98938527D01*
X128106184Y-99028636D01*
X128037646Y-99124631D01*
X127965843Y-99224885D01*
X127891944Y-99327768D01*
X127817121Y-99431650D01*
X127742545Y-99534901D01*
X127669387Y-99635892D01*
X127598819Y-99732994D01*
X127532011Y-99824577D01*
X127470135Y-99909011D01*
X127414361Y-99984667D01*
X127365862Y-100049916D01*
X127325807Y-100103128D01*
X127295369Y-100142673D01*
X127274944Y-100168026D01*
X127228899Y-100222295D01*
X127178612Y-100278775D01*
X127131815Y-100328669D01*
X127040651Y-100422400D01*
X126342445Y-100422400D01*
X126411356Y-100422349D01*
X126509607Y-100422091D01*
X126599030Y-100421637D01*
X126677333Y-100421010D01*
X126742223Y-100420235D01*
X126791411Y-100419335D01*
X126822604Y-100418334D01*
X126833511Y-100417257D01*
X126832322Y-100414037D01*
X126822176Y-100396452D01*
X126805040Y-100370158D01*
X126796540Y-100357691D01*
X126787329Y-100343622D01*
X126779233Y-100329351D01*
X126772185Y-100313479D01*
X126766117Y-100294609D01*
X126760961Y-100271341D01*
X126756651Y-100242278D01*
X126753119Y-100206021D01*
X126750297Y-100161170D01*
X126748118Y-100106328D01*
X126746514Y-100040097D01*
X126745419Y-99961077D01*
X126744765Y-99867871D01*
X126744484Y-99759079D01*
X126744509Y-99633303D01*
X126744772Y-99489145D01*
X126745206Y-99325207D01*
X126745745Y-99140089D01*
X126746279Y-98961232D01*
X126746805Y-98802374D01*
X126747350Y-98663316D01*
X126747945Y-98542665D01*
X126748619Y-98439028D01*
X126749403Y-98351011D01*
X126750326Y-98277223D01*
X126751419Y-98216269D01*
X126752712Y-98166757D01*
X126754235Y-98127293D01*
X126756019Y-98096484D01*
X126758092Y-98072938D01*
X126760486Y-98055260D01*
X126763230Y-98042059D01*
X126766356Y-98031940D01*
X126769892Y-98023511D01*
X126773791Y-98015375D01*
X126793438Y-97978544D01*
X126812225Y-97948391D01*
X126813272Y-97946908D01*
X126827602Y-97924659D01*
X126833511Y-97911702D01*
X126832504Y-97911249D01*
X126815305Y-97909803D01*
X126778656Y-97908480D01*
X126724962Y-97907316D01*
X126656630Y-97906347D01*
X126576064Y-97905611D01*
X126485670Y-97905142D01*
X126387853Y-97904978D01*
X125942195Y-97904978D01*
X125939120Y-99081845D01*
X125936045Y-100258711D01*
X125909407Y-100317622D01*
X125897485Y-100342183D01*
X125880246Y-100372434D01*
X125867074Y-100389560D01*
X125859076Y-100397591D01*
X125851378Y-100412493D01*
X125559942Y-100412493D01*
X125559474Y-100320029D01*
X125559050Y-100204617D01*
X125558706Y-100074160D01*
X125558434Y-99927716D01*
X125558227Y-99764344D01*
X125558076Y-99583101D01*
X125557972Y-99383048D01*
X125557908Y-99163241D01*
X125557876Y-98922739D01*
X125557867Y-98660602D01*
X125557867Y-96469031D01*
X125596249Y-96430649D01*
X125623355Y-96406911D01*
X125650253Y-96395111D01*
X125686560Y-96392267D01*
X125738489Y-96392267D01*
X125738489Y-96480206D01*
X125740427Y-96530102D01*
X125759199Y-96640523D01*
X125796217Y-96741987D01*
X125849369Y-96833152D01*
X125916546Y-96912673D01*
X125995638Y-96979205D01*
X126084534Y-97031406D01*
X126181125Y-97067930D01*
X126283300Y-97087434D01*
X126388950Y-97088573D01*
X126495964Y-97070005D01*
X126602232Y-97030384D01*
X126699219Y-96972516D01*
X126784293Y-96897684D01*
X126853015Y-96809615D01*
X126903918Y-96710616D01*
X126935535Y-96602993D01*
X126946400Y-96489054D01*
X126946400Y-96392267D01*
X128566753Y-96392267D01*
X128777897Y-96392280D01*
X128982020Y-96392330D01*
X129165686Y-96392430D01*
X129329991Y-96392592D01*
X129476029Y-96392829D01*
X129604894Y-96393153D01*
X129717683Y-96393575D01*
X129815488Y-96394109D01*
X129899404Y-96394767D01*
X129970527Y-96395561D01*
X130029950Y-96396504D01*
X130078768Y-96397608D01*
X130118077Y-96398884D01*
X130148969Y-96400347D01*
X130172541Y-96402007D01*
X130189886Y-96403878D01*
X130202099Y-96405972D01*
X130210275Y-96408300D01*
X130215508Y-96410876D01*
X130221504Y-96414445D01*
X130228279Y-96417978D01*
X130234478Y-96421488D01*
X130240126Y-96425918D01*
X130245247Y-96432208D01*
X130249869Y-96441301D01*
X130254015Y-96454139D01*
X130257713Y-96471662D01*
X130260987Y-96494813D01*
X130263863Y-96524534D01*
X130266367Y-96561765D01*
X130268524Y-96607449D01*
X130270360Y-96662527D01*
X130271900Y-96727941D01*
X130273170Y-96804633D01*
X130274195Y-96893544D01*
X130275001Y-96995617D01*
X130275034Y-97001867D01*
X130275614Y-97111792D01*
G37*
%TD*%
M02*
