%TF.GenerationSoftware,KiCad,Pcbnew,9.0.6*%
%TF.CreationDate,2025-11-19T10:10:40-08:00*%
%TF.ProjectId,Tutorial01,5475746f-7269-4616-9c30-312e6b696361,rev?*%
%TF.SameCoordinates,Original*%
%TF.FileFunction,Copper,L2,Bot*%
%TF.FilePolarity,Positive*%
%FSLAX46Y46*%
G04 Gerber Fmt 4.6, Leading zero omitted, Abs format (unit mm)*
G04 Created by KiCad (PCBNEW 9.0.6) date 2025-11-19 10:10:40*
%MOMM*%
%LPD*%
G01*
G04 APERTURE LIST*
%TA.AperFunction,EtchedComponent*%
%ADD10C,0.000000*%
%TD*%
%TA.AperFunction,ComponentPad*%
%ADD11R,3.000000X3.000000*%
%TD*%
%TA.AperFunction,ComponentPad*%
%ADD12C,3.000000*%
%TD*%
%TA.AperFunction,ComponentPad*%
%ADD13R,1.800000X1.800000*%
%TD*%
%TA.AperFunction,ComponentPad*%
%ADD14C,1.800000*%
%TD*%
%TA.AperFunction,ComponentPad*%
%ADD15C,1.600000*%
%TD*%
G04 APERTURE END LIST*
D10*
%TA.AperFunction,EtchedComponent*%
%TO.C,G\u002A\u002A\u002A*%
G36*
X113644397Y-100859463D02*
G01*
X113612057Y-101180143D01*
X113530782Y-101222417D01*
X113431916Y-101000001D01*
X113451416Y-100856951D01*
X113612057Y-100819859D01*
X113644397Y-100859463D01*
G37*
%TD.AperFunction*%
%TA.AperFunction,EtchedComponent*%
G36*
X108519918Y-96615381D02*
G01*
X108748228Y-96879256D01*
X108528746Y-97113874D01*
X107915072Y-97195690D01*
X107833488Y-97192874D01*
X107410823Y-97135061D01*
X107421365Y-97037504D01*
X107553141Y-96963675D01*
X107649828Y-96721071D01*
X107717458Y-96607199D01*
X108143534Y-96541490D01*
X108519918Y-96615381D01*
G37*
%TD.AperFunction*%
%TA.AperFunction,EtchedComponent*%
G36*
X108747272Y-100459497D02*
G01*
X108816966Y-100844140D01*
X108771933Y-101123739D01*
X108659342Y-101067554D01*
X108425100Y-100853987D01*
X107870036Y-100729788D01*
X107617506Y-100723944D01*
X107252121Y-100654481D01*
X107394622Y-100535117D01*
X108027660Y-100401937D01*
X108394851Y-100363118D01*
X108747272Y-100459497D01*
G37*
%TD.AperFunction*%
%TA.AperFunction,EtchedComponent*%
G36*
X108102187Y-98986596D02*
G01*
X108611567Y-99169009D01*
X108838299Y-99379108D01*
X108716030Y-99565305D01*
X108271147Y-99809155D01*
X107743828Y-99919150D01*
X107643635Y-99862300D01*
X107659731Y-99513831D01*
X107692663Y-99301234D01*
X107471109Y-99108512D01*
X107340152Y-99094666D01*
X107275208Y-98960254D01*
X107566381Y-98900527D01*
X108102187Y-98986596D01*
G37*
%TD.AperFunction*%
%TA.AperFunction,EtchedComponent*%
G36*
X107600917Y-97778664D02*
G01*
X107622341Y-98027660D01*
X107629955Y-98190164D01*
X107989195Y-98297873D01*
X108308897Y-98240569D01*
X108659342Y-97960107D01*
X108747763Y-97839152D01*
X108816966Y-98095214D01*
X108716988Y-98417513D01*
X108207802Y-98568086D01*
X107783811Y-98530124D01*
X107397164Y-98387944D01*
X107326961Y-98306600D01*
X107234915Y-97935029D01*
X107503182Y-97757448D01*
X107600917Y-97778664D01*
G37*
%TD.AperFunction*%
%TA.AperFunction,EtchedComponent*%
G36*
X108488712Y-103987605D02*
G01*
X108723401Y-104098524D01*
X108568086Y-104377660D01*
X108392207Y-104652301D01*
X108535000Y-104782980D01*
X108628523Y-104796203D01*
X108838299Y-105053192D01*
X108634391Y-105237523D01*
X108095213Y-105319267D01*
X108009875Y-105318077D01*
X107607787Y-105253965D01*
X107716278Y-105084355D01*
X107750975Y-105061793D01*
X107928508Y-104815499D01*
X107659003Y-104480514D01*
X107532411Y-104367808D01*
X107279595Y-104091695D01*
X107433409Y-103988077D01*
X108060746Y-103972341D01*
X108488712Y-103987605D01*
G37*
%TD.AperFunction*%
%TA.AperFunction,EtchedComponent*%
G36*
X108188811Y-101665455D02*
G01*
X108470486Y-101939152D01*
X108654568Y-101757408D01*
X108751728Y-101613259D01*
X108816966Y-101878192D01*
X108764745Y-102131821D01*
X108432979Y-102351065D01*
X108246521Y-102320579D01*
X108027660Y-102080852D01*
X108016664Y-102006790D01*
X107741500Y-101810639D01*
X107632925Y-101844697D01*
X107648144Y-102122602D01*
X107714323Y-102278677D01*
X107515864Y-102233652D01*
X107329888Y-102009502D01*
X107527450Y-101627076D01*
X107608711Y-101532410D01*
X107889090Y-101368494D01*
X108188811Y-101665455D01*
G37*
%TD.AperFunction*%
%TA.AperFunction,EtchedComponent*%
G36*
X108118715Y-102692190D02*
G01*
X108316865Y-103074337D01*
X108326746Y-103257200D01*
X108389513Y-103386930D01*
X108568086Y-103026597D01*
X108681834Y-102771036D01*
X108787561Y-102673177D01*
X108819307Y-103094150D01*
X108756478Y-103473335D01*
X108432979Y-103702129D01*
X108243957Y-103655049D01*
X108027660Y-103296809D01*
X107995282Y-103110097D01*
X107741500Y-102891490D01*
X107643765Y-102912706D01*
X107622341Y-103161703D01*
X107662968Y-103267701D01*
X107480664Y-103431916D01*
X107352231Y-103408637D01*
X107261073Y-103184027D01*
X107456677Y-102873932D01*
X107847392Y-102669018D01*
X108118715Y-102692190D01*
G37*
%TD.AperFunction*%
%TA.AperFunction,EtchedComponent*%
G36*
X112690384Y-97780170D02*
G01*
X113051538Y-97900296D01*
X113055506Y-98162767D01*
X112982542Y-98342943D01*
X112740854Y-98938536D01*
X112728262Y-99161145D01*
X113028737Y-99477262D01*
X113110184Y-99505985D01*
X113355991Y-99469901D01*
X113311173Y-99039258D01*
X113296035Y-98893583D01*
X113438722Y-99031044D01*
X113740169Y-99556837D01*
X114325247Y-100680694D01*
X113733289Y-102139183D01*
X113382588Y-102949838D01*
X113075880Y-103399165D01*
X113029112Y-103422284D01*
X112681726Y-103594007D01*
X112060469Y-103661449D01*
X111991752Y-103665450D01*
X111896401Y-103665929D01*
X111400386Y-103668422D01*
X111021933Y-103516537D01*
X110712912Y-103096511D01*
X110329838Y-102295059D01*
X110044544Y-101667152D01*
X109774785Y-101073523D01*
X109664503Y-100830964D01*
X109734871Y-100639701D01*
X109771245Y-100553357D01*
X110267434Y-100553357D01*
X110320871Y-101400804D01*
X110688189Y-102417240D01*
X110948085Y-102930503D01*
X111340772Y-103327973D01*
X111896401Y-103430538D01*
X112257709Y-103415455D01*
X112533290Y-103259072D01*
X112470148Y-102823937D01*
X112254177Y-102241745D01*
X111911343Y-101485962D01*
X111874526Y-101411934D01*
X111787089Y-101107636D01*
X112138809Y-101107636D01*
X112213649Y-101558321D01*
X112566308Y-102272525D01*
X113029112Y-103139729D01*
X113508767Y-101980033D01*
X113640052Y-101642271D01*
X113833870Y-100816065D01*
X113727297Y-100167083D01*
X113466171Y-99513831D01*
X113406230Y-100189363D01*
X113379265Y-100694994D01*
X113389920Y-101405320D01*
X113398040Y-101520482D01*
X113361016Y-101773085D01*
X113144820Y-101540426D01*
X113066584Y-101435306D01*
X112949800Y-101372230D01*
X113037845Y-101776925D01*
X113044971Y-101802370D01*
X113101870Y-102228098D01*
X112898544Y-102220318D01*
X112722910Y-101948671D01*
X112758810Y-101315062D01*
X113065298Y-100282019D01*
X113133407Y-100048902D01*
X113041728Y-100019178D01*
X112661131Y-100380724D01*
X112352115Y-100714400D01*
X112215958Y-100965410D01*
X112138809Y-101107636D01*
X111787089Y-101107636D01*
X111679885Y-100734545D01*
X111787711Y-100324469D01*
X112080852Y-100324469D01*
X112215958Y-100459575D01*
X112351065Y-100324469D01*
X112215958Y-100189363D01*
X112080852Y-100324469D01*
X111787711Y-100324469D01*
X111857335Y-100059677D01*
X111859455Y-100055038D01*
X112132196Y-99647467D01*
X112343889Y-99637327D01*
X112373053Y-99670433D01*
X112472878Y-99512561D01*
X112513192Y-98969463D01*
X112485765Y-98448041D01*
X112309966Y-98106706D01*
X111878492Y-98027660D01*
X111565106Y-98077783D01*
X111142321Y-98418067D01*
X110722511Y-99176065D01*
X110530551Y-99622632D01*
X110267434Y-100553357D01*
X109771245Y-100553357D01*
X109972098Y-100076569D01*
X110321061Y-99277241D01*
X110412773Y-99070465D01*
X110773212Y-98322170D01*
X111084857Y-97931169D01*
X111483856Y-97781561D01*
X112106354Y-97757448D01*
X112690384Y-97780170D01*
G37*
%TD.AperFunction*%
%TD*%
D11*
%TO.P,Batterie1,1,+*%
%TO.N,Net-(Batterie1-+)*%
X123499999Y-113750000D03*
D12*
%TO.P,Batterie1,2,-*%
%TO.N,Net-(Batterie1--)*%
X123499999Y-93260000D03*
%TD*%
D13*
%TO.P,D1,1,K*%
%TO.N,Net-(D1-K)*%
X134000000Y-113500000D03*
D14*
%TO.P,D1,2,A*%
%TO.N,Net-(Batterie1-+)*%
X131460000Y-113500000D03*
%TD*%
D15*
%TO.P,R1,1*%
%TO.N,Net-(D1-K)*%
X141000000Y-106000000D03*
%TO.P,R1,2*%
%TO.N,Net-(Batterie1--)*%
X141000000Y-95840000D03*
%TD*%
M02*
